<svg width="1600" height="400" viewBox="0 0 1600 400" fill="none" xmlns="http://www.w3.org/2000/svg">
<g clip-path="url(#clip0_1_2)">
<rect width="1600" height="400" fill="white"/>
<path d="M1600 0H-1V400H1600V0Z" fill="url(#paint0_linear_1_2)"/>
<path opacity="0.14" d="M418.346 216.32C449.835 116.618 550.26 51.5028 656.84 74.2887C755.05 95.2658 820.243 174.63 819.999 268.112L569.658 356.101L418.346 216.342V216.32Z" fill="#DD484D"/>
<path opacity="0.25" d="M444.963 223.665L601.922 343.197L784.48 282.428V267.517C784.568 190.997 730.802 125.971 649.909 108.677C562.107 89.9058 470.784 142.073 444.963 223.665Z" fill="#EA885E"/>
<path d="M481.26 242.216C501.256 178.866 571.564 138.235 639.082 152.661C701.285 165.962 742.54 216.342 742.363 275.722L601.946 316.772L481.26 242.194V242.216Z" fill="#F6BF6F"/>
<path d="M523.046 260.061C537.728 211.71 584.519 184.446 630.092 194.196C672.077 203.173 699.226 240.606 698.052 285.604L600.839 322.154L523.046 260.083V260.061Z" fill="#F8CC8D"/>
<path d="M1030 125C1032.37 124.906 1036.87 122.555 1045 126.278C1053.13 130 1053.13 136.545 1053.13 136.545C1053.45 136.681 1053.87 136.653 1054.26 136.627L1054.29 136.625C1058.43 136.324 1062.75 136.545 1066.48 137.682C1070.21 138.819 1073.24 140.966 1073.87 143.481C1074.35 145.421 1073.43 147.368 1072.53 149.247C1072.17 149.996 1071.79 150.766 1070.96 151.361C1070.21 151.896 1069.18 152.244 1068.14 152.552C1059.61 155.094 1056.77 154.86 1040.4 155L878.211 153.742C870.784 152.324 867.609 149.676 869 145C870.391 140.324 872.428 133.2 878.211 129C888.15 121.782 898.692 122.214 909.638 128.103C915.366 123.146 920.086 119.173 929.5 117.246C934.245 116.281 941.5 115.5 946.652 117.246C950.35 118.5 948 119 952.766 114.424C963.914 106.046 974.935 98.3299 988.584 102.671C993.208 104.143 1001.27 108.893 1003.68 111.715C1009.74 108.277 1020 108.09 1026.38 111.307C1032.76 114.525 1034.39 120.726 1030 125Z" fill="white"/>
<path d="M851.878 58.612C853.462 58.9759 855.167 58.1267 856.141 56.8193C857.115 55.5119 857.44 53.8002 857.399 52.1693C857.332 48.5166 855.518 44.9448 852.623 42.7343C849.727 40.5238 845.803 39.7286 842.285 40.6317C841.919 40.726 841.527 40.8338 841.162 40.7665C840.39 40.6047 840.025 39.7286 839.7 39.0008C838.496 36.3455 836.06 34.2968 833.246 33.5689C830.431 32.8411 827.306 33.4476 824.978 35.1864C824.518 35.5233 823.936 35.9277 823.436 35.6581C823.219 35.5368 823.084 35.3346 822.949 35.1324C820.824 31.992 817.022 30.3476 813.287 29.8219C810.622 29.4445 807.767 29.5928 805.466 30.9946C802.462 32.8276 801.015 36.3725 798.85 39.149C798.66 39.3916 798.471 39.6208 798.2 39.7556C797.821 39.9443 797.375 39.8769 796.955 39.823C791.272 39.1895 785.467 43.3948 784.263 49.0153C782.639 48.4627 780.921 48.0314 779.216 48.1661C777.511 48.3009 775.779 49.1231 774.872 50.5923C773.776 52.3714 774.155 54.8245 775.508 56.415C776.861 58.0054 779.013 58.7602 781.083 58.7198L851.906 58.6389L851.878 58.612Z" fill="white"/>
<path d="M510.874 139.747C512.822 140.151 514.811 140.394 516.8 140.461C518.654 140.529 520.711 140.354 522.024 139.033C523.674 137.361 523.39 134.45 522.01 132.536C520.63 130.622 518.451 129.49 516.354 128.452C516.124 125.083 513.891 121.929 510.806 120.608C507.721 119.287 503.905 119.853 501.334 122.023C499.629 118.99 496.937 116.443 493.635 115.378C490.333 114.313 486.436 114.947 483.933 117.346C480.564 114.178 475.923 112.211 471.336 112.696C466.748 113.181 462.378 116.375 461.106 120.823C458.873 119.327 455.815 119.422 453.42 120.648C451.025 121.875 449.239 124.072 448.048 126.484C447.886 126.808 447.71 127.158 447.385 127.333C446.952 127.563 446.425 127.36 445.964 127.172C442.555 125.797 438.468 125.568 435.329 127.495C432.19 129.423 430.552 133.897 432.46 137.038C433.543 138.817 435.518 139.909 437.548 140.367C439.578 140.825 441.689 140.731 443.772 140.637L510.874 139.72V139.747Z" fill="white"/>
<path d="M274.471 18C277.969 17.7183 280.778 13.0897 280.985 8.28678C281.192 3.48383 279.221 -1.14471 276.472 -4.13649C273.722 -7.12827 270.283 -8.65769 266.843 -9.61023C263.847 -10.442 260.566 -10.8043 257.915 -8.72477C257.353 -11.1262 258.526 -13.6216 258.565 -16.1438C258.615 -18.9076 257.245 -21.4298 255.51 -22.8385C253.776 -24.2471 251.736 -24.7033 249.725 -24.9448C246.059 -25.3741 242.364 -25.146 238.747 -24.2471C240.393 -28.6744 237.84 -33.9469 234.864 -36.7777C231.681 -39.7963 227.749 -41.5002 223.916 -40.8696C220.082 -40.2257 216.406 -37.0326 214.76 -32.2297C210.769 -35.302 205.595 -35.2751 201.624 -32.1358C200.658 -31.3711 199.643 -30.4051 198.549 -30.6466C198.017 -30.7539 197.544 -31.143 197.071 -31.4784C190.163 -36.4423 180.593 -32.4443 176.878 -23.0263C176.119 -21.1078 175.479 -18.8673 174.07 -17.8611C173.173 -17.2305 172.128 -17.2171 171.123 -17.0696C165.851 -16.2646 161.15 -10.6433 159.839 -3.59984C155.04 -3.62667 150.063 -3.00953 145.865 0.210323C141.667 3.43018 138.464 9.78938 139.075 16.323L274.471 17.9866V18Z" fill="white"/>
<path d="M72.1462 140.604C77.2069 141.871 82.6464 138.677 85.1227 134.081C87.5989 129.485 87.5312 123.851 86.1781 118.81C83.9048 110.305 78.0864 102.811 70.4277 98.5245C62.7691 94.2384 53.3513 93.214 44.9484 95.748C44.123 96.0041 43.1623 96.2601 42.4451 95.7884C42.0392 95.5188 41.7956 95.074 41.5656 94.6427C34.6647 82.1077 18.4001 75.6785 4.84184 80.1264C4.0029 80.396 3.10983 80.7194 2.25736 80.4903C1.5808 80.3151 1.03955 79.8164 0.511833 79.3446C-7.51219 72.255 -18.3642 68.4675 -29.0404 69.0606C-39.7165 69.6536 -50.095 74.5867 -57.3071 82.5121C-58.3626 83.6712 -59.4451 84.9652 -60.9606 85.383C-62.4084 85.7874 -63.9239 85.3021 -65.3853 84.9517C-75.1684 82.6604 -86.061 87.2161 -91.6494 95.5862C-97.2378 103.956 -97.4002 115.548 -92.3801 124.268C-87.36 132.989 -77.5499 138.61 -67.5097 138.92L72.1462 140.604Z" fill="white"/>
<path d="M1100.75 54.2406C1100.89 52.6114 1102.18 51.3274 1103.59 50.8094C1105.01 50.2913 1106.55 50.3964 1108.03 50.5015C1105.28 45.7038 1106.3 38.7436 1110.3 35.1322C1114.29 31.5207 1120.72 31.7309 1124.51 35.5902C1126.02 32.4217 1127.69 29.0655 1130.59 27.4137C1131.98 26.6178 1133.57 26.2875 1135.14 26.1223C1143.69 25.2288 1152.54 29.2833 1157.96 36.5813C1159.01 37.9853 1160.15 39.6296 1161.79 39.7497C1162.63 39.8098 1163.44 39.4419 1164.26 39.2392C1166.25 38.7511 1168.32 39.2392 1170.26 39.945C1176.15 42.1073 1181.38 46.372 1184.97 51.9356C1188.04 48.9699 1192.41 47.9037 1196.48 48.4893C1200.54 49.075 1204.33 51.1698 1207.61 53.8502C1211.51 57.0412 1214.96 61.381 1215.83 66.6292C1216.7 71.8775 1214.26 77.9967 1209.61 79.5884L1108.04 81C1097.79 80.8423 1096.01 81.1051 1090.67 78.252C1090.02 77.9066 1089.37 77.5162 1088.9 76.9155C1088.38 76.2473 1088.15 75.3838 1087.92 74.5429C1087.35 72.4331 1086.78 70.2482 1087.08 68.0708C1087.48 65.2477 1089.37 62.8376 1091.71 61.5612C1094.04 60.2848 1096.75 60.037 1099.34 60.3749C1099.59 60.4049 1099.86 60.4424 1100.07 60.2848C1100.32 60.0971 1100.37 59.7217 1100.39 59.3913L1100.77 54.2031" fill="white"/>
<path d="M1371.56 58.6119C1369.94 58.9759 1368.18 58.1267 1367.18 56.8193C1366.18 55.5119 1365.85 53.8001 1365.89 52.1692C1365.96 48.5166 1367.82 44.9448 1370.8 42.7343C1373.77 40.5238 1377.8 39.7286 1381.42 40.6316C1381.79 40.726 1382.2 40.8338 1382.57 40.7664C1383.36 40.6047 1383.74 39.7286 1384.07 39.0007C1385.31 36.3455 1387.81 34.2968 1390.7 33.5689C1393.6 32.8411 1396.81 33.4476 1399.2 35.1863C1399.67 35.5233 1400.27 35.9276 1400.78 35.6581C1401 35.5368 1401.14 35.3346 1401.28 35.1324C1403.47 31.9919 1407.37 30.3475 1411.21 29.8219C1413.95 29.4445 1416.88 29.5928 1419.24 30.9945C1422.33 32.8276 1423.82 36.3724 1426.04 39.149C1426.24 39.3916 1426.43 39.6208 1426.71 39.7555C1427.1 39.9442 1427.56 39.8768 1427.99 39.8229C1433.83 39.1894 1439.79 43.3947 1441.03 49.0153C1442.69 48.4626 1444.46 48.0313 1446.21 48.1661C1447.96 48.3009 1449.74 49.1231 1450.67 50.5922C1451.8 52.3714 1451.41 54.8245 1450.02 56.415C1448.63 58.0054 1446.42 58.7602 1444.29 58.7198L1371.53 58.6389L1371.56 58.6119Z" fill="white"/>
<path d="M1349.22 203.173C1350.45 203.519 1351.71 203.726 1352.97 203.784C1354.15 203.841 1355.45 203.692 1356.28 202.563C1357.33 201.135 1357.15 198.648 1356.27 197.013C1355.4 195.378 1354.02 194.41 1352.69 193.524C1352.54 190.645 1351.13 187.95 1349.17 186.822C1347.22 185.693 1344.8 186.177 1343.17 188.031C1342.09 185.44 1340.38 183.264 1338.29 182.354C1336.2 181.444 1333.73 181.986 1332.14 184.035C1330 181.329 1327.06 179.648 1324.16 180.063C1321.25 180.477 1318.48 183.206 1317.67 187.006C1316.26 185.728 1314.32 185.809 1312.8 186.856C1311.28 187.904 1310.15 189.781 1309.4 191.843C1309.29 192.119 1309.18 192.418 1308.98 192.568C1308.7 192.764 1308.37 192.591 1308.08 192.43C1305.91 191.255 1303.32 191.06 1301.33 192.706C1299.35 194.353 1298.31 198.176 1299.52 200.859C1300.2 202.379 1301.46 203.312 1302.74 203.703C1304.03 204.095 1305.37 204.014 1306.69 203.933L1349.22 203.15V203.173Z" fill="white"/>
<path d="M822.566 223.023C796.188 242.23 783 267.5 783 267.5L757.946 327.322L721.77 410.363L692.943 486.342H1085.79L1258.1 486.414L1228.49 410.434L1191.32 327.393L1158.8 259.04C1158.8 259.04 1145.25 233.77 1118.15 214.563C1093.8 197.304 1065.5 188.156 1030 182.5C994.5 176.844 942.125 183.968 911.5 189.259C880.875 194.549 848.944 203.816 822.566 223.023Z" fill="#F8CC8D"/>
<path d="M972.146 149.575C972.146 149.575 977.985 148.551 983.573 160.938C983.573 160.938 989.676 174.147 986.562 183.218C986.562 183.218 982.795 191.278 974.287 192.046C974.287 192.046 965.043 192.612 960.594 186.776C960.594 186.776 955.173 180.333 958.259 170.278C958.259 170.278 963.416 149.481 972.146 149.575Z" fill="#EA885E"/>
<path d="M974.884 200.928L973.841 179.417L978.026 170.804L973.146 175.751V160.951L971.575 169.968L967.919 165.723L971.228 172.866L970.366 200.928H974.884Z" fill="#640718"/>
<path d="M965.715 203.546C965.715 203.546 965.66 203.505 965.632 203.478C965.451 203.371 965.257 203.29 965.062 203.195C964.951 203.142 964.839 203.101 964.714 203.047C964.687 203.047 964.673 203.007 964.659 202.993C964.659 202.993 964.659 202.993 964.645 202.993C964.603 202.993 964.575 202.993 964.534 202.98C964.534 202.98 964.506 202.98 964.492 202.98C964.436 202.953 964.367 202.912 964.311 202.885C963.978 202.778 963.644 202.683 963.296 202.629C962.963 202.575 962.615 202.562 962.268 202.602C961.906 202.643 961.545 202.737 961.225 202.899C961.1 202.966 960.975 203.034 960.864 203.115C960.766 203.182 960.683 203.236 960.6 203.317C960.447 203.478 960.28 203.627 960.141 203.802C960.03 203.95 959.932 204.112 959.821 204.26C959.821 204.274 959.821 204.301 959.793 204.314C959.765 204.382 959.738 204.435 959.724 204.503C959.71 204.57 959.682 204.638 959.682 204.705C959.696 204.813 959.64 204.799 959.571 204.799C959.571 204.799 959.571 204.799 959.557 204.799C959.557 204.799 959.543 204.799 959.529 204.799C959.529 204.799 959.515 204.799 959.501 204.799C959.487 204.799 959.46 204.799 959.446 204.799C959.446 204.799 959.446 204.799 959.432 204.799C959.348 204.786 959.265 204.772 959.182 204.759C959.043 204.732 958.904 204.705 958.751 204.678C958.626 204.597 958.459 204.584 958.334 204.489C958.306 204.462 958.278 204.449 958.236 204.422L958 204.786C958.125 204.813 958.264 204.826 958.389 204.853C958.5 204.867 958.598 204.894 958.709 204.907C958.792 204.921 958.876 204.961 958.945 204.948C959.001 204.948 959.029 204.975 959.07 204.988C959.07 204.988 959.07 204.988 959.084 204.988C959.112 204.988 959.154 204.988 959.182 204.988C959.195 204.988 959.209 204.988 959.223 205.002C959.404 204.988 959.585 205.029 959.766 205.042C959.807 205.042 959.849 205.042 959.891 205.042C959.891 205.042 959.891 205.042 959.904 205.042C959.988 205.042 960.085 205.042 960.169 205.042C960.169 205.042 960.169 205.042 960.183 205.042C960.169 205.042 960.141 205.069 960.127 205.069C960.127 205.069 960.099 205.069 960.085 205.069C960.057 205.069 960.03 205.082 960.002 205.096C960.002 205.096 959.974 205.096 959.96 205.096C959.932 205.096 959.904 205.109 959.863 205.123C959.96 205.231 960.044 205.352 960.196 205.379C960.196 205.379 960.196 205.379 960.196 205.392C960.224 205.473 960.294 205.487 960.363 205.514C960.363 205.514 960.377 205.514 960.391 205.514C960.433 205.541 960.474 205.568 960.53 205.581C960.669 205.635 960.822 205.689 960.989 205.702C961.197 205.729 961.42 205.716 961.628 205.702C962.101 205.649 962.546 205.473 962.949 205.244C963.283 205.055 963.588 204.853 963.894 204.638C964.256 204.382 964.617 204.139 965.034 203.991C965.34 203.869 965.66 203.802 966.007 203.842C966.105 203.842 966.188 203.883 966.285 203.896C966.299 203.896 966.313 203.896 966.341 203.883L965.729 203.519C965.729 203.519 965.701 203.519 965.674 203.519L965.715 203.546Z" fill="#EA885E"/>
<path d="M980.965 195.755C980.965 195.755 980.923 195.715 980.895 195.701C980.756 195.607 980.604 195.54 980.451 195.486C980.353 195.445 980.27 195.405 980.173 195.364C980.159 195.364 980.145 195.338 980.131 195.324C980.103 195.324 980.075 195.324 980.047 195.311C980.047 195.311 980.034 195.311 980.02 195.311C979.964 195.284 979.922 195.257 979.867 195.243C979.603 195.162 979.339 195.081 979.061 195.041C978.796 195.001 978.518 194.987 978.24 195.014C977.948 195.041 977.67 195.122 977.406 195.257C977.309 195.311 977.212 195.364 977.114 195.432C977.045 195.486 976.975 195.54 976.906 195.594C976.781 195.715 976.656 195.85 976.544 195.984C976.447 196.106 976.378 196.227 976.294 196.348C976.294 196.348 976.294 196.375 976.28 196.389C976.266 196.443 976.239 196.483 976.225 196.537C976.211 196.591 976.183 196.645 976.197 196.699C976.211 196.78 976.155 196.766 976.113 196.766C976.113 196.766 976.1 196.766 976.086 196.766C976.086 196.766 976.072 196.766 976.058 196.766C976.044 196.766 976.03 196.766 976.016 196.766C976.016 196.766 976.016 196.766 976.002 196.766C975.933 196.766 975.877 196.739 975.808 196.726C975.696 196.699 975.585 196.685 975.474 196.658C975.377 196.591 975.238 196.578 975.14 196.51C975.113 196.497 975.099 196.47 975.057 196.456L974.876 196.753C974.987 196.766 975.085 196.793 975.196 196.807C975.279 196.82 975.363 196.834 975.446 196.847C975.516 196.847 975.571 196.888 975.627 196.874C975.682 196.874 975.696 196.888 975.724 196.901C975.752 196.901 975.78 196.901 975.808 196.901H975.835C975.988 196.901 976.127 196.928 976.266 196.941C976.294 196.941 976.336 196.941 976.364 196.941C976.364 196.941 976.364 196.941 976.378 196.941C976.447 196.941 976.517 196.941 976.586 196.941C976.572 196.941 976.558 196.955 976.544 196.968C976.544 196.968 976.53 196.968 976.517 196.968C976.489 196.968 976.475 196.982 976.447 196.995C976.447 196.995 976.433 196.995 976.419 196.995C976.391 196.995 976.378 197.009 976.336 197.022C976.419 197.103 976.475 197.198 976.6 197.225C976.628 197.292 976.683 197.305 976.739 197.319C976.739 197.319 976.753 197.319 976.767 197.319C976.808 197.332 976.836 197.359 976.878 197.373C976.989 197.427 977.114 197.454 977.239 197.467C977.406 197.494 977.587 197.481 977.754 197.467C978.129 197.427 978.477 197.278 978.81 197.103C979.074 196.955 979.325 196.793 979.561 196.618C979.839 196.416 980.131 196.227 980.465 196.106C980.715 196.011 980.965 195.958 981.229 195.984C981.299 195.984 981.382 196.011 981.452 196.025C981.452 196.025 981.479 196.025 981.493 196.011L981.007 195.715C981.007 195.715 980.979 195.715 980.965 195.715V195.755Z" fill="#EA885E"/>
<path d="M984.594 200.931C984.594 200.931 984.621 201.025 984.635 201.066C984.76 201.335 984.913 201.592 985.066 201.848C985.164 201.996 985.247 202.144 985.344 202.306C985.358 202.333 985.358 202.373 985.372 202.414C985.372 202.414 985.372 202.414 985.386 202.414C985.428 202.454 985.469 202.481 985.511 202.522C985.525 202.522 985.539 202.535 985.567 202.548C985.608 202.629 985.65 202.724 985.72 202.805C986.025 203.195 986.345 203.573 986.707 203.91C987.068 204.233 987.457 204.53 987.888 204.759C988.347 205.002 988.847 205.163 989.362 205.231C989.556 205.258 989.765 205.258 989.973 205.258C990.126 205.258 990.293 205.258 990.446 205.217C990.766 205.15 991.086 205.096 991.391 205.002C991.656 204.921 991.892 204.813 992.142 204.705C992.17 204.705 992.184 204.665 992.212 204.651C992.295 204.597 992.378 204.543 992.448 204.489C992.531 204.422 992.615 204.355 992.656 204.274C992.726 204.125 992.782 204.206 992.851 204.247C992.851 204.247 992.851 204.247 992.865 204.247C992.865 204.247 992.865 204.274 992.879 204.287C992.879 204.287 992.893 204.314 992.907 204.314C992.921 204.341 992.948 204.355 992.962 204.382C992.962 204.382 992.976 204.382 992.99 204.382C993.073 204.462 993.157 204.543 993.24 204.624C993.379 204.772 993.532 204.921 993.671 205.055C993.755 205.258 993.935 205.392 994.005 205.608C994.019 205.662 994.033 205.702 994.06 205.77L994.63 205.527C994.491 205.392 994.352 205.271 994.213 205.136C994.102 205.029 993.991 204.921 993.88 204.826C993.796 204.745 993.727 204.638 993.63 204.597C993.546 204.557 993.546 204.503 993.504 204.449C993.504 204.449 993.491 204.449 993.477 204.449C993.435 204.422 993.393 204.395 993.365 204.368C993.365 204.355 993.338 204.328 993.324 204.314C993.101 204.179 992.92 203.991 992.712 203.829C992.67 203.789 992.615 203.762 992.559 203.735C992.559 203.735 992.545 203.735 992.531 203.721C992.434 203.654 992.323 203.573 992.225 203.505C992.225 203.505 992.225 203.505 992.212 203.505C992.239 203.505 992.267 203.505 992.309 203.505C992.323 203.505 992.351 203.505 992.364 203.519C992.406 203.519 992.448 203.546 992.49 203.559C992.503 203.559 992.531 203.559 992.545 203.573C992.587 203.573 992.629 203.6 992.698 203.613C992.67 203.411 992.684 203.209 992.517 203.047C992.517 203.047 992.517 203.034 992.517 203.02C992.545 202.912 992.476 202.832 992.42 202.751L992.392 202.724C992.364 202.656 992.323 202.589 992.295 202.535C992.17 202.346 992.031 202.171 991.864 202.023C991.628 201.821 991.377 201.659 991.099 201.524C990.488 201.214 989.834 201.066 989.153 201.012C988.611 200.972 988.069 200.971 987.527 200.985C986.887 200.998 986.262 200.998 985.65 200.85C985.191 200.742 984.747 200.567 984.385 200.257C984.288 200.176 984.204 200.068 984.107 199.974C984.093 199.961 984.065 199.947 984.038 199.961L984.455 200.877C984.455 200.877 984.496 200.904 984.51 200.918L984.594 200.931Z" fill="#EA885E"/>
<path d="M275.594 166.605C169.169 140.404 0 129.691 0 129.691V486.342H1085.79L779.279 362.888L552.696 269.059C552.696 269.059 386.964 194.023 275.594 166.605Z" fill="#EA885E"/>
<path d="M1596.18 108.846C1662.14 82.6934 1767 72 1767 72V428H1094L1283.98 304.772L1424.42 211.114C1424.42 211.114 1527.15 136.215 1596.18 108.846Z" fill="#EA885E"/>
<path d="M373.476 155.973C373.476 155.973 367.739 154.976 362.259 167.039C362.259 167.039 356.265 179.898 359.323 188.713C359.323 188.713 363.017 196.557 371.365 197.298C371.365 197.298 380.431 197.851 384.802 192.163C384.802 192.163 390.12 185.896 387.089 176.11C387.089 176.11 382.028 155.879 373.463 155.973H373.476Z" fill="#DD484D"/>
<path d="M371.528 204.671L372.515 184.116L368.307 174.614L372.61 179.924L373.503 166.311L374.031 174.452L377.576 170.813L374.247 177.081L375.587 206.113L371.528 204.671Z" fill="#640718"/>
<path d="M186.46 163.13L189.112 128.275L180.817 112.896L189.112 124.151L190.249 94.9965L191.588 115.282L198.218 108.556L191.926 119.649L194.579 163.13H186.46Z" fill="#640718"/>
<path d="M161.28 129.368C161.28 129.368 150.82 129.624 148.574 119.933C148.574 119.933 147.816 108.881 152.051 95.4425C152.051 95.4425 157.558 68.9573 161.713 66.3559C161.713 66.3559 166.462 67.1646 171.631 97.4778C171.631 97.4778 176.083 113.302 174.094 120.863C174.094 120.863 172.226 128.815 161.307 129.368H161.28Z" fill="#EA885E"/>
<path d="M157.897 147.712L160.184 115L153.039 102.802L160.184 111.131L161.55 80.7779L162.335 102.802L168.059 96.4938L162.619 106.899L164.906 147.712H157.897Z" fill="#640718"/>
<path d="M205.296 156.493C205.296 156.493 205.215 156.52 205.187 156.534C204.957 156.601 204.714 156.628 204.47 156.655C204.321 156.669 204.186 156.696 204.037 156.709C204.01 156.709 203.983 156.736 203.956 156.75C203.956 156.75 203.956 156.75 203.943 156.75C203.902 156.75 203.861 156.75 203.807 156.736C203.807 156.736 203.78 156.736 203.767 156.723C203.686 156.723 203.604 156.763 203.537 156.763C203.131 156.763 202.738 156.763 202.332 156.696C201.94 156.642 201.561 156.534 201.196 156.372C200.803 156.21 200.452 155.981 200.154 155.685C200.032 155.577 199.937 155.442 199.829 155.307C199.748 155.213 199.68 155.105 199.613 154.984C199.491 154.755 199.383 154.526 199.288 154.283C199.207 154.081 199.166 153.865 199.112 153.65C199.112 153.623 199.112 153.596 199.112 153.582C199.112 153.501 199.112 153.42 199.112 153.353C199.112 153.272 199.112 153.178 199.139 153.11C199.193 153.003 199.125 152.989 199.058 152.976C199.058 152.976 199.058 152.976 199.044 152.976H199.017C199.017 152.976 198.99 152.976 198.977 152.976C198.95 152.976 198.936 152.976 198.909 152.976C198.909 152.976 198.909 152.976 198.895 152.976C198.801 152.976 198.706 152.949 198.611 152.949C198.449 152.935 198.287 152.908 198.111 152.895C197.935 152.949 197.759 152.895 197.596 152.962C197.556 152.976 197.515 152.989 197.461 153.016L197.339 152.531C197.488 152.544 197.637 152.571 197.799 152.585C197.921 152.598 198.043 152.612 198.165 152.625C198.259 152.625 198.354 152.625 198.435 152.666C198.503 152.706 198.544 152.666 198.584 152.666C198.584 152.666 198.584 152.666 198.598 152.666C198.638 152.666 198.679 152.679 198.706 152.693C198.72 152.693 198.747 152.693 198.76 152.693C198.963 152.773 199.166 152.787 199.369 152.827C199.41 152.827 199.464 152.854 199.504 152.868C199.504 152.868 199.504 152.868 199.518 152.868C199.613 152.895 199.721 152.922 199.816 152.949C199.816 152.949 199.816 152.949 199.829 152.949C199.816 152.935 199.802 152.908 199.775 152.895C199.775 152.895 199.748 152.881 199.734 152.868C199.707 152.841 199.68 152.827 199.64 152.8C199.64 152.8 199.613 152.787 199.599 152.773C199.572 152.746 199.545 152.733 199.504 152.706C199.653 152.625 199.775 152.517 199.951 152.531C199.951 152.531 199.951 152.531 199.951 152.517C200.005 152.436 200.1 152.45 200.181 152.436C200.181 152.436 200.208 152.436 200.222 152.436C200.276 152.436 200.343 152.41 200.397 152.396C200.573 152.383 200.763 152.383 200.939 152.41C201.182 152.45 201.412 152.531 201.642 152.639C202.143 152.868 202.562 153.205 202.928 153.609C203.225 153.933 203.483 154.27 203.74 154.62C204.037 155.024 204.349 155.429 204.754 155.739C205.052 155.981 205.377 156.17 205.769 156.237C205.878 156.264 205.986 156.264 206.094 156.278C206.108 156.278 206.121 156.278 206.148 156.318L205.35 156.52C205.35 156.52 205.309 156.52 205.296 156.507V156.493Z" fill="#DD484D"/>
<path d="M177.477 162.478C177.477 162.478 177.422 162.613 177.395 162.667C177.192 163.044 176.935 163.381 176.692 163.718C176.543 163.92 176.394 164.122 176.245 164.325C176.218 164.365 176.205 164.419 176.191 164.473C176.191 164.473 176.178 164.473 176.164 164.473C176.11 164.527 176.042 164.567 175.988 164.621C175.961 164.621 175.934 164.635 175.92 164.648C175.839 164.769 175.772 164.891 175.69 164.985C175.217 165.497 174.716 165.996 174.161 166.427C173.62 166.845 173.038 167.209 172.402 167.478C171.726 167.775 171.022 167.937 170.291 167.964C170.007 167.964 169.723 167.964 169.439 167.923C169.223 167.896 168.993 167.869 168.776 167.802C168.343 167.667 167.91 167.546 167.504 167.371C167.152 167.222 166.828 167.034 166.503 166.845C166.462 166.832 166.435 166.791 166.408 166.764C166.3 166.67 166.192 166.589 166.11 166.495C166.016 166.387 165.894 166.292 165.84 166.158C165.772 165.942 165.677 166.036 165.569 166.09C165.569 166.09 165.556 166.09 165.542 166.09C165.542 166.104 165.515 166.117 165.515 166.144C165.501 166.144 165.488 166.171 165.474 166.185C165.447 166.212 165.42 166.238 165.38 166.265C165.38 166.265 165.353 166.265 165.353 166.279C165.231 166.387 165.096 166.495 164.974 166.602C164.757 166.791 164.527 166.98 164.311 167.168C164.162 167.438 163.905 167.627 163.769 167.896C163.742 167.964 163.715 168.031 163.675 168.125L162.903 167.694C163.106 167.519 163.323 167.357 163.526 167.182C163.688 167.047 163.851 166.912 164.027 166.778C164.148 166.67 164.257 166.535 164.405 166.481C164.527 166.441 164.541 166.36 164.595 166.292H164.622C164.676 166.252 164.73 166.225 164.798 166.185C164.811 166.158 164.838 166.144 164.852 166.117C165.19 165.969 165.447 165.699 165.759 165.511C165.826 165.47 165.907 165.43 165.975 165.389C165.975 165.389 166.002 165.389 166.002 165.376C166.151 165.281 166.313 165.187 166.462 165.106C166.462 165.106 166.476 165.106 166.489 165.106C166.489 165.106 166.489 165.106 166.476 165.093C166.435 165.093 166.395 165.093 166.34 165.093C166.313 165.093 166.286 165.093 166.259 165.106C166.192 165.106 166.137 165.133 166.07 165.147C166.043 165.147 166.016 165.147 165.989 165.16C165.934 165.16 165.867 165.187 165.772 165.201C165.84 164.918 165.853 164.621 166.083 164.419V164.392C166.056 164.23 166.164 164.122 166.259 164.014C166.273 164.014 166.286 163.988 166.313 163.974C166.367 163.88 166.422 163.785 166.476 163.705C166.665 163.448 166.882 163.233 167.139 163.031C167.491 162.775 167.869 162.572 168.262 162.411C169.155 162.047 170.089 161.925 171.022 161.939C171.78 161.939 172.524 162.02 173.268 162.114C174.148 162.222 175.014 162.303 175.893 162.181C176.543 162.087 177.179 161.898 177.734 161.508C177.883 161.4 178.018 161.265 178.167 161.144C178.194 161.13 178.221 161.117 178.275 161.13L177.585 162.384C177.585 162.384 177.531 162.411 177.49 162.438L177.477 162.478ZM166.638 165.066C166.638 165.066 166.638 165.066 166.652 165.066C166.652 165.066 166.652 165.066 166.638 165.066Z" fill="#841618"/>
<path d="M1586.31 156.045C1586.31 156.045 1592.2 155.048 1597.83 167.111C1597.83 167.111 1603.99 179.97 1600.85 188.784C1600.85 188.784 1597.05 196.629 1588.48 197.37C1588.48 197.37 1579.16 197.923 1574.67 192.235C1574.67 192.235 1569.21 185.967 1572.32 176.182C1572.32 176.182 1577.52 155.951 1586.32 156.045H1586.31Z" fill="#DD484D"/>
<path d="M1588.31 204.743L1587.29 184.188L1591.62 174.686L1587.2 179.996L1586.28 166.383L1585.74 174.524L1582.09 170.885L1585.51 177.152L1584.14 206.185L1588.31 204.743Z" fill="#640718"/>
<path d="M1538.29 138.254C1538.29 138.254 1549.54 138.451 1551.94 130.877C1551.94 130.877 1552.76 122.233 1548.21 111.735C1548.21 111.735 1542.3 91.0257 1537.83 89C1537.83 89 1532.73 89.6306 1527.19 113.327C1527.19 113.327 1522.41 125.692 1524.55 131.61C1524.55 131.61 1526.55 137.827 1538.29 138.26V138.254Z" fill="#C12127"/>
<path d="M1540.86 147.872L1539.14 126.571L1545.02 119.5L1539.14 123.437L1538 100.549L1536.89 117.729L1531.53 113.627L1536.68 120.704L1534.64 149L1540.86 147.872Z" fill="#640718"/>
<path d="M1196.93 225.02C1294.29 223.143 1538.24 352.421 1538.24 352.421L1813 500.928H958.7L263 501L545.271 352.493C545.271 352.493 732.353 255.984 832.373 257.862C870.035 258.569 885.1 262.269 910.144 268.452C951.61 278.689 980.441 294.575 1006.92 289.419C1044.66 282.069 1082.34 248.705 1122.58 238.499C1146.96 232.316 1160.27 225.727 1196.93 225.02Z" fill="#F6BF6F"/>
<path d="M1044.45 275.963C1044.45 275.963 1062.72 276.381 1066.62 260.355C1066.62 260.355 1067.96 242.065 1060.56 219.852C1060.56 219.852 1050.96 176.034 1043.7 171.748C1043.7 171.748 1035.42 173.082 1026.41 223.222C1026.41 223.222 1018.65 249.384 1022.13 261.905C1022.13 261.905 1025.38 275.06 1044.45 275.977V275.963Z" fill="#C12127"/>
<path d="M1048.62 296.316L1045.83 251.244L1055.38 236.283L1045.83 244.612L1043.98 196.184L1042.17 232.536L1033.47 223.855L1041.82 238.83L1038.52 298.701L1048.62 296.316Z" fill="#640718"/>
<path d="M1231.54 229.436C1231.54 229.436 1243.93 229.732 1246.59 218.639C1246.59 218.639 1247.49 205.997 1242.47 190.645C1242.47 190.645 1235.95 160.358 1231.04 157.393C1231.04 157.393 1225.43 158.323 1219.31 192.976C1219.31 192.976 1214.04 211.064 1216.41 219.718C1216.41 219.718 1218.62 228.802 1231.54 229.436Z" fill="#F6BF6F"/>
<path d="M1235.17 244.734L1233.55 212.763L1241.09 201.656L1232.85 208.8L1232.03 175.454L1230.42 200.174L1224.5 194.162L1230.18 204.379L1228.1 244.734H1235.17Z" fill="#640718"/>
<path d="M1042.39 315.356L1042.93 314.156C1042.93 314.156 1042.85 314.156 1042.83 314.183C1042.71 314.304 1042.6 314.439 1042.46 314.547C1041.99 314.951 1041.4 315.18 1040.81 315.315C1040 315.504 1039.18 315.504 1038.34 315.477C1037.64 315.45 1036.93 315.45 1036.23 315.504C1035.36 315.571 1034.49 315.76 1033.69 316.164C1033.33 316.34 1032.99 316.555 1032.69 316.825C1032.46 317.027 1032.28 317.243 1032.13 317.485C1032.07 317.566 1032.05 317.66 1031.99 317.741C1031.99 317.755 1031.96 317.768 1031.95 317.782C1031.87 317.89 1031.78 317.984 1031.82 318.132C1031.82 318.132 1031.82 318.146 1031.82 318.159C1031.62 318.361 1031.63 318.631 1031.6 318.9C1031.69 318.873 1031.74 318.86 1031.8 318.846C1031.82 318.846 1031.84 318.833 1031.87 318.82C1031.92 318.806 1031.98 318.793 1032.03 318.766C1032.06 318.766 1032.07 318.752 1032.1 318.739C1032.14 318.739 1032.19 318.739 1032.23 318.739C1032.23 318.739 1032.23 318.739 1032.24 318.739C1032.24 318.739 1032.23 318.739 1032.21 318.739C1032.07 318.833 1031.95 318.927 1031.81 319.022C1031.81 319.022 1031.8 319.022 1031.78 319.035C1031.71 319.076 1031.64 319.116 1031.59 319.157C1031.32 319.359 1031.09 319.615 1030.8 319.79C1030.78 319.817 1030.77 319.83 1030.75 319.857C1030.7 319.898 1030.66 319.938 1030.6 319.965C1030.6 319.965 1030.59 319.965 1030.57 319.965C1030.52 320.033 1030.52 320.113 1030.41 320.154C1030.28 320.208 1030.18 320.343 1030.09 320.45C1029.95 320.585 1029.81 320.72 1029.66 320.868C1029.48 321.043 1029.29 321.219 1029.11 321.38L1029.86 321.704C1029.89 321.623 1029.91 321.556 1029.93 321.488C1030.03 321.219 1030.27 321.03 1030.38 320.774C1030.57 320.585 1030.75 320.397 1030.95 320.208C1031.06 320.1 1031.17 319.992 1031.28 319.884C1031.28 319.884 1031.3 319.884 1031.31 319.871C1031.34 319.844 1031.37 319.817 1031.39 319.79C1031.39 319.777 1031.42 319.763 1031.44 319.75C1031.44 319.736 1031.45 319.723 1031.46 319.696C1031.46 319.696 1031.48 319.696 1031.49 319.696C1031.59 319.642 1031.67 319.547 1031.76 319.723C1031.81 319.83 1031.94 319.911 1032.03 320.006C1032.13 320.086 1032.24 320.154 1032.34 320.221C1032.37 320.248 1032.39 320.275 1032.44 320.289C1032.77 320.423 1033.09 320.572 1033.42 320.68C1033.83 320.801 1034.24 320.882 1034.65 320.963C1034.86 321.003 1035.06 321.017 1035.27 321.017C1035.54 321.017 1035.8 321.017 1036.06 320.976C1036.75 320.882 1037.4 320.68 1038 320.356C1038.57 320.06 1039.08 319.682 1039.54 319.251C1040.01 318.806 1040.44 318.321 1040.83 317.809C1040.92 317.714 1040.96 317.593 1041.03 317.472C1041.06 317.472 1041.07 317.458 1041.1 317.445C1041.15 317.391 1041.19 317.35 1041.25 317.296C1041.25 317.296 1041.26 317.296 1041.28 317.296C1041.28 317.243 1041.28 317.202 1041.32 317.162C1041.43 316.96 1041.56 316.771 1041.68 316.569C1041.89 316.245 1042.1 315.908 1042.25 315.558C1042.28 315.504 1042.29 315.436 1042.31 315.369C1042.33 315.356 1042.36 315.329 1042.39 315.315V315.356ZM1032.39 318.698C1032.39 318.698 1032.39 318.698 1032.41 318.698C1032.41 318.698 1032.41 318.698 1032.39 318.698Z" fill="#C12127"/>
<path d="M1064.73 292.51C1064.73 292.51 1064.76 292.631 1064.78 292.698C1064.94 293.062 1065.15 293.386 1065.35 293.709C1065.48 293.898 1065.6 294.1 1065.72 294.302C1065.74 294.343 1065.74 294.397 1065.76 294.437C1065.76 294.437 1065.77 294.437 1065.78 294.437C1065.84 294.491 1065.88 294.531 1065.94 294.585C1065.97 294.585 1065.98 294.599 1066.01 294.612C1066.08 294.72 1066.12 294.841 1066.2 294.949C1066.61 295.461 1067.02 295.947 1067.49 296.391C1067.97 296.823 1068.47 297.2 1069.04 297.497C1069.65 297.82 1070.29 298.036 1070.97 298.117C1071.23 298.157 1071.5 298.157 1071.76 298.157C1071.97 298.157 1072.18 298.157 1072.39 298.103C1072.81 298.022 1073.21 297.941 1073.61 297.82C1073.95 297.726 1074.26 297.564 1074.6 297.429C1074.64 297.416 1074.67 297.389 1074.7 297.362C1074.79 297.294 1074.9 297.227 1075 297.146C1075.1 297.065 1075.22 296.984 1075.28 296.863C1075.36 296.674 1075.45 296.769 1075.54 296.836C1075.54 296.836 1075.56 296.836 1075.57 296.836C1075.57 296.85 1075.59 296.863 1075.6 296.89C1075.6 296.904 1075.63 296.917 1075.64 296.93C1075.67 296.957 1075.7 296.984 1075.72 297.011C1075.72 297.011 1075.74 297.011 1075.75 297.025C1075.86 297.133 1075.97 297.24 1076.09 297.348C1076.28 297.537 1076.46 297.726 1076.66 297.914C1076.77 298.171 1077 298.359 1077.1 298.629C1077.13 298.696 1077.14 298.764 1077.17 298.844L1077.92 298.521C1077.74 298.346 1077.56 298.184 1077.38 298.009C1077.24 297.874 1077.1 297.739 1076.95 297.591C1076.84 297.483 1076.75 297.348 1076.63 297.294C1076.52 297.254 1076.52 297.173 1076.46 297.106C1076.46 297.106 1076.45 297.106 1076.43 297.106C1076.38 297.065 1076.34 297.025 1076.28 296.998C1076.27 296.971 1076.25 296.957 1076.24 296.93C1075.93 296.755 1075.71 296.499 1075.45 296.297C1075.39 296.257 1075.32 296.216 1075.25 296.176C1075.25 296.176 1075.24 296.176 1075.22 296.162C1075.09 296.068 1074.96 295.973 1074.82 295.879C1074.82 295.879 1074.81 295.879 1074.79 295.879C1074.79 295.879 1074.79 295.879 1074.81 295.879C1074.85 295.879 1074.89 295.879 1074.93 295.879C1074.96 295.879 1074.97 295.893 1075 295.906C1075.06 295.92 1075.11 295.933 1075.17 295.96C1075.2 295.96 1075.21 295.974 1075.24 295.987C1075.29 296 1075.35 296.014 1075.43 296.041C1075.39 295.771 1075.4 295.515 1075.21 295.3C1075.21 295.3 1075.21 295.286 1075.21 295.273C1075.25 295.124 1075.15 295.03 1075.08 294.922C1075.08 294.909 1075.06 294.895 1075.04 294.882C1075 294.801 1074.96 294.707 1074.9 294.626C1074.75 294.383 1074.56 294.154 1074.35 293.965C1074.04 293.696 1073.71 293.493 1073.35 293.305C1072.55 292.9 1071.69 292.712 1070.8 292.644C1070.09 292.59 1069.39 292.59 1068.69 292.617C1067.87 292.644 1067.04 292.644 1066.23 292.456C1065.63 292.307 1065.05 292.078 1064.58 291.687C1064.44 291.58 1064.33 291.445 1064.2 291.323C1064.19 291.31 1064.16 291.296 1064.1 291.296L1064.65 292.496C1064.65 292.496 1064.7 292.536 1064.73 292.55V292.51ZM1074.63 295.798C1074.63 295.798 1074.63 295.798 1074.61 295.798C1074.61 295.798 1074.61 295.798 1074.63 295.798Z" fill="#C12127"/>
<path d="M730.559 243.051C730.559 243.051 716.213 240.49 702.506 271.643C702.506 271.643 687.521 304.864 695.179 327.676C695.179 327.676 704.435 347.949 725.325 349.875C725.325 349.875 748.012 351.309 758.931 336.597C758.931 336.597 772.241 320.397 764.672 295.111C764.672 295.111 752.001 242.799 730.57 243.051H730.559Z" fill="#EA885E"/>
<path d="M723.793 376L727.071 314.936L715.216 293.626L727.071 307.489L729.267 270.269L730.72 293.205L740.39 282.174L731.452 299.866L736.107 376H723.793Z" fill="#640718"/>
<path d="M277.742 61.516C277.742 61.516 257.404 57.9981 237.974 100.752C237.974 100.752 216.73 146.336 227.582 177.633C227.582 177.633 240.693 205.453 270.313 208.095C270.313 208.095 302.477 210.062 317.957 189.885C317.957 189.885 336.819 167.659 326.089 132.965C326.089 132.965 308.133 61.1925 277.742 61.5295V61.516Z" fill="#841618"/>
<path d="M268.379 237.707L273.791 158.642L256.85 129.165L273.791 149.288L276.958 96.897L278.879 129.165L292.437 113.907L279.556 139.071L284.982 237.707H268.379Z" fill="#640718"/>
<path d="M537.803 238.028C537.803 238.028 529.859 236.622 522.265 253.687C522.265 253.687 513.969 271.868 518.205 284.357C518.205 284.357 523.329 295.462 534.906 296.511C534.906 296.511 547.471 297.292 553.529 289.245C553.529 289.245 560.903 280.384 556.711 266.533C556.711 266.533 549.688 237.894 537.814 238.028H537.803Z" fill="#841618"/>
<path d="M535.093 306.946L536.465 277.861L530.627 264.412L536.596 271.935L537.836 252.671L538.561 264.189L543.488 259.033L538.868 267.917L540.733 309L535.093 306.946Z" fill="#640718"/>
<path d="M618.346 353.714C579.11 340.867 490.829 295.902 471.965 285.322C453.102 274.742 413.174 258.726 365.197 247.158C315.399 235.151 260.693 232.8 238.434 234.043C216.175 235.286 182.975 235.823 170.525 236.688C158.075 237.553 147.512 238.468 147.512 238.468C147.512 238.468 110.539 242.246 90.9211 246.512C71.3029 250.778 44.894 260.493 44.894 260.493L-0.00134277 277.119V486.343L1970 486.414V277.19L1923.88 260.564C1923.88 260.564 1896.74 250.85 1876.59 246.584C1856.43 242.318 1818.45 238.539 1818.45 238.539C1818.45 238.539 1807.6 237.625 1794.81 236.759C1782.02 235.894 1747.91 235.357 1725.04 234.114C1702.17 232.871 1645.97 235.223 1594.81 247.23C1545.52 258.798 1504.5 274.813 1485.12 285.394C1465.74 295.974 1353 305.5 1253.5 305.5C1154 305.5 1116 314 1035 334.5C954 355 865.495 390.643 748.882 376.496C691.914 369.585 657.583 366.562 618.346 353.714Z" fill="#D06A57"/>
<path d="M86.6249 290.678C86.6249 290.678 39.8745 291.81 29.8478 248.921C29.8478 248.921 26.4379 200.022 45.3681 140.581C45.3681 140.581 69.9679 23.3994 88.5193 11.9292C88.5193 11.9292 109.723 15.501 132.807 149.612C132.807 149.612 152.684 219.579 143.781 253.059C143.781 253.059 135.459 288.238 86.6249 290.678Z" fill="#C12127"/>
<path d="M101.294 320.398H80.2799L85.3677 224.485L54.8683 178.901L85.706 207.812L91.132 75.4938L94.5148 174.143L118.235 151.297L95.8679 190.465L101.294 320.398Z" fill="#640718"/>
<path d="M427.872 241.945C431.901 236.911 434.312 230.515 434.312 223.554C434.312 207.327 421.208 194.171 405.044 194.171C388.88 194.171 375.776 207.327 375.776 223.554C375.776 231.094 378.605 237.97 383.254 243.172C364.559 253.239 350.134 274.07 350.134 294.99C350.134 321.828 374.59 344.317 401.176 346.249L403.528 304.708L382.514 268.936L403.799 296.433L406.722 222.449L408.589 278.115L426.68 258.235L409.834 287.079L412.237 345.744C437.411 341.406 459.94 315.708 459.94 290.111C459.94 270.199 446.231 250.808 427.872 241.945Z" fill="#F6BF6F"/>
<path d="M413.379 373.61L399.807 370.416L403.528 304.708L382.514 268.936L403.799 296.433L406.722 222.449L408.589 278.115L426.68 258.235L409.834 287.079L413.379 373.61Z" fill="#640718"/>
<path d="M1120.59 285.037C1120.59 285.037 1131.06 283.226 1141.06 305.244C1141.06 305.244 1152 328.724 1146.41 344.847C1146.41 344.847 1139.65 359.175 1124.41 360.536C1124.41 360.536 1107.85 361.55 1099.89 351.152C1099.89 351.152 1090.17 339.702 1095.7 321.831C1095.7 321.831 1104.94 284.859 1120.58 285.037H1120.59Z" fill="#EA885E"/>
<path d="M1125.53 379.001L1123.14 335.842L1131.79 320.781L1123.14 330.58L1121.53 304.273L1120.47 320.484L1113.42 312.688L1119.94 325.192L1116.54 379.001H1125.53Z" fill="#640718"/>
<path d="M1481.44 238.625C1475.6 231.499 1472.11 222.446 1472.11 212.592C1472.11 189.622 1491.08 171 1514.49 171C1537.9 171 1556.87 189.622 1556.87 212.592C1556.87 223.265 1552.77 232.998 1546.04 240.361C1573.11 254.612 1594 284.098 1594 313.712C1594 351.7 1558.59 383.535 1520.09 386.27L1516.68 327.468L1547.11 276.832L1516.29 315.753L1512.06 211.028L1509.36 289.825L1483.16 261.683L1507.55 302.512L1504.07 385.555C1467.62 379.414 1435 343.038 1435 306.805C1435 278.619 1454.85 251.17 1481.44 238.625Z" fill="#F6BF6F"/>
<path d="M1502.42 425L1522.07 420.478L1516.68 327.468L1547.11 276.832L1516.29 315.753L1512.06 211.028L1509.36 289.825L1483.16 261.683L1507.55 302.512L1502.42 425Z" fill="#640718"/>
<path d="M428.655 352.012C428.723 352.012 428.804 351.985 428.872 351.985C429.318 351.985 429.765 352.039 430.211 352.107C430.468 352.147 430.739 352.174 430.996 352.201C431.05 352.201 431.104 352.188 431.159 352.174C431.159 352.174 431.172 352.188 431.186 352.201C431.253 352.228 431.334 352.268 431.402 352.295C431.429 352.309 431.443 352.336 431.47 352.349C431.619 352.363 431.767 352.349 431.903 352.39C432.62 352.565 433.337 352.781 434.014 353.064C434.677 353.347 435.313 353.711 435.895 354.155C436.517 354.641 437.031 355.207 437.437 355.881C437.586 356.137 437.721 356.42 437.843 356.689C437.938 356.905 438.019 357.134 438.073 357.363C438.181 357.835 438.276 358.293 438.33 358.779C438.371 359.183 438.357 359.587 438.371 359.978C438.371 360.019 438.357 360.059 438.344 360.113C438.317 360.248 438.29 360.396 438.249 360.531C438.208 360.679 438.168 360.841 438.073 360.949C437.911 361.124 438.06 361.164 438.154 361.232C438.154 361.232 438.168 361.245 438.181 361.259C438.208 361.259 438.222 361.259 438.249 361.259C438.262 361.259 438.29 361.272 438.303 361.286C438.344 361.299 438.384 361.313 438.425 361.326C438.425 361.326 438.452 361.34 438.452 361.353C438.614 361.42 438.777 361.488 438.939 361.542C439.223 361.65 439.507 361.757 439.805 361.865C439.805 361.865 439.805 361.865 439.819 361.865C440.143 361.865 440.455 362.013 440.779 362C440.86 362 440.942 361.986 441.036 361.973V362.903C440.779 362.795 440.509 362.687 440.252 362.58C440.035 362.499 439.832 362.418 439.616 362.323C439.453 362.256 439.264 362.229 439.156 362.121C439.061 362.027 438.98 362.067 438.885 362.04C438.885 362.04 438.871 362.027 438.858 362.013C438.79 361.973 438.736 361.946 438.668 361.906C438.641 361.906 438.601 361.906 438.574 361.892C438.262 361.663 437.884 361.542 437.545 361.353C437.464 361.313 437.397 361.259 437.329 361.205C437.329 361.205 437.302 361.205 437.302 361.191C437.139 361.097 436.977 361.003 436.815 360.908C436.815 360.908 436.801 360.895 436.788 360.881C436.788 360.881 436.788 360.895 436.788 360.908C436.815 360.949 436.828 360.989 436.855 361.03C436.869 361.056 436.896 361.07 436.909 361.097C436.95 361.151 436.991 361.205 437.045 361.245C437.058 361.272 437.085 361.286 437.099 361.313C437.139 361.366 437.18 361.407 437.248 361.488C436.95 361.582 436.679 361.703 436.368 361.596C436.368 361.596 436.355 361.609 436.341 361.623C436.206 361.73 436.057 361.69 435.908 361.65C435.881 361.65 435.867 361.636 435.84 361.623C435.732 361.623 435.624 361.623 435.516 361.596C435.191 361.542 434.866 361.461 434.555 361.326C434.135 361.137 433.757 360.881 433.405 360.598C432.62 359.951 432.025 359.156 431.551 358.266C431.172 357.566 430.861 356.824 430.563 356.083C430.211 355.207 429.846 354.358 429.264 353.603C428.831 353.037 428.344 352.552 427.695 352.242C427.519 352.161 427.316 352.107 427.14 352.026C427.113 352.026 427.086 351.985 427.072 351.932H428.588C428.588 351.932 428.655 351.972 428.682 351.985L428.655 352.012ZM436.625 360.773C436.625 360.773 436.625 360.773 436.612 360.773C436.612 360.773 436.612 360.773 436.612 360.787C436.612 360.787 436.612 360.787 436.625 360.787V360.773Z" fill="#F6BF6F"/>
<path d="M378.51 388.647C378.388 388.687 378.28 388.755 378.158 388.782C377.427 388.984 376.669 389.065 375.912 389.159C375.465 389.213 375.019 389.267 374.572 389.334C374.477 389.348 374.396 389.415 374.315 389.456C374.302 389.456 374.288 389.442 374.274 389.429C374.139 389.415 374.004 389.388 373.869 389.375C373.828 389.348 373.787 389.334 373.747 389.307C373.503 389.348 373.26 389.415 373.003 389.415C371.744 389.429 370.472 389.388 369.227 389.2C368.01 389.011 366.805 388.701 365.669 388.202C364.451 387.677 363.355 386.949 362.408 386.019C362.042 385.655 361.717 385.264 361.406 384.86C361.163 384.536 360.919 384.213 360.743 383.849C360.378 383.121 360.013 382.393 359.715 381.638C359.471 381.005 359.322 380.331 359.147 379.67C359.133 379.603 359.147 379.522 359.147 379.441C359.147 379.199 359.106 378.956 359.119 378.713C359.119 378.457 359.12 378.161 359.228 377.945C359.417 377.595 359.174 377.581 358.971 377.514C358.957 377.514 358.944 377.5 358.917 377.487C358.876 377.487 358.849 377.487 358.808 377.5C358.768 377.5 358.741 377.5 358.7 377.5C358.632 377.5 358.551 377.5 358.484 377.487C358.456 377.487 358.443 377.473 358.416 377.46C358.118 377.419 357.82 377.392 357.523 377.352C357.009 377.298 356.481 377.244 355.967 377.19C355.967 377.19 355.953 377.19 355.94 377.19C355.398 377.339 354.83 377.217 354.302 377.392C354.181 377.433 354.045 377.487 353.883 377.554L353.49 376.018C353.964 376.085 354.451 376.139 354.925 376.206C355.304 376.26 355.683 376.301 356.075 376.355C356.359 376.395 356.684 376.355 356.927 376.489C357.13 376.597 357.252 376.503 357.415 376.503C357.428 376.503 357.455 376.516 357.469 376.53C357.59 376.557 357.712 376.584 357.82 376.624C357.875 376.624 357.929 376.624 357.983 376.624C358.605 376.867 359.268 376.894 359.904 377.069C360.053 377.109 360.188 377.163 360.337 377.217C360.364 377.217 360.378 377.217 360.405 377.231C360.716 377.325 361.027 377.406 361.339 377.5C361.352 377.5 361.366 377.514 361.379 377.527C361.379 377.527 361.379 377.5 361.379 377.487C361.325 377.433 361.271 377.365 361.217 377.312C361.176 377.285 361.136 377.258 361.109 377.231C361.014 377.163 360.919 377.096 360.824 377.029C360.784 377.002 360.743 376.975 360.716 376.948C360.621 376.88 360.54 376.813 360.405 376.719C360.865 376.449 361.257 376.112 361.812 376.166C361.812 376.152 361.826 376.139 361.839 376.112C362.015 375.869 362.286 375.883 362.543 375.883C362.583 375.883 362.624 375.883 362.651 375.883C362.841 375.842 363.017 375.789 363.206 375.775C363.774 375.721 364.343 375.721 364.911 375.815C365.682 375.95 366.413 376.206 367.116 376.53C368.686 377.258 370.012 378.322 371.162 379.576C372.082 380.573 372.921 381.665 373.733 382.757C374.68 384.037 375.655 385.291 376.913 386.288C377.86 387.03 378.889 387.623 380.079 387.852C380.404 387.919 380.756 387.919 381.094 387.96C381.148 387.96 381.202 388 381.257 388.081L378.753 388.728C378.753 388.728 378.632 388.687 378.577 388.674L378.51 388.647ZM361.65 377.608C361.65 377.608 361.663 377.608 361.677 377.608C361.677 377.608 361.663 377.608 361.65 377.595C361.65 377.595 361.636 377.595 361.623 377.595C361.623 377.595 361.636 377.595 361.65 377.595V377.608Z" fill="#F6BF6F"/>
<path d="M316.414 249.765C316.36 249.94 316.333 250.115 316.265 250.277C315.873 251.261 315.332 252.177 314.79 253.08C314.466 253.619 314.154 254.172 313.857 254.711C313.789 254.819 313.789 254.967 313.762 255.102C313.735 255.102 313.721 255.116 313.694 255.129C313.559 255.264 313.424 255.399 313.288 255.533C313.234 255.56 313.167 255.587 313.112 255.614C312.95 255.924 312.815 256.248 312.612 256.531C311.57 257.946 310.46 259.307 309.202 260.52C307.971 261.72 306.617 262.771 305.115 263.62C303.505 264.524 301.8 265.13 299.974 265.4C299.27 265.507 298.553 265.521 297.849 265.534C297.294 265.534 296.726 265.534 296.185 265.427C295.075 265.224 293.979 265.009 292.897 264.699C291.99 264.429 291.138 264.025 290.258 263.674C290.163 263.634 290.082 263.553 290.001 263.499C289.73 263.31 289.433 263.122 289.176 262.906C288.905 262.677 288.567 262.461 288.431 262.151C288.201 261.653 287.985 261.909 287.728 262.07C287.701 262.07 287.687 262.097 287.66 262.097C287.633 262.138 287.62 262.192 287.593 262.232C287.552 262.273 287.525 262.313 287.484 262.34C287.417 262.421 287.349 262.488 287.281 262.569C287.254 262.583 287.227 262.596 287.2 262.623C286.916 262.92 286.618 263.216 286.334 263.513C285.833 264.038 285.333 264.564 284.832 265.09C284.832 265.09 284.805 265.103 284.805 265.117C284.521 265.831 283.898 266.357 283.641 267.084C283.574 267.26 283.533 267.448 283.466 267.677C282.802 267.394 282.153 267.125 281.449 266.828C281.923 266.357 282.383 265.871 282.857 265.4C283.235 265.022 283.601 264.631 283.98 264.254C284.264 263.971 284.494 263.58 284.832 263.432C285.13 263.31 285.116 263.081 285.252 262.906C285.279 262.906 285.306 262.879 285.333 262.879C285.468 262.771 285.603 262.664 285.725 262.556C285.766 262.488 285.806 262.434 285.847 262.367C286.645 261.895 287.227 261.181 287.944 260.615C288.107 260.48 288.283 260.386 288.459 260.264C288.486 260.251 288.513 260.224 288.526 260.21C288.878 259.941 289.243 259.671 289.595 259.402C289.622 259.402 289.636 259.388 289.663 259.375C289.649 259.375 289.636 259.348 289.622 259.348C289.514 259.348 289.406 259.361 289.297 259.375C289.243 259.402 289.176 259.415 289.122 259.442C288.973 259.496 288.824 259.536 288.675 259.59C288.607 259.617 288.553 259.631 288.486 259.658C288.337 259.698 288.188 259.752 287.971 259.82C288.053 259.078 288.012 258.364 288.553 257.798C288.553 257.771 288.526 257.744 288.526 257.73C288.404 257.326 288.648 257.043 288.864 256.76C288.905 256.719 288.932 256.679 288.973 256.652C289.081 256.423 289.189 256.167 289.325 255.951C289.744 255.277 290.218 254.657 290.799 254.105C291.584 253.363 292.491 252.784 293.438 252.272C295.549 251.139 297.836 250.587 300.19 250.358C302.057 250.169 303.952 250.169 305.846 250.196C308.052 250.236 310.244 250.196 312.395 249.643C314.005 249.225 315.521 248.578 316.779 247.46C317.131 247.15 317.429 246.772 317.754 246.435C317.808 246.381 317.875 246.355 318.011 246.368L316.617 249.684C316.549 249.738 316.482 249.778 316.414 249.832V249.765ZM290.136 259.132C290.136 259.132 290.163 259.119 290.177 259.105C290.163 259.105 290.15 259.105 290.136 259.105C290.136 259.105 290.123 259.119 290.109 259.132C290.109 259.132 290.123 259.132 290.136 259.119V259.132Z" fill="#841618"/>
<path d="M1327.64 237.105C1327.64 237.105 1337.71 235.407 1347.33 256.015C1347.33 256.015 1357.84 277.972 1352.47 293.054C1352.47 293.054 1345.98 306.465 1331.31 307.732C1331.31 307.732 1315.4 308.676 1307.72 298.958C1307.72 298.958 1298.38 288.256 1303.69 271.529C1303.69 271.529 1312.59 236.943 1327.63 237.105H1327.64Z" fill="#841618"/>
<path d="M1331.08 320.335L1329.34 285.21L1336.74 268.968L1329.17 278.052L1327.6 254.789L1326.69 268.698L1320.44 262.471L1326.3 273.2L1323.93 322.815L1331.08 320.335Z" fill="#640718"/>
<path d="M43.3035 323.628C43.3909 323.553 43.4737 323.464 43.5658 323.401C44.1346 322.989 44.7408 322.678 45.3644 322.375C45.731 322.196 46.0928 322.004 46.4627 321.795C46.5388 321.767 46.5915 321.676 46.6536 321.61C46.6663 321.605 46.6836 321.613 46.701 321.621C46.8199 321.591 46.9434 321.574 47.0623 321.544C47.1051 321.543 47.1525 321.554 47.1825 321.557C47.3842 321.439 47.5684 321.313 47.7794 321.221C48.8531 320.808 49.9456 320.446 51.0675 320.203C52.1688 319.981 53.2822 319.87 54.4137 319.925C55.6228 319.994 56.7866 320.253 57.8938 320.748C58.3234 320.934 58.7163 321.176 59.1267 321.427C59.4408 321.612 59.7515 321.827 60.0162 322.074C60.563 322.576 61.0972 323.082 61.5899 323.633C61.9944 324.101 62.3368 324.635 62.6952 325.135C62.7314 325.193 62.7421 325.261 62.7655 325.324C62.8452 325.539 62.9582 325.727 63.0252 325.947C63.1049 326.161 63.1986 326.414 63.1801 326.637C63.1276 327.001 63.348 326.934 63.5363 326.936C63.549 326.931 63.5664 326.939 63.5838 326.947C63.6091 326.938 63.6472 326.924 63.6679 326.901C63.6933 326.892 63.7313 326.878 63.7567 326.869C63.8201 326.845 63.8836 326.821 63.9517 326.811C63.9644 326.806 63.9945 326.809 64.0118 326.817C64.2749 326.748 64.5428 326.692 64.8059 326.623C65.2687 326.509 65.7315 326.395 66.1896 326.268C66.1896 326.268 66.2022 326.264 66.2149 326.259C66.6248 325.963 67.1491 325.898 67.5496 325.577C67.6497 325.497 67.7371 325.421 67.858 325.319L68.6879 326.506C68.2631 326.606 67.8384 326.706 67.3963 326.798C67.0524 326.883 66.7164 326.95 66.3725 327.034C66.1221 327.098 65.8524 327.227 65.6072 327.189C65.4048 327.149 65.3234 327.28 65.1965 327.327C65.1838 327.331 65.1665 327.323 65.1491 327.315C65.0382 327.328 64.9273 327.34 64.8165 327.352C64.7657 327.371 64.7277 327.385 64.6769 327.404C64.0644 327.387 63.4841 327.573 62.8997 327.632C62.7588 327.641 62.6305 327.646 62.4849 327.642C62.4722 327.647 62.4468 327.656 62.4295 327.648C62.1349 327.671 61.8404 327.694 61.5585 327.712C61.5458 327.717 61.5285 327.709 61.5111 327.701C61.5111 327.701 61.5205 327.727 61.5252 327.739C61.5947 327.771 61.6515 327.807 61.721 327.839C61.7684 327.85 61.8031 327.866 61.8459 327.865C61.9407 327.887 62.053 327.917 62.1478 327.94C62.1953 327.951 62.23 327.967 62.2728 327.965C62.3676 327.987 62.4672 328.022 62.6142 328.068C62.3052 328.442 62.0832 328.855 61.5823 328.983C61.587 328.996 61.579 329.013 61.571 329.03C61.4937 329.289 61.2607 329.361 61.0497 329.454C61.0116 329.468 60.9862 329.477 60.9482 329.491C60.8053 329.573 60.6591 329.685 60.5115 329.754C60.0482 329.983 59.5614 330.149 59.0512 330.252C58.3492 330.383 57.6479 330.399 56.9485 330.342C55.3741 330.221 53.9202 329.725 52.5323 329.018C51.4317 328.463 50.3745 327.791 49.3299 327.115C48.1102 326.316 46.892 325.561 45.4996 325.114C44.466 324.778 43.3904 324.602 42.3005 324.776C42.0026 324.829 41.7062 324.925 41.405 325.008C41.3542 325.027 41.3021 325.003 41.2279 324.958L43.1659 323.607C43.1659 323.607 43.2814 323.608 43.3369 323.601L43.3035 323.628ZM61.1818 327.708C61.1818 327.708 61.1691 327.713 61.1564 327.718C61.1564 327.718 61.1691 327.713 61.1865 327.721C61.1865 327.721 61.1992 327.716 61.2119 327.712C61.2119 327.712 61.1992 327.716 61.1865 327.721L61.1818 327.708Z" fill="#C12127"/>
<path d="M683.732 135.541C683.732 135.541 693.312 130.015 694.408 140.137L696.045 140.137C696.045 140.137 699.401 134.611 702.54 136.229C702.54 136.229 707.033 137.927 707.452 140.137C707.452 140.137 706.18 130.864 696.776 136.39C696.776 136.39 687.886 128.061 683.732 135.541Z" fill="#640718"/>
<path d="M618.294 91.48C618.294 91.48 628.267 85.1856 630.405 97.5992C630.405 97.5992 637.279 91.3048 641.352 100.996" stroke="#640718" stroke-width="1.33333" stroke-miterlimit="10"/>
<path d="M427.273 103.476C427.273 103.476 425.324 96.2783 437.435 93.3804C437.435 93.3804 441.67 92.7065 446.419 95.7661C446.419 95.7661 450.465 88.8382 455.228 87.7734C455.228 87.7734 457.515 86.9512 463.198 87.7464C463.198 87.7464 466.757 88.4608 468.11 93.0435C468.11 93.0435 459.761 88.2047 453.307 91.3047C453.307 91.3047 451.778 91.5608 449.139 102.451C449.139 102.451 439.586 95.3483 438.423 95.4426C438.423 95.4426 433.93 94.7013 427.286 103.476L427.273 103.476Z" fill="#640718"/>
<path d="M427.273 103.476C427.273 103.476 425.325 96.2783 437.435 93.3805C437.435 93.3805 441.671 92.7065 446.42 95.7662C446.42 95.7662 450.466 88.8382 455.229 87.7734C455.229 87.7734 457.516 86.9512 463.199 87.7465C463.199 87.7465 466.757 88.4608 468.111 93.0435C468.111 93.0435 459.762 88.2047 453.307 91.3048C453.307 91.3048 451.778 91.5609 449.14 102.451C449.14 102.451 439.587 95.3483 438.423 95.4427C438.423 95.4427 433.931 94.7014 427.287 103.476L427.273 103.476Z" fill="#640718"/>
<path d="M370.944 120.85C370.944 120.85 377.574 115.04 377.926 122.723C377.926 122.723 380.077 116.86 384.908 123.114" stroke="#640718" stroke-width="1.33333" stroke-miterlimit="10"/>
<path d="M1297.7 134.169C1297.7 134.169 1289.54 125.334 1284.06 136.688C1284.06 136.688 1278.97 128.715 1272.32 136.91" stroke="#640718" stroke-width="1.33333" stroke-miterlimit="10"/>
<path d="M1482.98 69.4979C1482.98 69.4979 1482.33 62.0549 1469.66 63.6929C1469.66 63.6929 1465.35 64.5838 1461.85 69.1572C1461.85 69.1572 1455.53 64.1212 1450.58 64.8356C1450.58 64.8356 1448.09 64.8873 1442.9 67.6749C1442.9 67.6749 1439.72 69.6232 1440.02 74.4027C1440.02 74.4027 1446.37 66.8689 1453.66 67.4532C1453.66 67.4532 1455.22 67.1435 1461.57 76.3975C1461.57 76.3975 1468.28 66.3097 1469.43 65.9798C1469.43 65.9798 1473.5 63.6707 1482.96 69.5027L1482.98 69.4979Z" fill="#640718"/>
<path d="M1482.98 69.4981C1482.98 69.4981 1482.33 62.0551 1469.66 63.6931C1469.66 63.6931 1465.35 64.584 1461.85 69.1574C1461.85 69.1574 1455.53 64.1214 1450.58 64.8358C1450.58 64.8358 1448.09 64.8875 1442.9 67.6751C1442.9 67.6751 1439.72 69.6234 1440.02 74.4029C1440.02 74.4029 1446.36 66.8691 1453.66 67.4534C1453.66 67.4534 1455.22 67.1437 1461.57 76.3977C1461.57 76.3977 1468.28 66.3099 1469.43 65.98C1469.43 65.98 1473.5 63.6709 1482.96 69.5029L1482.98 69.4981Z" fill="#640718"/>
<path d="M1543.27 65.5278C1543.27 65.5278 1534.85 62.4687 1537.2 69.7924C1537.2 69.7924 1533.08 65.0731 1530.62 72.6681" stroke="#640718" stroke-width="1.33333" stroke-miterlimit="10"/>
</g>
<defs>
<linearGradient id="paint0_linear_1_2" x1="799.48" y1="198.027" x2="798.008" y2="-396.402" gradientUnits="userSpaceOnUse">
<stop stop-color="#FFF3B6"/>
<stop offset="0.332698" stop-color="#F4BE89"/>
<stop offset="0.53" stop-color="#EE9E6F"/>
<stop offset="0.87" stop-color="#EA885E"/>
<stop offset="0.94" stop-color="#EA8A60"/>
</linearGradient>
<clipPath id="clip0_1_2">
<rect width="1600" height="400" fill="white"/>
</clipPath>
</defs>
</svg>
