<svg width="720" height="720" viewBox="0 0 720 720" fill="none" xmlns="http://www.w3.org/2000/svg">
<g clip-path="url(#clip0_502_10)">
<mask id="mask0_502_10" style="mask-type:luminance" maskUnits="userSpaceOnUse" x="0" y="0" width="347" height="720">
<path d="M95.6 359.9C95.6 195 199.7 54.3998 345.8 0.299805C153.6 7.7998 0 165.9 0 360C0 554.3 153.9 712.6 346.4 719.7C200.1 665.7 95.6 525 95.6 359.9Z" fill="url(#paint0_radial_502_10)"/>
</mask>
<g mask="url(#mask0_502_10)">
<path d="M95.6 359.9C95.6 195 199.7 54.3998 345.8 0.299805C153.6 7.7998 0 165.9 0 360C0 554.3 153.9 712.6 346.4 719.7C200.1 665.7 95.6 525 95.6 359.9Z" fill="url(#paint1_radial_502_10)"/>
</g>
<path fill-rule="evenodd" clip-rule="evenodd" d="M360 720C558.823 720 720 558.823 720 360C720 161.177 558.823 0 360 0C161.177 0 0 161.177 0 360C0 558.823 161.177 720 360 720ZM353.9 325.7C377.8 266.8 333.1 250.8 304 250.8H207.6C215.6 256.3 214.3 263.6 212.7 268.1L156.5 447.6C154.3 454.7 145.9 462.2 141.4 463.3H219.4C215.1 462.5 209 456.4 211.2 448.1L231.6 383.2L231.607 383.201L231.648 383.206L231.65 383.206C234.102 383.513 325.866 394.997 353.9 325.7ZM278.1 267.3C288.3 267.3 316.6 268.7 298.3 322.2C279.2 378.4 236.8 366.8 236.8 366.8L268 267.3H278.1ZM468.8 463.4H416.3C410.9 460.8 400.6 451.1 396.7 447.4C392.7 450.3 370 466 347 466.4C325.8 466.8 312.6 459.1 304.8 446.9C300.3 439.8 298.8 432 298.8 425C298.8 416.9 300.8 409.9 302.2 406.7C312.063 383.926 337.924 374.979 351.528 370.273L351.532 370.272C353.099 369.73 354.502 369.244 355.7 368.8C355.7 368.8 357.3 368.2 358.2 367.8C358.1 366.6 358 364.6 358 361.9C358 350.8 360 326.3 375.8 311.4C380.3 307.3 389.2 301.7 399.7 299.7C412.8 297.3 425.2 300.5 433.1 308.3C437.7 312.8 440.2 318.8 440.2 325.2V326C440 332.1 437.4 341.5 426.1 351.4C416.576 359.724 405.067 365.101 395.365 369.633C392.944 370.764 390.637 371.842 388.5 372.9C391.5 392.7 400 406.2 408 418C412.6 412.3 415 404.1 415 398.2C415 391.8 409.8 388.8 409.8 388.8H437C435.2 411.1 425.3 422.1 417.3 430.8C427.2 442.1 452 458 468.8 463.4ZM386 358.1C391.4 355.8 413.6 338.5 416.3 321.4C416.7 316.9 416.2 312.7 411.6 311.1C405.9 309.1 398.8 312.7 393.5 320.9C385.5 333.3 385 348.5 386 358.1ZM358.8 445C370.2 443.9 382.4 437.7 385.5 435.8C375.1 422 365.4 402.2 361.1 384.7C350.4 389.3 330.7 402.6 330.7 420.7C330.6 441.9 348.2 446 358.8 445ZM575.8 267.5C604.606 260.575 628.724 280.843 634.066 285.332L634.067 285.333C634.51 285.706 634.824 285.97 635 286.1L643.9 257.8C643.54 257.691 643.113 257.56 642.622 257.409C626.375 252.411 540.245 225.917 478.8 296C439.9 340.4 430.4 431.4 479.7 455.8C531.283 481.298 588.115 453.158 594.717 449.889C594.873 449.812 595.001 449.748 595.1 449.7L619.2 372.9C621.8 363.6 627.7 357.6 638.1 353.7H554.3C566.5 358.8 565.6 368 564.7 371.8L540.6 448.6C540.523 448.614 540.408 448.639 540.257 448.67C534.195 449.935 470.914 463.143 507.7 348.1C516 322.8 538.7 276.4 575.8 267.5ZM345.8 0.299805C174 7.00374 56 175.5 56 359.9C56 571.5 198 714.226 346.4 719.7C153.9 712.6 48 554.2 48 359.9C48 165.8 153.6 7.7998 345.8 0.299805Z" fill="white"/>
</g>
<defs>
<radialGradient id="paint0_radial_502_10" cx="0" cy="0" r="1" gradientUnits="userSpaceOnUse" gradientTransform="translate(301.989 349.029) rotate(-88.2324) scale(387.733 394.563)">
<stop offset="0.1" stop-color="white"/>
<stop offset="0.35" stop-color="#FDFDFD"/>
<stop offset="0.45" stop-color="#F6F6F6"/>
<stop offset="0.51" stop-color="#EAEAEA"/>
<stop offset="0.57" stop-color="#D9D9D9"/>
<stop offset="0.62" stop-color="#C3C3C3"/>
<stop offset="0.66" stop-color="#A7A7A7"/>
<stop offset="0.7" stop-color="#868686"/>
<stop offset="0.73" stop-color="#606060"/>
<stop offset="0.77" stop-color="#353535"/>
<stop offset="0.8"/>
</radialGradient>
<radialGradient id="paint1_radial_502_10" cx="0" cy="0" r="1" gradientUnits="userSpaceOnUse" gradientTransform="translate(280.059 289.758) scale(452.93 452.93)">
<stop offset="0.32" stop-color="#44BEEE" stop-opacity="0"/>
<stop offset="0.48" stop-color="#2B99D9" stop-opacity="0.27"/>
<stop offset="0.67" stop-color="#1476C6" stop-opacity="0.58"/>
<stop offset="0.82" stop-color="#0561BA" stop-opacity="0.84"/>
<stop offset="0.92" stop-color="#0059B6"/>
</radialGradient>
<clipPath id="clip0_502_10">
<rect width="720" height="720" fill="white"/>
</clipPath>
</defs>
</svg>
