<svg width="800" height="800" viewBox="0 0 800 800" fill="none" xmlns="http://www.w3.org/2000/svg">
<path fill-rule="evenodd" clip-rule="evenodd" d="M389.554 410.308C390.231 410.437 390.908 410.557 391.582 410.677L389.554 410.308ZM395.338 411.271C396.161 411.394 396.985 411.503 397.811 411.612L395.338 411.271ZM401.453 412.005C402.257 412.078 403.057 412.147 403.862 412.208L401.453 412.005ZM404.723 412.267C405.402 412.317 406.081 412.357 406.76 412.393L404.723 412.267ZM407.749 412.445C408.554 412.48 409.359 412.511 410.163 412.537L407.749 412.445ZM410.963 412.547C412.76 412.594 414.559 412.596 416.356 412.551L410.963 412.547ZM417.215 412.537C418.053 412.512 418.891 412.479 419.728 412.44L417.215 412.537ZM420.865 412.383C420.75 412.389 420.634 412.396 420.518 412.402L420.596 412.397C420.686 412.393 420.776 412.388 420.865 412.383ZM422.681 412.267C422.316 412.292 421.952 412.316 421.588 412.339C421.901 412.319 422.214 412.298 422.527 412.277L422.681 412.267ZM425.786 412.016L425.767 412.019C424.986 412.092 424.198 412.158 423.412 412.218L422.667 412.267C422.62 412.271 422.574 412.274 422.527 412.277L420.596 412.397C420.565 412.399 420.535 412.401 420.504 412.402L419.714 412.445C418.876 412.485 418.043 412.516 417.201 412.542L416.346 412.556C414.549 412.601 412.751 412.599 410.953 412.551L410.149 412.542C409.344 412.516 408.54 412.485 407.735 412.45L406.751 412.395L406.496 412.381C405.902 412.348 405.308 412.315 404.713 412.27L403.85 412.213C403.046 412.151 402.243 412.083 401.441 412.009L400.253 411.886L398.679 411.716L397.801 411.614C396.975 411.513 396.151 411.398 395.328 411.271L394.332 411.124L392.572 410.85L391.665 410.698L391.368 410.646C390.759 410.538 390.151 410.431 389.545 410.313L388.019 410.007L387.238 409.849L386.867 409.768C385.946 409.568 385.021 409.367 384.107 409.146L383.833 409.082L382.202 408.685L381.365 408.469C380.392 408.218 379.424 407.949 378.459 407.679L378.113 407.577C349.371 399.285 324.811 381.185 308.253 357.143L306.074 360.461C302.127 367.067 296.374 366.291 293.277 365.865L292.472 365.74C291.029 365.536 290.115 365.974 286.166 368.156L285.532 368.487C281.265 370.828 272.817 373.859 267.178 375.88L264.959 376.673C258.529 379.008 254.312 376.036 251.837 374.24L250.969 373.636C247.824 371.554 246.196 367.95 245.041 365.359C245.041 365.359 244.662 364.599 244.478 364.19C243.837 364.131 243.193 364.106 242.549 364.114C237.54 364.114 235.753 361.821 234.601 359.325L234.397 358.896C233.718 357.524 230.748 353.163 229.927 352.311C228.538 350.922 227.551 348.551 227.395 346.875C226.874 341.442 229.858 340.245 232.606 339.689L238.363 339.135L243.418 338.756C245.296 338.584 248.661 338.536 250.034 338.943L254.345 337.807C255.584 337.484 257.187 337.512 259.011 337.543C260.207 337.564 261.499 337.586 262.845 337.512C261.038 336.142 259.327 334.648 257.727 333.042C256.082 333.387 254.374 333.766 254.374 333.766C249.672 334.838 232.606 333.891 227.206 331.932C224.461 330.936 215.899 332.341 211.789 333.042L209.323 333.418C206.807 333.804 204.239 333.676 201.774 333.042C201.644 336.134 199.969 338.943 198.532 341.319L198.49 341.389C197.662 342.75 196.637 344.433 196.512 345.361C195.78 350.607 190.025 353.12 184.496 355.535L184.346 355.6C182.181 356.516 180.004 357.479 178.459 358.414C172.372 362.154 165.707 360.952 160.364 359.989L160.29 359.975L157.696 359.516C153.382 358.851 146.477 359.926 141.236 365.172C133.221 373.168 125.246 371.41 121.614 370.416C120.412 371.128 117.934 373.705 116.365 376.481C113.336 381.98 107.551 383.542 103.192 382.674L102.754 382.56C100.965 382.184 97.9764 381.597 95.6881 381.883L89.7296 382.674L89.7935 381.632C85.7163 382.295 81.3858 381.535 78.9295 379.706C77.124 378.362 74.5944 375.172 77.789 368.838C78.5296 367.318 78.7828 366.263 78.7828 364.855C78.7828 359.327 81.9798 355.236 84.2231 353.958C86.5753 352.725 88.1229 351.492 88.7523 349.63C89.3699 347.763 90.5815 346.199 92.7822 344.966C93.4155 344.604 94.1267 344.165 94.878 343.701C96.7094 342.571 98.7789 341.295 100.539 340.623C103.017 339.691 106.441 338.728 108.308 340.623C110.189 342.455 114.498 346.199 114.498 346.199C117.304 344.032 117.928 341.631 118.787 338.33C119.138 336.979 119.528 335.478 120.123 333.78C122.358 327.458 127.304 328.136 131.173 328.666C131.742 328.744 132.287 328.819 132.797 328.867L133.254 328.931C133.254 328.931 135.4 329.026 135.464 329.059C135.575 328.995 136.177 328.711 136.177 328.711L137.173 328.188C137.173 328.188 143.6 324.414 143.664 324.383C143.692 324.305 143.692 324.191 143.692 324C143.692 323.543 143.536 322.611 142.667 321.222C139.809 316.797 137.788 308.032 137.421 300.656C136.389 300.779 135.393 300.88 134.414 300.958C118.848 302.208 109.598 298.27 104.186 293.199C101.273 290.526 99.06 287.181 97.7397 283.455C97.6975 283.332 97.6548 283.209 97.6116 283.084C96.5581 280.038 95.274 276.325 95.274 273.154C95.3426 258.269 104.03 247.214 113.381 242.095C117.631 239.772 119.21 238.177 119.858 237.358C119.547 237.22 119.215 237.136 118.876 237.107C106.147 237.107 99.621 232.161 96.4169 227.975C93.3809 224.054 91.8309 219 91.8309 213.472C91.8309 210.786 92.2096 207.975 92.955 205.1C96.5424 199.174 99.9499 200.802 102.037 203.834C103.367 205.731 112.48 212.192 123.708 213.216C131.879 213.992 136.283 217.989 138.574 221.181C141.215 224.878 142.227 229.331 142.227 233.12C142.227 234.67 142.052 236.125 141.719 237.419C140.488 242.412 135.228 246.913 127.901 252.647L123.746 256.092C117.662 261.417 114.314 267.342 114.314 272.363C114.314 273.618 114.534 274.841 114.957 275.97C115.132 276.434 115.343 276.881 115.592 277.304C118.311 281.907 125.994 284.794 137.14 280.894C142.291 279.108 152.209 272.865 158.264 266.862C165.389 259.753 174.9 258.047 184.057 257.323C191.999 256.724 196.888 254.777 200.331 250.905C210.506 239.44 220.298 237.829 229.463 237.147C232.97 236.877 233.159 236.627 233.616 236.009C238.668 229.281 243.858 225.72 248.515 223.647C252.064 222.069 255.306 221.349 257.961 220.767L261.184 219.975L261.989 219.691C267.091 218.048 271.04 216.688 281.419 209.674L281.861 209.395L281.864 209.39L282.299 209.118L282.304 209.115L282.742 208.857L282.749 208.855L283.187 208.604L283.194 208.602L283.634 208.37L283.648 208.365L284.083 208.138L284.098 208.133L284.535 207.92L284.554 207.916L284.995 207.712L285.011 207.703L285.454 207.518L285.473 207.511L285.913 207.329L285.936 207.324L286.379 207.158L286.4 207.147L286.838 206.99L287.304 206.834L287.335 206.827L287.77 206.687L287.799 206.68L288.241 206.553L288.272 206.545L288.71 206.425L288.743 206.415L289.183 206.311L289.223 206.302L289.656 206.202L289.692 206.193L290.134 206.103L290.172 206.093L290.61 206.013L290.65 206.006L291.088 205.933L291.128 205.928L291.561 205.864L291.606 205.854L292.042 205.805L292.087 205.795L292.515 205.748L292.562 205.746L292.995 205.705L293.045 205.701L293.476 205.67L293.525 205.665L293.949 205.639L293.999 205.637L294.427 205.618L294.905 205.604H294.955L295.38 205.599H295.911L296.332 205.604L296.381 205.606H296.431C296.684 205.612 296.936 205.626 297.188 205.64C297.239 205.643 297.289 205.646 297.34 205.649L297.756 205.675L297.815 205.679L298.225 205.71L298.286 205.715L298.696 205.755L298.76 205.762L299.167 205.802L299.233 205.807L299.638 205.857L299.701 205.866L300.104 205.916L300.172 205.928L300.57 205.987L300.636 205.999L301.036 206.06L301.107 206.075L301.498 206.143L301.571 206.155L301.959 206.226L302.03 206.243C302.65 206.359 303.26 206.496 303.859 206.642L304.235 206.737L304.311 206.758C304.915 206.915 305.511 207.08 306.098 207.255L306.446 207.364L306.531 207.39C307.695 207.757 308.824 208.171 309.917 208.609L310.225 208.737L310.627 208.902C332.823 178.748 367.916 158.683 407.801 156.868V156.859C409.765 156.771 411.73 156.726 413.696 156.724C414.995 156.725 416.295 156.745 417.593 156.783C418.24 156.805 418.886 156.831 419.529 156.857H419.536L419.601 156.86C420.219 156.89 420.843 156.92 421.462 156.958C460.058 159.277 494.048 178.715 515.939 207.776C519.065 206.69 522.471 205.902 525.947 205.665L526.039 205.66L526.368 205.639L526.711 205.623L526.794 205.618L526.884 205.615L527.22 205.606L527.31 205.601L527.646 205.599L527.736 205.597L528.079 205.594H528.162L528.505 205.597H528.59L529.014 205.604L529.359 205.618L529.435 205.62L529.78 205.637L529.861 205.642L530.209 205.665L530.275 205.67L530.627 205.698L530.696 205.703L531.051 205.739L531.115 205.746C531.148 205.749 531.182 205.753 531.215 205.756L533.548 206.114C533.581 206.12 533.614 206.127 533.647 206.134L534.018 206.209L534.068 206.221L534.435 206.309L534.487 206.318L534.856 206.413L534.906 206.425L535.28 206.524L535.32 206.536L535.703 206.642L535.739 206.654L536.113 206.77L536.155 206.782L536.536 206.908L536.569 206.917L536.981 207.061L537.367 207.199L537.39 207.21L537.774 207.359L537.797 207.369L538.188 207.525L538.212 207.537C538.255 207.555 538.298 207.574 538.341 207.592L540.098 208.431C540.137 208.451 540.175 208.472 540.214 208.493L540.225 208.5L540.616 208.708L540.621 208.713L541.011 208.938L541.018 208.94L541.409 209.177L541.413 209.179L541.799 209.423L542.189 209.676C549.341 214.537 553.472 216.678 556.998 218.077C558.534 218.689 559.964 219.154 561.471 219.645L561.617 219.693L562.438 219.977L565.694 220.77C567.46 221.158 569.476 221.605 571.66 222.32C577.124 224.099 583.653 227.554 589.988 236.011C590.447 236.629 590.65 236.88 594.174 237.15C603.329 237.833 613.104 239.443 623.322 250.908C626.739 254.779 631.605 256.724 639.544 257.325C648.756 258.049 658.236 259.753 665.347 266.864C671.409 272.867 681.315 279.11 686.481 280.896C697.621 284.796 705.343 281.909 707.998 277.307C708.58 276.337 708.97 275.269 709.169 274.141C709.273 273.555 709.326 272.961 709.328 272.366C709.328 267.344 705.975 261.419 699.907 256.095L699.152 255.468L695.712 252.649C688.414 246.916 683.151 242.415 681.883 237.422C681.549 236.127 681.405 234.672 681.405 233.122C681.405 229.331 682.441 224.88 685.03 221.184C687.337 217.992 691.788 213.995 699.907 213.219C711.195 212.194 720.258 205.734 721.583 203.836C723.706 200.805 727.08 199.177 730.653 205.102C731.411 207.977 731.789 210.788 731.789 213.474C731.789 219.033 730.239 224.057 727.206 227.978C723.98 232.164 717.475 237.109 704.725 237.109C704.455 237.109 704.079 237.235 703.764 237.36C704.396 238.181 705.975 239.776 710.234 242.098C719.586 247.218 728.282 258.274 728.36 273.156C728.36 276.457 726.986 280.343 725.876 283.457C724.716 286.723 722.877 289.706 720.48 292.21C720.156 292.546 719.818 292.877 719.461 293.202C714.193 298.095 705.419 301.936 690.799 301.063C689.26 300.969 687.723 300.83 686.192 300.646C685.813 308.022 683.79 316.789 680.943 321.212C680.077 322.601 679.907 323.534 679.907 323.99C679.907 324.107 679.914 324.193 679.919 324.261C679.923 324.306 679.926 324.342 679.926 324.374C680.016 324.404 686.412 328.179 686.412 328.179L687.444 328.702C687.444 328.702 688.045 328.986 688.123 329.05C688.215 329.016 690.333 328.922 690.333 328.922L690.752 328.863L690.794 328.858C691.309 328.809 691.858 328.734 692.43 328.656C696.306 328.126 701.235 327.452 703.497 333.77C704.097 335.47 704.49 336.976 704.843 338.328C704.89 338.506 704.935 338.681 704.981 338.853C705.773 341.887 706.453 344.14 709.108 346.187C709.108 346.187 710.421 345.06 711.912 343.735C713.063 342.718 714.193 341.676 715.298 340.609C717.149 338.714 720.573 339.677 723.041 340.609C724.806 341.278 726.867 342.549 728.696 343.677C729.454 344.144 730.172 344.587 730.812 344.951C733.01 346.184 734.222 347.749 734.854 349.616C735.514 351.478 737.04 352.711 739.369 353.944C741.617 355.221 744.84 359.315 744.84 364.841C744.84 365.688 744.934 366.412 745.173 367.181C745.337 367.69 745.559 368.22 745.864 368.823C749.007 375.158 746.484 378.348 744.665 379.692C742.218 381.524 737.902 382.281 733.846 381.618L733.879 382.659L727.956 381.869C725.66 381.583 722.634 382.17 720.826 382.546L720.4 382.659C716.183 383.497 710.669 382.07 707.572 377.039L707.504 376.927C707.413 376.777 707.323 376.625 707.238 376.467C705.658 373.691 703.197 371.114 701.992 370.402C700.253 370.88 697.505 371.528 694.235 371.194C691.201 370.889 687.702 369.725 684.143 366.776C683.553 366.287 682.959 365.745 682.37 365.158C677.141 359.912 670.24 358.837 665.903 359.502L663.316 359.961L663.237 359.976C657.911 360.939 651.279 362.139 645.15 358.399C643.616 357.465 641.406 356.502 639.239 355.586L639.216 355.576C633.631 353.144 627.865 350.633 627.078 345.347C626.945 344.402 625.923 342.677 625.083 341.305C624.345 340.091 623.54 338.763 622.918 337.341C622.319 335.983 621.888 334.537 621.848 333.027C620.017 333.498 618.126 333.691 616.238 333.6C615.571 333.567 614.906 333.501 614.245 333.404L611.817 333.027C607.726 332.329 599.157 330.921 596.429 331.918C590.996 333.877 573.899 334.823 569.211 333.751C569.211 333.751 567.486 333.373 565.86 333.027C564.298 334.639 562.557 336.151 560.725 337.497C562.085 337.572 563.379 337.549 564.576 337.529C566.399 337.498 567.995 337.47 569.246 337.793L573.553 338.929C574.928 338.522 578.291 338.569 580.2 338.742L585.245 339.121L591 339.674C593.774 340.231 596.717 341.428 596.213 346.861C596.019 348.536 595.082 350.905 593.672 352.297C592.896 353.149 589.888 357.51 589.228 358.882L589.013 359.311C587.841 361.807 586.104 364.1 581.047 364.1C580.405 364.091 579.763 364.117 579.124 364.176C578.97 364.585 578.556 365.345 578.556 365.345C577.417 367.934 575.773 371.538 572.63 373.622L571.79 374.226C569.268 376.027 565.065 378.994 558.631 376.658L556.416 375.866L555.925 375.689C550.323 373.671 542.203 370.746 538.046 368.473L537.445 368.142C533.458 365.96 532.575 365.522 531.127 365.726L530.322 365.851C527.265 366.279 521.5 367.053 517.515 360.446L517.151 359.874C498.256 385.809 469.855 404.373 437.076 410.433L436.931 410.464C435.814 410.668 434.688 410.857 433.562 411.034L433.143 411.096L431.602 411.323C431.539 411.333 431.476 411.342 431.413 411.351L429.816 411.567C429.809 411.568 429.803 411.568 429.797 411.569L428.699 411.706L426.967 411.893L425.786 412.016ZM425.786 412.016L423.431 412.215C424.217 412.156 425.005 412.09 425.786 412.016ZM429.816 411.567C430.351 411.5 430.883 411.429 431.413 411.351L431.621 411.323C431.023 411.418 430.422 411.496 429.816 411.567ZM540.098 208.431L540.223 208.491C539.572 208.14 538.904 207.82 538.221 207.535L538.341 207.592C538.932 207.845 539.518 208.122 540.098 208.431ZM533.548 206.114L533.663 206.131C532.826 205.96 531.981 205.83 531.131 205.743L531.215 205.756C531.998 205.839 532.776 205.959 533.548 206.114ZM146.866 318.883C141.21 307.821 142.507 295.267 142.507 295.267C133.886 296.767 124.21 297.619 115.833 294.725C94.0676 286.034 102.989 263.515 102.989 263.515C106.981 250.652 115.814 246.787 115.814 246.787C120.836 244.902 124.577 239.719 124.577 239.719C127.242 233.661 119.61 232.533 119.61 232.533C90.3264 232.97 97.7875 206.692 97.7875 206.692C104.47 215.036 120.994 218.228 120.994 218.228C134.163 218.474 136.291 227.774 136.291 227.774C140.318 237.398 131.532 243.588 131.532 243.588C120.701 251.594 114.352 259.256 114.352 259.256C104.342 274.266 113.098 282.555 113.098 282.555C129.996 298.587 158.336 273.866 158.336 273.866C169.566 260.64 186.817 262.405 186.817 262.405C197.395 261.137 202.738 255.922 202.738 255.922C214.238 240.559 229.859 242.445 229.859 242.445C236.97 241.584 237.613 239.322 237.613 239.322C245.136 227.076 262.78 225.022 262.78 225.022C271.365 222.856 281.644 215.864 281.644 215.864C296.529 203.968 317.132 218.798 317.132 218.798C321.006 222.932 326.295 226.778 326.295 226.778C337.975 234.972 343.333 241.253 343.333 241.253C347.405 245.396 352.881 252.161 352.881 252.161C360.087 258.376 364.713 267.294 364.713 267.294C371.618 275.631 370.88 286.341 370.88 286.341C370.865 288.606 373.097 296.805 373.097 296.805C373.665 298.987 375.773 308.322 375.773 308.322C379.91 313.909 380.257 323.85 380.257 323.85C389.127 330.431 391.765 339.277 391.765 339.277C396.034 345.813 405.118 349.317 405.118 349.317C393.547 353.394 385.518 341.262 385.518 341.262C383.182 335.585 376.717 329.383 376.717 329.383C374.183 326.839 373.021 327.708 373.021 327.708C371.014 328.448 373.095 331.295 373.095 331.295C379.9 339.875 380.35 346.054 380.35 346.054C383.719 353.33 396.711 358.674 396.711 358.674C380.383 362.24 370.295 348.704 370.295 348.704C368.868 345.467 364.663 348.801 364.663 348.801C359.138 354.909 350.846 353.967 350.846 353.967C348.134 353.425 346.007 353.659 346.007 353.659C342.736 353.494 336.106 355.865 336.106 355.865C334.364 356.48 329.156 357.912 329.156 357.912C325.72 359.1 324.404 359.104 324.404 359.104C323.131 358.721 322.426 359.291 322.426 359.291C319.766 360.032 318.084 357.699 318.084 357.699C316.763 356.08 316.072 351.045 316.072 351.045C316.352 346.681 320.088 343.43 320.088 343.43C321.524 341.818 321.139 341.636 321.139 341.636C319.823 339.899 316.098 341.624 316.098 341.624C313.351 342.585 314.681 338.569 314.681 338.569C315.228 334.397 321.449 330.041 321.449 330.041C323.455 328.607 323.668 326.158 323.668 326.158C323.948 323.081 327.249 318.386 327.249 318.386C328.82 316.434 326.068 317.099 326.068 317.099C323.955 317.681 313.01 319.281 313.01 319.281C309.376 321.872 300.589 319.281 300.589 319.281C311.692 305.632 304.73 292.21 304.73 292.21C304.782 298.164 301.231 307.809 301.231 307.809C298.651 316.079 294.68 317.281 294.68 317.281C293.201 318.294 284.943 320.159 284.943 320.159C281.628 321.422 283.682 324.122 283.682 324.122C284.664 324.759 286.507 328.47 286.507 328.47C287.349 331.243 293.227 340.521 293.227 340.521C295.736 342.597 295.149 346.141 295.149 346.141C295.348 349.544 292.324 355.907 292.324 355.907C291.583 357.696 292.581 357.42 292.581 357.42C293.14 357.365 295.435 356.007 295.435 356.007C296.763 355.219 298.398 351.669 298.398 351.669C298.9 350.701 300.144 348.709 300.144 348.709C301.133 347.663 301.377 345.155 301.377 345.155C301.564 341.577 297.885 335.95 297.885 335.95C295.166 332.083 291.453 322.594 291.453 322.594L296.848 322.199C298.646 323.242 300.284 325.779 300.284 325.779L304.326 335.278C304.664 336.917 306.806 339.182 306.806 339.182C309.073 341.915 308.559 344.603 308.559 344.603C308.732 347.318 307.487 349.478 307.487 349.478L301.817 358.25C299.558 362.581 294.07 361.272 294.07 361.272C290.932 360.207 286.976 362.422 286.976 362.422C283.79 364.803 265.496 371.518 265.496 371.518C261.705 373.646 257.666 372.297 257.666 372.297C253.347 370.827 250.796 366.23 250.796 366.23C248.009 357.034 243.065 359.483 243.065 359.483C239.502 360.03 239.05 357.457 239.05 357.457C237.5 354.447 233.706 349.405 233.706 349.405C230.924 346.376 234.703 345.408 234.703 345.408L245.78 344.509C251.679 344.061 258.456 358.567 258.456 358.567C260.148 362.491 265.399 360.832 265.399 360.832C279.453 355.839 281.076 353.995 281.076 353.995C281.249 340.552 270.65 336.693 270.65 336.693C258.783 332.388 254.441 318.043 254.441 318.043C252.588 315.573 250.971 319.413 250.971 319.413C250.396 324.778 253.326 329.265 253.326 329.265C242.041 330.706 228.907 327.589 228.907 327.589C220.367 326.127 209.861 328.638 209.861 328.638C202.93 329.726 199.184 326.782 199.184 326.782C192.731 322.937 196.167 303.081 196.167 303.081C196.552 299.415 194.621 300.007 194.621 300.007C189.621 304.496 190.755 323.45 190.755 323.45C180.284 345.682 157.701 345.02 157.701 345.02C153.125 344.277 147.637 345.443 147.637 345.443C130.872 348.529 123.235 361.551 123.235 361.551C125.931 362.642 127.819 359.914 127.819 359.914C141.638 344.989 157.372 348.553 157.372 348.553C168.331 350.325 173.79 348.143 173.79 348.143C183.774 345.164 189.65 335.282 189.65 335.282L196.138 335.356C194.396 337.376 192.002 343.441 192.002 343.441C191.595 347.753 187.657 348.91 187.657 348.91C184.439 350.022 175.861 354.507 175.861 354.507C171.618 357.644 158.016 354.89 158.016 354.89C145.941 352.968 137.391 362.308 137.391 362.308C131.167 368.74 122.355 365.792 122.355 365.792C117.968 364.268 112.052 374.398 112.052 374.398C108.99 380.04 102.142 377.739 102.142 377.739C99.3564 376.731 95.0827 377.292 95.0827 377.292C95.0354 374.524 95.9394 370.913 95.9394 370.913C97.5982 365.33 100.104 364.535 100.104 364.535C103.464 364.396 105.142 361.229 105.142 361.229C106.72 356.717 111.924 355.524 111.924 355.524C118.453 352.621 122.398 343.557 122.398 343.557C124.338 339.819 125.888 335.282 125.888 335.282C127.672 332.923 133.013 334.246 133.013 334.246C136.877 334.539 138.042 333.673 138.042 333.673L146.705 328.638C151.057 324.823 146.866 318.883 146.866 318.883ZM105.047 347.147C103.512 346.787 101.782 347.344 100.601 348.33C100.601 348.33 96.3274 352.022 94.0439 352.949C94.0439 352.949 90.1181 354.388 93.1352 357.363C93.1352 357.363 96.3606 360.995 100.433 357.945C100.433 357.945 105.012 353.517 106.415 350.893C106.415 350.893 108.512 347.893 105.047 347.147ZM92.4584 365.186C93.1352 363.34 91.8692 362.405 91.8692 362.405C91.0789 361.457 90.2175 360.569 89.1266 359.959C83.6296 357.711 83.736 366.196 83.736 366.196C83.4213 369.568 82.2074 371.412 82.2074 371.412C81.0408 373.388 81.2324 374.751 81.2324 374.751C82.2239 378.281 89.3774 377.004 89.3774 377.004C89.226 374.034 92.4584 365.186 92.4584 365.186ZM342.578 342.571C342.426 343.957 342.746 344.419 344.005 344.45C344.005 344.45 348.21 344.36 349.187 344.024C349.187 344.024 354.078 343.245 353.016 337.057C353.016 337.057 352.311 333.588 346.513 337.052C346.513 337.052 343.423 338.716 342.578 342.571ZM361.496 316.788L361.495 316.815C361.495 316.815 366.921 315.937 365.383 305.092C365.383 305.092 365.241 303.211 363.769 301.46C363.769 301.46 357.131 293.542 355.886 291.112C355.886 291.112 353.096 287.619 350.136 292.207C350.136 292.207 349.724 293.575 349.277 294.602C347.825 297.492 346.358 300.374 344.878 303.249C344.878 303.249 344.156 304.453 344.182 305.532C344.182 305.532 347.242 306.254 350.309 300.336C350.309 300.336 351.454 298.272 352.342 298.358C352.342 298.358 352.846 298.429 353.501 299.572C353.501 299.572 357.808 304.288 358.896 305.154C361.838 307.451 361.603 313.872 361.496 316.788ZM300.738 246.468C299.827 248.053 299.453 249.717 300.36 251.347C300.36 251.347 305.838 257.819 306.567 271.443C306.567 271.443 311.803 256.641 304.711 246.754C304.711 246.754 302.792 243.321 300.738 246.468ZM676.779 318.883C682.435 307.821 681.138 295.267 681.138 295.267C689.758 296.767 699.432 297.619 707.797 294.725C729.572 286.034 720.649 263.515 720.649 263.515C716.654 250.652 707.821 246.787 707.821 246.787C702.799 244.902 699.058 239.719 699.058 239.719C696.391 233.661 704.025 232.533 704.025 232.533C733.314 232.97 725.848 206.692 725.848 206.692C719.167 215.036 702.643 218.228 702.643 218.228C689.474 218.474 687.347 227.774 687.347 227.774C683.315 237.398 692.108 243.588 692.108 243.588C702.937 251.594 709.283 259.256 709.283 259.256C719.291 274.266 710.54 282.555 710.54 282.555C693.639 298.587 665.297 273.866 665.297 273.866C654.067 260.64 636.825 262.405 636.825 262.405C626.245 261.137 620.902 255.922 620.902 255.922C609.399 240.559 593.779 242.445 593.779 242.445C586.668 241.584 586.024 239.322 586.024 239.322C578.506 227.076 560.868 225.022 560.868 225.022C552.278 222.856 541.998 215.864 541.998 215.864C527.109 203.968 506.508 218.798 506.508 218.798C502.636 222.932 497.35 226.778 497.35 226.778C485.669 234.972 480.31 241.253 480.31 241.253C476.239 245.396 470.766 252.161 470.766 252.161C463.553 258.376 458.929 267.294 458.929 267.294C452.022 275.631 452.76 286.341 452.76 286.341C452.775 288.606 450.545 296.805 450.545 296.805C449.982 298.987 447.871 308.322 447.871 308.322C443.733 313.909 443.387 323.85 443.387 323.85C434.511 330.431 431.873 339.277 431.873 339.277C427.604 345.813 418.524 349.317 418.524 349.317C430.091 353.394 438.124 341.262 438.124 341.262C440.462 335.585 446.92 329.383 446.92 329.383C449.457 326.839 450.616 327.708 450.616 327.708C452.623 328.448 450.545 331.295 450.545 331.295C443.74 339.875 443.295 346.054 443.295 346.054C439.928 353.33 426.929 358.674 426.929 358.674C443.259 362.24 453.35 348.704 453.35 348.704C454.772 345.467 458.977 348.801 458.977 348.801C464.502 354.909 472.796 353.967 472.796 353.967C475.508 353.425 477.636 353.659 477.636 353.659C480.908 353.494 487.539 355.865 487.539 355.865C489.28 356.48 494.489 357.912 494.489 357.912C497.925 359.1 499.238 359.104 499.238 359.104C500.518 358.721 501.221 359.291 501.221 359.291C503.881 360.032 505.561 357.699 505.561 357.699C506.884 356.08 507.575 351.045 507.575 351.045C507.298 346.681 503.561 343.43 503.561 343.43C502.125 341.818 502.511 341.636 502.511 341.636C503.826 339.899 507.549 341.624 507.549 341.624C510.298 342.585 508.966 338.569 508.966 338.569C508.424 334.397 502.203 330.041 502.203 330.041C500.192 328.607 499.983 326.158 499.983 326.158C499.699 323.081 496.401 318.386 496.401 318.386C494.834 316.434 497.579 317.099 497.579 317.099C499.699 317.681 510.642 319.281 510.642 319.281C514.276 321.872 523.063 319.281 523.063 319.281C511.957 305.632 518.919 292.21 518.919 292.21C518.869 298.164 522.419 307.809 522.419 307.809C525.001 316.079 528.971 317.281 528.971 317.281C530.45 318.294 538.707 320.159 538.707 320.159C542.022 321.422 539.968 324.122 539.968 324.122C538.983 324.759 537.147 328.47 537.147 328.47C536.3 331.243 530.417 340.521 530.417 340.521C527.914 342.597 528.496 346.141 528.496 346.141C528.304 349.544 531.319 355.907 531.319 355.907C532.069 357.696 531.068 357.42 531.068 357.42C530.507 357.365 528.214 356.007 528.214 356.007C526.882 355.219 525.254 351.669 525.254 351.669C524.75 350.701 523.505 348.709 523.505 348.709C522.518 347.663 522.272 345.155 522.272 345.155C522.085 341.577 525.765 335.95 525.765 335.95C528.486 332.083 532.204 322.594 532.204 322.594L526.804 322.199C525.008 323.242 523.37 325.779 523.37 325.779L519.326 335.278C518.99 336.917 516.846 339.182 516.846 339.182C514.577 341.915 515.093 344.603 515.093 344.603C514.918 347.318 516.167 349.478 516.167 349.478L521.837 358.25C524.097 362.581 529.579 361.272 529.579 361.272C532.715 360.207 536.674 362.422 536.674 362.422C539.857 364.803 558.151 371.518 558.151 371.518C561.939 373.646 565.981 372.297 565.981 372.297C570.3 370.827 572.846 366.23 572.846 366.23C575.638 357.034 580.582 359.483 580.582 359.483C584.148 360.03 584.595 357.457 584.595 357.457C586.15 354.447 589.938 349.405 589.938 349.405C592.723 346.376 588.947 345.408 588.947 345.408L577.865 344.509C571.963 344.061 565.193 358.567 565.193 358.567C563.501 362.491 558.248 360.832 558.248 360.832C544.192 355.839 542.564 353.995 542.564 353.995C542.391 340.552 552.99 336.693 552.99 336.693C564.86 332.388 569.202 318.043 569.202 318.043C571.055 315.573 572.673 319.413 572.673 319.413C573.248 324.778 570.316 329.265 570.316 329.265C581.602 330.706 594.74 327.589 594.74 327.589C603.277 326.127 613.782 328.638 613.782 328.638C620.713 329.726 624.461 326.782 624.461 326.782C630.909 322.937 627.476 303.081 627.476 303.081C627.097 299.415 629.023 300.007 629.023 300.007C634.023 304.496 632.885 323.45 632.885 323.45C643.361 345.682 665.943 345.02 665.943 345.02C670.525 344.277 676.01 345.443 676.01 345.443C692.778 348.529 700.409 361.551 700.409 361.551C697.719 362.642 695.828 359.914 695.828 359.914C682.008 344.989 666.272 348.553 666.272 348.553C655.318 350.325 649.854 348.143 649.854 348.143C639.871 345.164 633.997 335.282 633.997 335.282L627.511 335.356C629.253 337.376 631.65 343.441 631.65 343.441C632.052 347.753 635.992 348.91 635.992 348.91C639.211 350.022 647.789 354.507 647.789 354.507C652.034 357.644 665.631 354.89 665.631 354.89C677.709 352.968 686.256 362.308 686.256 362.308C692.482 368.74 701.292 365.792 701.292 365.792C705.679 364.268 711.595 374.398 711.595 374.398C714.657 380.04 721.503 377.739 721.503 377.739C724.291 376.731 728.567 377.292 728.567 377.292C728.612 374.524 727.705 370.913 727.705 370.913C726.049 365.33 723.538 364.535 723.538 364.535C720.183 364.396 718.5 361.229 718.5 361.229C716.927 356.717 711.725 355.524 711.725 355.524C705.196 352.621 701.245 343.557 701.245 343.557C699.307 339.819 697.754 335.282 697.754 335.282C695.972 332.923 690.634 334.246 690.634 334.246C686.767 334.539 685.605 333.673 685.605 333.673L676.94 328.638C672.588 324.823 676.779 318.883 676.779 318.883ZM718.602 347.147C720.133 346.787 721.863 347.344 723.046 348.33C723.046 348.33 727.32 352.022 729.598 352.949C729.598 352.949 733.527 354.388 730.514 357.363C730.514 357.363 727.294 360.995 723.216 357.945C723.216 357.945 718.637 353.517 717.232 350.893C717.232 350.893 715.133 347.893 718.602 347.147ZM731.184 365.186C730.514 363.34 731.773 362.405 731.773 362.405C732.566 361.457 733.427 360.569 734.52 359.959C740.017 357.711 739.909 366.196 739.909 366.196C740.223 369.568 741.437 371.412 741.437 371.412C742.602 373.388 742.41 374.751 742.41 374.751C741.425 378.281 734.267 377.004 734.267 377.004C734.416 374.034 731.184 365.186 731.184 365.186ZM481.067 342.571C481.223 343.957 480.899 344.419 479.637 344.45C479.637 344.45 475.437 344.36 474.46 344.024C474.46 344.024 469.571 343.245 470.629 337.057C470.629 337.057 471.336 333.588 477.134 337.052C477.134 337.052 480.22 338.716 481.067 342.571ZM462.152 316.797L462.152 316.815C462.152 316.815 456.729 315.937 458.26 305.092C458.44 303.751 459.003 302.49 459.881 301.46C459.881 301.46 466.516 293.542 467.761 291.112C467.761 291.112 470.548 287.619 473.509 292.207C473.757 293.019 474.043 293.818 474.368 294.602C475.819 297.492 477.285 300.374 478.764 303.249C478.764 303.249 479.491 304.453 479.467 305.532C479.467 305.532 476.403 306.254 473.341 300.336C473.341 300.336 472.188 298.272 471.306 298.358C471.306 298.358 470.802 298.429 470.146 299.572C470.146 299.572 465.844 304.288 464.751 305.154C461.801 307.454 462.043 313.884 462.152 316.797ZM522.906 246.468C523.817 248.053 524.191 249.717 523.285 251.347C523.285 251.347 517.805 257.819 517.08 271.443C517.08 271.443 511.844 256.641 518.938 246.754C518.938 246.754 520.852 243.321 522.906 246.468Z" fill="white"/>
<path d="M0 456.227V637.587H36.5958V490.84H53.837C53.837 490.84 80.752 489.628 80.752 514.13C80.752 538.631 56.8565 538.02 56.8565 538.02H48.0844V579.765L84.6873 637.592H127.63L76.5186 563.438C76.5186 563.438 118.559 559.808 118.559 514.134C118.559 468.468 86.8004 456.234 44.4615 456.234L0 456.227ZM535.048 541.056C535.048 541.056 551.073 528.591 551.073 504.967C551.073 481.332 533.908 460.025 497.357 460.025H436.144V637.59H511.541C511.541 637.59 565.581 636.977 565.581 588.142C565.584 559.793 554.578 548.936 535.048 541.056ZM505.556 606.685H472.744V490.987H490.281C490.281 490.987 514.115 489.198 514.115 509.991C514.115 530.784 495.156 528.95 495.156 528.95H484.235V560.12H505.549C511.136 560.12 528.936 562.829 528.936 583.313C528.933 603.791 505.556 606.685 505.556 606.685ZM765.82 452.661H800V637.59H765.82V452.661ZM706.997 452.661H741.627V637.59H706.997V452.661ZM575.882 529.258H610.961V591.256C610.961 591.256 612.182 612.135 631.835 612.135C651.487 612.135 651.196 591.256 651.196 591.256V529.551H686.576V593.381C686.576 593.381 691.117 643.286 632.739 643.286C574.368 643.286 575.882 599.43 575.882 591.566V529.258ZM343.295 452.661V536.52C343.295 536.52 326.356 523.517 306.988 523.517C287.638 523.517 254.973 537.126 254.973 580.071C254.973 623.018 282.801 639.36 306.692 639.36C330.59 639.36 343.898 623.628 343.898 623.628V637.595H378.371V452.663L343.295 452.661ZM316.673 609.101C314.856 609.101 292.172 609.406 292.172 581.583C292.172 553.752 316.972 552.846 316.972 552.846C316.972 552.846 344.802 553.752 344.802 580.975C344.802 608.197 318.486 609.101 316.673 609.101ZM186.01 523.512C244.686 523.512 242.266 580.679 242.266 580.679V589.747H162.723C162.723 602.747 173.608 613.943 188.431 613.943C203.249 613.943 210.812 599.728 210.812 599.728L238.936 613.638C225.933 633.304 208.391 641.161 188.734 641.161C127.634 641.161 126.425 590.353 126.425 584.004C126.425 577.648 127.339 523.512 186.01 523.512ZM163.324 568.873H206.884C206.884 568.873 205.069 548.314 185.409 548.314C165.749 548.312 163.324 568.873 163.324 568.873Z" fill="white"/>
</svg>
