<svg width="1320" height="441" viewBox="0 0 1320 441" fill="none" xmlns="http://www.w3.org/2000/svg">
<path d="M1263.9 9.24028C1260.82 12.1004 1258.62 15.6205 1256.86 19.5806C1255.1 23.5407 1254.22 27.7209 1254.22 32.341C1254.22 36.9611 1255.1 41.3613 1256.86 45.3214C1258.62 49.2815 1261.04 52.8016 1263.9 55.6617C1266.98 58.5218 1270.28 60.9419 1274.46 62.4819C1278.42 64.242 1282.6 64.902 1287.22 64.902C1291.84 64.902 1295.8 64.022 1299.98 62.4819C1303.94 60.7219 1307.46 58.5218 1310.32 55.6617C1313.18 52.8016 1315.6 49.2815 1317.36 45.3214C1319.12 41.3613 1320 36.9611 1320 32.341C1320 27.7209 1319.12 23.5407 1317.36 19.5806C1315.6 15.6205 1313.18 12.1004 1310.32 9.24028C1307.24 6.38019 1303.94 3.96014 1299.98 2.42009C1296.02 0.660034 1291.84 0 1287.22 0C1282.6 0 1278.42 0.880041 1274.46 2.42009C1270.5 3.96014 1266.98 6.38019 1263.9 9.24028ZM1267.86 52.3616C1265.44 49.7215 1263.46 46.8615 1262.14 43.5614C1260.82 40.2613 1259.94 36.5211 1259.94 32.561C1259.94 28.6009 1260.6 25.0808 1262.14 21.7807C1263.46 18.4806 1265.44 15.4005 1267.86 12.9804C1270.28 10.5603 1273.14 8.58026 1276.44 7.04021C1279.74 5.50016 1283.26 4.84014 1287.22 4.84014C1291.18 4.84014 1294.48 5.50016 1297.78 7.04021C1301.08 8.58026 1303.94 10.3403 1306.14 12.9804C1308.56 15.4005 1310.54 18.2606 1311.86 21.7807C1313.18 25.3008 1314.06 28.8209 1314.06 32.561C1314.06 36.5211 1313.4 40.2613 1311.86 43.5614C1310.54 46.8615 1308.56 49.9416 1306.14 52.3616C1303.72 54.7817 1300.86 56.7618 1297.78 58.3018C1294.48 59.8418 1291.18 60.5019 1287.22 60.5019C1283.48 60.5019 1279.74 59.8418 1276.44 58.3018C1273.14 56.7618 1270.28 55.0017 1267.86 52.3616Z" fill="white"/>
<path d="M1299.32 16.0605C1297.12 14.0804 1293.82 13.4204 1289.2 13.4204H1274.46V51.4816H1280.4V34.9811H1286.78L1297.12 51.2616H1303.5L1292.72 34.541C1295.58 34.321 1298 33.221 1299.76 31.6809C1301.74 29.9209 1302.62 27.5008 1302.62 24.2007C1302.62 20.6806 1301.3 17.8205 1299.32 16.0605ZM1290.3 30.1409C1289.2 30.1409 1287.88 30.1409 1286.56 30.1409H1280.4V18.0405H1288.32C1289.42 18.0405 1290.3 18.0405 1291.4 18.2606C1292.5 18.4806 1293.38 18.7006 1294.04 19.1406C1294.92 19.5806 1295.58 20.2406 1296.02 20.9006C1296.46 21.5606 1296.68 22.6607 1296.68 23.9807C1296.68 25.5208 1296.46 26.6208 1295.8 27.5008C1295.36 28.3809 1294.48 29.0409 1293.6 29.4809C1292.5 29.7009 1291.62 29.9209 1290.3 30.1409ZM102.263 311.97L192.906 40.4812H331.73C357.471 40.4812 376.391 42.6813 388.492 47.0814C400.592 51.4816 408.952 59.8418 413.132 71.7222C417.533 83.8226 416.653 98.343 410.932 115.724C405.872 130.684 398.392 143.664 388.272 154.665C378.151 165.665 366.491 174.465 353.071 181.286C344.49 185.686 333.71 189.206 320.29 192.066C329.09 195.366 335.25 198.886 338.77 202.186C346.25 208.786 351.53 222.207 353.291 233.427L367.371 311.97H272.988L256.268 229.027C254.067 218.247 251.427 211.207 248.127 208.126C243.507 203.946 237.347 201.746 229.867 201.746H222.386L185.645 311.97H102.263ZM239.987 150.485H275.188C291.029 150.485 304.229 147.845 314.789 138.384C319.85 133.764 323.37 128.484 325.35 122.544C328.21 113.744 327.77 107.143 323.81 102.303C319.849 97.463 310.169 95.2629 294.989 95.2629H258.468C258.248 95.2629 239.987 150.485 239.987 150.485ZM422.373 176.665C436.673 133.764 459.554 100.543 491.015 76.5624C522.476 52.8016 559.437 40.7012 601.458 40.7012C643.48 40.7012 674.06 52.3616 689.681 75.9023C705.301 99.4431 705.961 132.224 691.881 174.465C681.761 205.266 668.12 230.347 651.62 249.928C634.899 269.508 615.099 284.909 591.998 295.689C568.897 306.469 543.156 311.97 514.336 311.97C485.515 311.97 462.414 307.129 446.353 297.889C430.293 288.429 419.733 273.688 414.672 253.008C409.612 232.547 412.032 207.026 422.153 176.445L422.373 176.665ZM502.455 176.885C493.655 203.286 492.115 222.427 498.055 234.087C503.995 245.528 515.216 251.468 531.936 251.468C548.657 251.468 564.277 245.748 577.698 234.527C590.898 223.307 602.338 202.846 612.019 173.365C620.159 148.725 621.259 130.684 615.099 119.244C608.938 107.803 597.498 102.083 580.778 102.083C564.057 102.083 549.757 108.023 536.116 119.464C522.476 130.904 511.255 150.265 502.455 176.885ZM704.861 220.007L783.184 215.167C780.544 227.707 780.764 237.167 783.624 243.768C788.464 254.328 798.584 259.608 813.765 259.608C825.205 259.608 834.886 256.968 843.026 251.468C850.946 246.188 856.226 239.807 858.646 232.547C860.846 225.947 859.966 219.787 855.786 214.287C851.606 209.006 839.726 203.946 819.705 199.106C787.144 191.186 765.363 180.626 754.803 167.425C744.023 154.225 742.043 137.284 748.863 117.044C753.263 103.623 761.623 90.8628 773.284 78.9824C784.944 67.102 799.904 57.6418 817.725 50.8216C835.546 44.0014 857.986 40.7012 885.267 40.7012C918.488 40.7012 941.809 46.8614 955.229 59.4018C968.43 71.9422 972.39 91.5228 966.45 118.584L889.007 122.984C890.987 111.323 889.447 102.743 884.827 97.243C880.207 91.9629 872.067 89.3228 860.846 89.3228C851.386 89.3228 843.686 91.3028 837.746 95.2629C831.585 99.223 827.625 104.063 825.645 109.783C824.325 113.964 824.985 117.704 827.845 121.004C830.485 124.524 838.406 127.604 851.606 130.684C884.167 138.384 906.828 145.864 919.588 153.785C932.348 161.485 940.049 171.385 943.129 182.826C946.209 194.266 945.329 207.246 940.489 221.547C934.769 238.267 925.088 253.668 911.228 267.968C897.147 282.049 880.647 292.829 861.726 300.089C842.586 307.349 820.585 310.87 795.284 310.87C750.843 310.87 723.122 302.289 711.902 285.129C700.681 268.408 698.261 246.628 704.861 220.007ZM966.01 220.007L1044.33 215.167C1041.69 227.707 1041.91 237.167 1044.77 243.768C1049.61 254.328 1059.73 259.608 1074.91 259.608C1086.35 259.608 1096.25 256.968 1104.17 251.468C1112.09 245.968 1117.37 239.807 1119.79 232.547C1121.99 225.947 1121.11 219.787 1116.93 214.287C1112.75 209.006 1100.87 203.946 1080.85 199.106C1048.29 191.186 1026.51 180.626 1015.95 167.425C1005.17 154.225 1003.19 137.284 1010.01 117.044C1014.41 103.623 1022.77 90.8628 1034.43 78.9824C1046.09 67.102 1061.05 57.6418 1078.87 50.8216C1096.69 44.0014 1119.13 40.7012 1146.42 40.7012C1179.64 40.7012 1202.96 46.8614 1216.38 59.4018C1229.58 71.9422 1233.54 91.5228 1227.6 118.584L1150.16 122.984C1152.14 111.323 1150.6 102.743 1145.98 97.243C1141.36 91.9629 1133.21 89.3228 1121.99 89.3228C1112.53 89.3228 1104.83 91.3028 1098.89 95.2629C1092.73 99.223 1088.77 104.063 1086.79 109.783C1085.47 113.964 1086.13 117.704 1088.99 121.004C1091.63 124.524 1099.55 127.604 1112.75 130.684C1145.32 138.384 1167.98 145.864 1180.74 153.785C1193.5 161.485 1201.2 171.385 1204.28 182.826C1207.36 194.266 1206.48 207.246 1201.64 221.547C1195.92 238.267 1186.24 253.668 1172.38 267.968C1158.3 282.049 1141.8 292.829 1122.87 300.089C1103.73 307.349 1081.73 310.87 1056.43 310.87C1011.99 310.87 984.27 302.289 973.05 285.129C961.829 268.408 959.409 246.628 966.01 220.007ZM1.93965 406.573C0.179597 405.473 -1.36045 401.292 1.93965 399.092C2.81968 398.432 3.91972 397.772 5.89978 396.672C12.94 392.712 30.5405 385.232 97.6426 378.412C185.425 369.611 941.809 363.891 1110.99 368.951C1158.3 370.271 1186.02 370.931 1202.74 371.371C1220.34 371.811 1225.62 371.811 1228.26 372.472C1230.9 372.912 1231.78 377.092 1226.72 378.192C1226.06 378.412 1225.4 378.412 1224.74 378.412C1217.26 378.852 937.849 388.532 653.82 397.992C624.559 399.092 594.858 399.972 565.817 400.852C398.832 406.133 238.887 411.193 144.944 420.433C94.7825 425.273 70.1418 432.753 60.4615 439.574C60.4615 439.574 58.2614 441.114 56.0613 439.794C53.4212 438.254 2.59967 407.453 1.93965 406.573Z" fill="white"/>
</svg>
