<svg width="1457" height="668" viewBox="0 0 1457 668" fill="none" xmlns="http://www.w3.org/2000/svg">
<path d="M662.975 329.037C655.656 357.475 640.495 379.834 615.325 394.338C579.098 415.214 542.109 413.988 504.988 396.377C503.357 395.603 501.685 394.913 499.206 393.82C498.901 396.367 498.647 398.096 498.497 399.834C498.339 401.674 498.279 403.522 498.152 405.814C480.366 405.814 462.93 405.814 444.717 405.814C444.717 403.229 444.717 400.995 444.717 398.761C444.717 306.725 444.715 214.69 444.72 122.654C444.72 114.29 444.737 114.266 452.931 114.253C465.486 114.232 478.054 114.6 490.588 114.106C497.169 113.847 498.679 116.255 498.607 122.405C498.312 147.92 498.475 173.441 498.501 198.96C498.503 201.373 498.724 203.785 498.89 207.147C506.267 204.261 512.68 201.431 519.299 199.214C553.626 187.715 587.073 189.539 618.121 208.727C641.842 223.387 656.647 245.285 662.993 272.617C667.317 291.239 667.399 309.881 662.975 329.037ZM562.514 360.007C566.734 358.851 571.104 358.075 575.149 356.477C599.347 346.916 613.087 327.402 613.121 301.445C613.144 283.31 606.662 267.753 592.619 255.53C568.056 234.149 525.894 237.561 501.772 256.35C499.976 257.749 498.631 260.883 498.61 263.225C498.385 288.107 498.37 312.993 498.63 337.875C498.656 340.339 500.305 343.492 502.229 345.08C505.885 348.097 510.148 350.479 514.4 352.652C529.224 360.229 545.105 361.544 562.514 360.007Z" fill="white"/>
<path d="M868.735 349.644C850.589 306.184 854.303 265.441 883.128 228.417C899.567 207.302 922.065 195.544 948.97 192.64C975.112 189.819 999.407 195.872 1021.92 207.996C1022.91 207.06 1023.41 206.817 1023.45 206.513C1024.85 195.775 1024.84 195.773 1035.77 195.771C1047.48 195.769 1059.21 196.108 1070.91 195.633C1077.05 195.383 1077.58 198.276 1077.56 203.154C1077.45 249.792 1077.5 296.43 1077.5 343.068C1077.5 361.891 1077.35 380.715 1077.6 399.534C1077.67 404.509 1076.61 406.537 1071.11 406.407C1055.68 406.042 1040.24 406.279 1023.87 406.279C1023.87 401.244 1023.87 396.829 1023.87 390.834C995.578 408.234 966.324 413.609 935.608 405.993C904.599 398.303 882.544 378.97 868.735 349.644ZM910.084 294.162C908.374 320.136 917.732 340.976 941.151 352.942C968.616 366.976 995.408 362.303 1020.36 345.363C1022.29 344.054 1023.69 340.562 1023.71 338.069C1023.96 313.387 1023.99 288.7 1023.67 264.019C1023.63 261.259 1021.71 257.64 1019.49 255.935C1006.13 245.659 990.655 241.471 973.926 240.84C941.125 239.602 913.715 261.897 910.084 294.162Z" fill="white"/>
<path d="M745.112 397.747C729.371 386.162 721.545 370.478 721.08 351.887C720.227 317.813 720.493 283.711 720.304 249.621C720.255 240.688 720.275 240.686 711.114 240.668C705.883 240.658 700.652 240.606 695.421 240.667C691.781 240.709 690.06 239.113 690.082 235.386C690.151 223.882 690.147 212.377 690.083 200.872C690.063 197.099 691.847 195.666 695.495 195.754C700.723 195.881 705.957 195.782 711.188 195.773C720.279 195.758 720.296 195.756 720.301 186.942C720.312 165.188 720.47 143.431 720.194 121.68C720.122 115.933 721.886 113.973 727.71 114.136C740.882 114.503 754.078 114.481 767.251 114.137C772.654 113.996 774.53 115.478 774.455 121.133C774.156 143.72 774.517 166.316 774.2 188.902C774.121 194.547 775.906 196.002 781.328 195.885C796.595 195.555 811.876 195.891 827.149 195.7C831.436 195.646 833.193 197.005 833.122 201.408C832.946 212.492 832.92 223.583 833.137 234.665C833.23 239.395 831.308 240.796 826.782 240.741C811.3 240.552 795.813 240.813 780.332 240.601C775.649 240.537 774.215 242.177 774.254 246.785C774.475 272.721 774.278 298.662 774.6 324.596C774.68 331.026 775.746 337.524 777.077 343.839C779.431 355.012 787.615 362.052 799.224 362.563C808.187 362.957 817.219 362.686 826.172 362.042C830.753 361.712 832.696 362.446 832.546 367.457C832.257 377.071 832.276 386.704 832.552 396.319C832.67 400.437 831.047 402.537 827.284 403.525C806.232 409.055 784.983 411.961 763.565 406.212C757.249 404.517 751.468 400.829 745.112 397.747Z" fill="white"/>
<path d="M129.281 291.09C136.693 273.753 154.647 269.195 168.333 281.04C171.392 283.687 173.934 283.956 177.329 282.574C185.443 279.27 193.698 276.29 201.672 272.683C203.343 271.927 205.193 268.917 205.011 267.146C203.879 256.107 206.136 246.031 211.642 236.428C212.516 234.904 212.077 231.374 210.856 230.1C199.723 218.482 188.369 207.069 176.816 195.868C175.469 194.562 172.251 194.027 170.366 194.618C155.518 199.273 141.719 192.461 137.519 178.063C133.78 165.243 142.318 151.505 156.397 148.21C165.355 146.114 172.962 149.197 178.995 155.846C185.053 162.521 187.267 170.512 184.117 179.07C182.487 183.496 182.957 186.36 186.272 189.604C196.884 199.987 207.302 210.57 217.691 221.179C220.327 223.871 222.366 224.932 226.24 222.609C239.102 214.898 252.806 214.301 266.538 220.056C270.378 221.665 272.451 221.318 274.887 218.035C280.488 210.484 286.308 203.085 292.287 195.829C294.905 192.652 295.171 189.926 293.392 186.162C287.517 173.729 292.709 159.481 304.822 153.842C316.896 148.222 330.85 153.025 336.67 165.211C340.891 174.049 340.104 182.889 333.966 190.571C327.749 198.351 319.384 201.867 309.485 199.188C305.71 198.166 303.693 199.043 301.539 201.857C295.569 209.657 289.5 217.382 283.321 225.017C280.937 227.963 281.103 230.336 283.327 233.371C295.035 249.346 295.612 265.977 286.206 283.315C285.266 285.049 285.608 288.875 286.912 290.217C303.23 307.001 319.765 323.578 336.498 339.949C337.902 341.323 341.373 341.659 343.487 341.066C361.315 336.068 377.54 347.724 376.602 365.155C375.981 376.711 365.446 387.688 353.778 387.214C334.074 386.414 324.323 373.624 329.954 354.54C330.518 352.627 329.767 349.393 328.388 347.981C312.169 331.386 295.676 315.06 279.361 298.558C276.811 295.98 274.45 295.883 271.597 297.665C249.919 311.204 224.136 302.224 212.527 285.344C211.459 283.79 207.657 282.725 205.772 283.36C197.278 286.219 189.013 289.761 180.676 293.082C177.517 294.341 175.877 296.264 175.827 300.118C175.696 310.189 170.084 317.157 161.196 320.88C151.966 324.746 142.872 323.189 135.587 316.16C128.643 309.461 125.918 301.165 129.281 291.09ZM242.883 227.762C241.288 228.268 239.694 228.776 238.099 229.279C221.61 234.476 211.964 253.676 217.495 270.289C223.262 287.61 242.901 297.375 259.447 291.148C275.09 285.262 284.445 269.467 281.159 254.49C277.179 236.353 262.863 226.004 242.883 227.762ZM323.967 185.218C328.575 180.165 329.778 174.633 325.915 168.664C322.767 163.8 318.105 161.853 312.43 162.934C306.71 164.025 303.135 167.725 301.975 173.315C300.85 178.739 302.898 183.339 307.46 186.374C312.685 189.85 318.075 189.559 323.967 185.218ZM173.462 167.739C169.466 159.514 162.167 156.616 155.093 160.448C149.162 163.66 146.632 170.7 149.09 177.154C151.178 182.636 158.397 186.466 163.909 185.017C171.413 183.043 174.861 177.298 173.462 167.739ZM340.303 358.759C338.193 364.432 339.133 369.601 343.591 373.651C347.387 377.101 352.036 378.261 356.974 376.121C362.779 373.606 365.603 369.144 365.179 362.72C364.763 356.424 361.011 352.605 355.386 351.115C348.989 349.419 344.002 352.202 340.303 358.759ZM163.984 303.808C166.762 298.101 165.039 293.132 160.85 289.126C157.224 285.658 152.678 284.139 147.66 286.323C141.987 288.793 138.792 292.903 139.06 299.389C139.319 305.658 142.928 309.386 148.373 311.32C154.164 313.377 159.094 310.994 163.984 303.808Z" fill="white"/>
<path d="M812.027 511.99C818.753 512.078 824.986 512.005 831.151 512.615C832.654 512.764 835.107 515.134 835.133 516.52C835.336 527.176 835.449 537.866 834.788 548.496C834.224 557.576 826.512 564.564 816.644 565.32C812.142 565.664 807.539 564.628 802.977 564.287C797.454 563.874 796.889 560.99 799.166 556.309C807.103 555.179 816.934 560.873 824.426 549.692C819.628 550.035 816.472 550.592 813.355 550.423C802.335 549.825 794.64 542.401 793.93 531.997C793.246 521.958 800.31 513.954 812.027 511.99ZM825.18 527.269C823.653 521.973 817.892 519.491 811.878 521.501C807.272 523.04 804.246 526.184 804.162 531.003C804.078 535.845 807.049 539.028 811.625 540.67C820.259 543.768 825.219 539.289 825.18 527.269Z" fill="white"/>
<path d="M591.139 551.705C589.792 549.987 588.18 548.34 588.157 546.671C587.959 532.049 588.121 517.422 587.997 502.798C587.961 498.641 589.338 496.586 593.769 496.658C597.952 496.725 599.247 498.828 599.108 502.607C598.994 505.679 599.085 508.758 599.085 512.045C604.166 512.045 608.49 511.58 612.677 512.143C620.871 513.245 624.677 516.736 625.6 524.972C626.457 532.616 626.386 540.409 626.025 548.103C625.963 549.422 622.421 551.479 620.449 551.524C618.861 551.561 615.966 549.199 615.814 547.684C615.213 541.68 615.589 535.587 615.353 529.536C615.17 524.821 612.976 521.601 607.845 521.176C602.246 520.712 599.243 523.321 599.134 528.954C599.033 534.176 598.73 539.435 599.206 544.615C599.765 550.684 597.198 552.624 591.139 551.705Z" fill="white"/>
<path d="M136.565 514.841C136.568 510.034 136.658 505.848 136.545 501.666C136.452 498.209 137.927 496.833 141.41 496.783C145.107 496.729 146.877 498.002 146.7 501.858C146.539 505.372 146.666 508.899 146.666 512.438C152.243 512.438 157.224 511.915 162.052 512.548C171.678 513.811 178.327 522.614 177.918 532.697C177.509 542.819 170.243 551.172 160.623 551.742C152.913 552.199 145.154 551.834 136.565 551.834C136.565 539.18 136.565 527.321 136.565 514.841ZM146.613 536.318C148.29 541.701 152.785 543.827 159.406 542.366C164.703 541.197 168.529 536.016 167.894 530.871C167.176 525.055 161.458 520.454 155.418 520.832C148.646 521.257 146.635 523.524 146.596 530.788C146.588 532.251 146.597 533.715 146.613 536.318Z" fill="white"/>
<path d="M1179.47 513.101C1180.25 525.174 1180.75 536.997 1180.54 548.806C1180.52 549.79 1175.7 551.082 1173 551.513C1170.08 551.981 1166.95 551.2 1164.02 551.678C1153.61 553.376 1144.69 548.924 1140.96 539.826C1137.21 530.674 1140.55 519.606 1149.13 514.617C1152.05 512.919 1155.78 511.941 1159.17 511.871C1165.77 511.735 1172.39 512.472 1179.47 513.101ZM1150.4 536.554C1150.89 537.225 1151.31 537.956 1151.87 538.557C1155.89 542.88 1163.29 544.147 1167.77 541.311C1170.43 539.629 1172.76 529.31 1169.8 525.752C1167.53 523.029 1162.52 521.24 1158.81 521.369C1152.56 521.586 1149.52 526.43 1149.72 533.173C1149.75 533.997 1149.95 534.815 1150.4 536.554Z" fill="white"/>
<path d="M946.702 538.583C946.702 543.111 946.702 547.027 946.702 551.533C937.538 551.533 929.025 552.203 920.668 551.353C911.53 550.423 904.319 539.306 905.619 529.825C907.181 518.43 915.791 511.082 926.666 511.769C931.584 512.08 936.523 512.51 941.434 512.352C945.667 512.215 946.892 513.925 946.76 517.894C946.539 524.58 946.701 531.278 946.702 538.583ZM936.642 529.613C935.334 527.127 934.646 523.688 932.59 522.351C928.176 519.48 922.79 520.063 919.439 523.957C917.186 526.576 915.728 531.098 916.127 534.51C916.842 540.616 922.543 543.192 929.532 542.59C937.757 541.881 936.701 536.099 936.642 529.613Z" fill="white"/>
<path d="M851.208 565.126C848.566 564.35 844.941 563.952 844.511 562.564C843.388 558.942 845.81 557.143 849.63 556.542C857.177 555.355 858.079 553.427 855.356 546.491C851.109 535.674 846.947 524.825 842.752 513.999C850.482 510.931 852.574 511.74 855.416 518.684C857.754 524.398 860.002 530.149 862.29 535.884C862.948 535.993 863.606 536.103 864.264 536.212C866.529 530.667 868.92 525.169 871.028 519.565C873.954 511.785 874.528 511.397 883.889 513.532C881.762 519.161 879.713 524.706 877.574 530.217C875.086 536.625 872.279 542.919 870.047 549.412C866.971 558.362 861.226 563.856 851.208 565.126Z" fill="white"/>
<path d="M634.192 545.525C634.193 535.999 633.999 527.015 634.353 518.052C634.428 516.162 636.387 512.862 637.693 512.752C644.888 512.144 652.159 512.066 659.387 512.312C665.536 512.521 669.999 516.151 670.751 522.085C671.872 530.926 671.99 539.918 671.982 548.845C671.981 549.819 668.238 551.697 666.415 551.494C664.746 551.309 662.163 548.99 662.006 547.41C661.429 541.619 661.872 535.735 661.592 529.902C661.342 524.708 658.957 520.991 653.152 521.143C648.246 521.272 644.706 523.034 644.968 528.984C645.217 534.609 644.896 540.258 645.046 545.89C645.144 549.53 644.494 551.853 640.024 551.859C635.784 551.864 633.635 550.532 634.192 545.525Z" fill="white"/>
<path d="M1297.93 530.023C1297.93 537.292 1297.93 543.947 1297.93 551.171C1294.56 551.171 1291.61 551.171 1287.86 551.171C1287.86 539.236 1287.78 527.411 1287.99 515.591C1288.01 514.54 1289.88 512.669 1290.96 512.626C1298.36 512.328 1305.82 511.956 1313.19 512.511C1319.78 513.007 1323.94 517.364 1324.44 523.862C1325.04 531.753 1324.88 539.701 1325.11 547.622C1325.23 551.595 1322.72 551.743 1319.73 551.792C1316.41 551.846 1314.67 550.878 1314.77 547.185C1314.94 541.348 1314.92 535.496 1314.71 529.66C1314.52 524.065 1311.24 520.719 1306.21 521.063C1301.18 521.405 1297.09 523.068 1297.93 530.023Z" fill="white"/>
<path d="M289.243 536.119C289.248 529.239 289.052 522.968 289.407 516.728C289.491 515.257 291.368 512.728 292.527 512.665C299.924 512.264 307.37 512.072 314.76 512.492C321.25 512.861 325.142 517.28 325.769 523.369C326.6 531.434 326.568 539.619 326.322 547.735C326.28 549.115 323.483 551.095 321.642 551.573C318.955 552.271 316.155 551.831 316.233 547.704C316.347 541.656 316.363 535.598 316.151 529.554C315.956 524.013 312.591 520.702 307.54 521.065C302.456 521.43 298.879 523.206 299.276 529.52C299.717 536.556 299.377 543.64 299.377 551.219C295.912 551.219 292.959 551.219 289.243 551.219C289.243 546.227 289.243 541.483 289.243 536.119Z" fill="white"/>
<path d="M1029.33 528.172C1033.34 516.878 1040.54 511.547 1050.82 511.856C1060.96 512.161 1068.23 517.789 1070.99 527.405C1073.3 535.421 1070.34 541.841 1064.48 546.919C1057.49 552.966 1049.27 553.68 1041.05 549.973C1032.08 545.929 1028.4 538.7 1029.33 528.172ZM1042.53 524.126C1041.8 525.129 1040.92 526.059 1040.36 527.148C1037.76 532.168 1039.19 537.749 1043.79 540.877C1048.17 543.852 1055.27 543.08 1058.77 539.25C1062.35 535.325 1062.46 528.997 1059.02 524.907C1055.25 520.428 1049.98 519.949 1042.53 524.126Z" fill="white"/>
<path d="M349.472 534.91C347.281 535.064 345.682 535.217 344.047 535.373C345.583 542.875 352.002 544.965 360.15 541.372C362.012 540.551 364.822 540.423 366.623 541.24C369.854 542.705 369.922 545.088 366.899 547.432C359.963 552.812 352.131 553.538 344.407 550.524C337.137 547.687 332.964 541.798 332.561 533.604C332.145 525.165 335.006 518.554 342.52 514.223C355.137 506.951 370.86 515.911 371.534 530.655C371.7 534.275 369.848 534.902 366.978 534.894C361.34 534.878 355.702 534.901 349.472 534.91ZM351.209 528.533C354.512 528.289 357.815 528.045 361.424 527.779C359.941 521.584 356.738 519.687 351.952 519.926C347.266 520.16 344.339 522.371 343.162 527.876C345.763 528.121 347.941 528.326 351.209 528.533Z" fill="white"/>
<path d="M528.528 551.181C513.011 553.517 503.82 548.259 501.019 535.879C498.474 524.628 506.405 513.757 518.327 512.153C529.875 510.599 538.765 518.116 539.55 529.72C539.812 533.596 538.661 535.039 534.772 534.944C527.493 534.768 520.206 534.894 512.88 534.894C513.462 542.06 518.725 544.703 526.2 542.144C527.743 541.616 529.196 539.916 530.578 540.037C532.605 540.215 535 541.125 536.298 542.568C536.941 543.283 535.974 546.35 534.86 547.519C533.348 549.105 530.997 549.891 528.528 551.181ZM527.783 522.518C522.576 518.948 517.074 518.969 513.795 522.777C512.925 523.787 512.02 525.483 512.306 526.549C512.544 527.438 514.467 528.314 515.705 528.411C519.015 528.67 522.359 528.581 525.686 528.493C529.668 528.388 530.344 526.433 527.783 522.518Z" fill="white"/>
<path d="M1278.48 539.775C1271.3 554.221 1253.42 554.476 1245.09 547.41C1238.39 541.72 1235.63 533.152 1238.82 524.998C1242.2 516.377 1250.78 511.379 1260.22 511.898C1274.9 512.703 1284.22 527.695 1278.48 539.775ZM1266.42 523.846C1261.51 520.043 1256.38 519.666 1251.56 523.675C1247.97 526.652 1245.55 531.017 1248.25 535.25C1250.25 538.372 1254.09 541.75 1257.46 542.158C1260.84 542.569 1265.64 540.338 1268.05 537.671C1271.59 533.778 1270.59 528.72 1266.42 523.846Z" fill="white"/>
<path d="M220.227 551.465C212.806 551.718 205.875 552.052 198.964 551.824C190.41 551.541 185.688 546.856 185.117 538.113C184.668 531.251 184.838 524.351 184.578 517.473C184.435 513.719 185.923 512.273 189.744 512.363C193.319 512.448 195.163 513.376 194.989 517.37C194.752 522.786 194.842 528.224 195.002 533.646C195.192 540.059 197.818 542.643 203.666 542.544C210.185 542.434 211.87 540.664 211.907 533.732C211.944 526.897 211.915 520.061 211.915 513.415C221.586 511.383 222.083 511.761 222.093 520.491C222.102 528.84 222.177 537.19 222.032 545.536C221.998 547.463 221.182 549.376 220.227 551.465Z" fill="white"/>
<path d="M682.113 521.242C689.766 509.436 707.635 509.5 715.834 518.208C722.059 524.82 723.169 535.016 718.367 542.409C713.145 550.448 702.233 554.176 692.986 551.08C684.028 548.082 678.139 539.576 679.152 530.425C679.484 527.432 680.938 524.562 682.113 521.242ZM689.132 532.828C691.103 542.032 700.709 545.911 707.417 540.222C711.408 536.838 712.453 532.448 710.575 527.857C708.586 522.994 704.337 520.366 699.103 521.063C693.189 521.85 689.177 525.163 689.132 532.828Z" fill="white"/>
<path d="M753.971 547.115C744.366 539.705 744.72 524.032 753.979 516.684C763.613 509.038 778.426 510.77 785.653 520.65C790.746 527.612 790.36 537.419 784.719 544.4C778.955 551.533 767.518 554.189 759.162 550.25C757.477 549.456 755.948 548.334 753.971 547.115ZM773.968 541.268C779.677 535.916 780.79 531.048 777.441 526.068C774.326 521.433 768.954 519.796 763.781 521.903C758.467 524.068 756.053 528.666 757.184 534.469C758.48 541.127 764.068 543.689 773.968 541.268Z" fill="white"/>
<path d="M229.783 525.354C230.407 516.759 233.153 513.147 240.771 512.366C245.652 511.865 250.735 512.497 255.606 513.329C256.806 513.534 258.585 516.809 258.199 518.11C257.771 519.552 255.215 521.159 253.502 521.259C250.039 521.46 246.52 520.471 243.021 520.451C241.935 520.444 240.841 521.978 239.75 522.806C240.596 523.854 241.236 525.433 242.324 525.854C245.996 527.276 249.863 528.184 253.589 529.479C259.221 531.436 262.072 535.386 261.354 541.447C260.639 547.491 256.678 550.805 251.071 551.585C243.813 552.594 236.476 552.694 229.882 548.502C231.357 541.261 231.992 540.957 238.82 542.726C241.601 543.446 244.585 543.928 247.409 543.695C248.768 543.583 249.969 541.561 251.242 540.403C250.141 539.316 249.223 537.812 247.899 537.232C245.437 536.153 242.744 535.596 240.139 534.852C235.272 533.464 231.37 530.998 229.783 525.354Z" fill="white"/>
<path d="M969.787 511.686C973.63 512.161 977.106 512.184 980.183 513.302C981.586 513.812 983.272 516.798 982.892 518.093C982.466 519.546 979.905 521.152 978.174 521.271C975.129 521.481 972.001 520.265 968.925 520.342C967.411 520.38 965.935 521.973 964.442 522.862C965.684 524.082 966.719 525.812 968.211 526.418C971.477 527.743 975.021 528.362 978.366 529.518C983.737 531.374 986.577 535.169 986.109 540.965C985.619 547.036 981.797 550.641 976.198 551.504C968.764 552.65 961.195 552.825 954.338 548.316C954.984 542.061 958.08 540.696 963.758 542.764C966.408 543.729 969.508 543.864 972.36 543.683C973.593 543.605 975.464 541.896 975.656 540.705C975.815 539.715 974.167 537.905 972.918 537.33C970.477 536.206 967.757 535.685 965.149 534.925C957.922 532.818 953.875 528.393 954.248 522.995C954.646 517.247 958.872 513.365 966.147 512.09C967.176 511.91 968.22 511.815 969.787 511.686Z" fill="white"/>
<path d="M392.656 526.965C395.973 527.888 398.814 528.56 401.554 529.52C406.896 531.392 409.784 535.176 409.319 540.927C408.833 546.933 405.026 550.564 399.441 551.492C392.003 552.729 384.484 552.691 377.402 548.336C378.228 542.465 380.974 540.639 386.77 542.701C389.605 543.709 392.905 543.794 395.954 543.616C397.069 543.551 398.569 541.651 398.925 540.328C399.121 539.597 397.505 537.829 396.373 537.395C393.272 536.209 389.96 535.587 386.795 534.549C380.762 532.569 376.727 527.621 377.512 522.738C378.48 516.719 382.108 512.749 388.305 512.374C393.233 512.075 398.274 512.463 403.148 513.26C404.47 513.476 405.367 516.281 406.46 517.897C404.649 519.042 402.714 521.305 401.052 521.119C396.268 520.583 391.555 518.762 386.223 523.276C388.81 524.837 390.473 525.841 392.656 526.965Z" fill="white"/>
<path d="M997.579 541.826C1001.52 542.596 1004.98 543.762 1008.46 543.78C1010.24 543.789 1012.04 541.751 1013.83 540.638C1012.38 539.417 1011.12 537.774 1009.45 537.061C1005.83 535.509 1001.92 534.613 998.275 533.111C993.668 531.216 990.858 527.258 992.406 522.671C993.65 518.988 996.757 514.062 999.911 513.299C1005.74 511.89 1012.22 512.916 1018.38 513.475C1019.4 513.567 1021.25 516.981 1020.79 517.922C1020 519.533 1017.75 521.299 1016.02 521.394C1012.56 521.583 1009.04 520.477 1005.53 520.367C1004.45 520.333 1002.61 521.662 1002.43 522.615C1002.25 523.55 1003.51 525.395 1004.55 525.805C1008.22 527.252 1012.12 528.109 1015.83 529.462C1021.02 531.351 1024.28 534.823 1023.88 540.739C1023.49 546.56 1019.82 550.244 1014.66 551.281C1007.08 552.805 999.29 553.01 990.664 547.454C993.115 545.284 995.111 543.515 997.579 541.826Z" fill="white"/>
<path d="M415.512 520.769C420.067 512.024 436.038 508.255 442.953 514.036C443.882 514.812 444.491 517.521 443.906 518.233C442.7 519.7 440.629 521.188 438.84 521.284C435.579 521.459 432.269 520.413 428.968 520.331C427.829 520.302 426.657 521.624 425.499 522.329C426.332 523.588 426.892 525.503 428.048 525.981C431.491 527.404 435.212 528.133 438.742 529.371C444.217 531.291 447.529 534.92 447.012 541.093C446.564 546.449 442.202 551.287 436.277 551.561C430.549 551.825 424.715 551.051 419.033 550.102C417.67 549.874 416.726 547.144 415.589 545.565C417.667 544.39 419.708 542.336 421.833 542.245C425.059 542.108 428.351 543.835 431.599 543.782C433.406 543.753 435.179 541.721 436.968 540.591C435.485 539.376 434.177 537.748 432.483 537.034C429.425 535.747 426.047 535.231 422.966 533.99C417.297 531.706 414.297 527.636 415.512 520.769Z" fill="white"/>
<path d="M469.759 513.346C475.891 511.704 474.102 507.038 474.332 503.37C474.519 500.396 474.191 497.297 478.347 496.838C482.864 496.34 485.706 497.646 485.32 502.901C484.914 508.412 484.752 513.774 493.069 512.662C493.818 512.562 495.809 515.258 495.647 516.441C495.439 517.961 493.516 520.546 492.541 520.454C485.129 519.757 484.972 524.335 485.288 529.549C485.426 531.836 485.456 534.133 485.434 536.425C485.393 540.658 487.306 542.796 491.615 543.539C493.175 543.808 494.384 546.11 495.753 547.485C494.218 548.961 492.853 551.463 491.122 551.748C480.364 553.52 474.951 548.912 474.452 537.989C474.271 534.035 474.616 530.045 474.239 526.118C474.065 524.298 473.181 521.631 471.846 521.011C468.056 519.251 468.744 516.612 469.759 513.346Z" fill="white"/>
<path d="M1201.61 551.865C1194.28 550.377 1192.53 545.109 1191.95 539.257C1191.56 535.332 1192.22 531.28 1191.62 527.407C1191.24 524.955 1189.03 522.837 1188.32 520.372C1187.64 518.007 1187.2 513.369 1187.75 513.195C1193.05 511.522 1191.66 507.328 1191.72 503.836C1191.79 499.998 1191.85 496.741 1197.13 496.73C1202.24 496.719 1202.99 499.659 1202.7 503.666C1202.32 508.919 1202.58 513.419 1209.97 512.641C1210.92 512.541 1213.06 515.247 1213.03 516.614C1212.99 517.988 1210.82 520.554 1209.78 520.458C1202.82 519.814 1202.32 523.924 1202.69 529.076C1202.86 531.567 1202.84 534.075 1202.84 536.576C1202.84 540.482 1204.59 542.548 1208.54 543.503C1210.31 543.931 1212.6 546.004 1212.96 547.691C1213.77 551.486 1210.59 551.878 1207.74 551.971C1205.87 552.032 1203.99 551.947 1201.61 551.865Z" fill="white"/>
<path d="M1111.2 541.292C1114.27 544.062 1112.77 545.761 1110.6 547.652C1105.03 552.515 1096.45 553.574 1089.53 550.058C1081.66 546.054 1076.68 538.027 1077.42 530.511C1078.2 522.475 1084.71 514.587 1092.15 512.81C1100.39 510.842 1107.92 511.398 1113.45 519.315C1111.08 522.861 1109.29 526.436 1103.83 522.791C1099.03 519.589 1094.04 520.933 1090.37 525.264C1086.82 529.437 1086.76 534.16 1090.16 538.473C1093.8 543.089 1098.6 542.992 1103.83 541.416C1106.02 540.752 1108.53 541.109 1111.2 541.292Z" fill="white"/>
<path d="M569.407 551.801C559.852 552.761 552.434 549.982 547.355 542.166C541.811 533.635 544.176 522.043 552.45 516.027C560.321 510.305 574.983 509.632 580.116 519.546C577.839 523.377 575.622 526.088 570.417 522.704C565.557 519.544 560.626 521.042 557.013 525.366C553.487 529.586 553.61 534.383 557.001 538.584C560.635 543.088 565.543 543.293 570.653 541.273C571.983 540.747 573.477 539.208 574.45 539.521C576.288 540.111 578.334 541.406 579.243 543.005C579.746 543.892 578.532 546.493 577.371 547.426C575.161 549.203 572.434 550.338 569.407 551.801Z" fill="white"/>
<path d="M728.04 526.111C728.044 517.545 728.105 509.606 728.026 501.669C727.992 498.232 729.421 496.776 732.913 496.811C736.075 496.843 738.194 497.482 738.182 501.234C738.131 517.715 738.16 534.196 738.16 551.202C734.749 551.202 731.781 551.202 728.04 551.202C728.04 542.92 728.04 534.829 728.04 526.111Z" fill="white"/>
<path d="M1220.04 512.931C1229.27 511.784 1229.56 512.018 1229.57 520.295C1229.57 529.041 1229.41 537.792 1229.63 546.534C1229.73 550.772 1227.85 551.904 1223.99 551.916C1220.12 551.929 1218.26 550.762 1218.34 546.545C1218.54 536.761 1218.36 526.969 1218.46 517.182C1218.47 515.836 1219.23 514.498 1220.04 512.931Z" fill="white"/>
<path d="M279.347 538.57C279.346 541.468 279.167 543.775 279.386 546.043C279.811 550.441 277.879 551.903 273.603 551.872C269.305 551.842 268.368 549.792 268.428 546.023C268.577 536.66 268.578 527.291 268.418 517.927C268.35 513.922 269.9 512.312 273.926 512.324C277.967 512.337 279.496 514 279.39 517.981C279.211 524.637 279.345 531.3 279.347 538.57Z" fill="white"/>
<path d="M1130.75 548.843C1127.78 550.367 1124.86 551.371 1120.74 552.783C1120.74 539.294 1120.58 527.657 1120.97 516.039C1121.01 514.79 1124.04 513.051 1125.95 512.583C1129.13 511.801 1130.92 513.249 1130.86 516.977C1130.69 527.423 1130.79 537.873 1130.75 548.843Z" fill="white"/>
<path d="M1229.47 500.701C1227.79 503.444 1226.31 506.267 1223.99 507.868C1223.27 508.364 1219.02 505.839 1218.61 504.162C1218.12 502.103 1219.27 498.645 1220.94 497.274C1224.7 494.169 1227.4 496.817 1229.47 500.701Z" fill="white"/>
<path d="M278.318 505.591C275.341 506.159 271.944 507.407 270.153 506.225C268.764 505.308 268.512 500.984 269.408 498.877C270.026 497.426 273.951 495.985 275.551 496.632C279.066 498.055 280.926 501.176 278.318 505.591Z" fill="white"/>
<path d="M1130.54 504.958C1128.25 508.55 1125.03 509.413 1122.6 506.785C1121.07 505.122 1120.57 501.479 1121.23 499.2C1121.65 497.788 1125.11 497.267 1127.21 496.346C1128.37 499.077 1129.54 501.808 1130.54 504.958Z" fill="white"/>
</svg>
