<svg width="398" height="152" viewBox="0 0 398 152" fill="none" xmlns="http://www.w3.org/2000/svg">
<g clip-path="url(#clip0_328_57)">
<path d="M28.0779 127.322H25.1236C24.9489 126.472 24.6432 125.726 24.2064 125.083C23.7775 124.439 23.2534 123.899 22.634 123.463C22.0225 123.018 21.3435 122.684 20.597 122.462C19.8505 122.24 19.0722 122.128 18.2622 122.128C16.785 122.128 15.4469 122.502 14.2477 123.248C13.0565 123.995 12.1075 125.095 11.4007 126.548C10.7018 128.001 10.3524 129.784 10.3524 131.897C10.3524 134.009 10.7018 135.792 11.4007 137.245C12.1075 138.698 13.0565 139.798 14.2477 140.545C15.4469 141.291 16.785 141.665 18.2622 141.665C19.0722 141.665 19.8505 141.553 20.597 141.331C21.3435 141.109 22.0225 140.779 22.634 140.342C23.2534 139.898 23.7775 139.354 24.2064 138.71C24.6432 138.059 24.9489 137.313 25.1236 136.471H28.0779C27.8555 137.718 27.4505 138.833 26.8628 139.818C26.2752 140.803 25.5445 141.641 24.671 142.332C23.7974 143.015 22.8166 143.535 21.7286 143.892C20.6486 144.25 19.4931 144.428 18.2622 144.428C16.1815 144.428 14.3311 143.92 12.711 142.903C11.091 141.887 9.81635 140.442 8.88719 138.567C7.95803 136.693 7.49345 134.47 7.49345 131.897C7.49345 129.323 7.95803 127.1 8.88719 125.226C9.81635 123.351 11.091 121.906 12.711 120.89C14.3311 119.873 16.1815 119.365 18.2622 119.365C19.4931 119.365 20.6486 119.544 21.7286 119.901C22.8166 120.258 23.7974 120.782 24.671 121.473C25.5445 122.156 26.2752 122.99 26.8628 123.975C27.4505 124.952 27.8555 126.067 28.0779 127.322ZM33.8524 144.095H30.7552L39.7132 119.698H42.7628L51.7208 144.095H48.6236L41.3333 123.558H41.1427L33.8524 144.095ZM34.9959 134.565H47.48V137.186H34.9959V134.565ZM55.5208 144.095V119.698H63.7641C65.6701 119.698 67.2346 120.024 68.4576 120.675C69.6806 121.318 70.5859 122.204 71.1736 123.332C71.7612 124.459 72.0551 125.742 72.0551 127.179C72.0551 128.617 71.7612 129.891 71.1736 131.003C70.5859 132.115 69.6845 132.989 68.4695 133.624C67.2544 134.251 65.7018 134.565 63.8118 134.565H57.1409V131.897H63.7165C65.0189 131.897 66.0672 131.706 66.8613 131.325C67.6634 130.944 68.2431 130.404 68.6005 129.705C68.9658 128.998 69.1485 128.156 69.1485 127.179C69.1485 126.202 68.9658 125.349 68.6005 124.618C68.2352 123.888 67.6515 123.324 66.8494 122.927C66.0473 122.522 64.9871 122.319 63.6688 122.319H58.4751V144.095H55.5208ZM67.0043 133.135L73.008 144.095H69.5773L63.6688 133.135H67.0043ZM76.9778 144.095V119.698H79.9321V141.474H91.2726V144.095H76.9778ZM95.8469 144.095V119.698H110.57V122.319H98.8011V130.562H109.808V133.183H98.8011V141.474H110.761V144.095H95.8469ZM114.561 122.319V119.698H132.858V122.319H125.187V144.095H122.233V122.319H114.561ZM156.987 131.897C156.987 134.47 156.522 136.693 155.593 138.567C154.664 140.442 153.389 141.887 151.769 142.903C150.149 143.92 148.299 144.428 146.218 144.428C144.137 144.428 142.287 143.92 140.667 142.903C139.047 141.887 137.772 140.442 136.843 138.567C135.914 136.693 135.449 134.47 135.449 131.897C135.449 129.323 135.914 127.1 136.843 125.226C137.772 123.351 139.047 121.906 140.667 120.89C142.287 119.873 144.137 119.365 146.218 119.365C148.299 119.365 150.149 119.873 151.769 120.89C153.389 121.906 154.664 123.351 155.593 125.226C156.522 127.1 156.987 129.323 156.987 131.897ZM154.128 131.897C154.128 129.784 153.774 128.001 153.068 126.548C152.369 125.095 151.42 123.995 150.221 123.248C149.029 122.502 147.695 122.128 146.218 122.128C144.741 122.128 143.403 122.502 142.204 123.248C141.012 123.995 140.063 125.095 139.357 126.548C138.658 128.001 138.308 129.784 138.308 131.897C138.308 134.009 138.658 135.792 139.357 137.245C140.063 138.698 141.012 139.798 142.204 140.545C143.403 141.291 144.741 141.665 146.218 141.665C147.695 141.665 149.029 141.291 150.221 140.545C151.42 139.798 152.369 138.698 153.068 137.245C153.774 135.792 154.128 134.009 154.128 131.897ZM181.3 119.698V144.095H178.441L165.147 124.94H164.908V144.095H161.954V119.698H164.813L178.155 138.901H178.393V119.698H181.3ZM212.656 119.698H215.61V135.851C215.61 137.519 215.217 139.008 214.431 140.319C213.652 141.621 212.553 142.649 211.131 143.404C209.709 144.15 208.042 144.524 206.128 144.524C204.214 144.524 202.546 144.15 201.125 143.404C199.703 142.649 198.599 141.621 197.813 140.319C197.035 139.008 196.646 137.519 196.646 135.851V119.698H199.6V135.613C199.6 136.804 199.862 137.865 200.386 138.794C200.91 139.715 201.657 140.442 202.626 140.974C203.602 141.498 204.77 141.76 206.128 141.76C207.486 141.76 208.653 141.498 209.63 140.974C210.607 140.442 211.353 139.715 211.87 138.794C212.394 137.865 212.656 136.804 212.656 135.613V119.698ZM240.855 119.698V144.095H237.996L224.702 124.94H224.464V144.095H221.51V119.698H224.369L237.71 138.901H237.949V119.698H240.855ZM249.721 119.698V144.095H246.767V119.698H249.721ZM256.645 119.698L263.888 140.235H264.173L271.416 119.698H274.513L265.555 144.095H262.506L253.548 119.698H256.645ZM278.313 144.095V119.698H293.037V122.319H281.268V130.562H292.275V133.183H281.268V141.474H293.228V144.095H278.313ZM298.362 144.095V119.698H306.605C308.511 119.698 310.075 120.024 311.298 120.675C312.521 121.318 313.427 122.204 314.014 123.332C314.602 124.459 314.896 125.742 314.896 127.179C314.896 128.617 314.602 129.891 314.014 131.003C313.427 132.115 312.525 132.989 311.31 133.624C310.095 134.251 308.543 134.565 306.653 134.565H299.982V131.897H306.557C307.86 131.897 308.908 131.706 309.702 131.325C310.504 130.944 311.084 130.404 311.441 129.705C311.807 128.998 311.989 128.156 311.989 127.179C311.989 126.202 311.807 125.349 311.441 124.618C311.076 123.888 310.492 123.324 309.69 122.927C308.888 122.522 307.828 122.319 306.51 122.319H301.316V144.095H298.362ZM309.845 133.135L315.849 144.095H312.418L306.51 133.135H309.845ZM333.16 125.797C333.018 124.59 332.438 123.653 331.421 122.986C330.405 122.319 329.158 121.986 327.681 121.986C326.601 121.986 325.656 122.16 324.846 122.51C324.044 122.859 323.416 123.34 322.964 123.951C322.519 124.563 322.296 125.257 322.296 126.036C322.296 126.687 322.451 127.247 322.761 127.715C323.079 128.176 323.484 128.561 323.976 128.871C324.468 129.173 324.985 129.423 325.525 129.621C326.065 129.812 326.561 129.967 327.014 130.086L329.491 130.753C330.127 130.92 330.834 131.15 331.612 131.444C332.398 131.738 333.149 132.139 333.863 132.647C334.586 133.147 335.182 133.791 335.65 134.577C336.119 135.363 336.353 136.328 336.353 137.471C336.353 138.79 336.008 139.981 335.317 141.045C334.634 142.109 333.633 142.955 332.315 143.582C331.004 144.21 329.412 144.524 327.538 144.524C325.791 144.524 324.278 144.242 322.999 143.678C321.729 143.114 320.728 142.328 319.997 141.319C319.275 140.311 318.866 139.139 318.77 137.805H321.82C321.899 138.726 322.209 139.489 322.749 140.092C323.297 140.688 323.988 141.133 324.822 141.426C325.664 141.712 326.569 141.855 327.538 141.855C328.666 141.855 329.678 141.673 330.576 141.307C331.473 140.934 332.184 140.418 332.708 139.759C333.232 139.092 333.494 138.313 333.494 137.424C333.494 136.614 333.268 135.955 332.815 135.446C332.362 134.938 331.767 134.525 331.028 134.208C330.29 133.89 329.491 133.612 328.634 133.374L325.632 132.516C323.726 131.968 322.217 131.186 321.105 130.169C319.993 129.153 319.438 127.823 319.438 126.179C319.438 124.813 319.807 123.621 320.545 122.605C321.292 121.581 322.293 120.786 323.547 120.223C324.81 119.651 326.22 119.365 327.776 119.365C329.349 119.365 330.746 119.647 331.969 120.211C333.192 120.766 334.161 121.529 334.876 122.498C335.599 123.467 335.98 124.567 336.019 125.797H333.16ZM344.164 119.698V144.095H341.21V119.698H344.164ZM348.754 122.319V119.698H367.051V122.319H359.379V144.095H356.425V122.319H348.754ZM369.514 119.698H372.897L379.663 131.087H379.949L386.715 119.698H390.098L381.283 134.041V144.095H378.329V134.041L369.514 119.698Z" fill="white"/>
<path fill-rule="evenodd" clip-rule="evenodd" d="M325.016 101.93V17.6258H389.233V33.9658H348.359V51.3668H385.952V67.7228H348.359V85.5738H389.233V101.93H325.016ZM247.706 101.93V17.6258H311.94V33.9658H271.066V51.3668H308.659V67.7228H271.066V85.5738H311.94V101.93H247.706ZM170.413 101.93V17.6258H234.632V33.9658H193.765V51.3668H231.358V67.7228H193.765V85.5738H234.632V101.93H170.413ZM134.798 17.6258H158.158V101.93H134.798V17.6258ZM105.954 61.3868C103.839 66.4858 99.5373 70.5708 95.7903 75.0258C87.6763 83.4848 79.1043 91.6708 69.5113 98.2008C67.5653 99.5348 64.9603 100.758 62.6283 99.6968C55.5673 96.1258 49.6173 90.2718 43.4333 84.9318C36.2683 78.5158 29.0803 71.0208 23.6433 63.1728C22.8393 62.0788 22.6143 60.7278 22.6303 59.2808C23.3383 56.5788 25.2513 54.3438 27.0613 52.0758C33.4703 44.1628 41.3343 36.6528 49.2793 29.7848C49.4563 29.6078 49.7943 29.2548 50.0833 29.0618C53.4923 26.2148 56.8863 23.6898 60.4563 21.1968C64.1873 18.3988 68.8673 20.7308 71.9953 23.3038C75.2763 25.7328 78.6943 28.4828 81.6943 31.2978L82.2323 31.6028C90.5473 39.0488 98.2503 47.3318 104.587 56.0958C105.617 57.6248 106.525 59.3608 105.954 61.3868ZM118.627 56.5788L118.322 56.5308C108.742 50.2165 99.7621 43.0349 91.4963 35.0768L82.2323 25.7168C78.4853 21.6798 74.8343 17.2248 71.3763 12.9628L67.1553 7.1888C66.6403 6.8838 65.9883 6.3848 65.4263 6.2398C64.1873 5.7098 62.8373 6.3368 61.8233 7.0928L54.1923 16.7098C41.9613 31.3618 27.4713 45.0638 11.6623 55.5498C10.4243 56.4978 8.56633 57.4308 8.17233 58.9908C7.76133 60.3748 8.50933 61.5318 9.41033 62.4168C22.0673 70.8438 34.1783 80.8478 44.9363 92.2658C46.8513 94.2288 48.4023 96.1418 50.2683 97.9918C53.4203 102.029 57.1193 106.113 60.0143 110.472C60.9223 111.388 61.0673 112.901 62.4993 113.335C63.6083 113.72 64.9843 113.961 66.0533 113.335L67.1063 112.321C80.1903 94.3718 96.7953 78.2578 115.346 65.2308C117.212 63.6398 120.758 63.0278 120.806 60.0688C120.678 58.6848 119.849 57.3348 118.627 56.5788Z" fill="white"/>
<path fill-rule="evenodd" clip-rule="evenodd" d="M79.5783 66.0679C68.7063 69.3489 55.0453 69.1879 44.7603 64.8139C42.8943 63.9289 40.5383 62.5779 39.9193 60.4869C39.4533 56.6269 43.7143 54.4889 46.6253 53.0889C48.3303 52.3649 50.0593 51.5779 51.9493 51.4639C53.7013 52.7189 55.5353 53.7329 57.3523 54.8579C53.8303 55.7429 49.6173 56.5309 47.9843 60.2619C48.2663 63.0769 51.5873 63.9919 53.8873 64.6839C62.1853 66.8079 71.1683 66.5339 79.1283 63.7359C80.6403 62.8829 83.0203 61.8539 82.8113 59.7479C82.5463 57.4959 79.8843 56.4989 78.0183 55.7909C76.9073 55.953 75.8104 56.2004 74.7373 56.5309C74.1673 54.9709 73.6773 53.3949 73.0013 51.8989C76.5233 52.7999 80.0373 53.7329 83.6883 54.3429V54.4249C82.9403 54.4889 82.1033 54.7449 81.3803 55.0349V55.1469C83.4553 56.1449 86.3173 57.8009 86.3493 60.4389C85.8673 63.6229 82.2643 65.0539 79.5783 66.0679ZM60.5053 86.1559C60.9553 80.3499 61.0283 75.0249 61.3413 69.2689C63.4313 69.4609 65.2413 69.3809 67.1553 69.3169L67.2913 70.0879L68.0393 86.1859C65.5223 86.5419 62.8613 86.3329 60.5053 86.1559ZM63.1993 33.8219L64.2363 30.6209H64.3643C66.4873 36.4919 68.6743 42.3619 70.9593 48.1519L66.4073 48.2479L66.2943 48.7779L66.9783 64.5239V64.7489C65.2973 65.0379 63.2223 64.9579 61.5743 64.8139L61.4373 64.6369L62.1853 48.4249V48.2969C60.9223 48.1519 59.3143 48.2969 58.0283 48.1519L63.1993 33.8219ZM102.223 56.2089C96.2643 47.9589 89.0193 40.1909 81.2113 33.1789L80.7043 32.8899C77.8743 30.2509 74.6733 27.6629 71.5853 25.3789C68.6433 22.9499 64.2443 20.7629 60.7383 23.4159C57.3853 25.7319 54.2003 28.1119 50.9833 30.7989C50.7183 30.9589 50.4043 31.2969 50.2363 31.4739C42.7653 37.9399 35.3753 44.9839 29.3523 52.4139C27.6483 54.5529 25.8473 56.6429 25.1873 59.2009C25.1633 60.5509 25.3803 61.8219 26.1363 62.8509C31.2423 70.2169 38.0053 77.2779 44.7353 83.3079C50.5493 88.3259 56.1463 93.8259 62.7893 97.1879C64.9673 98.1849 67.4203 97.0259 69.2543 95.7719C78.2683 89.6289 86.3253 81.9419 93.9563 73.9959C97.4793 69.7989 101.515 65.9709 103.509 61.1629C104.04 59.2649 103.188 57.6409 102.223 56.2089Z" fill="white"/>
</g>
<defs>
<clipPath id="clip0_328_57">
<rect width="398" height="152" fill="white"/>
</clipPath>
</defs>
</svg>
