<svg width="1130" height="924" viewBox="0 0 1130 924" fill="none" xmlns="http://www.w3.org/2000/svg">
<g clip-path="url(#clip0_328_50)">
<path d="M174.574 578.485L142.909 578.577L138.45 550.294C134.253 546.125 128.963 542.833 122.588 540.419C116.209 538.01 108.689 536.813 100.033 536.838C81.5487 536.893 67.3407 543.647 57.4102 557.097C47.4779 570.547 42.5454 588.066 42.6081 609.653L42.6303 617.095C42.6948 638.683 47.7076 656.223 57.6704 669.707C67.6331 683.202 81.6604 689.915 99.7566 689.86C108.122 689.84 115.778 688.6 122.727 686.147C129.674 683.701 135.041 680.376 138.822 676.181L143.117 647.868L174.781 647.776L174.905 689.785C166.373 699.732 155.477 707.66 142.217 713.586C128.954 719.506 114.103 722.496 97.6626 722.547C69.1608 722.632 45.7824 712.828 27.533 693.139C9.28541 673.45 0.112283 648.147 0.0228021 617.22L0.000662633 610.073C-0.0888178 579.246 8.88414 553.886 26.9177 533.993C44.9531 514.101 68.3185 504.113 97.0169 504.028C113.455 503.979 128.301 506.924 141.549 512.869C154.795 518.81 165.764 526.678 174.451 536.475L174.574 578.485ZM254.145 691.432C260.389 691.413 266.064 690.052 271.164 687.342C276.266 684.627 280.23 681.234 283.055 677.157L282.986 653.746L261.837 653.808C253.039 653.838 246.375 655.917 241.844 660.038C237.315 664.166 235.058 669.121 235.076 674.889C235.092 680.094 236.782 684.152 240.152 687.075C243.517 689.998 248.184 691.452 254.145 691.432ZM290.135 718.994C288.985 716.43 287.982 713.804 287.131 711.127C286.276 708.458 285.604 705.734 285.119 702.974C280.215 708.663 274.243 713.273 267.205 716.792C260.167 720.306 252.106 722.086 243.022 722.115C227.978 722.159 216.019 718.102 207.149 709.949C198.276 701.79 193.823 690.666 193.778 676.571C193.738 662.194 199.476 651.066 210.997 643.178C222.516 635.293 239.442 631.319 261.773 631.25L282.92 631.187L282.874 616.147C282.853 608.769 280.706 603.054 276.437 599C272.168 594.946 265.869 592.929 257.545 592.952C252.813 592.967 248.603 593.527 244.916 594.626C241.228 595.723 238.251 597.034 235.986 598.554L233.336 615.02L202.114 615.112L202.155 581.058C209.709 575.93 218.379 571.598 228.161 568.07C237.943 564.544 248.605 562.76 260.15 562.726C279.169 562.67 294.628 567.285 306.531 576.562C318.432 585.846 324.411 599.096 324.461 616.312L324.649 679.732C324.656 682.096 324.684 684.322 324.741 686.401C324.791 688.481 324.963 690.468 325.255 692.358L337.89 694.026L337.966 718.854L290.135 718.994ZM352.409 693.973L372.267 689.654L371.985 594.453L349.974 590.261L349.9 565.29L410.503 565.112L412.414 587.522C415.984 579.568 420.606 573.358 426.269 568.895C431.933 564.433 438.502 562.192 445.977 562.17C448.154 562.162 450.447 562.322 452.862 562.646C455.276 562.971 457.286 563.367 458.899 563.832L454.609 601.588L437.576 601.211C431.521 601.23 426.509 602.429 422.543 604.805C418.574 607.183 415.555 610.546 413.488 614.906L413.709 689.534L433.594 693.736L433.665 718.563L352.484 718.8L352.409 693.974M464.249 527.896L464.174 502.923L527.757 502.737L528.328 689.208L548.354 693.41L548.426 718.237L466.96 718.474L466.885 693.648L486.883 689.329L486.401 532.086L464.249 527.896ZM630.406 593.559C622.742 593.581 616.693 596.53 612.264 602.41C607.835 608.286 605.112 616.001 604.1 625.559L604.527 626.265L655.337 626.115L655.328 622.427C655.302 613.634 653.223 606.614 649.093 601.377C644.961 596.139 638.731 593.533 630.406 593.559ZM630.407 720.962C608.265 721.024 590.549 713.982 577.263 699.833C563.973 685.684 557.296 667.682 557.232 645.835L557.217 640.159C557.148 617.363 563.359 598.565 575.855 583.774C588.347 568.984 605.143 561.601 626.245 561.635C646.967 561.572 663.068 567.769 674.555 580.221C686.039 592.672 691.816 609.54 691.879 630.823L691.945 653.382L600.261 653.653L599.976 654.502C600.765 664.623 604.171 672.936 610.2 679.445C616.227 685.955 624.397 689.193 634.711 689.164C643.889 689.134 651.503 688.196 657.553 686.328C663.604 684.467 670.218 681.539 677.398 677.545L688.687 703.051C682.361 708.082 674.167 712.314 664.099 715.751C654.033 719.183 642.801 720.923 630.407 720.962ZM760.127 522.763L760.24 564.04L787.206 563.96L787.292 593.044L760.326 593.124L760.557 671.307C760.574 677.264 761.817 681.515 764.285 684.061C766.751 686.61 770.067 687.874 774.23 687.86C777.069 687.855 779.554 687.729 781.68 687.486C783.811 687.245 786.196 686.833 788.844 686.256L792.48 716.188C787.849 717.617 783.263 718.699 778.724 719.42C774.184 720.142 769.265 720.511 763.967 720.53C749.678 720.569 738.667 716.677 730.933 708.848C723.197 701.02 719.306 688.592 719.255 671.569L719.024 593.248L704.611 593.313L704.524 564.228L718.938 564.163L718.826 522.887L760.127 522.763ZM842.282 642.108C842.324 656.107 844.816 667.338 849.762 675.786C854.707 684.239 862.667 688.447 873.645 688.412C884.336 688.378 892.154 684.104 897.094 675.572C902.039 667.046 904.49 655.83 904.449 641.923L904.439 638.943C904.397 625.322 901.857 614.22 896.816 605.623C891.776 597.032 883.863 592.752 873.077 592.784C862.292 592.814 854.448 597.142 849.556 605.765C844.658 614.39 842.231 625.507 842.274 639.126L842.282 642.108ZM800.831 639.251C800.763 616.362 807.117 597.591 819.895 582.939C832.673 568.288 850.368 560.928 872.982 560.86C895.691 560.794 913.476 568.026 926.342 582.552C939.206 597.082 945.673 615.84 945.74 638.821L945.749 641.802C945.818 664.885 939.461 683.701 926.684 698.261C913.906 712.813 896.256 720.128 873.739 720.196C850.935 720.264 833.102 713.056 820.238 698.578C807.372 684.09 800.906 665.312 800.838 642.231L800.831 639.251ZM956.34 692.126L976.198 687.806L975.916 592.607L953.906 588.414L953.831 563.444L1014.43 563.264L1016.34 585.25C1021.43 577.385 1027.7 571.264 1035.17 566.893C1042.63 562.52 1050.99 560.32 1060.27 560.29C1075.78 560.244 1087.91 565.082 1096.65 574.798C1105.38 584.514 1109.78 599.778 1109.84 620.59L1110.04 687.409L1129.92 691.612L1130 716.439L1050.8 716.677L1050.72 691.849L1068.45 687.536L1068.26 620.852C1068.22 610.543 1066.12 603.242 1061.95 598.949C1057.77 594.656 1051.47 592.524 1043.05 592.548C1037.56 592.565 1032.64 593.692 1028.3 595.927C1023.95 598.163 1020.32 601.32 1017.4 605.396L1017.64 687.686L1034.4 691.897L1034.47 716.725L956.415 716.952L956.34 692.126ZM217.509 776.717L217.55 790.599L205.248 793.006L205.425 852.957C205.447 860.533 207.5 866.191 211.59 869.942C215.678 873.688 221.273 875.547 228.375 875.525C235.582 875.506 241.231 873.625 245.324 869.874C249.416 866.134 251.452 860.444 251.428 852.818L251.251 792.867L239.013 790.536L238.973 776.654L286.552 776.516L286.593 790.397L274.292 792.799L274.47 852.75C274.507 865.635 270.287 875.593 261.813 882.607C253.338 889.627 242.209 893.157 228.427 893.195C214.698 893.242 203.601 889.774 195.136 882.804C186.673 875.839 182.422 865.91 182.384 853.024L182.207 793.073L169.967 790.743L169.928 776.86L182.159 776.825L205.199 776.757L217.509 776.717ZM292.927 877.546L303.968 875.147L303.811 822.22L291.573 819.889L291.533 806.003L325.226 805.905L326.289 818.129C329.115 813.754 332.602 810.355 336.753 807.92C340.901 805.486 345.553 804.266 350.71 804.252C359.335 804.224 366.078 806.915 370.933 812.313C375.788 817.717 378.234 826.204 378.268 837.772L378.378 874.927L389.431 877.257L389.471 891.063L345.442 891.192L345.402 877.388L355.258 874.994L355.148 837.922C355.132 832.19 353.961 828.13 351.64 825.742C349.318 823.361 345.816 822.17 341.135 822.184C338.084 822.193 335.349 822.822 332.934 824.067C330.518 825.305 328.496 827.062 326.873 829.329L327.01 875.078L336.327 877.415L336.368 891.22L292.968 891.35L292.927 877.546ZM429.956 785.166L406.914 785.232L406.862 767.955L429.905 767.888L429.956 785.166ZM396.061 877.24L407.179 874.842L407.022 821.915L394.705 819.583L394.666 805.698L430.016 805.595L430.221 874.774L441.274 877.105L441.315 890.91L396.101 891.045L396.061 877.24ZM481.36 819.314L473.315 820.837L484.712 858.984L486.236 867.023H486.71L488.343 858.974L499.355 820.842L491.145 819.287L491.105 805.402L529.847 805.285L529.887 819.17L522.473 820.375L497.51 890.735L475.494 890.798L450.037 820.59L442.616 819.431L442.576 805.546L481.32 805.429L481.36 819.314ZM571.493 821.327C567.231 821.34 563.87 822.98 561.407 826.244C558.944 829.513 557.431 833.802 556.868 839.115L557.107 839.512L585.354 839.43L585.35 837.379C585.335 832.486 584.178 828.584 581.882 825.673C579.586 822.759 576.121 821.313 571.493 821.327ZM573.755 892.154C561.445 892.19 551.594 888.278 544.207 880.41C536.818 872.546 533.107 862.537 533.071 850.388L533.062 847.236C533.025 834.561 536.478 824.111 543.425 815.883C550.371 807.665 559.708 803.556 571.44 803.578C582.961 803.542 591.914 806.986 598.3 813.908C604.685 820.833 607.896 830.21 607.931 842.044L607.968 854.587L556.993 854.735L556.836 855.207C557.274 860.834 559.167 865.46 562.52 869.075C565.871 872.694 570.413 874.495 576.148 874.478C581.249 874.459 585.483 873.939 588.847 872.901C592.209 871.868 595.888 870.238 599.88 868.02L606.156 882.198C602.64 884.995 598.083 887.349 592.486 889.262C586.889 891.171 580.645 892.137 573.755 892.154ZM617.12 876.552L628.16 874.154L628.003 821.228L615.766 818.897L615.725 805.011L649.419 804.912L650.48 817.371C652.466 812.952 655.035 809.497 658.183 807.014C661.333 804.534 664.984 803.29 669.142 803.276C670.351 803.274 671.627 803.363 672.968 803.542C674.311 803.726 675.428 803.942 676.324 804.203L673.94 825.193L664.472 824.983C661.104 824.992 658.318 825.66 656.112 826.981C653.907 828.302 652.228 830.174 651.078 832.595L651.201 874.087L662.255 876.422L662.295 890.227L617.16 890.358L617.12 876.552ZM749.415 833.951L733.95 833.995L731.471 823.356C729.89 822.099 727.901 821.052 725.505 820.217C723.108 819.381 720.463 818.969 717.57 818.977C713.521 818.991 710.315 819.907 707.954 821.726C705.59 823.55 704.413 825.83 704.422 828.565C704.43 831.144 705.567 833.281 707.834 834.979C710.099 836.685 714.63 838.186 721.419 839.475C732 841.55 739.846 844.617 744.962 848.676C750.075 852.741 752.644 858.346 752.665 865.497C752.687 873.176 749.404 879.454 742.82 884.335C736.229 889.222 727.544 891.678 716.761 891.713C710.184 891.732 704.144 890.789 698.642 888.885C693.139 886.98 688.253 884.25 683.981 880.685L683.687 861.517L699.784 861.472L702.974 872.587C704.345 873.736 706.216 874.586 708.584 875.134C710.953 875.672 713.426 875.946 716.003 875.938C720.686 875.924 724.246 875.075 726.688 873.382C729.128 871.689 730.345 869.403 730.337 866.51C730.33 863.987 729.087 861.804 726.608 859.972C724.13 858.14 719.575 856.523 712.943 855.121C702.889 853.101 695.293 850.086 690.152 846.076C685.011 842.066 682.43 836.596 682.409 829.653C682.388 822.503 685.315 816.327 691.192 811.128C697.068 805.932 705.453 803.317 716.342 803.286C722.97 803.263 729.245 804.139 735.169 805.909C741.092 807.683 745.741 809.955 749.115 812.731L749.415 833.951ZM796.219 784.038L773.177 784.105L773.126 766.829L796.168 766.761L796.219 784.038ZM762.324 876.118L773.443 873.714L773.286 820.787L760.97 818.457L760.93 804.57L796.28 804.467L796.484 873.647L807.538 875.982L807.578 889.787L762.365 889.923L762.324 876.118ZM845.311 783.41L845.373 804.31L860.366 804.266L860.413 820.437L845.42 820.483L845.549 863.947C845.558 867.26 846.25 869.627 847.621 871.043C848.994 872.457 850.835 873.162 853.152 873.153C854.729 873.149 856.111 873.076 857.294 872.946C858.477 872.812 859.805 872.582 861.278 872.264L863.298 888.904C860.794 889.68 858.238 890.28 855.65 890.699C853.126 891.099 850.392 891.306 847.445 891.314C839.501 891.337 833.379 889.173 829.08 884.821C824.778 880.468 822.615 873.557 822.586 864.094L822.457 820.55L814.512 820.59L814.466 804.418L822.411 804.377L822.348 783.476L845.311 783.41ZM960.067 817.86L952.101 819.063L920.941 902.218C918.485 908.376 915.201 913.545 911.084 917.708C906.966 921.876 900.752 923.973 892.441 924C890.495 924.005 888.665 923.851 886.955 923.538C885.244 923.228 883.23 922.788 880.916 922.217L883.547 905.403C884.284 905.511 885.048 905.61 885.838 905.717C886.627 905.816 887.309 905.87 887.889 905.87C891.728 905.857 894.672 904.914 896.719 903.041C898.765 901.169 900.336 898.832 901.432 896.048L904.018 889.572L876.743 819.368L868.771 818.129L868.731 804.242L910.55 804.116L910.591 818.005L901.048 819.611L912.828 853.652L914.029 859.801L914.502 859.878L927.877 819.531L918.246 817.981L918.205 804.094L960.027 803.973L960.067 817.86Z" fill="white"/>
<path d="M735.344 127.719L667.686 200.66L696.933 73.0697L657.979 93.6851L628.77 14.2614L599.56 93.6851L560.608 73.0697L589.856 200.66L520.754 126.164L516.266 158.693L459.605 142.174L485.755 203.96L461.751 210.505L542.726 270.95C634.85 235.428 692.64 245.747 726.503 259.471C721.519 278.923 714.149 297.008 704.413 313.706C701.597 312.158 698.722 310.718 695.796 309.389C684.028 304.055 669.886 299.728 652.876 297.205C646.333 296.235 639.348 295.544 631.934 295.152C629.831 295.041 627.727 294.956 625.622 294.897C621.421 294.781 617.218 294.76 613.016 294.835C593.888 295.164 572.199 297.384 547.553 302.109C546.624 302.287 545.72 302.437 544.801 302.604C540.455 303.396 536.089 304.079 531.709 304.654C469.837 312.744 431.646 294.429 408.746 273.54C406.367 266.705 404.328 259.757 402.637 252.721C425.594 276.668 466.051 297.65 533.105 274.477L442.516 206.855L474.025 198.266L444.662 128.879L509.122 147.674L514.728 107.049L574.319 171.293L548.053 56.7176L594.894 81.5086L623.451 3.86377C627.205 4.35898 630.95 4.9003 634.687 5.48312L662.647 81.5077L709.486 56.7167L683.224 171.292L735.392 115.048L735.344 127.719Z" fill="white"/>
<path d="M532.875 319.04C469.06 324.139 433.086 306.348 412.794 284.313C416.112 292.47 419.891 300.431 424.113 308.159C424.337 308.568 424.57 308.967 424.797 309.373C443.801 323.319 475.726 336.555 529.369 340.894C585.679 345.45 622.725 360.609 647.083 377.972C661.819 366.607 674.73 354.121 685.802 340.538C658.229 324.822 611.609 312.748 532.875 319.04Z" fill="white"/>
<path d="M424.797 309.373C455.254 364.425 504.194 395.615 560.757 420.212C564.117 421.673 567.772 421.749 571.113 420.212C587.699 412.528 606.124 404.873 621.666 395.406C630.662 389.919 639.133 384.106 647.083 377.972C622.725 360.608 585.679 345.45 529.369 340.894C475.726 336.555 443.801 323.319 424.797 309.373ZM547.553 302.109C476.26 315.78 433.547 296.182 408.754 273.562C410.009 277.18 411.355 280.764 412.793 284.313C433.085 306.348 469.059 324.139 532.874 319.041C611.608 312.748 658.228 324.822 685.801 340.538C692.7 332.086 698.927 323.108 704.426 313.685C674.243 297.119 625.592 287.146 547.553 302.109ZM709.486 56.718L683.223 171.293L735.392 115.05C735.46 89.4932 735.419 63.9359 735.662 38.3896C735.718 33.7418 734.618 31.1431 729.721 29.4731C698.625 18.809 666.99 10.5241 634.687 5.48438L662.646 81.5089L709.486 56.718Z" fill="white"/>
<path d="M533.105 274.477L442.517 206.855L474.025 198.266L444.662 128.879L509.122 147.674L514.728 107.05L574.32 171.293L548.053 56.7179L594.895 81.5089L623.451 3.86402C615.592 2.82438 607.707 1.9886 599.804 1.35753C532.72 -3.95423 467.723 6.57523 404.358 28.6006C398.228 30.7437 396.123 33.4752 396.197 39.9821C396.559 68.7237 396.539 126.245 396.539 126.245C396.539 152.158 396.274 178.072 396.596 203.986C396.811 220.688 398.856 236.944 402.643 252.738C425.596 276.69 466.058 297.647 533.105 274.476" fill="white"/>
</g>
<defs>
<clipPath id="clip0_328_50">
<rect width="1130" height="924" fill="white"/>
</clipPath>
</defs>
</svg>
