<svg width="660" height="453" viewBox="0 0 660 453" fill="none" xmlns="http://www.w3.org/2000/svg">
<g clip-path="url(#clip0_328_69)">
<path d="M234.054 453H423.058V424H234.054" fill="white"/>
<path d="M660 159.75C651.12 159.75 642.746 157.943 635.093 154.761C623.614 149.988 613.868 141.96 607.009 131.908C600.151 121.856 596.18 109.923 596.18 96.8338V91.0484C596.18 78.465 593.581 66.4602 588.889 55.5402C581.886 39.124 570.19 25.3113 555.535 15.4761C540.879 5.71312 523.12 0 504.205 0H155.795C143.161 0 131.105 2.53113 120.059 7.15948C103.599 14.0297 89.5209 25.5283 79.6303 40.0642C69.6675 54.6001 63.8197 72.2457 63.8197 91.1207V96.9061C63.8197 105.584 62.0149 113.829 58.8383 121.277C54.0013 132.487 45.9156 142.177 35.7362 148.975C25.5568 155.773 13.3559 159.75 0 159.75V195.982C13.7169 195.982 26.9285 193.234 38.8405 188.244C56.8169 180.723 72.0499 168.212 82.879 152.446C93.7082 136.681 100.061 117.444 100.061 96.9061V91.1207C100.061 83.5273 101.577 76.3678 104.393 69.8592C108.58 60.0963 115.655 51.6351 124.535 45.705C133.487 39.7749 144.1 36.3036 155.795 36.3036H504.205C512.002 36.3036 519.293 37.8223 526.007 40.6427C536.042 44.8372 544.561 51.852 550.554 60.6025C556.546 69.353 560.011 79.7668 560.011 91.193V96.9784C560.011 110.647 562.827 123.736 567.88 135.669C575.533 153.531 588.239 168.573 604.194 179.204C620.149 189.835 639.425 196.054 660.072 196.054V159.823L660 159.75Z" fill="white"/>
<path d="M380.896 355.805H504.204C516.838 355.805 528.895 353.273 539.94 348.645C556.401 341.775 570.479 330.276 580.369 315.74C590.332 301.204 596.18 283.559 596.18 264.684V258.898C596.18 250.22 597.985 241.976 601.161 234.527C605.998 223.318 614.084 213.627 624.263 206.829C634.515 200.032 646.716 196.054 660.072 196.054V159.823C646.355 159.823 633.143 162.571 621.231 167.561C603.255 175.082 588.022 187.593 577.193 203.358C566.364 219.124 560.01 238.36 560.01 258.898V264.684C560.01 272.277 558.494 279.437 555.679 285.945C551.492 295.708 544.417 304.17 535.537 310.1C526.585 316.03 515.972 319.501 504.276 319.501H380.969V355.732L380.896 355.805Z" fill="white"/>
<path d="M-7.13555e-05 195.982C8.87982 195.982 17.3266 197.79 24.907 200.972C36.3858 205.745 46.1321 213.772 52.9905 223.824C59.849 233.876 63.8197 245.809 63.8197 258.898V264.684C63.8197 277.267 66.4187 289.272 71.1113 300.264C78.1141 316.681 89.8096 330.493 104.465 340.329C119.12 350.091 136.88 355.805 155.795 355.805H311.879V438.536H348.048V319.573H155.795C147.998 319.573 140.707 318.055 133.992 315.234C123.957 311.04 115.439 304.025 109.446 295.274C103.454 286.524 99.989 276.11 99.989 264.684V258.898C99.989 245.23 97.1734 232.141 92.1198 220.208C84.4672 202.346 71.761 187.304 55.8061 176.673C39.8512 166.042 20.5753 159.823 -0.0722656 159.823V196.054H-7.13555e-05V195.982Z" fill="white"/>
<path d="M179.114 188.244L189.365 195.692L188.715 196.777C182.723 206.54 171.75 212.398 159.332 212.398H158.827C149.37 212.398 140.056 208.493 133.342 201.695C126.773 195.041 123.235 186.436 123.452 177.396C123.235 168.428 126.773 159.823 133.342 153.169C140.056 146.371 149.37 142.466 158.827 142.466H159.405C171.678 142.466 182.651 148.324 188.715 158.087L189.437 159.244L179.186 166.693L178.319 165.391C173.771 158.376 167.418 154.833 159.477 154.833C146.843 154.833 137.241 164.523 137.241 177.396C137.241 190.269 146.771 199.959 159.477 199.959C167.418 199.959 173.771 196.416 178.319 189.401L179.186 188.099L179.114 188.244Z" fill="white"/>
<path d="M243.583 192.293C243.583 204.154 233.982 212.47 220.192 212.47C209.075 212.47 199.617 207.119 194.202 197.717L193.553 196.632L203.227 189.328L204.093 190.558C208.786 197.283 213.695 200.248 220.12 200.248C226.112 200.248 230.011 197.283 230.011 192.655C230.011 189.111 228.278 187.448 221.203 184.194L213.912 180.867C205.898 177.251 197.74 172.117 197.74 161.558C197.74 151 207.27 142.539 219.904 142.539C229.433 142.539 237.808 147.167 242.356 154.833L243.006 155.917L233.404 163.222L232.538 161.92C229.289 157.219 224.957 154.688 219.904 154.688C215.789 154.688 211.385 156.351 211.385 161.124C211.674 164.885 212.901 165.68 218.821 168.573L219.759 169.079L227.051 172.406C238.819 177.757 243.583 183.471 243.583 192.149V192.293Z" fill="white"/>
<path d="M298.667 192.293C298.667 204.154 289.065 212.47 275.204 212.47C264.086 212.47 254.629 207.119 249.214 197.717L248.564 196.632L258.238 189.328L259.105 190.558C263.797 197.283 268.707 200.248 275.132 200.248C281.124 200.248 285.023 197.283 285.023 192.655C285.023 189.111 283.29 187.448 276.215 184.194L268.923 180.867C260.91 177.251 252.752 172.117 252.752 161.558C252.752 151 262.281 142.539 274.915 142.539C284.445 142.539 292.82 147.167 297.368 154.833L298.018 155.917L288.416 163.222L287.549 161.92C284.301 157.219 279.969 154.688 274.915 154.688C270.8 154.688 266.469 156.351 266.469 161.124C266.757 164.885 267.985 165.68 273.905 168.573L274.843 169.079L282.135 172.406C293.902 177.757 298.667 183.471 298.667 192.149V192.293Z" fill="white"/>
<path d="M337.652 142.611H332.165L301.988 211.385H316.355L321.048 200.61H348.626L353.318 211.385H367.829L337.652 142.611ZM326.029 188.75L334.909 167.199L343.717 188.75H326.029Z" fill="white"/>
<path d="M394.614 172.984H367.252V184.628H394.614V172.984Z" fill="white"/>
<path d="M429.7 142.611H424.213L394.036 211.385H408.403L413.095 200.61H440.674L445.366 211.385H459.877L429.7 142.611ZM418.077 188.75L426.957 167.199L435.764 188.75H418.077Z" fill="white"/>
<path d="M513.878 199.236V211.385H466.663V143.696H512.651V155.918H480.091V169.658H504.637V181.59H480.091V199.236H513.878Z" fill="white"/>
<path d="M536.62 143.696H523.191V211.385H536.62V143.696Z" fill="white"/>
</g>
<defs>
<clipPath id="clip0_328_69">
<rect width="660" height="453" fill="white"/>
</clipPath>
</defs>
</svg>
