<svg width="1889" height="731" viewBox="0 0 1889 731" fill="none" xmlns="http://www.w3.org/2000/svg">
<g clip-path="url(#clip0_328_105)">
<path d="M25.0179 443.146L218.805 64.3609L552.977 282.09L359.19 660.875L25.0179 443.146Z" stroke="white" stroke-width="30"/>
<path d="M139.418 193.815H438.577V531.421H139.418L139.418 193.815Z" stroke="white" stroke-width="61.3584" stroke-linecap="square"/>
<path d="M667.315 430.198V199.603H822.697V239.799H716.069V294.746H814.703V334.943H716.069V390.002H823.147V430.198H667.315ZM861.458 430.198V199.603H1016.84V239.799H910.212V294.746H1008.85V334.943H910.212V390.002H1017.29V430.198H861.458ZM1055.6 430.198V199.603H1208.28V239.799H1104.35V294.746H1198.15V334.943H1104.35V430.198H1055.6Z" fill="white"/>
<path d="M1482.71 280.104V233.173H1511.03V238.215H1488.39V254.072H1509.56V259.114H1488.39V275.063H1511.4V280.104H1482.71ZM1525.95 258.93V280.104H1520.54V244.906H1525.76V250.406H1526.22C1527.05 248.618 1528.3 247.182 1529.98 246.098C1531.66 244.998 1533.83 244.448 1536.49 244.448C1538.87 244.448 1540.96 244.937 1542.74 245.914C1544.53 246.877 1545.92 248.343 1546.92 250.314C1547.91 252.269 1548.4 254.744 1548.4 257.739V280.104H1543V258.105C1543 255.34 1542.28 253.186 1540.84 251.643C1539.41 250.085 1537.44 249.306 1534.93 249.306C1533.2 249.306 1531.66 249.68 1530.3 250.429C1528.96 251.177 1527.9 252.269 1527.12 253.705C1526.34 255.141 1525.95 256.883 1525.95 258.93ZM1572.49 294.037C1569.88 294.037 1567.64 293.7 1565.76 293.028C1563.88 292.371 1562.31 291.501 1561.06 290.416C1559.82 289.347 1558.84 288.201 1558.1 286.979L1562.41 283.954C1562.9 284.595 1563.52 285.329 1564.27 286.154C1565.02 286.994 1566.04 287.72 1567.34 288.331C1568.65 288.957 1570.37 289.27 1572.49 289.27C1575.34 289.27 1577.68 288.583 1579.53 287.208C1581.38 285.833 1582.3 283.679 1582.3 280.746V273.596H1581.84C1581.45 274.238 1580.88 275.032 1580.15 275.979C1579.43 276.911 1578.39 277.744 1577.03 278.477C1575.69 279.195 1573.87 279.554 1571.58 279.554C1568.74 279.554 1566.19 278.882 1563.92 277.537C1561.68 276.193 1559.9 274.238 1558.59 271.671C1557.29 269.105 1556.64 265.988 1556.64 262.322C1556.64 258.716 1557.27 255.577 1558.54 252.903C1559.81 250.215 1561.57 248.137 1563.83 246.67C1566.09 245.189 1568.71 244.448 1571.67 244.448C1573.96 244.448 1575.78 244.83 1577.12 245.593C1578.48 246.342 1579.52 247.197 1580.24 248.16C1580.97 249.107 1581.54 249.886 1581.94 250.497H1582.49V244.906H1587.71V281.112C1587.71 284.137 1587.02 286.597 1585.65 288.491C1584.29 290.401 1582.46 291.798 1580.15 292.685C1577.86 293.586 1575.31 294.037 1572.49 294.037ZM1572.31 274.696C1574.48 274.696 1576.31 274.199 1577.81 273.206C1579.31 272.213 1580.45 270.785 1581.23 268.921C1582 267.058 1582.39 264.827 1582.39 262.23C1582.39 259.694 1582.01 257.456 1581.25 255.516C1580.48 253.576 1579.35 252.056 1577.86 250.956C1576.36 249.856 1574.51 249.306 1572.31 249.306C1570.02 249.306 1568.11 249.886 1566.58 251.047C1565.07 252.208 1563.93 253.767 1563.17 255.722C1562.42 257.677 1562.05 259.847 1562.05 262.23C1562.05 264.674 1562.43 266.836 1563.19 268.715C1563.97 270.579 1565.12 272.045 1566.63 273.115C1568.16 274.169 1570.05 274.696 1572.31 274.696ZM1597.61 280.104V244.906H1603.02V280.104H1597.61ZM1600.36 239.04C1599.31 239.04 1598.4 238.681 1597.63 237.963C1596.88 237.245 1596.51 236.381 1596.51 235.373C1596.51 234.365 1596.88 233.502 1597.63 232.784C1598.4 232.066 1599.31 231.707 1600.36 231.707C1601.41 231.707 1602.32 232.066 1603.06 232.784C1603.83 233.502 1604.21 234.365 1604.21 235.373C1604.21 236.381 1603.83 237.245 1603.06 237.963C1602.32 238.681 1601.41 239.04 1600.36 239.04ZM1618.33 258.93V280.104H1612.92V244.906H1618.15V250.406H1618.61C1619.43 248.618 1620.68 247.182 1622.36 246.098C1624.04 244.998 1626.21 244.448 1628.87 244.448C1631.26 244.448 1633.34 244.937 1635.13 245.914C1636.92 246.877 1638.31 248.343 1639.3 250.314C1640.29 252.269 1640.79 254.744 1640.79 257.739V280.104H1635.38V258.105C1635.38 255.34 1634.66 253.186 1633.23 251.643C1631.79 250.085 1629.82 249.306 1627.31 249.306C1625.59 249.306 1624.04 249.68 1622.69 250.429C1621.34 251.177 1620.28 252.269 1619.5 253.705C1618.72 255.141 1618.33 256.883 1618.33 258.93ZM1665.43 280.837C1662.04 280.837 1659.11 280.089 1656.65 278.592C1654.21 277.079 1652.32 274.971 1650.99 272.267C1649.68 269.548 1649.02 266.385 1649.02 262.78C1649.02 259.175 1649.68 255.997 1650.99 253.247C1652.32 250.482 1654.17 248.328 1656.54 246.785C1658.92 245.227 1661.7 244.448 1664.88 244.448C1666.71 244.448 1668.52 244.753 1670.31 245.364C1672.1 245.975 1673.72 246.968 1675.19 248.343C1676.66 249.703 1677.83 251.506 1678.7 253.751C1679.57 255.997 1680 258.762 1680 262.047V264.338H1652.87V259.663H1674.5C1674.5 257.677 1674.11 255.905 1673.31 254.347C1672.53 252.789 1671.42 251.559 1669.97 250.658C1668.53 249.756 1666.83 249.306 1664.88 249.306C1662.72 249.306 1660.86 249.84 1659.29 250.91C1657.73 251.964 1656.53 253.339 1655.69 255.035C1654.85 256.73 1654.43 258.548 1654.43 260.488V263.605C1654.43 266.263 1654.89 268.516 1655.8 270.365C1656.74 272.198 1658.03 273.596 1659.68 274.558C1661.33 275.506 1663.24 275.979 1665.43 275.979C1666.85 275.979 1668.13 275.781 1669.28 275.383C1670.44 274.971 1671.44 274.36 1672.28 273.55C1673.12 272.725 1673.77 271.702 1674.23 270.48L1679.45 271.946C1678.9 273.718 1677.98 275.276 1676.68 276.621C1675.38 277.95 1673.78 278.989 1671.87 279.737C1669.96 280.471 1667.81 280.837 1665.43 280.837ZM1702.99 280.837C1699.59 280.837 1696.67 280.089 1694.21 278.592C1691.77 277.079 1689.88 274.971 1688.55 272.267C1687.24 269.548 1686.58 266.385 1686.58 262.78C1686.58 259.175 1687.24 255.997 1688.55 253.247C1689.88 250.482 1691.73 248.328 1694.1 246.785C1696.48 245.227 1699.26 244.448 1702.44 244.448C1704.27 244.448 1706.08 244.753 1707.87 245.364C1709.65 245.975 1711.28 246.968 1712.75 248.343C1714.21 249.703 1715.38 251.506 1716.25 253.751C1717.13 255.997 1717.56 258.762 1717.56 262.047V264.338H1690.43V259.663H1712.06C1712.06 257.677 1711.66 255.905 1710.87 254.347C1710.09 252.789 1708.97 251.559 1707.52 250.658C1706.09 249.756 1704.39 249.306 1702.44 249.306C1700.28 249.306 1698.42 249.84 1696.85 250.91C1695.29 251.964 1694.09 253.339 1693.25 255.035C1692.41 256.73 1691.99 258.548 1691.99 260.488V263.605C1691.99 266.263 1692.45 268.516 1693.36 270.365C1694.29 272.198 1695.58 273.596 1697.23 274.558C1698.88 275.506 1700.8 275.979 1702.99 275.979C1704.41 275.979 1705.69 275.781 1706.84 275.383C1708 274.971 1709 274.36 1709.84 273.55C1710.68 272.725 1711.33 271.702 1711.79 270.48L1717.01 271.946C1716.46 273.718 1715.54 275.276 1714.24 276.621C1712.94 277.95 1711.34 278.989 1709.43 279.737C1707.52 280.471 1705.37 280.837 1702.99 280.837ZM1725.79 280.104V244.906H1731.01V250.222H1731.38C1732.02 248.481 1733.18 247.068 1734.86 245.983C1736.54 244.898 1738.44 244.356 1740.54 244.356C1740.94 244.356 1741.44 244.364 1742.03 244.379C1742.63 244.394 1743.08 244.417 1743.39 244.448V249.947C1743.2 249.902 1742.78 249.833 1742.13 249.741C1741.48 249.634 1740.8 249.581 1740.09 249.581C1738.38 249.581 1736.85 249.94 1735.5 250.658C1734.17 251.36 1733.12 252.338 1732.34 253.591C1731.58 254.828 1731.2 256.241 1731.2 257.83V280.104H1725.79ZM1749.8 280.104V244.906H1755.2V280.104H1749.8ZM1752.55 239.04C1751.49 239.04 1750.58 238.681 1749.82 237.963C1749.07 237.245 1748.7 236.381 1748.7 235.373C1748.7 234.365 1749.07 233.502 1749.82 232.784C1750.58 232.066 1751.49 231.707 1752.55 231.707C1753.6 231.707 1754.5 232.066 1755.25 232.784C1756.01 233.502 1756.4 234.365 1756.4 235.373C1756.4 236.381 1756.01 237.245 1755.25 237.963C1754.5 238.681 1753.6 239.04 1752.55 239.04ZM1770.52 258.93V280.104H1765.11V244.906H1770.33V250.406H1770.79C1771.62 248.618 1772.87 247.182 1774.55 246.098C1776.23 244.998 1778.4 244.448 1781.06 244.448C1783.44 244.448 1785.53 244.937 1787.32 245.914C1789.1 246.877 1790.49 248.343 1791.49 250.314C1792.48 252.269 1792.98 254.744 1792.98 257.739V280.104H1787.57V258.105C1787.57 255.34 1786.85 253.186 1785.41 251.643C1783.98 250.085 1782.01 249.306 1779.5 249.306C1777.77 249.306 1776.23 249.68 1774.87 250.429C1773.53 251.177 1772.47 252.269 1771.69 253.705C1770.91 255.141 1770.52 256.883 1770.52 258.93ZM1817.06 294.037C1814.45 294.037 1812.21 293.7 1810.33 293.028C1808.45 292.371 1806.88 291.501 1805.63 290.416C1804.39 289.347 1803.41 288.201 1802.67 286.979L1806.98 283.954C1807.47 284.595 1808.09 285.329 1808.84 286.154C1809.59 286.994 1810.61 287.72 1811.91 288.331C1813.22 288.957 1814.94 289.27 1817.06 289.27C1819.91 289.27 1822.25 288.583 1824.1 287.208C1825.95 285.833 1826.87 283.679 1826.87 280.746V273.596H1826.41C1826.02 274.238 1825.45 275.032 1824.72 275.979C1824 276.911 1822.96 277.744 1821.6 278.477C1820.26 279.195 1818.44 279.554 1816.15 279.554C1813.31 279.554 1810.76 278.882 1808.49 277.537C1806.25 276.193 1804.47 274.238 1803.16 271.671C1801.86 269.105 1801.21 265.988 1801.21 262.322C1801.21 258.716 1801.84 255.577 1803.11 252.903C1804.38 250.215 1806.14 248.137 1808.4 246.67C1810.66 245.189 1813.28 244.448 1816.24 244.448C1818.53 244.448 1820.35 244.83 1821.69 245.593C1823.05 246.342 1824.09 247.197 1824.81 248.16C1825.54 249.107 1826.11 249.886 1826.51 250.497H1827.06V244.906H1832.28V281.112C1832.28 284.137 1831.59 286.597 1830.22 288.491C1828.86 290.401 1827.03 291.798 1824.72 292.685C1822.43 293.586 1819.88 294.037 1817.06 294.037ZM1816.88 274.696C1819.05 274.696 1820.88 274.199 1822.38 273.206C1823.88 272.213 1825.02 270.785 1825.8 268.921C1826.57 267.058 1826.96 264.827 1826.96 262.23C1826.96 259.694 1826.58 257.456 1825.82 255.516C1825.05 253.576 1823.92 252.056 1822.43 250.956C1820.93 249.856 1819.08 249.306 1816.88 249.306C1814.59 249.306 1812.68 249.886 1811.15 251.047C1809.64 252.208 1808.5 253.767 1807.74 255.722C1806.99 257.677 1806.62 259.847 1806.62 262.23C1806.62 264.674 1807 266.836 1807.76 268.715C1808.54 270.579 1809.69 272.045 1811.2 273.115C1812.73 274.169 1814.62 274.696 1816.88 274.696Z" fill="white"/>
<path d="M1482.71 374.831V327.9H1511.03V332.942H1488.39V348.799H1509.56V353.841H1488.39V369.79H1511.4V374.831H1482.71ZM1525.95 353.657V374.831H1520.54V339.633H1525.76V345.133H1526.22C1527.05 343.345 1528.3 341.909 1529.98 340.825C1531.66 339.725 1533.83 339.175 1536.49 339.175C1538.87 339.175 1540.96 339.664 1542.74 340.641C1544.53 341.604 1545.92 343.07 1546.92 345.041C1547.91 346.996 1548.4 349.471 1548.4 352.466V374.831H1543V352.832C1543 350.067 1542.28 347.913 1540.84 346.37C1539.41 344.812 1537.44 344.033 1534.93 344.033C1533.2 344.033 1531.66 344.407 1530.3 345.156C1528.96 345.904 1527.9 346.996 1527.12 348.433C1526.34 349.869 1525.95 351.61 1525.95 353.657ZM1571.58 375.564C1568.64 375.564 1566.06 374.823 1563.81 373.342C1561.56 371.844 1559.81 369.736 1558.54 367.017C1557.27 364.282 1556.64 361.051 1556.64 357.324C1556.64 353.627 1557.27 350.419 1558.54 347.699C1559.81 344.98 1561.57 342.879 1563.83 341.397C1566.09 339.916 1568.71 339.175 1571.67 339.175C1573.96 339.175 1575.77 339.557 1577.1 340.32C1578.45 341.069 1579.47 341.925 1580.17 342.887C1580.89 343.834 1581.45 344.613 1581.84 345.224H1582.3V327.9H1587.71V374.831H1582.49V369.423H1581.84C1581.45 370.065 1580.88 370.874 1580.15 371.852C1579.42 372.814 1578.37 373.678 1577.01 374.441C1575.65 375.19 1573.84 375.564 1571.58 375.564ZM1572.31 370.706C1574.48 370.706 1576.31 370.141 1577.81 369.011C1579.31 367.865 1580.45 366.284 1581.23 364.267C1582 362.235 1582.39 359.89 1582.39 357.232C1582.39 354.604 1582.01 352.305 1581.25 350.334C1580.48 348.348 1579.35 346.806 1577.86 345.706C1576.36 344.59 1574.51 344.033 1572.31 344.033C1570.02 344.033 1568.11 344.621 1566.58 345.797C1565.07 346.958 1563.93 348.539 1563.17 350.541C1562.42 352.527 1562.05 354.757 1562.05 357.232C1562.05 359.737 1562.43 362.014 1563.19 364.061C1563.97 366.093 1565.12 367.712 1566.63 368.919C1568.16 370.11 1570.05 370.706 1572.31 370.706ZM1612.67 375.564C1609.49 375.564 1606.7 374.808 1604.3 373.296C1601.92 371.783 1600.05 369.667 1598.71 366.948C1597.38 364.229 1596.72 361.051 1596.72 357.415C1596.72 353.749 1597.38 350.548 1598.71 347.814C1600.05 345.079 1601.92 342.956 1604.3 341.443C1606.7 339.931 1609.49 339.175 1612.67 339.175C1615.84 339.175 1618.62 339.931 1621.01 341.443C1623.41 342.956 1625.27 345.079 1626.6 347.814C1627.94 350.548 1628.61 353.749 1628.61 357.415C1628.61 361.051 1627.94 364.229 1626.6 366.948C1625.27 369.667 1623.41 371.783 1621.01 373.296C1618.62 374.808 1615.84 375.564 1612.67 375.564ZM1612.67 370.706C1615.08 370.706 1617.07 370.088 1618.62 368.85C1620.18 367.613 1621.34 365.986 1622.08 363.969C1622.83 361.953 1623.21 359.768 1623.21 357.415C1623.21 355.063 1622.83 352.87 1622.08 350.839C1621.34 348.807 1620.18 347.165 1618.62 345.912C1617.07 344.659 1615.08 344.033 1612.67 344.033C1610.25 344.033 1608.27 344.659 1606.71 345.912C1605.15 347.165 1604 348.807 1603.25 350.839C1602.5 352.87 1602.12 355.063 1602.12 357.415C1602.12 359.768 1602.5 361.953 1603.25 363.969C1604 365.986 1605.15 367.613 1606.71 368.85C1608.27 370.088 1610.25 370.706 1612.67 370.706ZM1643.65 374.831L1632.92 339.633H1638.61L1646.21 366.582H1646.58L1654.1 339.633H1659.87L1667.3 366.49H1667.66L1675.27 339.633H1680.95L1670.23 374.831H1664.91L1657.21 347.791H1656.66L1648.96 374.831H1643.65ZM1701.66 375.564C1698.27 375.564 1695.35 374.816 1692.89 373.319C1690.44 371.806 1688.56 369.698 1687.23 366.994C1685.91 364.275 1685.26 361.112 1685.26 357.507C1685.26 353.902 1685.91 350.724 1687.23 347.974C1688.56 345.209 1690.4 343.055 1692.77 341.512C1695.16 339.954 1697.94 339.175 1701.11 339.175C1702.95 339.175 1704.76 339.48 1706.54 340.091C1708.33 340.702 1709.96 341.695 1711.43 343.07C1712.89 344.43 1714.06 346.233 1714.93 348.478C1715.8 350.724 1716.24 353.489 1716.24 356.774V359.065H1689.11V354.391H1710.74C1710.74 352.405 1710.34 350.632 1709.55 349.074C1708.77 347.516 1707.65 346.286 1706.2 345.385C1704.76 344.483 1703.07 344.033 1701.11 344.033C1698.96 344.033 1697.1 344.567 1695.52 345.637C1693.96 346.691 1692.76 348.066 1691.92 349.762C1691.08 351.457 1690.66 353.275 1690.66 355.215V358.332C1690.66 360.99 1691.12 363.244 1692.04 365.092C1692.97 366.925 1694.26 368.323 1695.91 369.286C1697.56 370.233 1699.48 370.706 1701.66 370.706C1703.08 370.706 1704.37 370.508 1705.51 370.11C1706.67 369.698 1707.67 369.087 1708.51 368.277C1709.36 367.452 1710 366.429 1710.46 365.207L1715.69 366.673C1715.14 368.445 1714.21 370.004 1712.91 371.348C1711.62 372.677 1710.01 373.716 1708.1 374.464C1706.19 375.198 1704.05 375.564 1701.66 375.564ZM1724.46 374.831V339.633H1729.69V345.133H1730.15C1730.88 343.254 1732.06 341.795 1733.7 340.756C1735.33 339.702 1737.3 339.175 1739.59 339.175C1741.91 339.175 1743.84 339.702 1745.39 340.756C1746.94 341.795 1748.16 343.254 1749.03 345.133H1749.4C1750.3 343.315 1751.65 341.871 1753.45 340.802C1755.25 339.717 1757.42 339.175 1759.94 339.175C1763.08 339.175 1765.66 340.16 1767.66 342.131C1769.66 344.086 1770.66 347.134 1770.66 351.274V374.831H1765.25V351.274C1765.25 348.677 1764.54 346.821 1763.12 345.706C1761.7 344.59 1760.03 344.033 1758.1 344.033C1755.63 344.033 1753.71 344.781 1752.35 346.278C1750.99 347.76 1750.31 349.639 1750.31 351.916V374.831H1744.81V350.724C1744.81 348.723 1744.16 347.111 1742.86 345.889C1741.57 344.651 1739.89 344.033 1737.85 344.033C1736.44 344.033 1735.13 344.407 1733.91 345.156C1732.7 345.904 1731.72 346.943 1730.97 348.272C1730.24 349.586 1729.87 351.106 1729.87 352.832V374.831H1724.46ZM1795.31 375.564C1791.92 375.564 1788.99 374.816 1786.53 373.319C1784.09 371.806 1782.2 369.698 1780.87 366.994C1779.56 364.275 1778.9 361.112 1778.9 357.507C1778.9 353.902 1779.56 350.724 1780.87 347.974C1782.2 345.209 1784.05 343.055 1786.42 341.512C1788.8 339.954 1791.58 339.175 1794.76 339.175C1796.59 339.175 1798.4 339.48 1800.19 340.091C1801.98 340.702 1803.6 341.695 1805.07 343.07C1806.54 344.43 1807.7 346.233 1808.57 348.478C1809.45 350.724 1809.88 353.489 1809.88 356.774V359.065H1782.75V354.391H1804.38C1804.38 352.405 1803.98 350.632 1803.19 349.074C1802.41 347.516 1801.3 346.286 1799.84 345.385C1798.41 344.483 1796.71 344.033 1794.76 344.033C1792.6 344.033 1790.74 344.567 1789.17 345.637C1787.61 346.691 1786.41 348.066 1785.57 349.762C1784.73 351.457 1784.31 353.275 1784.31 355.215V358.332C1784.31 360.99 1784.77 363.244 1785.68 365.092C1786.61 366.925 1787.91 368.323 1789.56 369.286C1791.2 370.233 1793.12 370.706 1795.31 370.706C1796.73 370.706 1798.01 370.508 1799.16 370.11C1800.32 369.698 1801.32 369.087 1802.16 368.277C1803 367.452 1803.65 366.429 1804.11 365.207L1809.33 366.673C1808.78 368.445 1807.86 370.004 1806.56 371.348C1805.26 372.677 1803.66 373.716 1801.75 374.464C1799.84 375.198 1797.69 375.564 1795.31 375.564ZM1823.52 353.657V374.831H1818.11V339.633H1823.33V345.133H1823.79C1824.62 343.345 1825.87 341.909 1827.55 340.825C1829.23 339.725 1831.4 339.175 1834.06 339.175C1836.44 339.175 1838.53 339.664 1840.31 340.641C1842.1 341.604 1843.49 343.07 1844.48 345.041C1845.48 346.996 1845.97 349.471 1845.97 352.466V374.831H1840.56V352.832C1840.56 350.067 1839.85 347.913 1838.41 346.37C1836.97 344.812 1835 344.033 1832.5 344.033C1830.77 344.033 1829.23 344.407 1827.87 345.156C1826.53 345.904 1825.46 346.996 1824.68 348.433C1823.91 349.869 1823.52 351.61 1823.52 353.657ZM1871.16 339.633V344.216H1852.92V339.633H1871.16ZM1858.24 331.2H1863.65V364.748C1863.65 366.276 1863.87 367.422 1864.31 368.186C1864.77 368.934 1865.35 369.438 1866.05 369.698C1866.77 369.942 1867.53 370.065 1868.32 370.065C1868.92 370.065 1869.41 370.034 1869.79 369.973C1870.17 369.897 1870.48 369.835 1870.7 369.79L1871.8 374.648C1871.44 374.785 1870.93 374.923 1870.27 375.06C1869.61 375.213 1868.78 375.289 1867.77 375.289C1866.24 375.289 1864.75 374.961 1863.28 374.304C1861.83 373.647 1860.62 372.646 1859.66 371.302C1858.71 369.958 1858.24 368.262 1858.24 366.215V331.2Z" fill="white"/>
<path d="M1482.71 469.558V422.627H1510.85V427.668H1488.39V443.526H1508.74V448.567H1488.39V469.558H1482.71ZM1539.82 455.167V434.36H1545.23V469.558H1539.82V463.6H1539.46C1538.63 465.387 1537.35 466.907 1535.61 468.16C1533.87 469.397 1531.67 470.016 1529.01 470.016C1526.81 470.016 1524.85 469.535 1523.14 468.572C1521.43 467.595 1520.09 466.128 1519.11 464.172C1518.13 462.202 1517.64 459.719 1517.64 456.725V434.36H1523.05V456.358C1523.05 458.925 1523.77 460.972 1525.2 462.5C1526.65 464.027 1528.5 464.791 1530.75 464.791C1532.09 464.791 1533.46 464.447 1534.85 463.76C1536.26 463.073 1537.43 462.018 1538.38 460.598C1539.34 459.177 1539.82 457.367 1539.82 455.167ZM1560.54 448.384V469.558H1555.14V434.36H1560.36V439.859H1560.82C1561.64 438.072 1562.9 436.636 1564.58 435.551C1566.26 434.451 1568.43 433.901 1571.09 433.901C1573.47 433.901 1575.55 434.39 1577.34 435.368C1579.13 436.33 1580.52 437.797 1581.51 439.768C1582.5 441.723 1583 444.198 1583 447.192V469.558H1577.59V447.559C1577.59 444.794 1576.88 442.64 1575.44 441.097C1574 439.538 1572.03 438.759 1569.53 438.759C1567.8 438.759 1566.26 439.134 1564.9 439.882C1563.55 440.631 1562.49 441.723 1561.71 443.159C1560.93 444.595 1560.54 446.337 1560.54 448.384ZM1606.17 470.291C1603.24 470.291 1600.65 469.55 1598.41 468.068C1596.16 466.571 1594.4 464.463 1593.14 461.743C1591.87 459.009 1591.23 455.778 1591.23 452.05C1591.23 448.353 1591.87 445.145 1593.14 442.426C1594.4 439.706 1596.17 437.606 1598.43 436.124C1600.69 434.642 1603.3 433.901 1606.27 433.901C1608.56 433.901 1610.37 434.283 1611.7 435.047C1613.04 435.796 1614.07 436.651 1614.77 437.614C1615.49 438.561 1616.04 439.34 1616.44 439.951H1616.9V422.627H1622.31V469.558H1617.08V464.15H1616.44C1616.04 464.791 1615.48 465.601 1614.74 466.579C1614.01 467.541 1612.97 468.404 1611.61 469.168C1610.25 469.917 1608.44 470.291 1606.17 470.291ZM1606.91 465.433C1609.08 465.433 1610.91 464.868 1612.41 463.737C1613.9 462.591 1615.04 461.01 1615.82 458.994C1616.6 456.962 1616.99 454.617 1616.99 451.959C1616.99 449.331 1616.61 447.032 1615.84 445.061C1615.08 443.075 1613.95 441.532 1612.45 440.432C1610.96 439.317 1609.11 438.759 1606.91 438.759C1604.62 438.759 1602.71 439.347 1601.18 440.524C1599.67 441.685 1598.53 443.266 1597.76 445.267C1597.02 447.253 1596.64 449.484 1596.64 451.959C1596.64 454.464 1597.02 456.74 1597.79 458.787C1598.57 460.819 1599.71 462.439 1601.22 463.645C1602.75 464.837 1604.65 465.433 1606.91 465.433Z" fill="white"/>
<path d="M1383.99 230.437V495.552" stroke="white" stroke-width="5.37749"/>
<path d="M288.167 274.705C284.682 274.698 281.331 274.991 278.711 275.62C269.783 277.763 261.589 283.436 256.559 290.953L253.893 294.938H245.588H237.283L237.448 299.461L237.613 303.985L229.477 304.185L221.342 304.386V376.978C221.342 416.903 221.532 449.787 221.768 450.053C222.014 450.33 252.449 450.533 289.426 450.533H356.656V377.438V304.343H348.639H340.623V299.639V294.934H332.341H324.058L321.732 291.357C317.543 284.918 311.596 280.141 303.957 277.081C300.159 275.559 293.977 274.716 288.167 274.705ZM289.02 282.748C289.838 282.757 290.67 282.79 291.508 282.85C303.323 283.69 312.089 289.252 317.685 299.461L319.569 302.899H326.219H332.868L333.059 307.784L333.249 312.669L341.425 312.872L349.602 313.072V377.462V441.852H288.998H228.396V377.461V313.071L236.572 312.871L244.749 312.668L244.939 307.783L245.129 302.898H251.742H258.356L260.617 299.056C267.008 288.193 276.746 282.616 289.02 282.748ZM288.894 321.411L271.312 328.499C239.734 341.228 235.78 342.86 235.289 343.368C235.016 343.642 235.266 345.399 235.83 347.267C236.91 350.843 237.457 351.155 240.381 349.872C241.374 349.437 246.083 347.519 250.845 345.611C255.606 343.704 266.081 339.48 274.122 336.225L288.742 330.307L292.079 331.519C293.912 332.186 302.629 335.667 311.447 339.257C335.767 349.156 339.595 350.665 340.404 350.665C341.32 350.665 343.386 344.081 342.711 343.318C342.438 343.015 337.752 340.982 332.287 338.802C326.822 336.622 318.599 333.319 314.014 331.461C309.428 329.602 301.901 326.581 297.286 324.747L288.894 321.411ZM239.942 353.559V355.688C239.942 356.858 240.229 358.018 240.582 358.264C240.934 358.511 241.224 359.373 241.224 360.183C241.224 361.029 241.752 361.811 242.462 362.021C243.143 362.223 243.816 362.761 243.96 363.22C244.098 363.678 244.016 372.684 243.742 383.232C243.468 393.78 243.233 403.447 243.206 404.714C243.151 406.674 242.892 407.053 241.391 407.247C239.849 407.434 239.603 407.827 239.425 410.268C239.313 411.801 239.37 413.513 239.562 414.071C239.858 414.928 247.415 415.058 289.145 414.901L338.384 414.715V411.096C338.384 407.721 338.279 407.463 336.686 407.256L334.987 407.041L334.615 396.045C334.425 389.997 334.122 380.061 333.979 373.964L333.706 362.878L335.237 362.222C336.134 361.837 336.771 360.975 336.771 360.141C336.771 359.36 337.058 358.518 337.409 358.272C337.762 358.025 338.047 356.866 338.047 355.695V353.567H288.988L239.942 353.559ZM276.688 357.96C277.155 357.956 277.77 357.988 278.583 358.044C281.541 358.234 281.975 358.465 282.159 359.929C282.264 360.88 283.02 361.876 283.885 362.247L285.399 362.897L285.098 376.139C284.929 383.422 284.633 393.371 284.432 398.247L284.066 407.113H278.735H273.402L273.049 401.866C272.859 398.982 272.556 389.032 272.387 379.759L272.081 362.9L273.648 362.227C274.75 361.754 275.215 361.001 275.215 359.689C275.215 358.343 275.298 357.973 276.688 357.96ZM256.288 357.97C256.75 357.961 257.352 357.988 258.145 358.044C261.014 358.232 261.452 358.468 261.635 359.926C261.746 360.906 262.502 361.876 263.436 362.277C264.312 362.653 264.877 363.237 264.691 363.574C264.5 363.913 264.335 371.973 264.308 381.488C264.286 391.003 264.09 400.66 263.881 402.949L263.5 407.111H258.144C253.104 407.111 252.771 407.016 252.496 405.481C252.33 404.586 252.031 394.625 251.82 383.347C251.44 362.987 251.445 362.838 252.774 362.446C253.61 362.199 254.253 361.259 254.485 359.94C254.758 358.41 254.895 357.991 256.284 357.965L256.288 357.97ZM297.331 357.97C297.792 357.961 298.397 357.988 299.188 358.044C302.032 358.232 302.497 358.476 302.674 359.886C302.801 360.889 303.465 361.679 304.402 361.944L305.925 362.376L305.616 380.22C305.447 390.034 305.151 400.099 304.96 402.587L304.613 407.11H299.282H293.95L293.577 395.349C292.533 362.431 292.528 362.829 293.903 362.423C294.658 362.201 295.312 361.204 295.536 359.94C295.809 358.41 295.944 357.991 297.332 357.965L297.331 357.97ZM321.279 357.978C322.565 358.025 322.874 358.409 323.282 359.627C323.616 360.619 324.507 361.804 325.259 362.258C326.619 363.079 326.624 363.201 326.144 380.214C325.871 389.636 325.638 399.462 325.608 402.049L325.544 406.752L320.026 406.967L314.508 407.181L314.096 402.705C313.878 400.243 313.682 390.174 313.682 380.328C313.682 363.298 313.747 362.408 314.909 362.063C315.588 361.862 316.233 360.933 316.351 359.988C316.541 358.5 316.966 358.247 319.615 358.055C320.3 358 320.837 357.981 321.267 357.991L321.279 357.978ZM289.04 420.141C257.714 420.141 236.023 420.418 235.808 420.803C235.617 421.167 235.725 422.34 236.097 423.41C236.548 424.746 237.065 425.218 237.757 424.919C238.309 424.672 261.97 424.484 290.335 424.484H341.907V422.312V420.14L289.04 420.141ZM232.888 428.103V430.274V432.446H289.002H345.116V430.274V428.103H289.002H232.888Z" fill="white"/>
</g>
<defs>
<clipPath id="clip0_328_105">
<rect width="1889" height="731" fill="white"/>
</clipPath>
</defs>
</svg>
