<svg width="770" height="390" viewBox="0 0 770 390" fill="none" xmlns="http://www.w3.org/2000/svg">
<g clip-path="url(#clip0_328_131)">
<path d="M0 0L50.8005 50.7531V246.245L0 297.491V0ZM142.466 51.2453H288.736V2.84392H95.4426L142.466 51.2453ZM95.4426 171.292H288.736V125.734H95.4426V171.292ZM89.2567 297.491H291.583V245.78H142.466L89.2841 297.491H89.2567ZM381.907 51.2453H528.178V2.84392H334.884L381.907 51.2453ZM334.884 171.292H528.178V125.734H334.884V171.292ZM328.698 297.491H530.997V245.78H381.88L328.698 297.491ZM620.883 51.2453H767.153V2.84392H573.86L620.883 51.2453ZM573.86 171.292H767.153V125.734H573.86V171.292ZM567.674 297.491H769.973V245.78H620.856L567.674 297.491ZM188.257 387.648L197.18 378.652V344.361L188.257 335.446V387.621V387.648ZM238.894 335.473L229.971 344.47V378.761L238.894 387.676V335.501V335.473ZM233.447 390L226.577 383.191H200.355L193.54 390H233.447ZM528.15 334.571L519.391 343.403V377.093L528.15 385.844V334.598V334.571ZM478.417 385.816L487.176 376.984V343.294L478.417 334.544V385.789V385.816ZM521.992 389.152L515.231 382.48H489.475L482.796 389.152H521.992ZM507.211 377.558V354.642H499.356V377.558H507.211ZM470.397 337.333L461.611 346.193V380.046L470.397 388.824V337.333ZM420.418 388.824L429.204 379.964V346.111L420.418 337.333V388.824ZM425.783 333.969L432.571 340.696H458.464L465.197 333.969H425.81H425.783ZM433.419 367.03H457.369V359.154H433.419V367.03ZM292.13 389.699L285.26 382.89H259.039L252.223 389.699H292.13ZM246.941 387.976L255.864 379.062V344.771L246.941 335.774V387.949V387.976ZM297.577 335.801L288.654 344.716V379.007L297.577 388.004V335.829V335.801ZM252.223 333.45L259.039 340.259H285.26L292.13 333.45H252.223ZM333.871 389.699V346.001H325.413V389.699H333.871ZM304.639 333.45L313.179 340.915H346.024L354.646 333.45H304.666H304.639ZM362.83 333.45L371.397 340.696H404.433L413.083 333.45H362.802H362.83ZM392.226 389.699V345.618H383.714V389.699H392.226ZM587.107 337.497L578.321 346.357V380.21L587.107 388.988V337.497ZM537.128 388.988L545.914 380.128V346.275L537.128 337.497V388.988ZM542.493 334.133L549.281 340.86H575.173L581.907 334.133H542.52H542.493ZM550.129 367.194H574.079V359.318H550.129V367.194Z" fill="white"/>
</g>
<defs>
<clipPath id="clip0_328_131">
<rect width="770" height="390" fill="white"/>
</clipPath>
</defs>
</svg>
