<svg width="981" height="785" viewBox="0 0 981 785" fill="none" xmlns="http://www.w3.org/2000/svg">
<path d="M373.153 49.3078H294.673C272.468 49.3078 255.311 67.5022 255.311 89.4115C255.311 110.59 272.468 128.784 294.673 128.784V186.898C294.673 209.052 312.623 227.247 334.036 227.247C355.94 227.247 374.19 209.052 374.19 186.898L373.884 128.784C396.089 128.784 413.307 110.59 413.307 89.4115C413.307 67.5022 395.364 49.3078 373.153 49.3078ZM547.332 226.516C569.052 226.516 586.94 208.807 586.94 186.898V88.6805C586.94 67.0164 569.052 49.3078 547.332 49.3078C525.188 49.3078 507.239 67.0164 507.239 88.6805V97.6246C507.239 100.425 504.745 102.858 501.766 102.858C498.721 102.858 496.289 100.425 496.289 97.6246V88.6805C496.289 66.4699 478.825 49.3078 456.621 49.3078C434.961 49.3078 417.018 66.4699 417.018 88.6805V186.898C417.018 209.293 434.961 226.516 456.621 226.516C478.825 226.516 496.289 209.293 496.289 186.898V178.439C496.289 175.398 498.721 172.904 501.766 172.904C504.745 172.904 507.239 175.398 507.239 178.439V186.898C507.239 208.807 525.188 226.516 547.332 226.516ZM594.686 89.1662V186.898C594.686 208.321 612.149 226.27 634.293 226.27H699.877C727.499 226.27 739.24 202.357 739.24 186.898C739.24 176.431 737.963 171.929 735.47 167.671C726.283 178.685 713.326 181.179 700.363 179.901C698.6 179.901 698.6 176.921 700.363 176.921C710.827 175.7 720.806 172.659 728.23 164.447C739.24 153.489 741.734 134.318 734.984 119.595C725.005 130.062 711.558 133.041 697.87 131.278C696.107 130.547 696.107 128.053 697.87 128.053C712.835 127.567 724.515 123.065 732.486 110.099C748.672 84.9694 731.269 49.0625 699.877 49.0625H634.779C611.358 49.0625 594.686 67.0164 594.686 89.1662Z" stroke="white" stroke-width="9.526"/>
<path d="M691.123 665.104L701.481 658.01C702.733 657.331 703.897 658.644 702.941 659.4L671.151 685.332C668.193 705.448 681.605 719.042 700.438 723.989C719.44 728.988 742.478 716.732 747.919 696.019L772.884 601.026C782.132 565.828 741.559 537.101 711.014 559.967L676.751 585.5L660.176 546.603C644.884 511.686 595.374 516.726 586.126 551.923L561.161 646.915C555.715 667.634 569.75 689.63 588.814 694.644C607.351 699.519 626.005 694.353 633.316 675.387L618.33 637.154C617.697 635.728 619.588 635.473 620.282 636.658L625.34 647.804C632.606 662.298 641.006 675.581 652.068 678.489C663.359 681.714 677.849 674.446 691.123 665.104Z" stroke="white" stroke-width="9.526"/>
<path d="M415.259 695.711C434.971 704.901 458.393 696.683 467.886 677.027L475.31 660.78L468.617 632.906C468.371 631.143 470.077 630.898 470.624 631.874L492.038 677.027C501.224 696.683 524.646 704.901 544.358 695.711C564.07 686.461 572.286 662.788 563.038 643.619L515.459 543.388C500.979 512.964 457.907 513.511 443.673 543.633L396.579 643.619C387.393 662.788 395.609 686.461 415.259 695.711Z" stroke="white" stroke-width="9.526"/>
<path d="M321.951 520.466C300.707 526.043 288.439 548.075 293.937 569.033L307.609 621.121C307.732 621.592 306.036 622.793 305.73 621.617C298.694 604.65 281.92 594.899 261.155 601.108C240.283 607.848 228.297 629.053 233.391 650.365C244.611 701.021 287.086 712.582 329.258 703.587C370.465 690.688 398.899 656.666 386.554 609.637C382.012 589.44 376.101 568.844 370.848 548.836C365.351 527.877 343.605 514.778 321.951 520.466Z" stroke="white" stroke-width="9.526"/>
<path d="M175.442 406.682L183.658 397.192C184.69 396.216 186.151 397.192 185.421 398.163L161.269 431.331C163.522 451.534 179.948 461.269 199.415 461.269C219.065 461.269 238.231 443.562 238.231 422.142V323.92C238.231 287.532 191.689 270.064 167.962 299.946L141.311 333.355L115.396 299.946C91.7294 270.064 45.127 287.532 45.127 323.92V422.142C45.127 443.562 64.2927 461.269 84.004 461.269C103.165 461.269 119.898 451.534 122.151 431.331L97.9322 398.163C96.961 396.946 98.7239 396.216 99.7 397.192L107.425 406.682C118.135 418.856 129.631 429.568 141.071 429.568C152.812 429.808 164.978 419.096 175.442 406.682ZM267.385 456.527C287.096 465.716 310.524 457.498 320.012 437.842L327.435 421.595L320.742 393.722C320.502 391.959 322.204 391.713 322.75 392.69L344.169 437.842C353.355 457.498 376.777 465.716 396.489 456.527C416.201 447.277 424.411 423.604 415.163 404.434L367.59 304.204C353.11 273.779 310.038 274.326 295.798 304.449L248.71 404.434C239.524 423.604 247.734 447.277 267.385 456.527ZM532.812 293.982L491.196 335.608C489.919 336.886 488.217 335.118 488.703 333.901L503.122 313.213C498.682 295.259 483.226 282.299 463.519 282.299C441.855 282.299 424.396 299.701 424.396 321.912V420.619C424.396 442.284 441.855 459.752 463.519 459.752C476.476 459.752 486.209 454.759 494.911 445.268L513.1 426.338L535.305 448.554C551.001 464.009 575.884 464.009 591.095 448.554C606.791 433.095 606.791 408.144 591.095 392.444L568.951 370.295L588.601 350.092C604.297 334.387 604.297 309.437 588.601 293.982C573.391 278.522 548.508 278.522 532.812 293.982ZM607.552 322.642V420.38C607.552 441.798 625.011 459.752 647.155 459.752H712.739C740.36 459.752 752.101 435.834 752.101 420.38C752.101 409.908 750.824 405.405 748.33 401.148C739.144 412.162 726.186 414.655 713.229 413.377C711.461 413.377 711.461 410.398 713.229 410.398C723.693 409.182 733.672 406.136 741.091 397.923C752.101 386.965 754.6 367.8 747.846 353.072C737.867 363.538 724.424 366.523 710.731 364.755C708.968 364.024 708.968 361.53 710.731 361.53C725.702 361.044 737.381 356.541 745.352 343.576C761.534 318.446 744.136 282.54 712.739 282.54H647.645C624.219 282.54 607.552 300.493 607.552 322.642ZM797.923 460.237C819.642 460.237 836.555 444.046 837.832 423.113L859.245 448.554C872.693 466.749 899.584 464.009 913.818 449.771C927.997 435.589 930.005 414.655 918.81 398.654C912.301 406.136 904.57 411.369 896.359 415.141C894.899 415.872 893.621 413.377 894.899 412.646C913.818 399.441 925.259 378.022 925.259 353.558C925.259 314.43 893.621 282.785 854.504 282.785H798.653C776.504 282.785 758.315 300.247 758.315 322.158V419.889C758.315 442.044 776.504 460.237 797.923 460.237ZM842.272 345.585C847.504 345.585 851.274 350.092 851.274 355.326C851.274 360.559 847.504 364.514 842.272 364.514C840.264 364.514 839.047 364.514 837.832 363.783V346.862C839.047 346.075 840.264 345.585 842.272 345.585Z" stroke="white" stroke-width="9.526"/>
<mask id="mask0_328_140" style="mask-type:luminance" maskUnits="userSpaceOnUse" x="593" y="555" width="63" height="67">
<path d="M593.914 555.684H655.389V621.101H593.914V555.684Z" fill="white"/>
</mask>
<g mask="url(#mask0_328_140)">
<mask id="mask1_328_140" style="mask-type:luminance" maskUnits="userSpaceOnUse" x="594" y="556" width="62" height="65">
<path d="M607.873 556.956L655.267 569.303L641.937 620.508L594.537 608.16L607.873 556.956Z" fill="white"/>
</mask>
<g mask="url(#mask1_328_140)">
<mask id="mask2_328_140" style="mask-type:luminance" maskUnits="userSpaceOnUse" x="535" y="518" width="271" height="211">
<path d="M574.349 518.923L805.646 579.177L766.635 728.987L535.344 668.731L574.349 518.923Z" fill="white"/>
</mask>
<g mask="url(#mask2_328_140)">
<path d="M778.188 597.484C778.367 593.115 777.612 588.758 775.972 584.704C774.333 580.651 771.846 576.995 768.68 573.98C767.418 572.779 766.055 571.688 764.608 570.719C763.161 569.747 761.632 568.902 760.039 568.194C758.448 567.483 756.798 566.908 755.109 566.477L736.685 561.678C735.313 561.315 733.919 561.045 732.51 560.871C731.102 560.697 729.684 560.62 728.265 560.641C726.845 560.667 725.428 560.788 724.024 561.004C722.623 561.224 721.238 561.54 719.88 561.95C717.158 562.77 714.563 563.963 712.169 565.496C709.777 567.033 707.607 568.892 705.721 571.02C704.661 572.208 703.441 573.243 702.095 574.093C700.074 575.376 697.809 576.225 695.442 576.585C693.076 576.946 690.661 576.811 688.35 576.188L678.202 573.545C676.642 573.146 675.144 572.532 673.753 571.721C672.359 570.91 671.086 569.907 669.972 568.741C668.852 567.581 667.903 566.268 667.151 564.841C666.393 563.419 665.84 561.896 665.506 560.319C665.2 558.943 664.797 557.591 664.301 556.271C663.804 554.95 663.218 553.665 662.548 552.423C661.874 551.185 661.118 549.993 660.284 548.856C659.449 547.721 658.535 546.645 657.55 545.636C655.58 543.612 653.34 541.869 650.893 540.458C648.446 539.051 645.817 537.987 643.081 537.296L624.661 532.497C621.286 531.598 617.782 531.282 614.3 531.561C610.819 531.842 607.412 532.715 604.224 534.142C602.634 534.856 601.108 535.704 599.662 536.677C596.761 538.623 594.216 541.052 592.135 543.857C591.096 545.257 590.178 546.743 589.391 548.299L548.471 631.664C548.057 632.507 547.684 633.371 547.352 634.255C547.018 635.135 546.729 636.03 546.483 636.938C546.237 637.846 546.033 638.766 545.87 639.693C545.55 641.548 545.405 643.428 545.436 645.31C545.456 646.25 545.517 647.19 545.619 648.125C545.833 649.997 546.222 651.845 546.78 653.645C547.055 654.54 547.377 655.424 547.74 656.292C548.103 657.161 548.506 658.015 548.951 658.842C549.39 659.675 549.876 660.483 550.392 661.265C550.913 662.049 551.469 662.81 552.058 663.544C552.65 664.275 553.275 664.978 553.932 665.65C554.59 666.322 555.279 666.963 555.996 667.571C556.717 668.18 557.463 668.752 558.235 669.294C559.006 669.831 559.802 670.33 560.621 670.791C563.645 672.569 566.948 673.825 570.389 674.507C572.112 674.844 573.848 675.039 575.601 675.084C577.351 675.126 579.101 675.022 580.833 674.773C582.567 674.524 584.277 674.127 585.943 673.587C589.283 672.512 592.415 670.877 595.206 668.752C596.6 667.691 597.902 666.515 599.099 665.236L615.015 647.854C616.082 646.699 617.301 645.693 618.638 644.865C619.974 644.039 621.416 643.398 622.924 642.959C624.434 642.522 625.997 642.292 627.569 642.274C629.142 642.259 630.709 642.457 632.229 642.862L694.691 659.134C697.754 659.911 700.546 661.513 702.764 663.764C703.87 664.881 704.817 666.145 705.579 667.52C706.346 668.893 706.92 670.365 707.285 671.895L712.696 694.827C713.539 698.233 714.954 701.472 716.88 704.405C717.84 705.868 718.922 707.248 720.115 708.529C721.308 709.809 722.605 710.989 723.992 712.055C725.385 713.117 726.864 714.061 728.413 714.877C731.515 716.511 734.871 717.608 738.34 718.122C740.077 718.382 741.819 718.49 743.572 718.453C744.512 718.449 745.452 718.401 746.388 718.311C747.323 718.218 748.254 718.082 749.177 717.902C750.101 717.72 751.017 717.495 751.921 717.227C752.82 716.962 753.709 716.655 754.583 716.302C756.329 715.598 758.005 714.732 759.59 713.716C760.383 713.208 761.15 712.663 761.889 712.081C762.631 711.5 763.343 710.884 764.025 710.235C764.705 709.588 765.354 708.909 765.971 708.201C766.588 707.49 767.173 706.751 767.724 705.988C768.271 705.222 768.782 704.431 769.257 703.618C769.727 702.804 770.161 701.971 770.555 701.113C771.348 699.406 771.974 697.626 772.424 695.798C772.655 694.884 772.838 693.963 772.977 693.033C773.114 692.098 773.211 691.163 773.262 690.223L778.188 597.484ZM743.143 705.324C742.155 705.347 741.167 705.287 740.19 705.145C738.23 704.854 736.334 704.236 734.579 703.315C732.828 702.395 731.245 701.184 729.899 699.733C729.226 699.009 728.616 698.23 728.075 697.402C726.987 695.746 726.191 693.916 725.72 691.991L720.314 669.069C719.988 667.715 719.572 666.385 719.068 665.088C718.564 663.79 717.972 662.528 717.294 661.311C716.621 660.092 715.863 658.922 715.026 657.81C714.193 656.693 713.283 655.636 712.303 654.646C711.326 653.656 710.283 652.732 709.181 651.882C708.077 651.035 706.918 650.261 705.712 649.567C703.29 648.186 700.696 647.136 697.996 646.444L635.535 630.172C632.841 629.457 630.064 629.108 627.278 629.134C625.885 629.147 624.496 629.254 623.118 629.456C621.741 629.66 620.379 629.958 619.041 630.346C616.367 631.124 613.809 632.261 611.438 633.723C610.254 634.457 609.121 635.27 608.046 636.157C606.972 637.042 605.959 637.999 605.016 639.023L589.111 656.4C588.436 657.122 587.701 657.786 586.913 658.383C586.126 658.98 585.29 659.51 584.415 659.967C582.659 660.879 580.762 661.49 578.804 661.776C577.823 661.919 576.842 661.975 575.852 661.95C574.865 661.925 573.882 661.817 572.914 661.628C571.943 661.439 570.991 661.167 570.068 660.816C569.145 660.464 568.253 660.037 567.4 659.538C565.544 658.495 563.904 657.107 562.567 655.449C561.903 654.623 561.316 653.736 560.815 652.802C560.316 651.864 559.906 650.882 559.589 649.869C559.274 648.854 559.055 647.812 558.934 646.756C558.816 645.701 558.797 644.636 558.878 643.577C559.041 641.454 559.606 639.381 560.544 637.47L601.46 554.1C602.798 551.454 604.793 549.196 607.253 547.542C608.888 546.44 610.699 545.628 612.609 545.14C613.561 544.9 614.532 544.738 615.511 544.655C616.492 544.578 617.478 544.583 618.458 544.67C619.439 544.762 620.406 544.931 621.355 545.186L639.776 549.985C641.339 550.38 642.839 550.995 644.23 551.809C645.624 552.618 646.897 553.62 648.011 554.784C649.129 555.945 650.079 557.257 650.831 558.683C651.587 560.107 652.141 561.63 652.477 563.207C653.405 567.348 655.183 571.251 657.698 574.67C660.214 578.089 663.412 580.948 667.09 583.066C668.311 583.771 669.579 584.391 670.886 584.922C672.194 585.448 673.533 585.887 674.902 586.23L685.044 588.877C687.792 589.606 690.627 589.955 693.47 589.915C694.888 589.889 696.303 589.768 697.706 589.552C699.108 589.332 700.494 589.016 701.854 588.606C703.213 588.197 704.541 587.693 705.829 587.099C707.12 586.507 708.368 585.825 709.564 585.06C711.956 583.524 714.124 581.665 716.007 579.535C718.143 577.15 720.899 575.404 723.967 574.491C727.038 573.577 730.302 573.536 733.394 574.373L751.814 579.173C752.769 579.412 753.694 579.735 754.593 580.138C756.395 580.937 758.046 582.042 759.472 583.404C760.185 584.081 760.838 584.818 761.424 585.607C762.012 586.396 762.531 587.234 762.977 588.111C763.868 589.868 764.452 591.764 764.704 593.718C764.832 594.693 764.873 595.674 764.832 596.661L759.902 689.404C759.788 691.531 759.269 693.616 758.374 695.548C757.929 696.513 757.393 697.428 756.775 698.297C754.903 700.9 752.33 702.917 749.356 704.113C748.37 704.508 747.348 704.808 746.305 705.012C745.263 705.217 744.206 705.319 743.143 705.319V705.324Z" fill="white"/>
</g>
</g>
</g>
<mask id="mask3_328_140" style="mask-type:luminance" maskUnits="userSpaceOnUse" x="603" y="564" width="44" height="45">
<path d="M603.07 564.842H646.234V608.017H603.07V564.842Z" fill="white"/>
</mask>
<g mask="url(#mask3_328_140)">
<mask id="mask4_328_140" style="mask-type:luminance" maskUnits="userSpaceOnUse" x="594" y="556" width="62" height="65">
<path d="M607.873 556.956L655.267 569.303L641.937 620.508L594.537 608.16L607.873 556.956Z" fill="white"/>
</mask>
<g mask="url(#mask4_328_140)">
<mask id="mask5_328_140" style="mask-type:luminance" maskUnits="userSpaceOnUse" x="535" y="518" width="271" height="211">
<path d="M574.349 518.923L805.646 579.177L766.635 728.987L535.344 668.731L574.349 518.923Z" fill="white"/>
</mask>
<g mask="url(#mask5_328_140)">
<path d="M636.229 569.375L623.272 566.002L619.966 578.701L606.989 575.318L603.688 588.008L616.66 591.386L613.359 604.072L626.317 607.449L629.623 594.759L642.596 598.143L645.896 585.458L632.923 582.075L636.229 569.375Z" fill="white"/>
</g>
</g>
</g>
<mask id="mask6_328_140" style="mask-type:luminance" maskUnits="userSpaceOnUse" x="701" y="588" width="63" height="65">
<path d="M701.17 588.392H763.954V652.501H701.17V588.392Z" fill="white"/>
</mask>
<g mask="url(#mask6_328_140)">
<mask id="mask7_328_140" style="mask-type:luminance" maskUnits="userSpaceOnUse" x="701" y="588" width="62" height="65">
<path d="M715.445 588.611L762.762 601.27L749.095 652.383L701.777 639.724L715.445 588.611Z" fill="white"/>
</mask>
<g mask="url(#mask7_328_140)">
<mask id="mask8_328_140" style="mask-type:luminance" maskUnits="userSpaceOnUse" x="532" y="518" width="272" height="212">
<path d="M572.402 518.493L803.295 580.271L763.298 729.82L532.406 668.042L572.402 518.493Z" fill="white"/>
</mask>
<g mask="url(#mask8_328_140)">
<path d="M775.714 598.393C775.8 596.651 775.736 594.905 775.521 593.175C775.096 589.708 774.081 586.339 772.521 583.214C771.742 581.655 770.833 580.164 769.803 578.758C768.769 577.354 767.619 576.039 766.364 574.827C765.11 573.617 763.754 572.516 762.313 571.536C760.87 570.558 759.347 569.705 757.76 568.986C756.174 568.262 754.528 567.677 752.84 567.238L734.451 562.316C733.082 561.943 731.689 561.663 730.282 561.479C728.874 561.296 727.456 561.211 726.036 561.223C724.616 561.238 723.2 561.351 721.795 561.561C718.984 561.976 716.244 562.783 713.656 563.957C712.362 564.542 711.11 565.217 709.911 565.977C707.505 567.491 705.322 569.335 703.427 571.455C702.359 572.637 701.131 573.663 699.779 574.506C698.427 575.348 696.966 576 695.436 576.443C693.907 576.891 692.323 577.121 690.73 577.127C689.138 577.14 687.553 576.931 686.019 576.504L675.892 573.795C674.332 573.39 672.837 572.766 671.452 571.941C670.065 571.122 668.799 570.111 667.692 568.94C666.581 567.771 665.64 566.452 664.897 565.021C664.146 563.584 663.609 562.077 663.283 560.487C662.682 557.727 661.704 555.063 660.376 552.571C659.045 550.081 657.379 547.785 655.425 545.748C654.444 544.732 653.401 543.786 652.292 542.911C650.072 541.167 647.624 539.735 645.016 538.655C643.714 538.118 642.376 537.673 641.011 537.315L622.622 532.394C619.253 531.475 615.753 531.136 612.271 531.392C610.528 531.52 608.812 531.796 607.115 532.221C605.424 532.643 603.771 533.207 602.174 533.906C598.981 535.319 596.05 537.261 593.504 539.651C592.234 540.846 591.07 542.149 590.024 543.545C588.974 544.936 588.046 546.415 587.25 547.966L545.777 631.061C544.938 632.745 544.263 634.506 543.76 636.319C543.505 637.225 543.293 638.143 543.126 639.069C542.962 639.995 542.839 640.928 542.758 641.864C542.68 642.803 542.646 643.744 542.656 644.686C542.666 645.626 542.722 646.567 542.819 647.502C542.921 648.437 543.064 649.367 543.248 650.292C543.437 651.212 543.667 652.126 543.943 653.026C544.214 653.926 544.531 654.815 544.889 655.683C545.246 656.558 545.639 657.406 546.079 658.24C546.518 659.078 546.993 659.885 547.509 660.672C548.02 661.462 548.571 662.226 549.16 662.961C549.742 663.697 550.366 664.403 551.02 665.083C552.324 666.44 553.756 667.669 555.296 668.752C556.063 669.295 556.856 669.8 557.672 670.265C559.174 671.166 560.75 671.937 562.383 672.57C564.016 673.202 565.7 673.696 567.415 674.047C570.853 674.744 574.384 674.858 577.859 674.384C579.593 674.145 581.304 673.759 582.973 673.229C584.643 672.705 586.266 672.037 587.822 671.235C589.382 670.436 590.871 669.506 592.273 668.455C593.673 667.403 594.982 666.236 596.186 664.965L612.22 647.691C613.29 646.54 614.514 645.542 615.857 644.727C617.873 643.494 620.12 642.688 622.459 642.359C624.799 642.029 627.181 642.183 629.459 642.81L691.813 659.497C693.336 659.889 694.798 660.491 696.156 661.285C698.889 662.871 701.135 665.176 702.65 667.949C703.405 669.33 703.969 670.807 704.327 672.339L709.584 695.307C709.997 697.008 710.55 698.671 711.24 700.279C711.927 701.889 712.753 703.437 713.707 704.905C714.655 706.377 715.727 707.765 716.911 709.055C718.096 710.343 719.387 711.531 720.768 712.607C722.154 713.677 723.625 714.63 725.167 715.458C726.711 716.283 728.321 716.978 729.981 717.534C731.647 718.085 733.343 718.499 735.074 718.77C736.807 719.036 738.554 719.158 740.307 719.133C741.247 719.133 742.186 719.092 743.122 719.005C744.997 718.835 746.851 718.486 748.66 717.962C749.564 717.703 750.454 717.4 751.327 717.053C752.204 716.71 753.063 716.324 753.902 715.898C754.742 715.473 755.561 715.007 756.355 714.502C757.15 714 757.921 713.459 758.664 712.882C759.407 712.305 760.123 711.695 760.811 711.053C761.495 710.409 762.15 709.733 762.773 709.029C763.394 708.322 763.982 707.587 764.536 706.826C765.089 706.065 765.606 705.277 766.084 704.465C766.563 703.658 767.003 702.825 767.402 701.971C767.805 701.121 768.165 700.251 768.479 699.365C768.797 698.479 769.073 697.578 769.307 696.666C769.543 695.757 769.732 694.837 769.874 693.907C770.022 692.977 770.125 692.042 770.181 691.101L775.714 598.393ZM739.964 706.004C738.976 706.02 737.988 705.952 737.011 705.799C736.03 705.651 735.074 705.421 734.134 705.104C732.255 704.483 730.496 703.544 728.933 702.329C728.15 701.723 727.42 701.051 726.751 700.32C726.085 699.591 725.48 698.809 724.942 697.98C723.873 696.315 723.091 694.482 722.628 692.558L717.371 669.596C717.058 668.24 716.651 666.908 716.155 665.609C715.657 664.307 715.073 663.04 714.407 661.816C713.737 660.596 712.985 659.421 712.159 658.3C711.331 657.182 710.43 656.12 709.461 655.122C708.488 654.126 707.451 653.195 706.354 652.336C705.256 651.479 704.101 650.699 702.895 650.001C701.694 649.3 700.446 648.682 699.161 648.15C697.872 647.621 696.549 647.179 695.201 646.827L632.851 630.145C630.164 629.401 627.388 629.032 624.6 629.047C623.208 629.053 621.818 629.154 620.44 629.349C619.061 629.543 617.702 629.829 616.358 630.207C615.02 630.585 613.709 631.055 612.434 631.612C611.157 632.168 609.92 632.81 608.73 633.535C607.541 634.258 606.404 635.064 605.327 635.947C604.245 636.823 603.226 637.774 602.277 638.793L586.258 656.067C584.892 657.498 583.297 658.692 581.538 659.599C580.659 660.048 579.745 660.422 578.799 660.723C577.859 661.019 576.894 661.234 575.918 661.372C574.937 661.505 573.951 661.556 572.964 661.526C570.986 661.461 569.033 661.065 567.186 660.355C566.264 659.997 565.373 659.563 564.523 659.057C563.603 658.53 562.734 657.917 561.928 657.227C561.122 656.535 560.383 655.768 559.72 654.938C559.058 654.108 558.477 653.216 557.984 652.276C557.488 651.337 557.084 650.353 556.777 649.337C556.468 648.32 556.256 647.276 556.145 646.219C556.033 645.163 556.021 644.099 556.108 643.04C556.201 641.977 556.384 640.934 556.67 639.913C556.958 638.889 557.341 637.895 557.815 636.943L599.277 553.848C600.175 552.093 601.37 550.506 602.808 549.157C604.241 547.805 605.895 546.709 607.698 545.917C608.599 545.52 609.532 545.201 610.487 544.961C611.441 544.724 612.414 544.569 613.395 544.496C614.376 544.424 615.357 544.434 616.338 544.531C617.319 544.624 618.284 544.802 619.235 545.063L637.624 549.985C639.182 550.392 640.677 551.015 642.064 551.835C643.45 552.657 644.716 553.669 645.824 554.84C648.055 557.19 649.583 560.118 650.233 563.293C650.832 566.052 651.81 568.715 653.141 571.205C654.467 573.698 656.133 575.994 658.091 578.027C659.072 579.044 660.115 579.995 661.223 580.863C663.44 582.613 665.889 584.046 668.5 585.121C669.802 585.66 671.141 586.109 672.505 586.465L682.632 589.173C684.001 589.546 685.391 589.828 686.801 590.011C688.212 590.196 689.626 590.277 691.047 590.267C693.889 590.237 696.714 589.816 699.441 589.015C700.803 588.614 702.134 588.119 703.427 587.533C704.721 586.948 705.973 586.274 707.173 585.514C708.375 584.758 709.522 583.918 710.606 583C711.689 582.083 712.708 581.093 713.656 580.036C715.265 578.262 717.225 576.842 719.411 575.865C721.598 574.888 723.963 574.377 726.358 574.362C727.951 574.353 729.538 574.563 731.074 574.986L749.462 579.908C750.418 580.159 751.343 580.485 752.237 580.894C753.136 581.298 753.99 581.779 754.807 582.335C755.62 582.886 756.385 583.507 757.091 584.191C757.801 584.87 758.45 585.611 759.032 586.403C759.613 587.197 760.126 588.038 760.565 588.918C761.005 589.802 761.367 590.712 761.653 591.657C761.935 592.603 762.139 593.563 762.257 594.54C762.379 595.516 762.415 596.497 762.369 597.483L756.825 690.191C756.698 692.317 756.165 694.398 755.256 696.324C754.807 697.288 754.264 698.205 753.637 699.063C753.014 699.922 752.311 700.72 751.537 701.445C750.762 702.173 749.918 702.825 749.018 703.392C746.312 705.109 743.17 706.014 739.964 705.999V706.004Z" fill="white"/>
</g>
</g>
</g>
<mask id="mask9_328_140" style="mask-type:luminance" maskUnits="userSpaceOnUse" x="722" y="594" width="15" height="16">
<path d="M722.098 594.934H736.486V609.326H722.098V594.934Z" fill="white"/>
</mask>
<g mask="url(#mask9_328_140)">
<mask id="mask10_328_140" style="mask-type:luminance" maskUnits="userSpaceOnUse" x="701" y="588" width="62" height="65">
<path d="M715.445 588.611L762.762 601.27L749.095 652.383L701.777 639.724L715.445 588.611Z" fill="white"/>
</mask>
<g mask="url(#mask10_328_140)">
<mask id="mask11_328_140" style="mask-type:luminance" maskUnits="userSpaceOnUse" x="532" y="518" width="272" height="212">
<path d="M572.402 518.493L803.295 580.271L763.298 729.82L532.406 668.042L572.402 518.493Z" fill="white"/>
</mask>
<g mask="url(#mask11_328_140)">
<path d="M727.661 608.011C728.492 608.213 729.355 608.251 730.201 608.124C730.623 608.057 731.039 607.951 731.442 607.807C731.843 607.66 732.23 607.475 732.596 607.255C732.964 607.035 733.308 606.779 733.623 606.489C733.94 606.202 734.227 605.886 734.482 605.544C734.732 605.195 734.952 604.833 735.136 604.445C735.32 604.056 735.463 603.658 735.571 603.239C735.883 601.987 735.821 600.672 735.391 599.456C735.107 598.647 734.666 597.902 734.093 597.264C733.523 596.625 732.832 596.106 732.06 595.736C731.676 595.548 731.273 595.399 730.859 595.291C730.03 595.077 729.168 595.027 728.32 595.143C727.896 595.203 727.479 595.302 727.073 595.44C726.67 595.58 726.282 595.76 725.914 595.976C725.173 596.406 724.524 596.977 724.003 597.657C723.743 597.998 723.517 598.363 723.328 598.746C723.141 599.132 722.991 599.533 722.879 599.947C722.771 600.367 722.706 600.797 722.684 601.23C722.635 602.099 722.76 602.97 723.052 603.79C723.195 604.199 723.379 604.593 723.599 604.966C723.824 605.343 724.079 605.692 724.371 606.014C724.95 606.664 725.653 607.192 726.44 607.567C726.83 607.757 727.24 607.906 727.661 608.011Z" fill="white"/>
</g>
</g>
</g>
<mask id="mask12_328_140" style="mask-type:luminance" maskUnits="userSpaceOnUse" x="731" y="610" width="15" height="16">
<path d="M731.254 610.634H745.641V625.026H731.254V610.634Z" fill="white"/>
</mask>
<g mask="url(#mask12_328_140)">
<mask id="mask13_328_140" style="mask-type:luminance" maskUnits="userSpaceOnUse" x="701" y="588" width="62" height="65">
<path d="M715.445 588.611L762.762 601.27L749.095 652.383L701.777 639.724L715.445 588.611Z" fill="white"/>
</mask>
<g mask="url(#mask13_328_140)">
<mask id="mask14_328_140" style="mask-type:luminance" maskUnits="userSpaceOnUse" x="532" y="518" width="272" height="212">
<path d="M572.402 518.493L803.295 580.271L763.298 729.82L532.406 668.042L572.402 518.493Z" fill="white"/>
</mask>
<g mask="url(#mask14_328_140)">
<path d="M745.386 619.536C745.165 620.371 744.777 621.151 744.246 621.832C743.979 622.171 743.679 622.484 743.352 622.767C743.024 623.047 742.67 623.295 742.295 623.508C741.914 623.721 741.514 623.898 741.099 624.034C740.267 624.309 739.388 624.418 738.514 624.355C738.075 624.326 737.64 624.253 737.216 624.137C736.366 623.911 735.567 623.522 734.866 622.991C734.168 622.466 733.58 621.81 733.133 621.059C732.692 620.312 732.402 619.486 732.28 618.627C732.22 618.202 732.202 617.772 732.229 617.344C732.254 616.91 732.326 616.491 732.434 616.072C732.546 615.658 732.7 615.259 732.888 614.871C733.082 614.487 733.313 614.124 733.578 613.781C734.109 613.097 734.773 612.527 735.53 612.105C736.291 611.675 737.13 611.399 737.998 611.293C738.432 611.237 738.871 611.226 739.306 611.258C739.745 611.288 740.18 611.36 740.604 611.472C741.027 611.589 741.441 611.742 741.835 611.932C742.228 612.126 742.601 612.356 742.954 612.617C743.648 613.147 744.236 613.804 744.685 614.554C744.91 614.927 745.09 615.32 745.238 615.729C745.381 616.137 745.483 616.557 745.539 616.981C745.601 617.41 745.62 617.84 745.59 618.269C745.565 618.697 745.497 619.122 745.386 619.536Z" fill="white"/>
</g>
</g>
</g>
<mask id="mask15_328_140" style="mask-type:luminance" maskUnits="userSpaceOnUse" x="715" y="619" width="15" height="16">
<path d="M715.559 619.792H729.946V634.184H715.559V619.792Z" fill="white"/>
</mask>
<g mask="url(#mask15_328_140)">
<mask id="mask16_328_140" style="mask-type:luminance" maskUnits="userSpaceOnUse" x="701" y="588" width="62" height="65">
<path d="M715.447 588.611L762.764 601.27L749.097 652.383L701.779 639.724L715.447 588.611Z" fill="white"/>
</mask>
<g mask="url(#mask16_328_140)">
<mask id="mask17_328_140" style="mask-type:luminance" maskUnits="userSpaceOnUse" x="532" y="518" width="272" height="212">
<path d="M572.404 518.493L803.297 580.271L763.3 729.82L532.408 668.042L572.404 518.493Z" fill="white"/>
</mask>
<g mask="url(#mask17_328_140)">
<path d="M724.275 620.671C723.859 620.573 723.434 620.513 723.007 620.492C722.58 620.472 722.152 620.496 721.73 620.564C720.882 620.689 720.067 620.983 719.334 621.427C718.967 621.648 718.623 621.905 718.307 622.194C717.03 623.358 716.263 624.98 716.172 626.706C716.151 627.136 716.172 627.565 716.233 627.99C716.356 628.838 716.644 629.654 717.081 630.391C717.297 630.759 717.55 631.103 717.837 631.418C718.123 631.74 718.435 632.027 718.777 632.288C719.462 632.803 720.241 633.178 721.071 633.392C721.901 633.606 722.765 633.658 723.616 633.545C724.039 633.486 724.455 633.385 724.858 633.243C725.669 632.966 726.418 632.53 727.059 631.96C727.382 631.679 727.667 631.367 727.928 631.025C728.189 630.682 728.414 630.325 728.602 629.937C728.792 629.554 728.943 629.153 729.052 628.74C729.272 627.897 729.319 627.017 729.19 626.155C729.129 625.725 729.026 625.302 728.884 624.892C728.74 624.482 728.555 624.088 728.331 623.716C728.112 623.342 727.855 622.992 727.565 622.669C727.275 622.345 726.954 622.05 726.605 621.79C726.258 621.529 725.887 621.303 725.496 621.115C725.103 620.932 724.694 620.783 724.275 620.671Z" fill="white"/>
</g>
</g>
</g>
<mask id="mask18_328_140" style="mask-type:luminance" maskUnits="userSpaceOnUse" x="706" y="604" width="15" height="15">
<path d="M706.402 604.092H720.791V618.484H706.402V604.092Z" fill="white"/>
</mask>
<g mask="url(#mask18_328_140)">
<mask id="mask19_328_140" style="mask-type:luminance" maskUnits="userSpaceOnUse" x="701" y="588" width="62" height="65">
<path d="M715.447 588.611L762.764 601.27L749.097 652.383L701.779 639.724L715.447 588.611Z" fill="white"/>
</mask>
<g mask="url(#mask19_328_140)">
<mask id="mask20_328_140" style="mask-type:luminance" maskUnits="userSpaceOnUse" x="532" y="518" width="272" height="212">
<path d="M572.404 518.493L803.297 580.271L763.3 729.82L532.408 668.042L572.404 518.493Z" fill="white"/>
</mask>
<g mask="url(#mask20_328_140)">
<path d="M714.716 604.547C713.883 604.347 713.019 604.309 712.171 604.434C711.75 604.499 711.336 604.605 710.935 604.751C710.533 604.896 710.146 605.081 709.781 605.304C709.414 605.523 709.07 605.778 708.754 606.065C708.437 606.357 708.15 606.674 707.895 607.016C707.384 607.703 707.014 608.484 706.807 609.315C706.699 609.734 706.639 610.153 706.618 610.583C706.593 611.01 706.612 611.438 706.674 611.861C706.796 612.709 707.085 613.525 707.522 614.263C707.959 615 708.537 615.645 709.223 616.158C709.566 616.415 709.929 616.639 710.317 616.823C710.701 617.011 711.103 617.158 711.518 617.262C711.932 617.375 712.351 617.436 712.78 617.462C713.203 617.487 713.633 617.472 714.057 617.415C714.48 617.357 714.896 617.256 715.299 617.114C716.111 616.837 716.859 616.401 717.501 615.832C717.823 615.55 718.114 615.239 718.369 614.897C718.63 614.559 718.855 614.196 719.044 613.807C719.429 613.035 719.65 612.191 719.693 611.329C719.716 610.895 719.695 610.46 719.632 610.031C719.571 609.601 719.468 609.178 719.325 608.769C719.182 608.357 718.997 607.962 718.773 607.588C718.553 607.215 718.296 606.864 718.006 606.54C717.423 605.896 716.72 605.37 715.937 604.992C715.546 604.804 715.137 604.655 714.716 604.547Z" fill="white"/>
</g>
</g>
</g>
<mask id="mask21_328_140" style="mask-type:luminance" maskUnits="userSpaceOnUse" x="301" y="319" width="64" height="64">
<path d="M301.627 319.51H364.314V382.218H301.627V319.51Z" fill="white"/>
</mask>
<g mask="url(#mask21_328_140)">
<path d="M364.314 350.864C364.318 352.917 364.117 354.967 363.716 356.981C363.313 358.995 362.714 360.966 361.927 362.863C361.142 364.761 360.171 366.578 359.03 368.286C357.893 369.993 356.589 371.583 355.137 373.033C354.409 373.759 353.647 374.45 352.853 375.103C352.061 375.754 351.238 376.364 350.386 376.932C349.532 377.506 348.653 378.031 347.744 378.517C346.839 378.998 345.914 379.438 344.965 379.831C344.019 380.225 343.054 380.572 342.068 380.868C340.103 381.461 338.085 381.863 336.043 382.069C335.021 382.167 333.994 382.217 332.967 382.217C331.946 382.217 330.919 382.166 329.897 382.069C327.855 381.863 325.838 381.46 323.873 380.868C322.89 380.572 321.923 380.226 320.976 379.831C320.028 379.437 319.098 378.999 318.191 378.517C317.287 378.033 316.407 377.504 315.554 376.932C314.702 376.364 313.879 375.754 313.087 375.103C312.293 374.45 311.531 373.759 310.803 373.033C310.078 372.308 309.389 371.548 308.739 370.754C308.089 369.961 307.476 369.138 306.905 368.286C306.337 367.43 305.81 366.548 305.325 365.643C304.84 364.74 304.402 363.812 304.013 362.863C303.62 361.915 303.273 360.948 302.976 359.966C302.674 358.984 302.429 357.987 302.224 356.981C302.026 355.975 301.876 354.96 301.775 353.94C301.674 352.918 301.625 351.891 301.627 350.864C301.627 349.836 301.672 348.814 301.775 347.792C301.877 346.77 302.025 345.752 302.224 344.746C302.628 342.733 303.227 340.765 304.013 338.869C304.402 337.918 304.84 336.988 305.325 336.083C305.81 335.18 306.337 334.3 306.905 333.446C307.477 332.594 308.09 331.768 308.739 330.973C309.391 330.18 310.079 329.42 310.803 328.693C311.53 327.968 312.292 327.278 313.087 326.629C314.67 325.323 316.38 324.18 318.191 323.215C319.097 322.73 320.027 322.29 320.976 321.896C321.921 321.503 322.886 321.16 323.873 320.864C324.854 320.562 325.85 320.312 326.856 320.112C327.862 319.914 328.877 319.764 329.897 319.663C331.94 319.459 334 319.459 336.043 319.663C337.063 319.764 338.078 319.914 339.084 320.112C340.09 320.311 341.087 320.563 342.068 320.864C344.034 321.456 345.935 322.244 347.744 323.215C349.557 324.178 351.269 325.322 352.853 326.629C354.444 327.928 355.901 329.383 357.202 330.973C357.851 331.767 358.461 332.593 359.03 333.446C359.603 334.3 360.129 335.178 360.615 336.083C361.1 336.988 361.539 337.918 361.927 338.869C362.321 339.814 362.669 340.78 362.965 341.762C363.266 342.748 363.511 343.739 363.716 344.746C363.915 345.752 364.063 346.77 364.166 347.792C364.268 348.814 364.314 349.836 364.314 350.864Z" fill="white"/>
</g>
<mask id="mask22_328_140" style="mask-type:luminance" maskUnits="userSpaceOnUse" x="818" y="323" width="64" height="64">
<path d="M818.486 323.843H881.179V386.546H818.486V323.843Z" fill="white"/>
</mask>
<g mask="url(#mask22_328_140)">
<path d="M881.179 355.197C881.174 357.249 880.972 359.296 880.576 361.31C880.375 362.316 880.124 363.312 879.824 364.294C879.528 365.276 879.184 366.243 878.792 367.192C878.005 369.089 877.035 370.905 875.895 372.614C875.324 373.466 874.712 374.29 874.061 375.083C873.413 375.879 872.724 376.642 871.997 377.367C871.271 378.092 870.511 378.781 869.718 379.432C868.923 380.081 868.098 380.694 867.246 381.267C866.392 381.834 865.512 382.361 864.609 382.845C863.7 383.331 862.775 383.771 861.824 384.159C859.927 384.947 857.958 385.546 855.944 385.948C854.938 386.146 853.924 386.296 852.904 386.398C851.883 386.498 850.859 386.547 849.833 386.546C847.78 386.55 845.731 386.35 843.717 385.948C842.71 385.747 841.714 385.496 840.732 385.197C839.75 384.9 838.783 384.553 837.836 384.159C836.887 383.77 835.959 383.332 835.056 382.845C834.151 382.362 833.269 381.835 832.415 381.267C830.711 380.122 829.122 378.816 827.668 377.367C826.215 375.915 824.909 374.323 823.77 372.614C823.199 371.762 822.67 370.882 822.186 369.977C821.703 369.071 821.265 368.141 820.873 367.192C820.478 366.244 820.131 365.277 819.835 364.294C819.539 363.313 819.289 362.317 819.09 361.31C818.888 360.304 818.736 359.29 818.634 358.269C818.537 357.248 818.487 356.223 818.486 355.197C818.486 354.169 818.537 353.143 818.634 352.121C818.736 351.1 818.887 350.085 819.09 349.08C819.289 348.073 819.539 347.076 819.835 346.095C820.132 345.112 820.478 344.145 820.873 343.197C821.266 342.246 821.7 341.322 822.186 340.417C822.669 339.51 823.198 338.628 823.77 337.775C824.908 336.066 826.214 334.476 827.668 333.027C829.117 331.573 830.707 330.267 832.415 329.128C833.268 328.555 834.147 328.029 835.056 327.543C835.96 327.059 836.888 326.621 837.836 326.23C838.783 325.835 839.75 325.489 840.732 325.192C841.713 324.891 842.71 324.646 843.717 324.446C845.73 324.04 847.779 323.838 849.833 323.843C851.885 323.838 853.932 324.041 855.944 324.446C856.955 324.646 857.946 324.891 858.933 325.192C859.914 325.488 860.879 325.836 861.824 326.23C862.775 326.624 863.7 327.057 864.609 327.543C866.418 328.514 868.129 329.657 869.718 330.957C870.512 331.609 871.272 332.3 871.997 333.027C872.723 333.752 873.413 334.509 874.061 335.307C874.712 336.099 875.324 336.923 875.895 337.775C877.032 339.485 878.003 341.301 878.792 343.197C879.181 344.143 879.528 345.109 879.824 346.095C880.126 347.076 880.372 348.073 880.576 349.08C880.972 351.095 881.175 353.143 881.179 355.197Z" fill="white"/>
</g>
<mask id="mask23_328_140" style="mask-type:luminance" maskUnits="userSpaceOnUse" x="830" y="337" width="42" height="44">
<path d="M830.662 337.191H871.21V380.366H830.662V337.191Z" fill="white"/>
</mask>
<g mask="url(#mask23_328_140)">
<mask id="mask24_328_140" style="mask-type:luminance" maskUnits="userSpaceOnUse" x="824" y="336" width="58" height="51">
<path d="M824.715 352.171L868.885 336.052L881.312 370.104L837.141 386.228L824.715 352.171Z" fill="white"/>
</mask>
<g mask="url(#mask24_328_140)">
<mask id="mask25_328_140" style="mask-type:luminance" maskUnits="userSpaceOnUse" x="824" y="336" width="58" height="51">
<path d="M824.715 352.171L868.885 336.052L881.312 370.104L837.141 386.228L824.715 352.171Z" fill="white"/>
</mask>
<g mask="url(#mask25_328_140)">
<path d="M867.388 337.989L867.04 337.887C865.945 337.518 864.749 337.588 863.704 338.081C862.646 338.577 861.829 339.41 861.415 340.514L856.091 354.568L852.994 363.052L850.726 369.251L846.95 367.39L844.84 366.369L837.416 362.796C836.338 362.275 835.163 362.244 834.049 362.576C832.997 362.883 832.067 363.721 831.551 364.749L831.372 365.116C830.253 367.237 831.173 369.875 833.298 370.927L840.641 374.494L842.776 375.578L851.242 379.687C852.218 380.132 853.348 380.254 854.282 379.947C854.349 379.922 854.349 379.922 854.385 379.912C854.451 379.886 854.487 379.875 854.589 379.835L854.66 379.81C854.829 379.748 854.967 379.702 855.171 379.625C856.229 379.125 857.047 378.292 857.455 377.193L862.713 363.159L864.741 357.583L869.994 343.55C870.806 341.31 869.667 338.832 867.388 337.989Z" fill="white"/>
</g>
</g>
</g>
<mask id="mask26_328_140" style="mask-type:luminance" maskUnits="userSpaceOnUse" x="308" y="326" width="50" height="50">
<path d="M308.77 326.726H357.165V375.134H308.77V326.726Z" fill="white"/>
</mask>
<g mask="url(#mask26_328_140)">
<mask id="mask27_328_140" style="mask-type:luminance" maskUnits="userSpaceOnUse" x="305" y="323" width="56" height="56">
<path d="M324.373 323.465L360.859 342.481L341.848 378.972L305.361 359.955L324.373 323.465Z" fill="white"/>
</mask>
<g mask="url(#mask27_328_140)">
<mask id="mask28_328_140" style="mask-type:luminance" maskUnits="userSpaceOnUse" x="305" y="323" width="56" height="56">
<path d="M324.373 323.465L360.859 342.481L341.848 378.972L305.361 359.955L324.373 323.465Z" fill="white"/>
</mask>
<g mask="url(#mask28_328_140)">
<path d="M342.41 356.04L353.828 352.442C354.355 352.276 354.843 352.006 355.265 351.65C355.688 351.297 356.037 350.862 356.292 350.373C356.549 349.884 356.705 349.349 356.751 348.799C356.804 348.247 356.744 347.691 356.577 347.163L354.656 341.046C354.299 339.997 353.553 339.126 352.572 338.612C351.589 338.101 350.448 337.988 349.383 338.295L337.964 341.899L334.377 330.477C334.2 329.956 333.926 329.474 333.57 329.056C332.848 328.216 331.831 327.687 330.729 327.579C330.183 327.523 329.631 327.573 329.104 327.727L322.989 329.658C322.462 329.824 321.973 330.092 321.55 330.447C321.127 330.802 320.779 331.238 320.525 331.729C320.267 332.217 320.11 332.752 320.065 333.303C320.014 333.86 320.071 334.402 320.24 334.933L323.831 346.36L312.412 349.959C311.885 350.126 311.395 350.395 310.971 350.75C310.55 351.106 310.201 351.54 309.944 352.028C309.69 352.52 309.533 353.056 309.484 353.608C309.438 354.159 309.494 354.706 309.663 355.238L311.585 361.355C311.942 362.403 312.688 363.274 313.669 363.788C314.652 364.299 315.793 364.413 316.857 364.105L328.276 360.502L331.864 371.924C332.111 372.718 332.589 373.42 333.237 373.942C333.885 374.463 334.673 374.78 335.501 374.853C336.053 374.901 336.609 374.84 337.137 374.673L343.252 372.742C343.778 372.578 344.266 372.311 344.687 371.955C345.54 371.236 346.074 370.209 346.175 369.098C346.225 368.548 346.166 367.994 346.001 367.468L342.41 356.04Z" fill="white"/>
</g>
</g>
</g>
<mask id="mask29_328_140" style="mask-type:luminance" maskUnits="userSpaceOnUse" x="783" y="356" width="31" height="30">
<path d="M783.574 356.816H813.659V385.6H783.574V356.816Z" fill="white"/>
</mask>
<g mask="url(#mask29_328_140)">
<mask id="mask30_328_140" style="mask-type:luminance" maskUnits="userSpaceOnUse" x="782" y="346" width="39" height="41">
<path d="M807.189 346.744L820.78 374.995L796.065 386.893L782.475 358.637L807.189 346.744Z" fill="white"/>
</mask>
<g mask="url(#mask30_328_140)">
<mask id="mask31_328_140" style="mask-type:luminance" maskUnits="userSpaceOnUse" x="782" y="346" width="39" height="41">
<path d="M807.189 346.744L820.78 374.995L796.065 386.893L782.475 358.637L807.189 346.744Z" fill="white"/>
</mask>
<g mask="url(#mask31_328_140)">
<mask id="mask32_328_140" style="mask-type:luminance" maskUnits="userSpaceOnUse" x="776" y="342" width="51" height="50">
<path d="M810.29 342.021L826.39 375.502L792.438 391.845L776.334 358.366L810.29 342.021Z" fill="white"/>
</mask>
<g mask="url(#mask32_328_140)">
<mask id="mask33_328_140" style="mask-type:luminance" maskUnits="userSpaceOnUse" x="776" y="342" width="51" height="50">
<path d="M810.29 342.021L826.39 375.502L792.438 391.845L776.334 358.366L810.29 342.021Z" fill="white"/>
</mask>
<g mask="url(#mask33_328_140)">
<path d="M794.41 383.433L789.27 372.752L784.135 362.071C782.975 359.663 784.222 357.86 786.914 358.043L798.865 358.871L810.817 359.695C813.514 359.883 814.454 361.836 812.916 364.059L806.106 373.918L799.29 383.771C797.756 385.994 795.57 385.841 794.41 383.433Z" fill="white"/>
</g>
</g>
</g>
</g>
</g>
<mask id="mask34_328_140" style="mask-type:luminance" maskUnits="userSpaceOnUse" x="363" y="339" width="401" height="103">
<path d="M363.705 339.809H763.953V441.859H363.705V339.809Z" fill="white"/>
</mask>
<g mask="url(#mask34_328_140)">
<mask id="mask35_328_140" style="mask-type:luminance" maskUnits="userSpaceOnUse" x="364" y="209" width="431" height="315">
<path d="M364.416 338.117L729.374 209.568L794.768 395.331L429.81 523.875L364.416 338.117Z" fill="white"/>
</mask>
<g mask="url(#mask35_328_140)">
<mask id="mask36_328_140" style="mask-type:luminance" maskUnits="userSpaceOnUse" x="259" y="190" width="590" height="371">
<path d="M259.535 375.062L783.405 190.536L848.805 376.294L324.931 560.82L259.535 375.062Z" fill="white"/>
</mask>
<g mask="url(#mask36_328_140)">
<path d="M358.131 361.887L358.06 361.913L357.098 362.25C353.185 363.63 348.822 361.606 347.442 357.702C346.068 353.797 348.04 349.54 351.943 348.165L353.216 347.715C357.135 346.376 361.401 348.476 362.739 352.396C364.058 356.291 361.998 360.523 358.131 361.887ZM384.153 356.055C383.625 356.24 383.079 356.367 382.523 356.434L381.333 356.572C377.22 357.098 373.474 354.185 372.948 350.071C372.432 345.967 375.334 342.211 379.447 341.695L380.786 341.537C384.904 341.046 388.624 344.005 389.099 348.114C389.517 351.66 387.382 354.916 384.153 356.055ZM410.808 355.529C409.868 355.856 408.846 356.01 407.784 355.928L406.562 355.841C402.424 355.585 399.297 352.003 399.563 347.874C399.694 345.888 400.609 344.035 402.105 342.723C403.602 341.411 405.558 340.747 407.543 340.877L408.852 340.979C412.985 341.271 416.097 344.853 415.795 348.987C415.581 352.06 413.531 354.569 410.808 355.529ZM437.147 359.71C435.767 360.198 434.273 360.265 432.855 359.904L431.726 359.638C427.69 358.703 425.181 354.666 426.122 350.628C427.056 346.606 431.098 344.087 435.124 345.027L436.468 345.354C440.483 346.351 442.942 350.408 441.945 354.435C441.644 355.643 441.048 356.757 440.21 357.677C439.373 358.598 438.32 359.296 437.147 359.71ZM462.572 367.805C460.869 368.405 459.007 368.369 457.329 367.703L456.179 367.253C452.317 365.756 450.411 361.407 451.908 357.543C453.421 353.69 457.769 351.773 461.616 353.276L462.832 353.75C466.685 355.268 468.575 359.623 467.063 363.482C466.668 364.482 466.063 365.387 465.288 366.133C464.513 366.879 463.587 367.449 462.572 367.805ZM486.78 379.028C485.8 379.375 484.759 379.513 483.723 379.435C482.686 379.356 481.678 379.063 480.761 378.573L479.667 377.996C477.909 377.066 476.591 375.476 476.004 373.574C475.416 371.673 475.607 369.616 476.535 367.856C478.462 364.197 482.999 362.792 486.673 364.729L487.822 365.342C491.476 367.284 492.86 371.827 490.908 375.487C490.026 377.145 488.552 378.41 486.78 379.028ZM509.706 392.72C508.614 393.105 507.448 393.232 506.299 393.09C505.15 392.948 504.049 392.542 503.084 391.902L502.021 391.213C500.362 390.117 499.204 388.408 498.804 386.459C498.403 384.511 498.793 382.484 499.886 380.822C500.426 379.999 501.123 379.29 501.938 378.737C502.753 378.183 503.668 377.796 504.633 377.597C505.597 377.398 506.591 377.392 507.558 377.578C508.525 377.764 509.446 378.139 510.268 378.681L511.335 379.381C512.158 379.921 512.867 380.619 513.42 381.434C513.973 382.249 514.36 383.165 514.558 384.13C514.757 385.095 514.763 386.089 514.576 387.057C514.39 388.024 514.014 388.945 513.471 389.766C512.575 391.138 511.251 392.176 509.706 392.72ZM531.487 408.154C530.366 408.549 529.167 408.672 527.989 408.513C526.811 408.354 525.688 407.918 524.712 407.239L523.629 406.478C520.246 404.101 519.434 399.415 521.825 396.032C524.206 392.653 528.886 391.831 532.274 394.222L533.28 394.923C536.667 397.293 537.516 401.96 535.15 405.358C534.254 406.653 532.972 407.631 531.487 408.154ZM554.413 421.799C553.464 422.137 552.456 422.279 551.45 422.217C550.445 422.155 549.462 421.889 548.562 421.437L547.372 420.839C543.688 418.963 542.232 414.446 544.107 410.745C545.966 407.071 550.484 405.594 554.188 407.469L555.26 408.021C558.96 409.876 560.468 414.379 558.617 418.079C557.753 419.819 556.245 421.154 554.413 421.799ZM579.081 431.944C577.539 432.492 575.858 432.512 574.304 432L573.047 431.592C569.097 430.314 566.967 426.073 568.259 422.142C569.526 418.207 573.777 416.055 577.701 417.343L578.892 417.721C582.816 418.999 584.992 423.226 583.73 427.166C583.374 428.266 582.77 429.269 581.964 430.098C581.157 430.927 580.171 431.559 579.081 431.944ZM605.031 438.133C603.853 438.546 602.591 438.66 601.358 438.466L600.034 438.251C595.952 437.566 593.208 433.697 593.893 429.614C594.578 425.531 598.43 422.776 602.512 423.46L603.692 423.645C607.79 424.293 610.596 428.132 609.941 432.22C609.732 433.557 609.165 434.812 608.3 435.853C607.436 436.894 606.307 437.682 605.031 438.133ZM631.615 440.264C630.812 440.544 629.968 440.687 629.117 440.688L627.757 440.669C623.604 440.618 620.308 437.203 620.364 433.064C620.441 428.919 623.833 425.612 627.962 425.673L629.137 425.689C633.291 425.684 636.648 429.047 636.627 433.196C636.632 436.452 634.538 439.232 631.615 440.264ZM756.642 402.246C753.366 403.401 749.611 402.149 747.756 399.057C745.606 395.515 746.74 390.901 750.275 388.754L751.302 388.126C754.828 385.953 759.447 387.027 761.613 390.547C762.134 391.383 762.486 392.313 762.648 393.284C762.809 394.256 762.777 395.25 762.553 396.209C762.33 397.168 761.919 398.074 761.345 398.874C760.77 399.674 760.044 400.353 759.206 400.871L758.052 401.577C757.606 401.848 757.134 402.072 756.642 402.246ZM658.271 438.527C657.8 438.69 657.31 438.808 656.784 438.885L655.44 439.058C651.328 439.57 647.571 436.661 647.076 432.537C646.954 431.559 647.025 430.567 647.286 429.617C647.548 428.667 647.994 427.778 648.599 427.001C649.204 426.223 649.956 425.573 650.813 425.086C651.669 424.6 652.613 424.287 653.591 424.166L654.755 424.018C658.853 423.46 662.645 426.333 663.191 430.437C663.427 432.146 663.066 433.884 662.17 435.357C661.274 436.831 659.897 437.951 658.271 438.527ZM733.2 415.074C729.664 416.316 725.664 414.747 723.998 411.287C722.178 407.556 723.727 403.064 727.432 401.25L728.545 400.718C732.26 398.848 736.751 400.391 738.585 404.106C740.45 407.811 738.907 412.319 735.208 414.149L734.033 414.726C733.762 414.858 733.484 414.974 733.2 415.074ZM684.462 433.349C684.247 433.421 684.058 433.477 683.838 433.534L682.602 433.856C678.591 434.888 674.509 432.47 673.466 428.459C672.429 424.457 674.845 420.41 678.861 419.326L680.098 419.004C684.109 417.971 688.192 420.384 689.234 424.4C689.696 426.219 689.463 428.144 688.58 429.799C687.698 431.454 686.229 432.721 684.462 433.349ZM708.7 425.648C704.858 427.003 700.607 425.02 699.182 421.186C698.838 420.262 698.68 419.28 698.716 418.296C698.752 417.311 698.982 416.343 699.392 415.447C699.803 414.552 700.386 413.746 701.108 413.076C701.83 412.405 702.677 411.884 703.601 411.542L704.746 411.108C708.603 409.57 712.946 411.593 714.418 415.467C715.864 419.346 713.917 423.675 710.059 425.142L708.818 425.607L708.7 425.648Z" fill="white"/>
</g>
</g>
</g>
<mask id="mask37_328_140" style="mask-type:luminance" maskUnits="userSpaceOnUse" x="767" y="371" width="18" height="18">
<path d="M767.877 371.209H784.881V388.217H767.877V371.209Z" fill="white"/>
</mask>
<g mask="url(#mask37_328_140)">
<mask id="mask38_328_140" style="mask-type:luminance" maskUnits="userSpaceOnUse" x="364" y="209" width="431" height="315">
<path d="M364.416 338.117L729.374 209.568L794.768 395.331L429.81 523.875L364.416 338.117Z" fill="white"/>
</mask>
<g mask="url(#mask38_328_140)">
<mask id="mask39_328_140" style="mask-type:luminance" maskUnits="userSpaceOnUse" x="259" y="190" width="590" height="371">
<path d="M259.535 375.062L783.405 190.536L848.805 376.294L324.931 560.82L259.535 375.062Z" fill="white"/>
</mask>
<g mask="url(#mask39_328_140)">
<path d="M778.863 387.083C777.39 387.602 775.792 387.648 774.29 387.216C772.789 386.784 771.46 385.894 770.489 384.671C767.913 381.426 768.48 376.703 771.71 374.137L772.103 373.821C775.312 371.199 780.013 371.679 782.649 374.879C783.907 376.418 784.502 378.393 784.305 380.371C784.108 382.349 783.133 384.167 781.596 385.427L781.04 385.882C780.386 386.4 779.651 386.806 778.863 387.083Z" fill="white"/>
</g>
</g>
</g>
</svg>
