<svg width="1038" height="402" viewBox="0 0 1038 402" fill="none" xmlns="http://www.w3.org/2000/svg">
<path d="M638.416 147.018H723.385V168.597H662.807V191.752H715.414V213.334H662.807V235.701H722.588V257.28H638.416V147.018ZM939.252 215.932V216.26C939.252 241.621 918.798 261.875 891.192 261.875C863.421 261.875 842.801 241.29 842.801 215.932V215.603C842.801 190.243 863.256 169.989 890.861 169.989C918.632 169.989 939.252 190.571 939.252 215.932ZM914.308 215.932V215.603C914.308 202.592 905.66 191.561 891.192 191.561C877.223 191.561 867.745 202.923 867.745 215.932V216.26C867.745 229.269 876.391 240.302 890.861 240.302C904.828 240.302 914.308 228.943 914.308 215.932Z" fill="white"/>
<path fill-rule="evenodd" clip-rule="evenodd" d="M175.805 1.30483C175.456 1.10321 175.06 0.99707 174.657 0.99707C174.254 0.99707 173.858 1.10321 173.509 1.30483L2.83378 99.8752C2.48468 100.077 2.19478 100.367 1.99323 100.716C1.79167 101.065 1.68556 101.461 1.68555 101.865V299.001C1.68556 299.404 1.79167 299.8 1.99323 300.149C2.19478 300.498 2.48468 300.788 2.83378 300.99L173.511 399.558C173.86 399.76 174.256 399.867 174.66 399.867C175.063 399.867 175.459 399.76 175.808 399.558L346.481 300.99C346.83 300.788 347.12 300.498 347.321 300.149C347.523 299.8 347.629 299.404 347.629 299.001V101.865C347.629 101.461 347.523 101.065 347.322 100.716C347.12 100.367 346.83 100.077 346.481 99.8752L175.805 1.30483ZM175.805 33.5062C175.456 33.3046 175.06 33.1984 174.657 33.1984C174.254 33.1984 173.858 33.3046 173.509 33.5062L30.7128 115.974C30.3637 116.175 30.0738 116.465 29.8723 116.814C29.6707 117.164 29.5646 117.56 29.5646 117.963V180.165C29.5646 180.773 29.8059 181.357 30.2356 181.788C30.6652 182.218 31.2482 182.461 31.8564 182.462L118.543 182.637C119.779 182.637 120.798 182.605 121.666 182.577C125.674 182.448 126.432 182.425 130.14 186.165L174.891 238.149C175.523 238.88 176.538 239.133 177.457 238.836C180.903 237.718 184.505 237.15 188.128 237.152C207.216 237.152 222.69 252.633 222.69 271.727C222.69 290.821 207.216 306.299 188.128 306.299C169.04 306.299 153.567 290.821 153.567 271.727C153.567 267.068 154.487 262.623 156.159 258.566C156.499 257.739 156.375 256.788 155.799 256.104L125.325 220.124C119.99 213.726 118.986 213.623 108.898 213.51L31.8656 213.338C31.5637 213.337 31.2645 213.396 30.9854 213.512C30.7062 213.627 30.4525 213.796 30.2388 214.009C30.0251 214.223 29.8555 214.476 29.7398 214.755C29.6241 215.034 29.5646 215.333 29.5646 215.635V282.9C29.5646 283.722 30.0009 284.48 30.7128 284.889L173.509 367.359C174.221 367.768 175.096 367.768 175.805 367.359L318.604 284.889C318.953 284.688 319.243 284.398 319.444 284.049C319.646 283.699 319.752 283.303 319.752 282.9V216.993C319.752 216.384 319.511 215.801 319.081 215.37C318.652 214.939 318.069 214.697 317.46 214.696L228.156 214.514C226.92 214.514 225.898 214.546 225.032 214.574C221.025 214.702 220.267 214.725 216.558 210.986L171.805 159.001C171.493 158.648 171.083 158.394 170.627 158.272C170.171 158.15 169.689 158.166 169.242 158.317C165.795 159.434 162.194 160.002 158.571 159.998C139.482 159.996 124.009 144.518 124.009 125.424C124.009 106.328 139.482 90.8498 158.571 90.8498C177.659 90.8498 193.132 106.328 193.132 125.422C193.132 130.083 192.209 134.525 190.537 138.582C190.197 139.409 190.321 140.362 190.9 141.045L221.372 177.027C226.706 183.422 227.71 183.523 237.798 183.638L317.451 183.817C317.753 183.818 318.052 183.759 318.331 183.644C318.611 183.529 318.864 183.36 319.078 183.146C319.292 182.933 319.461 182.679 319.577 182.4C319.693 182.121 319.752 181.822 319.752 181.52V117.963C319.752 117.56 319.646 117.164 319.444 116.814C319.243 116.465 318.953 116.175 318.604 115.974L175.805 33.5062ZM158.571 145.294C155.962 145.294 153.379 144.78 150.969 143.782C148.559 142.783 146.369 141.32 144.524 139.474C142.68 137.629 141.216 135.439 140.218 133.028C139.22 130.617 138.706 128.033 138.706 125.424C138.706 122.815 139.22 120.231 140.218 117.82C141.216 115.409 142.68 113.219 144.524 111.374C146.369 109.529 148.559 108.065 150.969 107.066C153.379 106.068 155.962 105.554 158.571 105.554C163.839 105.554 168.891 107.647 172.617 111.374C176.342 115.1 178.435 120.154 178.435 125.424C178.435 130.694 176.342 135.748 172.617 139.474C168.891 143.201 163.839 145.294 158.571 145.294ZM188.126 251.856C193.394 251.856 198.447 253.95 202.172 257.676C205.897 261.403 207.99 266.457 207.99 271.727C207.99 276.997 205.897 282.051 202.172 285.777C198.447 289.504 193.394 291.597 188.126 291.597C182.858 291.597 177.805 289.504 174.08 285.777C170.354 282.051 168.262 276.997 168.262 271.727C168.262 266.457 170.354 261.403 174.08 257.676C177.805 253.95 182.858 251.856 188.126 251.856Z" fill="white"/>
<path d="M614.418 161.501L598.823 178.109C589.619 170.168 581.471 165.144 568.393 165.487C548.779 166.001 535.638 182.708 536.15 202.33L536.159 202.657C536.674 222.279 550.988 237.941 570.278 237.435C581.721 237.134 590.583 231.993 599.2 223.751L615.704 241.809C605.352 252.551 592.625 260.085 571.05 260.65C535.902 261.569 510.685 235.559 509.833 203.02L509.824 202.693C508.965 169.826 533.293 143.172 566.969 142.29C589.035 141.711 602.32 149.216 614.418 161.501ZM1034.9 185.191L1020.52 200.518C1014.23 194.867 1008.33 191.368 999.863 191.589C986.091 191.95 977.58 203.137 977.939 216.75L977.946 217.083C978.29 230.195 987.542 241.083 1000.15 240.752C1009.12 240.518 1014.66 236.553 1020.15 230.429L1036.01 246.624C1027.96 256.136 1017.65 262.056 1000.89 262.495C973.674 263.207 953.711 242.799 953.045 217.402L953.036 217.069C952.372 191.672 971.414 170.575 998.134 169.874C1015.89 169.41 1026.03 175.955 1034.9 185.191ZM493.209 225.368V225.04C493.209 204.922 480.02 196.509 456.612 190.411C436.665 185.297 431.719 182.825 431.719 175.238V174.909C431.719 169.304 436.831 164.848 446.556 164.848C456.284 164.848 466.338 169.137 476.559 176.228L489.748 157.1C478.043 147.7 463.702 142.423 446.887 142.423C423.311 142.423 406.497 156.275 406.497 177.218V177.547C406.497 200.47 421.5 206.899 444.742 212.838C464.03 217.783 467.987 221.082 467.987 227.514V227.843C467.987 234.605 461.722 238.726 451.337 238.726C438.149 238.726 427.268 233.284 416.884 224.709L401.881 242.684C415.729 255.052 433.368 261.153 450.841 261.153C475.735 261.153 493.209 248.289 493.209 225.368ZM828.492 225.368V225.04C828.492 204.922 815.303 196.509 791.896 190.411C771.949 185.297 767.002 182.825 767.002 175.238V174.909C767.002 169.304 772.114 164.848 781.839 164.848C791.567 164.848 801.621 169.137 811.843 176.228L825.031 157.1C813.326 147.7 798.985 142.423 782.17 142.423C758.595 142.423 741.78 156.275 741.78 177.218V177.547C741.78 200.47 756.783 206.899 780.025 212.838C799.313 217.783 803.27 221.082 803.27 227.514V227.843C803.27 234.605 797.005 238.726 786.621 238.726C773.432 238.726 762.551 233.284 752.167 224.709L737.164 242.684C751.012 255.052 768.651 261.153 786.125 261.153C811.018 261.153 828.492 248.289 828.492 225.368Z" fill="white"/>
</svg>
