<svg width="773" height="696" viewBox="0 0 773 696" fill="none" xmlns="http://www.w3.org/2000/svg">
<g clip-path="url(#clip0_328_357)">
<path d="M192.076 160.08C189.432 160.08 187.01 160.08 185.131 160.08C182.997 160.08 181.268 161.811 181.268 163.947V170.852C181.268 172.988 182.997 174.719 185.131 174.719C187.01 174.719 189.432 174.719 192.076 174.719H235.311C237.956 174.719 240.378 174.719 242.256 174.719C244.391 174.719 246.12 172.988 246.12 170.852V163.947C246.12 161.811 244.391 160.08 242.256 160.08C240.378 160.08 237.956 160.08 235.311 160.08H192.076Z" fill="white"/>
<path d="M192.076 450.134C189.432 450.134 187.01 450.134 185.131 450.134C182.997 450.134 181.268 451.866 181.268 454V460.906C181.268 463.041 182.997 464.773 185.131 464.773C187.01 464.773 189.432 464.773 192.076 464.773H235.311C237.956 464.773 240.378 464.773 242.256 464.773C244.391 464.773 246.12 463.041 246.12 460.906V454C246.12 451.866 244.391 450.134 242.256 450.134C240.378 450.134 237.956 450.134 235.311 450.134H192.076Z" fill="white"/>
<path d="M199.602 167.213C195.726 167.213 192.584 170.823 192.584 175.276V449.423C192.584 453.877 195.726 457.485 199.602 457.485H227.677C231.552 457.485 234.695 453.877 234.695 449.423V175.276C234.695 170.823 231.552 167.213 227.677 167.213H199.602Z" fill="white"/>
<path d="M278.547 160.08C275.903 160.08 273.481 160.08 271.602 160.08C269.467 160.08 267.738 161.811 267.738 163.947V170.852C267.738 172.988 269.467 174.719 271.602 174.719C273.481 174.719 275.903 174.719 278.547 174.719H321.782C324.426 174.719 326.849 174.719 328.727 174.719C330.862 174.719 332.591 172.988 332.591 170.852V163.947C332.591 161.811 330.862 160.08 328.727 160.08C326.849 160.08 324.426 160.08 321.782 160.08H278.547Z" fill="white"/>
<path d="M278.547 450.134C275.903 450.134 273.481 450.134 271.602 450.134C269.467 450.134 267.738 451.866 267.738 454V460.906C267.738 463.041 269.467 464.773 271.602 464.773C273.481 464.773 275.903 464.773 278.547 464.773H321.782C324.426 464.773 326.849 464.773 328.727 464.773C330.862 464.773 332.591 463.041 332.591 460.906V454C332.591 451.866 330.862 450.134 328.727 450.134C326.849 450.134 324.426 450.134 321.782 450.134H278.547Z" fill="white"/>
<path d="M286.073 167.213C282.197 167.213 279.055 170.823 279.055 175.276V449.423C279.055 453.877 282.197 457.485 286.073 457.485H314.148C318.024 457.485 321.166 453.877 321.166 449.423V175.276C321.166 170.823 318.024 167.213 314.148 167.213H286.073Z" fill="white"/>
<path d="M365.018 160.08C362.374 160.08 359.951 160.08 358.073 160.08C355.938 160.08 354.209 161.811 354.209 163.947V170.852C354.209 172.988 355.938 174.719 358.073 174.719C359.951 174.719 362.374 174.719 365.018 174.719H408.253C410.896 174.719 413.32 174.719 415.198 174.719C417.331 174.719 419.063 172.988 419.063 170.852V163.947C419.063 161.811 417.331 160.08 415.198 160.08C413.32 160.08 410.896 160.08 408.253 160.08H365.018Z" fill="white"/>
<path d="M365.018 450.134C362.374 450.134 359.951 450.134 358.073 450.134C355.938 450.134 354.209 451.866 354.209 454V460.906C354.209 463.041 355.938 464.773 358.073 464.773C359.951 464.773 362.374 464.773 365.018 464.773H408.253C410.896 464.773 413.32 464.773 415.198 464.773C417.331 464.773 419.063 463.041 419.063 460.906V454C419.063 451.866 417.331 450.134 415.198 450.134C413.32 450.134 410.896 450.134 408.253 450.134H365.018Z" fill="white"/>
<path d="M372.544 167.213C368.668 167.213 365.525 170.823 365.525 175.276V449.423C365.525 453.877 368.668 457.485 372.544 457.485H400.619C404.496 457.485 407.638 453.877 407.638 449.423V175.276C407.638 170.823 404.496 167.213 400.619 167.213H372.544Z" fill="white"/>
<path d="M451.486 160.08C448.843 160.08 446.423 160.08 444.545 160.08C442.407 160.08 440.68 161.811 440.68 163.947V170.852C440.68 172.988 442.407 174.719 444.545 174.719C446.423 174.719 448.843 174.719 451.486 174.719H494.724C497.368 174.719 499.791 174.719 501.669 174.719C503.803 174.719 505.53 172.988 505.53 170.852V163.947C505.53 161.811 503.803 160.08 501.669 160.08C499.791 160.08 497.368 160.08 494.724 160.08H451.486Z" fill="white"/>
<path d="M451.486 450.134C448.843 450.134 446.423 450.134 444.545 450.134C442.407 450.134 440.68 451.866 440.68 454V460.906C440.68 463.041 442.407 464.773 444.545 464.773C446.423 464.773 448.843 464.773 451.486 464.773H494.724C497.368 464.773 499.791 464.773 501.669 464.773C503.803 464.773 505.53 463.041 505.53 460.906V454C505.53 451.866 503.803 450.134 501.669 450.134C499.791 450.134 497.368 450.134 494.724 450.134H451.486Z" fill="white"/>
<path d="M459.015 167.213C455.138 167.213 451.996 170.823 451.996 175.276V449.423C451.996 453.877 455.138 457.485 459.015 457.485H487.086C490.963 457.485 494.105 453.877 494.105 449.423V175.276C494.105 170.823 490.963 167.213 487.086 167.213H459.015Z" fill="white"/>
<path d="M537.958 160.08C535.314 160.08 532.891 160.08 531.012 160.08C528.879 160.08 527.147 161.811 527.147 163.947V170.852C527.147 172.988 528.879 174.719 531.012 174.719C532.891 174.719 535.314 174.719 537.958 174.719H581.192C583.835 174.719 586.259 174.719 588.137 174.719C590.274 174.719 592.002 172.988 592.002 170.852V163.947C592.002 161.811 590.274 160.08 588.137 160.08C586.259 160.08 583.835 160.08 581.192 160.08H537.958Z" fill="white"/>
<path d="M537.958 450.134C535.314 450.134 532.891 450.134 531.012 450.134C528.879 450.134 527.147 451.866 527.147 454V460.906C527.147 463.041 528.879 464.773 531.012 464.773C532.891 464.773 535.314 464.773 537.958 464.773H581.192C583.835 464.773 586.259 464.773 588.137 464.773C590.274 464.773 592.002 463.041 592.002 460.906V454C592.002 451.866 590.274 450.134 588.137 450.134C586.259 450.134 583.835 450.134 581.192 450.134H537.958Z" fill="white"/>
<path d="M545.483 167.213C541.606 167.213 538.464 170.823 538.464 175.276V449.423C538.464 453.877 541.606 457.485 545.483 457.485H573.558C577.435 457.485 580.577 453.877 580.577 449.423V175.276C580.577 170.823 577.435 167.213 573.558 167.213H545.483Z" fill="white"/>
<path fill-rule="evenodd" clip-rule="evenodd" d="M380.421 1.02876C384.358 -0.34292 388.641 -0.34292 392.58 1.02876L686.648 103.457C686.919 103.546 687.189 103.64 687.456 103.739L760.671 129.241C770.264 132.582 775.319 143.032 771.96 152.579C768.606 162.127 758.104 167.157 748.511 163.816L699.376 146.702V384.637C699.376 433.887 678.737 478.017 649.548 515.775C620.39 553.498 581.961 585.866 544.292 612.109C506.528 638.414 468.882 659.008 440.741 673.013C426.65 680.023 414.885 685.409 406.606 689.06C404.457 690.007 402.544 690.834 400.882 691.546C399.343 692.207 398.022 692.764 396.932 693.22C395.803 693.692 394.926 694.051 394.323 694.299L393.619 694.585L393.426 694.662L393.364 694.686C393.36 694.689 393.337 694.697 386.5 677.692C379.665 694.697 379.659 694.697 379.652 694.693L379.576 694.662L379.381 694.585L378.678 694.299C378.073 694.051 377.195 693.692 376.066 693.22C374.261 692.462 372.461 691.697 370.664 690.923C369.367 690.363 367.941 689.74 366.395 689.06C358.116 685.409 346.35 680.023 332.258 673.013C304.119 659.008 266.474 638.414 228.709 612.109C191.039 585.866 152.61 553.498 123.451 515.775C94.265 478.017 73.6228 433.887 73.6228 384.637V146.702L24.4886 163.816C14.8957 167.157 4.39566 162.127 1.03813 152.579C-2.31939 143.032 2.73564 132.582 12.3297 129.241L85.5425 103.739C85.6952 103.682 85.8478 103.627 86.002 103.575L86.3514 103.457L380.421 1.02876ZM662.569 384.637V133.882L386.5 37.7223L110.432 133.882V384.637C110.432 423.304 126.599 459.766 152.626 493.437C178.682 527.147 213.87 557.055 249.819 582.096C285.671 607.075 321.645 626.775 348.719 640.247C362.234 646.971 373.474 652.117 381.299 655.567C383.253 656.425 384.993 657.179 386.5 657.829C388.007 657.179 389.747 656.425 391.702 655.567C399.525 652.117 410.764 646.971 424.28 640.247C451.355 626.775 487.33 607.075 523.182 582.096C559.13 557.055 594.317 527.147 620.375 493.437C646.402 459.766 662.569 423.304 662.569 384.637Z" fill="white"/>
<path d="M386.5 677.691L379.652 694.693C384.04 696.441 388.977 696.433 393.364 694.685L386.5 677.691Z" fill="white"/>
</g>
<defs>
<clipPath id="clip0_328_357">
<rect width="773" height="696" fill="white"/>
</clipPath>
</defs>
</svg>
