<svg width="864" height="576" viewBox="0 0 864 576" fill="none" xmlns="http://www.w3.org/2000/svg">
<mask id="path-1-inside-1_328_378" fill="white">
<path d="M36.1498 71.2689C35.7394 71.4352 34.9769 72.0745 34.4607 72.6901L33.5189 73.809L33.4908 101.705C33.4671 125.606 33.5383 129.749 33.9941 130.628C35.316 133.185 38.7115 133.663 40.9558 131.608L42.2993 130.375L42.3965 105.144L42.4937 79.9153H111.158L179.82 79.9175L183.06 78.8202C196.307 74.3382 211.911 74.2475 227.161 78.5675L231.299 79.7404L247.553 79.8376L263.807 79.9348L265.933 77.6776C267.101 76.4356 269.006 74.4073 270.164 73.1697L272.27 70.9189L154.585 70.9427C89.8582 70.9557 36.5623 71.1025 36.1498 71.2689ZM345.928 71.5799C347.168 73.8976 353.942 74.0337 366.66 71.9968C369.036 71.6166 371.546 71.2451 372.239 71.1695C372.933 71.0961 367.217 71.0097 359.536 70.9773C346.103 70.9211 345.587 70.9449 345.928 71.5799ZM381.348 71.3142C385.05 72.1869 388.748 74.7832 390.99 78.088L392.219 79.9002L606.863 79.911L821.506 79.9197L821.604 105.148L821.701 130.375L823.044 131.608C825.289 133.663 828.684 133.185 830.006 130.628C830.462 129.749 830.533 125.604 830.509 101.675L830.481 73.7464L829.267 72.4223L828.055 71.1004L604.018 71.0464C471.375 71.014 380.538 71.122 381.348 71.3142ZM118.979 120.398C111.795 122.269 101.306 126.772 100.36 128.392C98.3686 131.801 97.4117 140.803 98.4593 146.281C98.7574 147.832 98.9993 149.15 98.9993 149.206C98.9993 149.299 94.8975 151.701 91.4393 153.632C78.6348 160.79 79.2072 159.904 78.9416 172.879C78.8184 178.923 78.6283 181.876 78.3497 182.081C78.1251 182.245 75.6713 183.407 72.9 184.662C64.3097 188.546 63.6315 189.68 61.5363 203.638C61.0589 206.8 60.57 209.961 60.0696 213.12C59.0004 219.816 58.8147 224.015 59.5383 225.05C60.4757 226.387 60.3137 226.657 56.1557 230.692L52.1921 234.539L52.1964 238.163C52.2029 245.047 54.7863 258.67 57.2919 265.034C57.8945 266.567 71.9885 274.643 77.9544 276.875C79.5723 277.482 80.0863 277.896 80.8661 279.225C81.6804 280.614 82.296 281.082 85.2768 282.581C87.1698 283.535 89.0443 284.524 90.8993 285.549C97.416 289.243 113.601 296.755 115.484 296.963L117.448 297.179L118.863 300.959C119.64 303.039 120.707 305.927 121.234 307.376C122.768 311.603 125.023 312.899 129.609 312.193C131.434 311.912 131.764 311.981 134.05 313.109C136.581 314.359 142.532 316.966 147.96 319.206C151.785 320.785 152.513 321.379 162 330.663C172.664 341.1 176.783 344.653 179.729 345.956L181.315 346.658L181.827 354.498C182.775 368.999 182.386 378.818 180.68 383.471C179.665 386.235 175.083 388.894 173.102 387.868C171.841 387.218 169.897 387.419 169.186 388.277C168.942 388.57 166.13 390.862 162.94 393.368C141.18 410.451 142.122 409.105 146.934 416.244L149.053 419.387L147.984 421.283C141.279 433.181 137.1 451.258 139.482 458.051L140.098 459.803L136.225 466.512C129.712 477.795 125.999 484.466 125.999 484.882C125.999 485.606 125.446 485.297 123.861 483.681C119.534 479.271 115.519 482.64 111.955 493.676L111.177 496.08H42.4807V452.068L38.07 452.327C35.6443 452.472 33.6226 452.623 33.5794 452.664C33.1042 453.111 33.5211 501.955 34.0071 502.895C35.1994 505.197 33.0869 505.078 72.7488 505.078H108.814L108.592 506.428C108.367 507.896 108.163 509.366 107.978 510.839C107.376 515.554 107.477 515.349 105.03 516.818C103.792 517.561 99.6905 520.235 95.917 522.76C85.3027 529.86 84.294 531.242 87.9595 533.675C92.2126 536.498 94.9796 536.798 116.126 536.729C125.021 536.699 133.855 536.707 135.756 536.746C139.296 536.817 140.4 536.439 140.4 535.152C140.4 532.692 149.083 520.021 151.636 518.753C153.546 517.743 155.441 516.704 157.319 515.636C159.795 514.243 165.32 511.299 169.599 509.092L177.379 505.078H266.365L267.421 506.61C275.748 518.669 295.227 522.907 317.46 517.498L321.421 516.535L322.566 517.377C323.197 517.84 324.009 518.786 324.372 519.479C325.357 521.365 331.621 528.046 335.666 531.53L339.232 534.599L348.987 534.597C354.35 534.595 361.331 534.441 364.5 534.256C367.669 534.072 373.546 533.809 377.562 533.67L384.862 533.42L385.618 532.357C388.154 528.797 387.714 528.249 374.399 518.41L364.139 510.826L363.172 508.223C362.64 506.791 362.195 505.497 362.182 505.348C362.169 505.202 466.819 505.078 594.739 505.078C801.924 505.078 827.431 505.02 828.371 504.534C830.829 503.262 830.667 505.415 830.585 475.074L830.52 450.288L829.323 449.091C827.109 446.875 823.854 447.206 822.245 449.811C821.539 450.955 821.519 451.554 821.519 473.532V496.08H591.479C464.957 496.08 361.448 495.957 361.459 495.81C361.47 495.661 363.861 493.728 366.77 491.511C389.502 474.208 405.443 456.059 415.843 435.65C417.175 433.033 418.544 430.436 419.949 427.858C422.358 423.534 424.904 416.689 426.794 409.462C426.926 408.952 437.018 408.714 479.881 408.2C497.997 407.984 512.922 407.701 513.045 407.574C513.171 407.444 515.076 403.889 517.283 399.671L521.292 392L520.787 354.2C520.508 333.41 520.223 316.346 520.152 316.279C520.078 316.215 506.695 316.04 490.411 315.895L460.799 315.632V350.228L462.689 350.431C463.73 350.544 467.091 350.919 470.161 351.267L475.74 351.9L475.606 356.939C475.377 365.618 475.006 372.554 474.757 372.802C474.507 373.053 467.618 372.679 453.19 371.632L444.677 371.016L444.461 361.998C444.26 353.531 443.47 291.081 443.381 276.479L443.34 269.82L451.44 269.401C469.58 268.461 474.289 268.248 474.397 268.358C474.526 268.485 475.861 277.987 476.803 285.48C477.14 288.152 477.561 290.703 477.74 291.15L478.064 291.96H519.076L519.273 290.429C519.381 289.588 519.718 284.767 520.022 279.719C520.327 274.669 520.891 265.437 521.277 259.199C521.662 252.961 522.057 246.481 522.156 244.799L522.333 241.74L516.378 236.88C514.118 235.027 511.846 233.189 509.561 231.366C508.706 230.72 478.622 230.912 456.916 231.703L451.051 231.917L449.027 234.668C438.391 249.138 421.829 258.832 401.356 262.571L396.9 263.386V281.002C396.9 290.692 397.023 319.111 397.172 344.159L397.442 389.7L395.6 390.78C381.735 398.899 388.943 412.119 404.562 407.218L406.821 406.509L408.493 407.643C411.335 409.574 411.355 410.524 408.726 418.285C401.322 440.151 384.199 461.701 358.968 480.912C355.91 483.241 355.443 483.478 353.929 483.478H352.259L350.136 479.428C345.004 469.648 334.599 452.839 326.923 441.922C325.301 439.633 323.696 437.332 322.108 435.019C321.916 434.706 322.402 434.408 323.747 434.017C331.936 431.636 349.849 414.929 351.57 408.066C351.797 407.159 351.922 407.099 353.119 407.31C359.895 408.509 362.033 407.995 362.992 404.945C364.852 399.029 364.556 399.39 370.768 395.452C380.843 389.063 381.616 387.89 380.918 380.025C380.687 377.427 380.344 371.655 380.154 367.199C379.963 362.745 379.57 357.641 379.281 355.859C378.698 352.293 379.004 352.723 374.032 348.481C372.989 347.593 370.749 345.163 369.051 343.081C363.219 335.929 362.347 335.046 359.584 333.482C357.739 332.435 355.898 331.383 354.061 330.324C350.045 328.006 344.771 326.332 343.079 326.84C341.937 327.181 328.553 334.668 324.179 337.411C321.287 339.225 319.645 340.605 319.3 341.513C318.989 342.333 318.848 342.359 314.913 342.359C307.359 342.359 306.552 343.791 307.971 354.671C308.262 356.909 308.584 360.035 308.686 361.618C308.813 363.586 309.074 364.761 309.506 365.324C310.077 366.07 317.412 369.616 323.024 371.861C325.041 372.668 325.089 372.716 324.544 373.457C322.486 376.256 322.235 377.315 322.963 380.151C323.384 381.79 312.82 382.874 308.519 381.632C306.193 380.963 299.175 374.239 293.455 367.199C285.509 357.417 276.597 348.608 272.514 346.496C271.994 346.228 267.661 344.779 262.883 343.277C242.996 337.028 232.675 332.374 222.75 325.179L221.039 323.939V317.712L221.921 319.01C229.623 330.345 270.078 336.262 311.442 332.104C332.841 329.952 338.057 326.617 344.894 310.728C345.499 309.32 345.861 308.875 346.287 309.022C346.602 309.13 348.317 309.728 350.099 310.352C367.928 316.586 384.919 303.075 384.996 282.599C385.048 269.142 378.086 259.761 368.515 260.39C365.753 260.571 365.697 260.56 365.926 259.798C366.055 259.37 366.336 257.804 366.552 256.32C366.768 254.834 367.135 253.376 367.369 253.08C368.453 251.698 373.825 238.308 375.272 233.383C375.959 231.048 376.853 228.087 377.261 226.799C382.594 210.003 375.002 183.932 359.074 164.339C351.16 154.606 351.451 154.91 346.192 150.964C330.255 139.015 314.47 131.96 298.799 129.783C285.859 127.986 284.55 127.975 274.536 129.608C256.189 132.6 240.6 137.907 230.04 144.754C228.357 145.847 225.696 147.53 224.128 148.493C215.475 153.815 204.122 165.397 200.509 172.588C199.921 173.756 199.439 174.551 199.439 174.35C199.439 173.778 196.005 169.389 193.378 166.602C189.093 162.06 170.655 148.018 165.566 145.422C163.249 144.24 160.188 144.709 155.98 146.89C154.861 147.471 153.924 147.908 153.898 147.862L152.829 145.979C149.494 140.089 131.177 121.368 127.31 119.899C125.719 119.294 122.476 119.489 118.979 120.398ZM517.041 148.644C505.533 152.932 504.509 177.763 515.627 183.006C525.524 187.671 533.9 180.66 534.49 167.22C535.086 153.655 526.921 144.966 517.041 148.644ZM468.001 161.602C468.001 173.698 468.048 174.681 468.755 176.992C471.528 186.06 484.784 186.872 488.84 178.223L489.78 176.219L489.882 162.449L489.985 148.679H484.961L484.851 161.73C484.715 177.832 484.183 179.433 478.98 179.433C473.818 179.433 473.25 177.709 473.103 161.55L472.984 148.679H468.001V161.602ZM551.161 154.98V161.28H555.455L555.559 157.41L555.66 153.539L558.274 153.433L560.889 153.327L560.794 166.034L560.699 178.74L557.911 178.845L555.12 178.949V183.6H571.681V178.949L568.89 178.845L566.099 178.74V153.539H571.141L571.242 157.41L571.344 161.28H576.001V148.679H551.161V154.98ZM592.92 154.98V161.28H597.959V153.36H603.001V178.919H597.24V183.6H613.801V178.949L611.01 178.845L608.219 178.74V153.539L610.649 153.433L613.079 153.327V161.28H618.121V148.679H592.92V154.98ZM644.648 148.936C644.503 149.173 641.455 158.87 639.012 166.86C638.649 168.048 637.364 172.177 636.157 176.04C634.949 179.899 633.962 183.18 633.96 183.33C633.96 183.818 639.371 183.643 639.509 183.15C639.58 182.902 640.114 181.079 640.697 179.1L641.758 175.5L647.736 175.4L653.715 175.303L655.009 179.45L656.305 183.6H658.992C662.01 183.6 661.951 183.682 661.003 180.798C659.828 177.225 658.813 173.983 655.56 163.44C653.819 157.796 652.067 152.208 651.663 151.02L650.933 148.86L647.877 148.757C646.194 148.698 644.743 148.78 644.648 148.936ZM676.255 150.569C676.387 151.61 676.801 154.403 677.173 156.779C677.547 159.155 678.188 163.287 678.601 165.959C679.011 168.633 679.655 172.763 680.031 175.139C680.407 177.515 680.823 180.392 680.957 181.53L681.204 183.6H684.035C686.686 183.6 686.876 183.548 687.02 182.79C687.252 181.584 688.548 175.201 689.252 171.804C690.042 167.976 690.04 167.972 691.749 176.333L693.196 183.42L695.978 183.524C697.507 183.582 698.76 183.52 698.76 183.386C698.76 183.25 699.08 181.178 699.471 178.781C699.862 176.381 700.52 172.231 700.933 169.56C701.346 166.885 701.914 163.321 702.192 161.639C702.471 159.956 702.94 156.878 703.233 154.8C703.529 152.72 703.879 150.487 704.013 149.834L704.257 148.649L701.419 148.754L698.583 148.86L698.313 151.02C698.164 152.208 697.73 155.366 697.345 158.04C696.963 160.712 696.369 164.883 696.028 167.309C695.36 172.05 695.021 172.711 694.643 170.009C694.44 168.551 693.313 162.213 692.783 159.554C692.628 158.773 692.479 158.734 690.032 158.833L687.446 158.939L686.982 161.46C685.305 170.579 684.349 173.966 684.366 170.73C684.368 170.186 684.048 167.471 683.655 164.7L682.21 154.541C681.808 151.724 681.48 149.256 681.48 149.05C681.48 148.828 680.385 148.679 678.745 148.679H676.013L676.255 150.569ZM728.639 150.21C728.425 151.051 727.939 152.629 727.559 153.72C727.179 154.809 725.881 158.939 724.671 162.9C721.192 174.299 719.267 180.431 718.714 181.897C718.431 182.643 718.2 183.332 718.2 183.427C718.2 183.522 719.47 183.6 721.023 183.6H723.846L724.287 182.07C724.529 181.228 725.071 179.366 725.492 177.93L726.257 175.32H738.247L739.23 178.649C740.813 184.012 740.448 183.6 743.597 183.6C746.269 183.6 746.323 183.582 746.064 182.79C745.807 182.003 743.245 173.821 739.217 160.92C738.252 157.832 737.294 154.741 736.344 151.649L735.437 148.679H729.028L728.639 150.21ZM524.701 153.688C530.714 157.032 530.814 174.495 524.841 178.448C520.517 181.31 515.387 178.472 513.879 172.383C510.829 160.045 516.99 149.398 524.701 153.688ZM649.028 159.321C649.629 161.434 650.54 164.522 651.966 169.261C652.123 169.793 652.16 170.318 652.048 170.432C651.737 170.743 643.319 170.683 643.321 170.37C643.321 170.22 643.896 168.235 644.596 165.959L646.795 158.788C647.832 155.396 647.92 155.418 649.028 159.321ZM733.99 161.194C734.854 164.112 735.785 167.216 736.059 168.093C736.891 170.739 737.04 170.64 732.24 170.64C729.644 170.64 727.92 170.497 727.92 170.285C727.92 169.94 728.743 167.05 730.665 160.65C731.186 158.917 731.691 157.135 731.789 156.69C732.106 155.224 732.402 155.828 733.99 161.194ZM267.121 166.879C272.201 168.916 276.579 173.227 280.046 179.61C283.018 185.083 282.887 184.967 290.615 188.773C301.044 193.909 305.273 195.486 317.192 198.683L321.365 199.802L323.311 199.117C324.647 198.632 325.964 198.094 327.257 197.503C337.321 192.821 347.68 196.553 352.467 206.591C361.774 226.11 355.512 286.178 342.872 298.635C337.157 304.266 330.484 305.283 323.531 301.589C319.496 299.444 316.999 295.874 312.109 285.271C309.439 279.473 306.696 274.401 305.115 272.326C304.426 271.425 303.409 270.889 300.175 269.725C296.171 268.269 292.173 266.797 288.181 265.308C283.824 263.686 276.128 261.15 271.08 259.677C266.884 258.458 262.698 257.207 258.522 255.923L255.146 254.851L252.277 255.806C250.7 256.331 247.24 257.877 244.585 259.24L234.857 264.237C220.99 271.358 209.272 269.433 203.954 259.158L202.906 257.139L203.509 254.4C204.196 251.272 204.025 250.462 202.349 248.89L201.247 247.859L201.766 244.44C202.893 236.992 205.608 229.508 211.233 218.339C221.331 198.288 234.6 179.945 244.009 173.026C244.583 172.605 246.089 171.473 247.357 170.512C253.327 165.98 261.246 164.525 267.121 166.879ZM248.547 203.551C238.019 208.135 238.341 236.99 248.966 241.049C251.392 241.976 255.571 241.129 253.722 240.086C251.882 239.047 248.415 233.314 247.497 229.789C244.78 219.356 253.545 216.905 260.321 226.203L261.33 227.586L261.572 226.625C261.973 225.017 261.472 216.33 260.842 214.019C258.578 205.727 253.495 201.398 248.547 203.551ZM325.765 228.562C320.792 230.154 314.805 235.964 311.539 242.369C310.539 244.332 310.552 244.339 313.2 243.306C317.429 241.658 322.708 242.323 324.266 244.702C326.946 248.79 320.077 256.674 312.25 258.497C309.314 259.18 309.37 259.109 310.684 260.465C317.211 267.198 332.29 255.018 335.362 240.531C337.284 231.461 333.083 226.221 325.765 228.562ZM545.633 235.515C545.521 237.949 545.257 270.395 545.046 307.62C544.836 344.843 544.56 382.995 544.435 392.4L544.206 409.499L548.852 409.414C551.409 409.367 564.436 409.079 577.8 408.777L617.581 407.876C626.093 407.684 636.813 407.421 641.401 407.291L649.743 407.056L658.405 396.867L667.066 386.678L667.431 374.327C667.632 367.536 667.958 357.201 668.155 351.36C668.352 345.517 668.678 334.665 668.883 327.239C669.086 319.815 669.406 309.365 669.594 304.019C669.781 298.673 670.127 287.13 670.36 278.367L670.786 262.433L662.375 251.292L653.964 240.153L652.152 239.96C649.579 239.688 627.636 237.85 619.741 237.243C616.079 236.957 612.419 236.657 608.759 236.344C598.86 235.493 589.985 234.757 582.8 234.193C579.159 233.908 573.182 233.422 569.521 233.115L556.379 232.016C552.815 231.72 548.986 231.389 547.867 231.284L545.834 231.091L545.633 235.515ZM698.412 233.524C697.775 234.874 696.278 238.168 695.086 240.839L692.922 245.699L693.41 323.636L693.9 401.573L701.46 405.6L709.02 409.628L759.061 409.27C786.581 409.073 809.203 408.801 809.328 408.665C809.626 408.345 811.78 404.276 815.007 397.934L817.595 392.849L817.223 380.833C816.512 357.864 816.486 357.49 815.62 357.302C815.201 357.211 811.054 356.892 806.399 356.592C798.954 356.11 791.726 355.607 778.795 354.669L775.131 354.403L774.76 356.57C774.557 357.764 774.055 360.927 773.645 363.599C773.237 366.273 772.533 370.727 772.083 373.5L771.267 378.539L768.403 378.423C765.286 378.255 762.172 378.045 759.061 377.792C755.497 377.509 750.151 377.094 747.181 376.872C744.211 376.649 741.738 376.431 741.684 376.388C741.576 376.297 741.083 352.386 740.513 319.679C740.301 307.501 739.981 290.493 739.8 281.879C739.621 273.267 739.588 266.114 739.727 265.98C739.956 265.761 755.218 266.362 766.418 267.032L770.895 267.299L771.511 271.44C771.85 273.717 772.485 277.929 772.924 280.799C773.36 283.67 773.909 287.396 774.14 289.079L774.561 292.139L795.701 292.232L816.841 292.325L816.845 290.792C816.849 289.949 817.091 285.696 817.385 281.339C818.033 271.714 819.303 252.37 819.593 247.68L819.802 244.259L814.452 239.548C812.236 237.595 810.018 235.646 807.797 233.701L806.494 232.567L768.556 232.042C747.693 231.752 723.635 231.415 715.096 231.29L699.572 231.068L698.412 233.524ZM608.399 279.166C617.758 281.834 625.497 284.096 625.594 284.195C625.694 284.292 625.512 297.218 625.19 312.916C624.869 328.615 624.499 347.081 624.37 353.952L624.132 366.443L622.296 366.83C621.287 367.044 616.49 368.1 611.641 369.178C598.201 372.167 593.108 373.269 593.052 373.202C593.024 373.167 592.821 362.041 592.596 348.479C592.011 312.718 591.523 286.862 591.311 280.169C591.207 276.952 591.181 274.319 591.252 274.319C591.322 274.319 599.039 276.501 608.399 279.166ZM241.294 360.49C244.195 363.18 244.417 368.374 241.743 371.048C238.978 373.813 235.44 370.66 235.44 365.43C235.44 360.648 238.594 357.987 241.294 360.49ZM253.439 363.797C254.925 364.089 257.047 364.501 258.152 364.713L260.168 365.095L260.403 373.437C260.533 378.025 260.639 383.544 260.639 385.702L260.641 389.622L258.211 389.398C256.874 389.274 254.359 389.065 252.623 388.933C248.78 388.639 249.217 390.296 248.972 375.04L248.778 362.901L249.759 363.084C250.299 363.184 251.955 363.506 253.439 363.797ZM170.994 407.894C166.499 418.106 158.602 431.911 157.935 430.721C156.667 428.453 159.272 415.918 161.378 414.162C162.017 413.628 164.7 411.172 167.34 408.704C169.979 406.237 172.212 404.291 172.303 404.382C172.392 404.472 171.804 406.053 170.994 407.894ZM151.93 432.291C151.934 432.824 152.321 434.382 152.79 435.755L153.639 438.25L149.863 443.855C146.249 449.221 146.098 449.389 146.323 447.838C147.338 440.814 151.889 428.191 151.93 432.291ZM244.493 468.06C246.113 469.592 252.115 473.486 256.589 475.908L260.224 477.875L260.433 481.308C260.611 484.262 261.665 491.969 262.317 495.088L262.524 496.08H229.722C211.68 496.08 196.921 495.955 196.921 495.799C196.921 495.646 199.876 493.911 203.489 491.946C213.527 486.483 216.385 484.794 223.02 480.411C226.385 478.189 230.632 475.534 232.455 474.51C234.278 473.488 237.436 471.376 239.475 469.814C241.512 468.255 243.203 466.965 243.231 466.95C243.261 466.933 243.827 467.434 244.493 468.06ZM278.035 486.857C283.684 489.971 292.68 495.469 292.68 495.806C292.68 495.957 288.965 496.08 284.427 496.08H276.171L275.396 494.008C274.674 492.086 273.24 486.116 273.24 485.034C273.24 484.278 273.631 484.427 278.035 486.857ZM307.275 505.463C308.161 506.895 294.224 507.053 289.801 505.659C288.308 505.191 288.924 505.148 297.609 505.115C303.936 505.091 307.115 505.206 307.275 505.463Z"/>
</mask>
<path d="M36.1498 71.2689C35.7394 71.4352 34.9769 72.0745 34.4607 72.6901L33.5189 73.809L33.4908 101.705C33.4671 125.606 33.5383 129.749 33.9941 130.628C35.316 133.185 38.7115 133.663 40.9558 131.608L42.2993 130.375L42.3965 105.144L42.4937 79.9153H111.158L179.82 79.9175L183.06 78.8202C196.307 74.3382 211.911 74.2475 227.161 78.5675L231.299 79.7404L247.553 79.8376L263.807 79.9348L265.933 77.6776C267.101 76.4356 269.006 74.4073 270.164 73.1697L272.27 70.9189L154.585 70.9427C89.8582 70.9557 36.5623 71.1025 36.1498 71.2689ZM345.928 71.5799C347.168 73.8976 353.942 74.0337 366.66 71.9968C369.036 71.6166 371.546 71.2451 372.239 71.1695C372.933 71.0961 367.217 71.0097 359.536 70.9773C346.103 70.9211 345.587 70.9449 345.928 71.5799ZM381.348 71.3142C385.05 72.1869 388.748 74.7832 390.99 78.088L392.219 79.9002L606.863 79.911L821.506 79.9197L821.604 105.148L821.701 130.375L823.044 131.608C825.289 133.663 828.684 133.185 830.006 130.628C830.462 129.749 830.533 125.604 830.509 101.675L830.481 73.7464L829.267 72.4223L828.055 71.1004L604.018 71.0464C471.375 71.014 380.538 71.122 381.348 71.3142ZM118.979 120.398C111.795 122.269 101.306 126.772 100.36 128.392C98.3686 131.801 97.4117 140.803 98.4593 146.281C98.7574 147.832 98.9993 149.15 98.9993 149.206C98.9993 149.299 94.8975 151.701 91.4393 153.632C78.6348 160.79 79.2072 159.904 78.9416 172.879C78.8184 178.923 78.6283 181.876 78.3497 182.081C78.1251 182.245 75.6713 183.407 72.9 184.662C64.3097 188.546 63.6315 189.68 61.5363 203.638C61.0589 206.8 60.57 209.961 60.0696 213.12C59.0004 219.816 58.8147 224.015 59.5383 225.05C60.4757 226.387 60.3137 226.657 56.1557 230.692L52.1921 234.539L52.1964 238.163C52.2029 245.047 54.7863 258.67 57.2919 265.034C57.8945 266.567 71.9885 274.643 77.9544 276.875C79.5723 277.482 80.0863 277.896 80.8661 279.225C81.6804 280.614 82.296 281.082 85.2768 282.581C87.1698 283.535 89.0443 284.524 90.8993 285.549C97.416 289.243 113.601 296.755 115.484 296.963L117.448 297.179L118.863 300.959C119.64 303.039 120.707 305.927 121.234 307.376C122.768 311.603 125.023 312.899 129.609 312.193C131.434 311.912 131.764 311.981 134.05 313.109C136.581 314.359 142.532 316.966 147.96 319.206C151.785 320.785 152.513 321.379 162 330.663C172.664 341.1 176.783 344.653 179.729 345.956L181.315 346.658L181.827 354.498C182.775 368.999 182.386 378.818 180.68 383.471C179.665 386.235 175.083 388.894 173.102 387.868C171.841 387.218 169.897 387.419 169.186 388.277C168.942 388.57 166.13 390.862 162.94 393.368C141.18 410.451 142.122 409.105 146.934 416.244L149.053 419.387L147.984 421.283C141.279 433.181 137.1 451.258 139.482 458.051L140.098 459.803L136.225 466.512C129.712 477.795 125.999 484.466 125.999 484.882C125.999 485.606 125.446 485.297 123.861 483.681C119.534 479.271 115.519 482.64 111.955 493.676L111.177 496.08H42.4807V452.068L38.07 452.327C35.6443 452.472 33.6226 452.623 33.5794 452.664C33.1042 453.111 33.5211 501.955 34.0071 502.895C35.1994 505.197 33.0869 505.078 72.7488 505.078H108.814L108.592 506.428C108.367 507.896 108.163 509.366 107.978 510.839C107.376 515.554 107.477 515.349 105.03 516.818C103.792 517.561 99.6905 520.235 95.917 522.76C85.3027 529.86 84.294 531.242 87.9595 533.675C92.2126 536.498 94.9796 536.798 116.126 536.729C125.021 536.699 133.855 536.707 135.756 536.746C139.296 536.817 140.4 536.439 140.4 535.152C140.4 532.692 149.083 520.021 151.636 518.753C153.546 517.743 155.441 516.704 157.319 515.636C159.795 514.243 165.32 511.299 169.599 509.092L177.379 505.078H266.365L267.421 506.61C275.748 518.669 295.227 522.907 317.46 517.498L321.421 516.535L322.566 517.377C323.197 517.84 324.009 518.786 324.372 519.479C325.357 521.365 331.621 528.046 335.666 531.53L339.232 534.599L348.987 534.597C354.35 534.595 361.331 534.441 364.5 534.256C367.669 534.072 373.546 533.809 377.562 533.67L384.862 533.42L385.618 532.357C388.154 528.797 387.714 528.249 374.399 518.41L364.139 510.826L363.172 508.223C362.64 506.791 362.195 505.497 362.182 505.348C362.169 505.202 466.819 505.078 594.739 505.078C801.924 505.078 827.431 505.02 828.371 504.534C830.829 503.262 830.667 505.415 830.585 475.074L830.52 450.288L829.323 449.091C827.109 446.875 823.854 447.206 822.245 449.811C821.539 450.955 821.519 451.554 821.519 473.532V496.08H591.479C464.957 496.08 361.448 495.957 361.459 495.81C361.47 495.661 363.861 493.728 366.77 491.511C389.502 474.208 405.443 456.059 415.843 435.65C417.175 433.033 418.544 430.436 419.949 427.858C422.358 423.534 424.904 416.689 426.794 409.462C426.926 408.952 437.018 408.714 479.881 408.2C497.997 407.984 512.922 407.701 513.045 407.574C513.171 407.444 515.076 403.889 517.283 399.671L521.292 392L520.787 354.2C520.508 333.41 520.223 316.346 520.152 316.279C520.078 316.215 506.695 316.04 490.411 315.895L460.799 315.632V350.228L462.689 350.431C463.73 350.544 467.091 350.919 470.161 351.267L475.74 351.9L475.606 356.939C475.377 365.618 475.006 372.554 474.757 372.802C474.507 373.053 467.618 372.679 453.19 371.632L444.677 371.016L444.461 361.998C444.26 353.531 443.47 291.081 443.381 276.479L443.34 269.82L451.44 269.401C469.58 268.461 474.289 268.248 474.397 268.358C474.526 268.485 475.861 277.987 476.803 285.48C477.14 288.152 477.561 290.703 477.74 291.15L478.064 291.96H519.076L519.273 290.429C519.381 289.588 519.718 284.767 520.022 279.719C520.327 274.669 520.891 265.437 521.277 259.199C521.662 252.961 522.057 246.481 522.156 244.799L522.333 241.74L516.378 236.88C514.118 235.027 511.846 233.189 509.561 231.366C508.706 230.72 478.622 230.912 456.916 231.703L451.051 231.917L449.027 234.668C438.391 249.138 421.829 258.832 401.356 262.571L396.9 263.386V281.002C396.9 290.692 397.023 319.111 397.172 344.159L397.442 389.7L395.6 390.78C381.735 398.899 388.943 412.119 404.562 407.218L406.821 406.509L408.493 407.643C411.335 409.574 411.355 410.524 408.726 418.285C401.322 440.151 384.199 461.701 358.968 480.912C355.91 483.241 355.443 483.478 353.929 483.478H352.259L350.136 479.428C345.004 469.648 334.599 452.839 326.923 441.922C325.301 439.633 323.696 437.332 322.108 435.019C321.916 434.706 322.402 434.408 323.747 434.017C331.936 431.636 349.849 414.929 351.57 408.066C351.797 407.159 351.922 407.099 353.119 407.31C359.895 408.509 362.033 407.995 362.992 404.945C364.852 399.029 364.556 399.39 370.768 395.452C380.843 389.063 381.616 387.89 380.918 380.025C380.687 377.427 380.344 371.655 380.154 367.199C379.963 362.745 379.57 357.641 379.281 355.859C378.698 352.293 379.004 352.723 374.032 348.481C372.989 347.593 370.749 345.163 369.051 343.081C363.219 335.929 362.347 335.046 359.584 333.482C357.739 332.435 355.898 331.383 354.061 330.324C350.045 328.006 344.771 326.332 343.079 326.84C341.937 327.181 328.553 334.668 324.179 337.411C321.287 339.225 319.645 340.605 319.3 341.513C318.989 342.333 318.848 342.359 314.913 342.359C307.359 342.359 306.552 343.791 307.971 354.671C308.262 356.909 308.584 360.035 308.686 361.618C308.813 363.586 309.074 364.761 309.506 365.324C310.077 366.07 317.412 369.616 323.024 371.861C325.041 372.668 325.089 372.716 324.544 373.457C322.486 376.256 322.235 377.315 322.963 380.151C323.384 381.79 312.82 382.874 308.519 381.632C306.193 380.963 299.175 374.239 293.455 367.199C285.509 357.417 276.597 348.608 272.514 346.496C271.994 346.228 267.661 344.779 262.883 343.277C242.996 337.028 232.675 332.374 222.75 325.179L221.039 323.939V317.712L221.921 319.01C229.623 330.345 270.078 336.262 311.442 332.104C332.841 329.952 338.057 326.617 344.894 310.728C345.499 309.32 345.861 308.875 346.287 309.022C346.602 309.13 348.317 309.728 350.099 310.352C367.928 316.586 384.919 303.075 384.996 282.599C385.048 269.142 378.086 259.761 368.515 260.39C365.753 260.571 365.697 260.56 365.926 259.798C366.055 259.37 366.336 257.804 366.552 256.32C366.768 254.834 367.135 253.376 367.369 253.08C368.453 251.698 373.825 238.308 375.272 233.383C375.959 231.048 376.853 228.087 377.261 226.799C382.594 210.003 375.002 183.932 359.074 164.339C351.16 154.606 351.451 154.91 346.192 150.964C330.255 139.015 314.47 131.96 298.799 129.783C285.859 127.986 284.55 127.975 274.536 129.608C256.189 132.6 240.6 137.907 230.04 144.754C228.357 145.847 225.696 147.53 224.128 148.493C215.475 153.815 204.122 165.397 200.509 172.588C199.921 173.756 199.439 174.551 199.439 174.35C199.439 173.778 196.005 169.389 193.378 166.602C189.093 162.06 170.655 148.018 165.566 145.422C163.249 144.24 160.188 144.709 155.98 146.89C154.861 147.471 153.924 147.908 153.898 147.862L152.829 145.979C149.494 140.089 131.177 121.368 127.31 119.899C125.719 119.294 122.476 119.489 118.979 120.398ZM517.041 148.644C505.533 152.932 504.509 177.763 515.627 183.006C525.524 187.671 533.9 180.66 534.49 167.22C535.086 153.655 526.921 144.966 517.041 148.644ZM468.001 161.602C468.001 173.698 468.048 174.681 468.755 176.992C471.528 186.06 484.784 186.872 488.84 178.223L489.78 176.219L489.882 162.449L489.985 148.679H484.961L484.851 161.73C484.715 177.832 484.183 179.433 478.98 179.433C473.818 179.433 473.25 177.709 473.103 161.55L472.984 148.679H468.001V161.602ZM551.161 154.98V161.28H555.455L555.559 157.41L555.66 153.539L558.274 153.433L560.889 153.327L560.794 166.034L560.699 178.74L557.911 178.845L555.12 178.949V183.6H571.681V178.949L568.89 178.845L566.099 178.74V153.539H571.141L571.242 157.41L571.344 161.28H576.001V148.679H551.161V154.98ZM592.92 154.98V161.28H597.959V153.36H603.001V178.919H597.24V183.6H613.801V178.949L611.01 178.845L608.219 178.74V153.539L610.649 153.433L613.079 153.327V161.28H618.121V148.679H592.92V154.98ZM644.648 148.936C644.503 149.173 641.455 158.87 639.012 166.86C638.649 168.048 637.364 172.177 636.157 176.04C634.949 179.899 633.962 183.18 633.96 183.33C633.96 183.818 639.371 183.643 639.509 183.15C639.58 182.902 640.114 181.079 640.697 179.1L641.758 175.5L647.736 175.4L653.715 175.303L655.009 179.45L656.305 183.6H658.992C662.01 183.6 661.951 183.682 661.003 180.798C659.828 177.225 658.813 173.983 655.56 163.44C653.819 157.796 652.067 152.208 651.663 151.02L650.933 148.86L647.877 148.757C646.194 148.698 644.743 148.78 644.648 148.936ZM676.255 150.569C676.387 151.61 676.801 154.403 677.173 156.779C677.547 159.155 678.188 163.287 678.601 165.959C679.011 168.633 679.655 172.763 680.031 175.139C680.407 177.515 680.823 180.392 680.957 181.53L681.204 183.6H684.035C686.686 183.6 686.876 183.548 687.02 182.79C687.252 181.584 688.548 175.201 689.252 171.804C690.042 167.976 690.04 167.972 691.749 176.333L693.196 183.42L695.978 183.524C697.507 183.582 698.76 183.52 698.76 183.386C698.76 183.25 699.08 181.178 699.471 178.781C699.862 176.381 700.52 172.231 700.933 169.56C701.346 166.885 701.914 163.321 702.192 161.639C702.471 159.956 702.94 156.878 703.233 154.8C703.529 152.72 703.879 150.487 704.013 149.834L704.257 148.649L701.419 148.754L698.583 148.86L698.313 151.02C698.164 152.208 697.73 155.366 697.345 158.04C696.963 160.712 696.369 164.883 696.028 167.309C695.36 172.05 695.021 172.711 694.643 170.009C694.44 168.551 693.313 162.213 692.783 159.554C692.628 158.773 692.479 158.734 690.032 158.833L687.446 158.939L686.982 161.46C685.305 170.579 684.349 173.966 684.366 170.73C684.368 170.186 684.048 167.471 683.655 164.7L682.21 154.541C681.808 151.724 681.48 149.256 681.48 149.05C681.48 148.828 680.385 148.679 678.745 148.679H676.013L676.255 150.569ZM728.639 150.21C728.425 151.051 727.939 152.629 727.559 153.72C727.179 154.809 725.881 158.939 724.671 162.9C721.192 174.299 719.267 180.431 718.714 181.897C718.431 182.643 718.2 183.332 718.2 183.427C718.2 183.522 719.47 183.6 721.023 183.6H723.846L724.287 182.07C724.529 181.228 725.071 179.366 725.492 177.93L726.257 175.32H738.247L739.23 178.649C740.813 184.012 740.448 183.6 743.597 183.6C746.269 183.6 746.323 183.582 746.064 182.79C745.807 182.003 743.245 173.821 739.217 160.92C738.252 157.832 737.294 154.741 736.344 151.649L735.437 148.679H729.028L728.639 150.21ZM524.701 153.688C530.714 157.032 530.814 174.495 524.841 178.448C520.517 181.31 515.387 178.472 513.879 172.383C510.829 160.045 516.99 149.398 524.701 153.688ZM649.028 159.321C649.629 161.434 650.54 164.522 651.966 169.261C652.123 169.793 652.16 170.318 652.048 170.432C651.737 170.743 643.319 170.683 643.321 170.37C643.321 170.22 643.896 168.235 644.596 165.959L646.795 158.788C647.832 155.396 647.92 155.418 649.028 159.321ZM733.99 161.194C734.854 164.112 735.785 167.216 736.059 168.093C736.891 170.739 737.04 170.64 732.24 170.64C729.644 170.64 727.92 170.497 727.92 170.285C727.92 169.94 728.743 167.05 730.665 160.65C731.186 158.917 731.691 157.135 731.789 156.69C732.106 155.224 732.402 155.828 733.99 161.194ZM267.121 166.879C272.201 168.916 276.579 173.227 280.046 179.61C283.018 185.083 282.887 184.967 290.615 188.773C301.044 193.909 305.273 195.486 317.192 198.683L321.365 199.802L323.311 199.117C324.647 198.632 325.964 198.094 327.257 197.503C337.321 192.821 347.68 196.553 352.467 206.591C361.774 226.11 355.512 286.178 342.872 298.635C337.157 304.266 330.484 305.283 323.531 301.589C319.496 299.444 316.999 295.874 312.109 285.271C309.439 279.473 306.696 274.401 305.115 272.326C304.426 271.425 303.409 270.889 300.175 269.725C296.171 268.269 292.173 266.797 288.181 265.308C283.824 263.686 276.128 261.15 271.08 259.677C266.884 258.458 262.698 257.207 258.522 255.923L255.146 254.851L252.277 255.806C250.7 256.331 247.24 257.877 244.585 259.24L234.857 264.237C220.99 271.358 209.272 269.433 203.954 259.158L202.906 257.139L203.509 254.4C204.196 251.272 204.025 250.462 202.349 248.89L201.247 247.859L201.766 244.44C202.893 236.992 205.608 229.508 211.233 218.339C221.331 198.288 234.6 179.945 244.009 173.026C244.583 172.605 246.089 171.473 247.357 170.512C253.327 165.98 261.246 164.525 267.121 166.879ZM248.547 203.551C238.019 208.135 238.341 236.99 248.966 241.049C251.392 241.976 255.571 241.129 253.722 240.086C251.882 239.047 248.415 233.314 247.497 229.789C244.78 219.356 253.545 216.905 260.321 226.203L261.33 227.586L261.572 226.625C261.973 225.017 261.472 216.33 260.842 214.019C258.578 205.727 253.495 201.398 248.547 203.551ZM325.765 228.562C320.792 230.154 314.805 235.964 311.539 242.369C310.539 244.332 310.552 244.339 313.2 243.306C317.429 241.658 322.708 242.323 324.266 244.702C326.946 248.79 320.077 256.674 312.25 258.497C309.314 259.18 309.37 259.109 310.684 260.465C317.211 267.198 332.29 255.018 335.362 240.531C337.284 231.461 333.083 226.221 325.765 228.562ZM545.633 235.515C545.521 237.949 545.257 270.395 545.046 307.62C544.836 344.843 544.56 382.995 544.435 392.4L544.206 409.499L548.852 409.414C551.409 409.367 564.436 409.079 577.8 408.777L617.581 407.876C626.093 407.684 636.813 407.421 641.401 407.291L649.743 407.056L658.405 396.867L667.066 386.678L667.431 374.327C667.632 367.536 667.958 357.201 668.155 351.36C668.352 345.517 668.678 334.665 668.883 327.239C669.086 319.815 669.406 309.365 669.594 304.019C669.781 298.673 670.127 287.13 670.36 278.367L670.786 262.433L662.375 251.292L653.964 240.153L652.152 239.96C649.579 239.688 627.636 237.85 619.741 237.243C616.079 236.957 612.419 236.657 608.759 236.344C598.86 235.493 589.985 234.757 582.8 234.193C579.159 233.908 573.182 233.422 569.521 233.115L556.379 232.016C552.815 231.72 548.986 231.389 547.867 231.284L545.834 231.091L545.633 235.515ZM698.412 233.524C697.775 234.874 696.278 238.168 695.086 240.839L692.922 245.699L693.41 323.636L693.9 401.573L701.46 405.6L709.02 409.628L759.061 409.27C786.581 409.073 809.203 408.801 809.328 408.665C809.626 408.345 811.78 404.276 815.007 397.934L817.595 392.849L817.223 380.833C816.512 357.864 816.486 357.49 815.62 357.302C815.201 357.211 811.054 356.892 806.399 356.592C798.954 356.11 791.726 355.607 778.795 354.669L775.131 354.403L774.76 356.57C774.557 357.764 774.055 360.927 773.645 363.599C773.237 366.273 772.533 370.727 772.083 373.5L771.267 378.539L768.403 378.423C765.286 378.255 762.172 378.045 759.061 377.792C755.497 377.509 750.151 377.094 747.181 376.872C744.211 376.649 741.738 376.431 741.684 376.388C741.576 376.297 741.083 352.386 740.513 319.679C740.301 307.501 739.981 290.493 739.8 281.879C739.621 273.267 739.588 266.114 739.727 265.98C739.956 265.761 755.218 266.362 766.418 267.032L770.895 267.299L771.511 271.44C771.85 273.717 772.485 277.929 772.924 280.799C773.36 283.67 773.909 287.396 774.14 289.079L774.561 292.139L795.701 292.232L816.841 292.325L816.845 290.792C816.849 289.949 817.091 285.696 817.385 281.339C818.033 271.714 819.303 252.37 819.593 247.68L819.802 244.259L814.452 239.548C812.236 237.595 810.018 235.646 807.797 233.701L806.494 232.567L768.556 232.042C747.693 231.752 723.635 231.415 715.096 231.29L699.572 231.068L698.412 233.524ZM608.399 279.166C617.758 281.834 625.497 284.096 625.594 284.195C625.694 284.292 625.512 297.218 625.19 312.916C624.869 328.615 624.499 347.081 624.37 353.952L624.132 366.443L622.296 366.83C621.287 367.044 616.49 368.1 611.641 369.178C598.201 372.167 593.108 373.269 593.052 373.202C593.024 373.167 592.821 362.041 592.596 348.479C592.011 312.718 591.523 286.862 591.311 280.169C591.207 276.952 591.181 274.319 591.252 274.319C591.322 274.319 599.039 276.501 608.399 279.166ZM241.294 360.49C244.195 363.18 244.417 368.374 241.743 371.048C238.978 373.813 235.44 370.66 235.44 365.43C235.44 360.648 238.594 357.987 241.294 360.49ZM253.439 363.797C254.925 364.089 257.047 364.501 258.152 364.713L260.168 365.095L260.403 373.437C260.533 378.025 260.639 383.544 260.639 385.702L260.641 389.622L258.211 389.398C256.874 389.274 254.359 389.065 252.623 388.933C248.78 388.639 249.217 390.296 248.972 375.04L248.778 362.901L249.759 363.084C250.299 363.184 251.955 363.506 253.439 363.797ZM170.994 407.894C166.499 418.106 158.602 431.911 157.935 430.721C156.667 428.453 159.272 415.918 161.378 414.162C162.017 413.628 164.7 411.172 167.34 408.704C169.979 406.237 172.212 404.291 172.303 404.382C172.392 404.472 171.804 406.053 170.994 407.894ZM151.93 432.291C151.934 432.824 152.321 434.382 152.79 435.755L153.639 438.25L149.863 443.855C146.249 449.221 146.098 449.389 146.323 447.838C147.338 440.814 151.889 428.191 151.93 432.291ZM244.493 468.06C246.113 469.592 252.115 473.486 256.589 475.908L260.224 477.875L260.433 481.308C260.611 484.262 261.665 491.969 262.317 495.088L262.524 496.08H229.722C211.68 496.08 196.921 495.955 196.921 495.799C196.921 495.646 199.876 493.911 203.489 491.946C213.527 486.483 216.385 484.794 223.02 480.411C226.385 478.189 230.632 475.534 232.455 474.51C234.278 473.488 237.436 471.376 239.475 469.814C241.512 468.255 243.203 466.965 243.231 466.95C243.261 466.933 243.827 467.434 244.493 468.06ZM278.035 486.857C283.684 489.971 292.68 495.469 292.68 495.806C292.68 495.957 288.965 496.08 284.427 496.08H276.171L275.396 494.008C274.674 492.086 273.24 486.116 273.24 485.034C273.24 484.278 273.631 484.427 278.035 486.857ZM307.275 505.463C308.161 506.895 294.224 507.053 289.801 505.659C288.308 505.191 288.924 505.148 297.609 505.115C303.936 505.091 307.115 505.206 307.275 505.463Z" stroke="white" stroke-width="20" mask="url(#path-1-inside-1_328_378)"/>
<path d="M311.22 44.6534C301.307 46.2129 274.284 66.3009 264.164 79.6324C263.711 80.2286 262.523 81.7125 261.522 82.9286C260.328 84.393 259.155 85.875 258.004 87.3738C255.775 90.3006 256.058 90.238 252.723 88.5597C250.025 87.2054 237.171 81.719 236.689 81.719C236.572 81.719 235.635 81.3345 234.609 80.8615C228.816 78.2025 212.579 75.2368 203.829 75.2411C192.292 75.2476 177.624 79.5007 169.746 85.1231C156.775 94.3787 151.617 116.149 156.469 141.156L157.419 146.054L159.562 145.387C163.584 144.134 164.43 144.389 170.679 148.707C180.185 155.276 189.972 162.993 193.379 166.603C196.005 169.389 199.44 173.778 199.44 174.35C199.44 174.551 199.921 173.756 200.509 172.588C204.123 165.397 215.476 153.815 224.129 148.493C225.697 147.53 228.358 145.847 230.04 144.754C240.601 137.907 256.189 132.6 274.536 129.608C284.55 127.975 285.859 127.986 298.8 129.783C314.471 131.961 330.256 139.015 346.192 150.964C351.452 154.91 351.16 154.606 359.075 164.339C375.002 183.932 382.595 210.003 377.262 226.8C376.854 228.087 375.959 231.048 375.272 233.383C373.825 238.308 368.453 251.698 367.369 253.08C367.136 253.376 366.768 254.834 366.552 256.32C366.336 257.804 366.062 259.346 365.941 259.744C365.732 260.435 365.879 260.47 369.071 260.465C372.92 260.459 375.331 261.329 377.908 263.658C379.61 265.196 379.623 265.198 388.103 264.409C416.338 261.787 436.23 252.078 449.023 234.675C465.571 212.166 457.802 188.982 427.68 170.994C419.494 166.106 402.94 158.496 394.831 155.898C394.088 155.658 393.481 155.403 393.481 155.33C393.481 155.256 393.797 153.528 394.181 151.487C395.114 146.547 396.002 140.102 397.246 129.239C398.497 118.327 398.343 101.494 396.931 94.437C392.93 74.4765 385.211 68.4587 367.887 71.7981C362.999 72.742 354.204 73.5347 350.687 73.3511C346.737 73.1459 346.804 73.1956 342.471 67.0871C340.116 63.7672 335.926 57.8812 332.615 53.2416C326.873 45.2021 321.484 43.0377 311.22 44.6534ZM259.561 165.868C258.669 165.916 257.012 166.14 255.878 166.365L253.816 166.775L254.904 168.149C256.667 170.374 259.799 176.154 262.693 182.52C267.059 192.121 270.53 197.994 272.264 198.722C288.868 205.681 296.934 208.798 307.775 212.446L320.527 216.736L323.253 215.82C326.083 214.87 329.638 213.163 337.321 209.07C342.332 206.401 345.797 204.997 348.951 204.359L351.063 203.932L349.575 202.063C344.324 195.469 335.502 193.665 327.258 197.503C326.158 198.013 324.383 198.741 323.311 199.117L321.365 199.802L317.192 198.683C305.273 195.486 301.044 193.909 290.616 188.773C282.887 184.967 283.019 185.083 280.047 179.61C274.819 169.985 267.996 165.408 259.561 165.868ZM210.149 220.59C204.926 231.372 202.85 237.276 201.766 244.44L201.248 247.859L202.349 248.89C204.023 250.458 204.196 251.274 203.516 254.374C202.142 260.621 209.078 267.222 218.405 268.544C221.4 268.967 221.357 269.021 220.001 266.649C217.083 261.552 214.275 250.153 213.43 239.993C213.188 237.096 213.119 231.174 213.246 224.73C213.363 218.937 213.408 214.2 213.35 214.2C213.292 214.2 211.851 217.075 210.149 220.59ZM522.228 243.971C522.103 244.097 522.001 245.188 522.001 246.395C522.001 247.602 521.684 253.447 521.297 259.385C520.91 265.321 520.342 274.391 520.033 279.54C519.722 284.687 519.381 289.588 519.273 290.429L519.077 291.96H486.361L486.383 292.77C486.396 293.215 486.685 295.362 487.024 297.539L487.642 301.499L508.225 301.592L528.807 301.684L528.991 300.512C529.09 299.868 529.427 295.127 529.736 289.979C530.231 281.776 531.324 264.077 531.905 254.817L532.101 251.693L528.581 248.816C526.966 247.5 525.359 246.176 523.757 244.844C523.04 244.239 522.353 243.846 522.228 243.971ZM819.591 248.324C819.463 249.851 819.036 256.121 818.64 262.26C818.243 268.397 817.679 276.983 817.386 281.339C817.092 285.696 816.85 289.947 816.846 290.789L816.841 292.319H799.896C783.934 292.319 782.962 292.355 783.124 292.949C783.219 293.295 783.584 295.483 783.936 297.809L784.573 302.039H826.481L826.71 297.989C826.965 293.492 828.082 276.51 828.907 264.599C829.708 253.028 830.026 254.504 825.961 250.92C824.363 249.511 822.762 248.105 821.157 246.704L819.822 245.55L819.591 248.324ZM666.049 256.152L670.786 262.463L670.361 278.38C670.133 286.927 669.877 295.474 669.594 304.019C669.406 309.365 669.086 319.815 668.883 327.239C668.678 334.665 668.352 345.517 668.155 351.36C667.901 359.015 667.66 366.671 667.432 374.327L667.067 386.678L658.405 396.867L649.744 407.056L641.402 407.291C636.814 407.421 626.014 407.684 617.4 407.879C591.257 408.468 554.585 409.38 554.526 409.44C554.345 409.637 554.261 419.02 554.44 419.197C554.559 419.318 563.551 419.173 574.42 418.875C585.287 418.575 602.686 418.164 613.08 417.959C623.476 417.754 637.164 417.428 643.501 417.236C649.836 417.043 656.018 416.886 657.237 416.884L659.453 416.879L664.449 411.03C667.194 407.812 671.106 403.211 673.139 400.805L676.834 396.428L677.003 390.903C677.098 387.866 677.497 374.606 677.893 361.439C678.288 348.271 678.929 327.211 679.318 314.64C679.707 302.067 680.13 287.39 680.26 282.022L680.496 272.265L672.281 261.323C663.313 249.376 663.727 249.853 662.306 249.845C661.367 249.84 661.563 250.173 666.049 256.152ZM354.258 258.929C350.67 265.505 343.475 276.551 339.334 281.843C334.239 288.353 325.549 296.479 321.739 298.295C319.84 299.2 320.426 300.075 324.201 301.972C340.17 309.985 351.162 294.662 355.463 258.389C355.72 256.238 355.731 256.232 354.258 258.929ZM739.69 265.911C739.535 266.066 739.5 269.358 739.613 273.227C739.861 281.767 740.394 310.236 740.874 340.379C741.068 352.656 741.328 365.804 741.453 369.597L741.677 376.494L745.868 376.734C748.175 376.865 750.305 377.04 750.6 377.122C751.076 377.254 751.112 375.805 750.899 364.946C750.767 358.166 750.475 342.089 750.248 329.22C750.026 316.442 749.781 303.664 749.512 290.887C749.33 282.674 749.298 275.847 749.441 275.713C749.583 275.581 754.692 275.717 760.789 276.017C766.889 276.317 771.946 276.495 772.03 276.41C772.112 276.328 771.889 274.244 771.535 271.779L770.892 267.299L767.317 267.066C762.827 266.816 758.334 266.603 753.84 266.427C748.395 266.207 743.047 265.934 741.956 265.826C740.865 265.718 739.844 265.755 739.69 265.911ZM471.241 268.41C470.747 268.466 464.346 268.792 457.02 269.131C449.695 269.472 443.578 269.857 443.427 269.987C443.276 270.118 443.317 280.825 443.52 293.781C443.721 306.739 444.038 329.386 444.224 344.111C444.41 358.834 444.611 370.928 444.671 370.982C444.732 371.038 446.872 371.204 449.43 371.349L454.08 371.612L453.838 346.096C453.704 332.063 453.43 311.445 453.227 300.28C453.024 289.115 452.937 279.903 453.035 279.806C453.132 279.709 458.249 279.344 464.407 278.994C470.563 278.644 475.661 278.298 475.734 278.225C475.807 278.151 475.559 275.907 475.181 273.235C474.946 271.587 474.714 269.938 474.486 268.289C474.479 268.187 472.578 268.256 471.241 268.41ZM591.311 280.169C591.523 286.863 592.011 312.718 592.596 348.479C592.821 362.041 593.026 373.167 593.054 373.202C593.126 373.288 602.366 371.2 602.459 371.077C602.638 370.839 601.407 300.874 601.027 289.729C600.826 283.852 600.83 283.845 603.047 284.564C603.913 284.847 609.075 286.325 614.52 287.845C619.966 289.368 624.705 290.759 625.05 290.938C625.629 291.239 625.681 290.977 625.681 287.677C625.681 284.571 625.595 284.063 625.05 283.899C623.005 283.29 591.363 274.319 591.255 274.319C591.184 274.319 591.208 276.952 591.311 280.169ZM221.04 320.824V323.939L222.75 325.179C232.676 332.374 242.996 337.029 262.883 343.277C267.661 344.779 271.994 346.228 272.515 346.496C276.597 348.608 285.509 357.417 293.456 367.199C296.672 371.156 299.454 374.101 304.569 378.952C307.451 381.689 308.688 382.084 314.46 382.116C320.365 382.149 320.417 382.116 318.674 379.535C317.903 378.392 315.849 375.109 314.11 372.239C312.369 369.368 310.481 366.487 309.913 365.836C309.345 365.186 308.88 364.424 308.88 364.141C308.88 363.858 307.334 360.888 305.442 357.54L302.005 351.453L302.956 347.716C303.867 344.137 305.63 334.62 305.636 333.238C305.64 332.674 305.442 332.609 304.29 332.795C297.666 333.873 275.569 333.594 262.486 332.27C239.741 329.967 226.407 325.609 221.921 319.01L221.04 317.712V320.824ZM520.56 333.179C520.563 337.139 520.731 351.986 520.938 366.173L521.312 391.966L517.292 399.653C515.081 403.88 513.171 407.444 513.046 407.574C512.923 407.701 497.997 407.984 479.881 408.2C437.02 408.714 426.927 408.952 426.793 409.462C426.665 409.935 424.464 417.499 424.186 418.422C424.006 419.011 424.224 419.048 426.825 418.875C428.385 418.771 443.917 418.521 461.34 418.32C476.847 418.144 492.355 417.948 507.862 417.735L522.701 417.514L523.561 416.026C524.034 415.21 525.909 411.669 527.73 408.159L531.041 401.781L530.661 376.12C530.453 362.007 530.28 345.001 530.28 338.329V326.198L525.42 326.088L520.558 325.98L520.56 333.179ZM158.22 329.456C153.754 335.456 145.036 341.815 123.66 354.667C79.8211 381.023 57.2815 398.366 41.4098 417.959C32.4847 428.975 25.1969 442.916 23.4365 452.338L23.1211 454.027L24.0715 453.817C27.6204 453.031 45.9696 451.588 56.7005 451.251C73.4469 450.722 102.734 453.001 131.4 457.06C134.867 457.55 138.078 458.047 138.539 458.161C139.359 458.366 139.372 458.332 139.089 456.615C137.731 448.396 141.791 432.274 147.984 421.284L149.053 419.387L146.934 416.244C142.122 409.105 141.18 410.451 162.94 393.368C166.13 390.862 168.943 388.57 169.187 388.277C169.897 387.419 171.841 387.218 173.103 387.868C175.084 388.894 179.665 386.235 180.68 383.471C182.387 378.818 182.775 368.999 181.827 354.499L181.315 346.658L179.73 345.956C176.984 344.742 172.461 340.927 164.521 333.13L159.3 328.004L158.22 329.456ZM470.52 355.643C470.52 360.549 470.293 360.214 473.801 360.434L475.46 360.54L475.682 356.408C475.939 351.615 476.084 351.872 472.95 351.55L470.52 351.302V355.643ZM237.367 360.166C233.665 362.761 235.641 372.23 239.886 372.239C240.94 372.241 242.892 370.018 243.359 368.284C244.713 363.253 240.709 357.827 237.367 360.166ZM816.841 368.279C816.843 369.169 817.014 375.062 817.219 381.373L817.595 392.847L815.007 397.934C811.78 404.276 809.627 408.345 809.329 408.665C809.203 408.801 786.582 409.071 759.061 409.265L709.02 409.62L706.411 408.257L703.8 406.894V411.408L711.358 415.421L718.918 419.435L769.04 419.037C796.608 418.817 819.183 418.605 819.206 418.568C819.23 418.53 821.06 414.985 823.269 410.693L827.289 402.885L826.935 389.633C826.412 370.033 826.235 367.206 825.524 367.169L820.891 366.899L816.839 366.659L816.841 368.279ZM167.34 408.704C164.7 411.173 162.018 413.629 161.378 414.162C159.7 415.562 158.307 420.543 157.832 426.841C157.434 432.101 157.812 432.107 161.059 426.904C165.024 420.543 172.831 404.909 172.304 404.382C172.213 404.291 169.979 406.237 167.34 408.704ZM407.521 408.712C407.521 410.162 409.141 411.84 410.539 411.84C411.442 411.84 410.636 409.27 409.418 408.265C407.672 406.827 407.521 406.863 407.521 408.712ZM342.801 420.029C336.062 427.17 328.694 432.578 323.748 434.017C322.402 434.408 321.916 434.706 322.108 435.019C322.257 435.263 324.424 438.371 326.923 441.922C331.945 449.065 341.326 463.769 345.564 471.143C347.069 473.763 348.467 475.908 348.67 475.912C351.011 475.957 362.522 466.216 365.995 461.254L367.313 459.369L366.216 455.124C363.481 444.557 356.089 429.729 348.361 419.309C345.883 415.968 346.739 415.858 342.801 420.029ZM149.768 435.151C148.226 439.475 146.742 444.946 146.323 447.839C146.099 449.389 146.25 449.221 149.863 443.856L153.639 438.25L152.79 435.756C152.321 434.382 151.935 432.824 151.931 432.291C151.909 430.183 151.207 431.114 149.768 435.151ZM239.94 469.495C238.158 470.881 235.488 472.733 234.008 473.607C232.527 474.482 231.425 475.199 231.559 475.199C231.974 475.199 240.968 476.558 250.56 478.068C261.417 479.776 260.28 479.703 260.278 478.709C260.278 478.053 259.585 477.526 256.615 475.918C252.126 473.493 246.12 469.601 244.493 468.06C243.828 467.434 243.262 466.931 243.232 466.946C243.204 466.961 241.722 468.108 239.94 469.495Z" fill="white"/>
</svg>
