<svg width="827" height="827" viewBox="0 0 827 827" fill="none" xmlns="http://www.w3.org/2000/svg">
<path d="M113.903 728.826C113.269 724.132 112.888 718.298 112.888 708.785C105.278 721.976 92.5935 729.713 78.1337 729.713C65.7034 729.713 56.0635 723.752 52.1314 713.478C50.2288 708.277 49.3409 700.286 49.3409 683.417V651.326C49.3409 641.306 48.5799 637.12 46.4236 635.471C45.282 634.329 43.5063 633.949 39.8279 633.695H36.2764V629.383L66.5912 627.48C65.5765 645.491 65.4497 650.184 65.4497 663.63V680.499C65.4497 700.16 65.8302 705.36 68.2402 712.083C70.5233 719.313 76.1043 722.991 84.0952 722.991C94.8767 722.991 104.39 716.015 109.463 704.219C112.381 697.623 113.015 693.31 113.015 681.26V651.326C113.015 641.052 112.381 637.374 110.098 635.598C108.956 634.456 106.927 633.822 103.502 633.695H99.9503V629.383L130.265 627.48C129.631 642.067 129.25 654.878 129.25 663.63V700.286C129.25 719.693 131.026 723.245 141.173 723.245H142.569V727.557M191.529 606.171C203.198 591.584 220.195 584.101 241.377 584.101C262.687 584.101 279.303 591.457 291.099 606.171C301.88 619.743 307.334 636.613 307.334 657.034C307.334 677.455 301.88 694.452 291.099 707.643C279.049 722.61 262.56 729.967 241.377 729.967C220.322 729.967 203.072 722.23 191.529 707.643C180.748 694.071 175.294 677.201 175.294 657.034C175.294 636.613 180.621 619.996 191.529 606.171ZM205.608 703.584C213.473 717.41 225.776 724.767 241.377 724.767C256.979 724.767 269.282 717.41 277.146 703.584C284.123 690.9 287.674 675.806 287.674 657.034C287.674 638.261 284.123 623.041 277.146 610.483C269.282 596.531 256.979 589.301 241.377 589.301C225.776 589.301 213.473 596.658 205.608 610.483C198.632 623.294 195.081 638.642 195.081 657.034C195.081 675.426 198.632 690.52 205.608 703.584ZM351.729 699.906C351.729 711.322 352.363 716.395 354.265 719.059C356.168 721.723 359.339 723.118 363.778 723.118C368.091 723.118 371.769 722.103 376.082 719.566L377.858 724.64C371.389 727.938 365.174 729.46 358.198 729.46C348.684 729.46 341.455 726.162 338.03 719.947C335.874 716.015 335.239 711.829 335.239 697.369V634.456H322.936V630.017C334.478 629.002 340.313 621.519 343.23 603.253L352.236 600.717C351.855 609.088 351.602 616.445 351.602 629.256H375.067V634.456H351.602M416.037 699.906C416.037 711.322 416.671 716.395 418.574 719.059C420.476 721.723 423.647 723.118 428.087 723.118C432.399 723.118 436.078 722.103 440.39 719.566L442.166 724.64C435.697 727.938 429.482 729.46 422.506 729.46C412.993 729.46 405.763 726.162 402.338 719.947C400.182 716.015 399.548 711.829 399.548 697.369V634.456H387.244V630.017C398.786 629.002 404.621 621.519 407.538 603.253L416.544 600.717C416.164 609.088 415.91 616.445 415.91 629.256H439.375V634.456H416.037M546.556 727.05C538.945 728.191 530.32 728.952 526.388 728.952C520.553 728.952 518.904 725.781 518.143 712.844C514.972 716.395 512.436 718.425 508.63 721.215C500.005 727.43 493.156 729.587 483.262 729.587C474.637 729.587 468.168 727.684 463.348 723.625C458.021 718.932 454.723 711.195 454.723 703.077C454.723 687.729 464.49 677.836 483.389 673.523C493.536 671.24 503.81 669.845 518.143 668.83V656.653C518.143 647.775 517.382 643.081 515.353 639.022C512.816 633.949 507.362 631.412 499.371 631.412C486.433 631.412 479.838 637.247 479.077 649.297C478.823 653.355 478.442 654.751 476.92 655.892C475.525 656.907 472.988 657.414 470.071 657.414C463.475 657.414 460.558 655.639 460.558 651.58C460.558 644.603 465.631 637.627 473.876 632.934C481.36 628.875 490.873 626.719 502.415 626.719C514.972 626.719 523.851 629.636 528.544 635.217C532.476 640.037 534.252 646.506 534.252 657.161C534.252 657.795 534.252 657.795 533.872 676.821L533.618 695.213L533.364 704.092C533.364 712.209 534.379 719.186 535.521 720.835C536.662 722.357 539.072 722.991 546.429 722.991M518.143 673.269C500.766 674.791 493.156 676.44 485.292 680.246C476.667 684.305 472.227 692.042 472.227 702.316C472.227 714.493 478.823 722.864 488.59 722.864C498.483 722.864 508.757 717.029 513.577 708.658C516.748 703.204 518.143 695.086 518.143 682.275V673.269ZM595.262 728.191H585.115L560.889 647.648C557.591 636.613 555.181 634.203 545.668 633.695V629.383H589.047V633.695C579.661 634.076 575.983 635.978 575.983 640.925C575.983 642.447 576.617 645.365 577.758 649.423L595.389 710.434L621.138 632.046H629.129L653.989 710.434L670.986 653.355C672.508 648.535 673.269 644.857 673.269 642.067C673.269 638.769 671.24 636.232 667.815 635.09C665.405 634.329 664.137 634.076 659.063 633.695V629.383H697.369V633.695C686.588 634.329 682.909 638.008 678.216 652.848L654.497 728.191H644.603L620.25 653.609M790.216 727.05C782.606 728.191 773.981 728.952 770.049 728.952C764.214 728.952 762.565 725.781 761.804 712.844C758.633 716.395 756.096 718.425 752.291 721.215C743.666 727.43 736.816 729.587 726.923 729.587C718.298 729.587 711.956 727.684 707.009 723.625C701.682 718.932 698.384 711.195 698.384 703.077C698.384 687.729 708.15 677.836 727.05 673.523C737.197 671.24 747.598 669.845 761.804 668.83V656.653C761.804 647.775 761.043 643.081 759.014 639.022C756.477 633.949 751.023 631.412 743.032 631.412C730.094 631.412 723.498 637.247 722.737 649.297C722.483 653.355 722.103 654.751 720.581 655.892C719.186 656.907 716.649 657.414 713.731 657.414C707.136 657.414 704.092 655.639 704.092 651.58C704.092 644.603 709.165 637.627 717.41 632.934C724.767 628.875 734.406 626.719 745.949 626.719C758.506 626.719 767.385 629.636 772.078 635.217C776.01 640.037 777.786 646.506 777.786 657.161C777.786 657.795 777.786 657.795 777.405 676.821L777.152 695.213L776.898 704.092C776.898 712.209 777.913 719.186 779.054 720.835C780.196 722.357 782.606 722.991 789.963 722.991M761.931 673.269C744.554 674.791 736.943 676.44 729.079 680.246C720.454 684.305 716.015 692.042 716.015 702.316C716.015 714.493 722.61 722.864 732.377 722.864C742.397 722.864 752.545 717.029 757.365 708.658C760.536 703.204 761.804 695.086 761.804 682.275V673.269H761.931ZM323.063 142.061H279.683V164.893H236.938V498.23H589.681V164.893H546.936V142.061H503.557C485.038 112.127 453.201 95.7646 413.373 95.7646C373.418 95.7646 341.708 112.254 323.063 142.061ZM328.517 160.707H334.098L336.761 155.887C355.534 121.64 388.766 114.41 413.373 114.41C437.98 114.41 471.212 121.64 489.985 155.887L492.648 160.707H528.291V183.538H571.036V479.584H255.71V183.538H298.456V160.707H328.517Z" fill="white"/>
<path d="M275.244 429.609H551.249V439.883H275.244V429.609ZM267.253 447.493H559.493V457.767H267.253V447.493ZM410.075 204.467L272.073 253.808L278.415 271.312C278.415 271.312 407.158 225.269 413.246 223.112C419.335 225.269 548.078 271.312 548.078 271.312L554.42 253.808L413.246 203.325M532.223 400.689L529.686 296.172C530.574 296.553 531.462 296.807 532.476 296.807C535.647 296.807 538.311 294.27 538.311 290.972C538.311 289.45 537.677 287.928 536.662 286.913H541.355V276.639H285.391V286.913H290.084C289.069 287.928 288.435 289.45 288.435 290.972C288.435 294.143 291.099 296.807 294.27 296.807C295.158 296.807 296.046 296.553 296.934 296.172L294.397 400.562H284.757V417.686H542.116V400.562M347.797 400.689H318.243L315.706 296.299C316.467 296.68 317.355 296.933 318.37 296.933C321.541 296.933 324.204 294.397 324.204 291.099C324.204 289.577 323.57 288.055 322.555 287.04H343.484C342.469 288.055 341.835 289.577 341.835 291.099C341.835 294.27 344.499 296.933 347.67 296.933C348.685 296.933 349.572 296.68 350.333 296.299L347.797 400.689ZM401.323 400.689H371.77L369.233 296.299C369.994 296.68 370.882 296.933 371.896 296.933C375.194 296.933 377.731 294.397 377.731 291.099C377.731 289.577 377.097 288.055 376.082 287.04H397.138C396.123 288.055 395.489 289.577 395.489 291.099C395.489 294.27 398.152 296.933 401.323 296.933C402.211 296.933 403.099 296.68 403.987 296.299L401.323 400.689ZM454.85 400.689H425.296L422.759 296.299C423.52 296.68 424.408 296.807 425.296 296.807C428.467 296.807 431.131 294.27 431.131 290.972C431.131 289.45 430.497 287.928 429.482 286.913H450.537C449.523 287.928 448.889 289.45 448.889 290.972C448.889 294.143 451.552 296.807 454.723 296.807C455.738 296.807 456.626 296.553 457.387 296.172L454.85 400.689ZM508.25 400.689H478.696L476.159 296.299C476.92 296.68 477.808 296.933 478.696 296.933C481.994 296.933 484.531 294.397 484.531 291.099C484.531 289.577 483.897 288.055 482.882 287.04H503.937C502.923 288.055 502.288 289.577 502.288 291.099C502.288 294.27 504.952 296.933 508.123 296.933C509.011 296.933 509.899 296.68 510.66 296.299L508.25 400.689Z" fill="white"/>
</svg>
