<svg width="637" height="632" viewBox="0 0 637 632" fill="none" xmlns="http://www.w3.org/2000/svg">
<path d="M487.449 351.12V441.966C487.449 465.053 487.449 466.513 504.136 468.494V475.606H449.154V468.244C465.841 466.283 465.841 464.552 465.841 441.716V389.16C465.111 376.147 468.218 377.377 452.095 382.528" fill="white"/>
<path d="M599.435 398.754C600.915 381.798 593.553 360.922 572.173 360.922C551.315 360.922 542.701 382.048 542.221 398.754H599.435ZM541.032 408.076C541.032 432.143 548.145 467.743 578.848 467.743C595.305 467.743 609.551 458.671 619.124 445.407L623.296 449.328C612.992 466.283 595.805 478.296 575.657 478.296C541.283 478.296 516.232 450.308 516.232 416.668C516.232 385.239 538.091 352.83 572.549 352.83C603.252 352.83 624.36 379.108 624.36 408.076H541.032Z" fill="white"/>
<path d="M485.99 241.359C490.724 228.491 485.99 220.358 477.188 220.358C467.009 220.358 456.872 235.269 452.805 244.738C445.358 260.338 438.58 282.674 434.512 297.585C447.382 285.385 477.188 263.716 485.99 241.276V241.359ZM183.196 235.269C153.995 258.21 132.386 293.518 128.965 321.298C126.254 344.239 133.7 363.279 158.166 364.635C183.884 365.991 210.999 343.634 229.959 323.321C244.852 307.074 258.409 282.674 259.765 268.45C260.762 262.368 259.564 256.129 256.386 250.848C255.03 248.137 253.674 247.449 254.3 246.093C254.926 244.738 257.7 246.093 259.723 248.179C261.746 250.264 268.525 258.335 267.169 273.914C266.502 292.204 254.3 313.873 239.408 330.808C221.783 349.786 187.263 372.81 156.769 370.787C126.274 368.764 111.403 349.056 114.719 319.942C118.098 292.83 141.146 257.626 177.043 230.514C209.56 206.135 250.212 189.2 285.504 189.2C324.132 189.2 367.496 204.112 360.717 260.338C356.546 301.652 284.148 392.414 239.449 437.107V437.796C261.121 422.884 283.48 405.949 316.624 381.486C345.095 361.173 378.968 336.105 400.639 319.17C408.774 296.23 418.243 271.766 430.445 252.121C446.693 226.385 464.318 213.517 478.543 213.517C490.724 213.517 499.547 224.341 494.124 240.629C485.322 268.388 450.761 292.1 432.468 309.723C422.311 351.705 409.525 408.598 387.77 437.733V438.4C410.714 416.043 469.116 367.284 509.705 330.703C574.74 271.787 598.435 227.762 602.502 204.049C603.858 194.56 603.169 185.759 598.435 181.108C593.7 176.937 588.944 178.397 589.633 176.353C590.3 174.998 594.367 174.268 596.411 174.268C616.059 174.268 625.612 189.847 624.173 207.448C620.794 235.228 591.656 277.898 516.463 339.546C462.963 383.572 410.088 427.597 366.098 469.579C362.031 473.646 355.252 479.736 347.139 479.736C340.36 479.736 340.36 473.646 344.406 468.223C367.454 437.066 381.679 370.016 397.239 331.413V330.724C384.37 341.569 343.009 372.727 309.845 397.107C281.415 417.462 221.094 461.508 196.065 477.754C191.893 480.466 186.575 484.532 181.84 484.532C173.705 484.532 171.682 479.11 177.668 471.665C208.803 439.472 237.558 405.06 263.707 368.702C293.513 326.699 320.023 281.318 325.363 246.782C330.786 211.557 311.805 195.311 284.023 195.311C250.17 195.311 211.541 213.601 183.091 235.269H183.196Z" fill="white"/>
<path d="M486.218 334.645C486.214 337.057 485.495 339.414 484.152 341.417C482.808 343.421 480.901 344.982 478.671 345.902C476.441 346.822 473.989 347.061 471.623 346.588C469.258 346.114 467.085 344.951 465.381 343.244C463.677 341.537 462.517 339.363 462.047 336.997C461.578 334.631 461.821 332.179 462.745 329.951C463.669 327.722 465.233 325.818 467.239 324.478C469.246 323.139 471.604 322.424 474.016 322.424C475.62 322.424 477.209 322.74 478.691 323.355C480.172 323.969 481.518 324.869 482.652 326.005C483.785 327.14 484.683 328.487 485.295 329.97C485.907 331.452 486.221 333.041 486.218 334.645Z" fill="white"/>
<mask id="mask0_328_390" style="mask-type:luminance" maskUnits="userSpaceOnUse" x="5" y="0" width="627" height="485">
<path d="M631.368 0H5.63086V484.532H631.368V0Z" fill="white"/>
</mask>
<g mask="url(#mask0_328_390)">
<path d="M8.67491 413.687C9.8221 420.256 10.427 420.861 11.9913 420.965C16.6838 421.158 21.3842 420.984 26.0495 420.444L42.277 419.234C47.1369 418.88 51.1833 418.421 53.9157 418.004C56.0015 417.712 56.21 417.086 56.3769 415.918C56.3769 415.188 56.5438 412.748 56.6689 412.081C56.7941 411.413 56.8358 411.246 57.0861 411.226C57.8737 411.255 58.6531 411.395 59.4013 411.643C59.6725 417.607 59.8185 420.61 60.1105 423.322C60.2667 425.727 60.5522 428.122 60.9656 430.496C60.9802 430.694 60.9314 430.892 60.8265 431.06C60.7215 431.229 60.5658 431.36 60.3816 431.434C59.72 431.71 59.0124 431.858 58.2958 431.872C57.7535 426.679 57.2112 425.094 55.0003 424.948C53.7071 424.948 50.8287 424.823 41.7555 425.491L22.3785 426.93C11.7619 427.743 10.9484 427.868 10.573 430.413C10.573 431.205 10.4687 432.331 10.573 434.396C10.5758 434.458 10.566 434.52 10.5442 434.578C10.5224 434.636 10.4891 434.689 10.4462 434.734C10.4033 434.779 10.3517 434.814 10.2947 434.839C10.2376 434.863 10.1762 434.876 10.1141 434.876C9.68093 434.868 9.25427 434.769 8.86263 434.584C8.27861 434.333 8.11175 434.271 8.00746 434.062C7.89261 433.435 7.81599 432.801 7.77802 432.164C7.77802 431.288 7.61116 428.786 7.34001 424.969C7.06885 421.153 6.52655 416.168 6.46398 415.438C6.4014 414.708 6.46398 414.396 6.71427 414.312L8.61234 413.645L8.67491 413.687Z" fill="white"/>
<path d="M30.6806 387.493C30.6806 384.177 30.6806 381.674 30.5554 379.839C30.3051 375.417 29.9714 375.042 25.1949 373.999C24.9395 373.241 24.8402 372.44 24.9029 371.642C27.2599 371.83 30.9934 372.331 33.5172 372.372C36.041 372.414 38.5648 372.143 40.9218 371.976C41.0695 372.527 41.1397 373.095 41.1304 373.665C41.1304 374.041 40.9635 374.166 40.6506 374.312C39.7537 374.604 38.4397 374.938 37.4594 375.146C35.2484 375.563 34.5184 376.439 34.2264 379.317C34.0387 380.944 33.997 383.384 33.9344 387.138C33.8407 388.758 33.8755 390.383 34.0387 391.997C34.0587 392.145 34.11 392.286 34.1891 392.412C34.2683 392.538 34.3734 392.645 34.4976 392.727C37.7842 393.391 41.1378 393.664 44.4885 393.541C50.433 393.645 52.6231 393.687 53.9371 392.957C55.2512 392.227 56.0229 389.39 56.0229 383.342C56.148 374.729 55.3137 370.6 46.7411 368.18C46.657 367.593 46.657 366.996 46.7411 366.408C46.908 366.199 46.9914 366.199 47.3877 366.199C51.2388 366.488 55.0303 367.317 58.651 368.66C59.1307 369.036 59.2976 369.265 59.2976 369.619C59.2976 369.974 59.2976 370.662 59.1516 373.081C59.0056 375.501 58.8804 380.443 58.797 386.554C58.7136 392.665 58.9221 398.254 59.089 404.156C58.2863 404.321 57.4624 404.356 56.6486 404.26C56.5721 404.246 56.5008 404.211 56.4421 404.16C56.3834 404.108 56.3395 404.042 56.3149 403.968C55.7309 400.569 55.1677 400.256 53.9371 400.173C52.7065 400.089 47.5337 399.568 39.3366 399.443L25.2784 399.213C20.3128 399.016 15.3399 399.113 10.3858 399.505C10.1241 399.503 9.8709 399.598 9.67465 399.771C9.47839 399.944 9.35286 400.184 9.32208 400.444C8.98835 401.174 8.7172 402.529 8.19575 404.323C8.19575 404.323 8.19575 404.323 7.88289 404.323L6.00568 404.135C5.69281 404.135 5.60938 404.135 5.60938 403.76V401.194C5.60938 398.9 5.83881 396.106 6.00568 391.622V384.489C6.00568 380.005 5.75538 374.625 5.71366 370.933C5.66793 370.318 5.8215 369.703 6.15168 369.182C6.65227 368.514 6.65227 368.514 8.11232 368.848C11.566 369.357 15.0505 369.628 18.5413 369.661C18.5413 371.58 18.2701 371.872 17.7904 371.934C11.9085 372.873 8.98835 373.332 8.88406 379.088V384.156C8.7141 386.689 8.81198 389.234 9.17607 391.747C9.48894 392.706 10.2815 392.873 12.1588 392.894C17.853 392.998 23.5472 392.998 29.2414 393.019C29.5375 393.052 29.8354 392.974 30.0779 392.801C30.3204 392.628 30.4904 392.371 30.5554 392.081V387.367L30.6806 387.493Z" fill="white"/>
</g>
<path d="M33.8306 341.151C34.2477 337.856 34.498 335.353 34.5815 333.518C34.8109 329.097 34.5815 328.7 29.9093 327.115C29.742 326.332 29.742 325.522 29.9093 324.738C32.2245 325.197 35.8747 326.114 38.3776 326.427C40.8806 326.74 43.4252 326.782 45.7822 326.865C45.8546 327.433 45.8546 328.008 45.7822 328.575C45.7822 328.951 45.5527 329.076 45.219 329.18C44.3012 329.347 42.9663 329.555 41.9652 329.66C39.7334 329.806 38.8991 330.577 38.2733 333.476C37.8979 335.061 37.585 337.481 37.1053 341.193C36.823 342.791 36.6696 344.409 36.6464 346.031C36.6529 346.184 36.6916 346.333 36.7599 346.47C36.8282 346.606 36.9246 346.727 37.0427 346.824C40.2268 347.865 43.5256 348.517 46.8668 348.763C52.7487 349.535 54.9388 349.806 56.3154 349.243C57.692 348.68 58.7141 345.906 59.4858 339.921C60.5913 331.391 60.2367 327.178 51.977 323.82C52.0028 323.225 52.108 322.636 52.2898 322.068C52.4775 321.881 52.561 321.881 52.9573 321.943C56.749 322.665 60.4209 323.915 63.866 325.656C64.304 326.073 64.45 326.323 64.3874 326.677C64.3248 327.032 64.2623 327.699 63.866 330.098C63.4697 332.496 62.7605 337.376 61.9887 343.445C61.217 349.514 60.8207 355.082 60.2993 360.964C59.4823 361.05 58.6565 360.994 57.8589 360.797C57.7838 360.774 57.7165 360.731 57.6649 360.672C57.6132 360.613 57.5792 360.541 57.5669 360.463C57.3583 357.022 56.8368 356.667 55.6271 356.438C54.4173 356.209 49.3697 355.103 41.0266 354.04L27.1143 352.225C22.2014 351.479 17.2502 351.013 12.2844 350.828C12.0215 350.801 11.7577 350.871 11.5426 351.024C11.3275 351.178 11.1759 351.405 11.1163 351.662C10.6992 352.329 10.282 353.748 9.57286 355.395C9.57286 355.395 9.57286 355.395 9.23913 355.395L7.40364 355.02C7.09077 355.02 7.00734 355.02 7.04905 354.582L7.38278 352.038C7.67479 349.764 8.19624 347.011 8.84283 342.569L9.76058 335.499C10.3446 331.036 10.6158 325.656 11.0121 322.006C11.0315 321.383 11.2509 320.784 11.6378 320.296C12.201 319.712 12.201 319.712 13.7236 320.191C17.0831 321.13 20.5056 321.827 23.9648 322.277C23.7145 324.175 23.4434 324.362 22.9428 324.362C17.0191 324.634 14.0364 324.78 13.3064 330.473L12.5138 335.499C12.072 337.997 11.8833 340.534 11.9507 343.07C12.1384 344.071 12.931 344.321 14.7873 344.55C20.419 345.28 26.0714 345.948 31.7448 346.636C32.0323 346.714 32.339 346.677 32.5998 346.533C32.8606 346.389 33.0552 346.149 33.1423 345.864L33.7472 341.193L33.8306 341.151Z" fill="white"/>
<path d="M42.2575 295.437C43.0501 292.225 43.5716 289.785 43.8636 287.95C44.6145 283.591 44.385 283.153 39.9632 281.067C39.8804 280.273 39.9656 279.47 40.2135 278.711C42.4661 279.42 45.9911 280.796 48.4315 281.359C50.8718 281.922 53.3957 282.277 55.7317 282.631C55.755 283.206 55.6989 283.782 55.5649 284.342C55.5649 284.717 55.2937 284.8 54.9391 284.863C54.0005 284.863 52.6448 284.988 51.6436 284.863C49.4118 284.863 48.4732 285.426 47.472 288.242C46.9297 289.764 46.3457 292.121 45.3862 295.77C44.9255 297.326 44.5907 298.916 44.385 300.525C44.3711 300.677 44.3899 300.83 44.4403 300.974C44.4907 301.118 44.5714 301.25 44.6771 301.36C47.7246 302.781 50.9319 303.831 54.23 304.488C60.0076 305.927 62.1351 306.448 63.5743 306.052C65.0135 305.656 66.3275 303.028 67.7459 297.168C69.8317 288.826 69.9568 284.654 62.1351 280.296C62.2349 279.712 62.4102 279.144 62.6566 278.606C62.8651 278.419 62.9277 278.44 63.324 278.606C67.0149 279.757 70.5256 281.421 73.753 283.549C74.1284 284.029 74.2327 284.279 74.1493 284.634C74.0658 284.988 73.899 285.635 73.2315 287.97C72.5641 290.306 71.2917 295.082 69.8317 301.005C68.3716 306.928 67.3079 312.455 66.119 318.232C65.3002 318.206 64.4905 318.052 63.7203 317.773C63.5743 317.773 63.47 317.481 63.47 317.418C63.6786 313.977 63.178 313.539 62.01 313.247C60.8419 312.955 55.9195 311.162 47.8683 309.076L34.2064 305.697C29.4063 304.375 24.5305 303.344 19.6059 302.611C19.3515 302.544 19.0813 302.575 18.8492 302.699C18.6171 302.823 18.4404 303.03 18.3544 303.278C17.8538 303.904 17.2906 305.218 16.3938 306.803C16.2895 306.803 16.2895 306.803 16.06 306.803L14.2663 306.198C13.9534 306.198 13.8699 306.198 13.9742 305.739L14.6 303.237C15.1423 301.026 15.9766 298.356 17.1446 294.018L18.855 287.095C19.9396 282.736 20.9408 277.418 21.6499 273.831C21.7453 273.212 22.038 272.642 22.4843 272.204C23.11 271.682 23.11 271.682 24.57 272.329C27.7969 273.623 31.1155 274.676 34.4984 275.478C34.0395 277.334 33.7267 277.564 33.2469 277.564C27.3024 277.147 24.3406 276.938 22.964 282.506L21.7334 287.449C21.0167 289.879 20.5348 292.372 20.2942 294.894C20.2942 295.895 21.1494 296.25 22.9431 296.688C28.4705 298.064 34.0187 299.378 39.6294 300.671C39.9094 300.784 40.2222 300.784 40.5021 300.671C40.7821 300.559 41.0075 300.342 41.1312 300.067L42.2784 295.478L42.2575 295.437Z" fill="white"/>
<path d="M78.0508 241.359C71.418 240.671 59.967 239.274 42.5924 237.793C36.9399 237.334 36.5019 237.292 34.4995 240.483C34.2284 240.838 34.1241 240.879 33.8321 240.733C33.4299 240.329 33.0731 239.881 32.7683 239.399C32.6655 239.225 32.6113 239.027 32.6113 238.825C32.6113 238.623 32.6655 238.425 32.7683 238.252C33.3732 237 34.8541 234.081 35.6259 232.767C36.7522 230.452 37.7116 228.053 38.8797 225.676C39.0465 225.342 40.1937 225.676 40.9655 225.968C41.2575 226.114 41.4452 226.281 41.3618 226.656C40.3606 229.451 40.1312 230.473 41.1323 230.827C42.1018 231.113 43.0921 231.322 44.0942 231.453C56.6089 233.1 73.7958 234.685 80.7415 235.123C81.1586 235.123 81.5341 234.769 81.2421 234.477C77.4251 230.306 66.0575 218.648 61.7399 214.331C61.5082 214.086 61.2304 213.891 60.9225 213.755C60.6146 213.619 60.2827 213.545 59.9462 213.538C55.566 212.892 52.6668 212.537 50.873 212.308C49.0792 212.078 48.4952 212.308 46.9308 215.394C46.8664 215.502 46.7678 215.585 46.6506 215.631C46.5335 215.676 46.4045 215.681 46.2842 215.644C44.845 214.706 44.5113 214.059 44.7408 213.559C45.5125 211.953 46.8265 209.701 47.9737 207.302C49.6006 203.986 50.3098 201.963 50.7895 201.046C51.2484 200.691 53.3759 201.317 53.3342 201.776C52.0619 205.509 52.0827 205.947 54.3354 206.364C63.3668 207.907 81.9304 210.055 92.7556 211.077C93.1102 211.077 93.1728 210.764 92.7556 210.368C87.6663 205.029 70.688 187.427 65.0355 183.256C63.6589 182.339 62.9497 182.756 62.5534 183.527C62.1571 184.299 61.3019 185.613 60.7179 186.551C60.5719 186.656 60.3842 186.656 60.0504 186.405C58.7364 185.592 58.2775 185.217 58.5487 184.674C58.8198 184.132 61.0099 180.149 61.8025 178.564C62.8245 176.478 63.7423 174.205 63.9926 173.663C64.2429 173.12 64.7018 172.62 65.1606 172.766L66.871 173.35C66.941 173.386 66.9962 173.445 67.0267 173.518C67.0573 173.59 67.0612 173.671 67.0378 173.746C65.2858 177.166 65.7238 177.542 71.8143 184.341C75.4227 188.512 87.6454 201.025 97.0106 210.618C98.0744 211.786 100.348 214.789 102.35 216.729C102.534 216.919 102.659 217.157 102.711 217.416C102.762 217.675 102.739 217.943 102.642 218.189C102.246 218.981 101.579 219.065 100.39 218.898C98.8878 218.648 96.8021 218.293 92.8182 217.73C88.1877 217.042 76.1319 215.353 66.3078 214.414C71.3971 219.92 77.0705 226.114 84.5168 233.851C86.394 235.749 88.8969 238.606 90.7741 240.525C90.8869 240.614 90.9775 240.729 91.039 240.859C91.1005 240.989 91.1312 241.132 91.1287 241.276C91.1536 241.761 91.0454 242.244 90.8158 242.673C90.649 243.007 90.2944 243.174 89.6478 243.007C88.3963 242.819 84.4333 242.193 77.8214 241.505L78.0508 241.359Z" fill="white"/>
<path d="M91.7744 176.853C91.405 177.475 91.1696 178.167 91.0834 178.885C90.9972 179.604 91.062 180.332 91.2738 181.024C92.0247 183.881 94.3607 186.405 98.7826 189.366C101.979 191.584 105.86 192.597 109.733 192.223C111.126 192.186 112.491 191.824 113.719 191.165C114.947 190.505 116.003 189.568 116.804 188.428C117.532 187.298 117.808 185.935 117.576 184.611C116.605 181.259 114.359 178.421 111.318 176.707C107.147 173.975 102.099 172.244 97.8232 173.12C95.4871 173.559 93.4061 174.871 92.0038 176.79L91.7744 176.853ZM91.0235 172.39C93.8393 168.073 102.975 164.048 112.299 170.054C114.453 171.329 116.288 173.08 117.661 175.173C119.035 177.266 119.912 179.645 120.225 182.129C120.424 185.701 119.576 189.253 117.784 192.348C116.482 194.102 114.816 195.553 112.901 196.604C110.986 197.655 108.867 198.281 106.688 198.438C102.987 198.389 99.3748 197.306 96.2588 195.31C93.3897 193.369 91.1267 190.658 89.7303 187.489C88.8531 185.385 88.4541 183.113 88.5622 180.836C88.7262 177.911 89.546 175.06 90.9609 172.494L91.0235 172.39Z" fill="white"/>
<path d="M149.655 149.679C146.534 153.049 143.615 156.6 140.915 160.315C140.769 160.482 140.769 160.482 140.602 160.315C140.204 159.985 139.828 159.63 139.476 159.252C139.313 159.115 139.208 158.921 139.184 158.71C140.414 155.957 140.352 155.519 139.538 154.726C136.132 151.152 132.525 147.775 128.734 144.611C126.169 142.359 125.147 141.817 123.812 141.587C122.874 141.602 121.95 141.816 121.101 142.215C120.253 142.614 119.499 143.189 118.889 143.902C117.464 145.955 116.694 148.39 116.678 150.889C116.659 151.206 116.706 151.525 116.818 151.823C116.929 152.121 117.102 152.393 117.325 152.62C118.451 153.683 122.08 156.958 124.959 159.46C131.758 165.383 132.092 165.488 134.533 163.319C134.929 162.985 135.096 163.047 135.283 163.193C135.765 163.646 136.211 164.134 136.618 164.653C136.18 165.133 133.469 168.366 132.551 169.408C131.633 170.451 129.568 173.35 129.005 174.226C128.797 174.351 127.712 173.496 127.086 172.849C127.376 172.129 127.62 171.39 127.816 170.639C128.025 170.055 127.816 169.659 127.295 169.012C125.003 166.586 122.565 164.301 119.995 162.172C115.468 158.209 114.029 157.145 113.237 156.561C112.444 155.977 111.964 155.936 110.734 156.833C109.899 157.562 109.566 157.562 109.274 157.5C108.782 157.384 108.334 157.131 107.98 156.77C108.168 151.869 108.398 149.012 108.585 147.927C108.59 147.437 108.767 146.965 109.086 146.593C109.378 146.259 109.649 146.217 110.087 146.593L114.572 150.597C114.864 148.511 115.176 143.715 115.844 140.962C116.063 140.094 116.476 139.288 117.054 138.605C119.661 135.602 122.894 135.477 126.753 136.123C127.103 133.221 127.668 130.349 128.442 127.531C128.829 126.063 129.542 124.702 130.528 123.547C131.734 122.352 133.32 121.614 135.012 121.462C136.702 121.462 138.913 121.462 144.628 126.134C147.694 128.803 150.572 131.389 153.096 133.475C154.125 134.563 155.322 135.478 156.642 136.186C157.56 136.394 158.373 135.831 160.814 133.871C160.96 133.704 161.168 133.704 161.418 133.871C161.669 134.038 162.712 135.477 162.566 135.644L159.27 139.418C157.78 141.132 156.387 142.929 155.098 144.799C155.048 144.876 154.974 144.934 154.887 144.964C154.8 144.994 154.706 144.995 154.619 144.966C154.16 144.725 153.727 144.439 153.326 144.111C153.2 144.111 153.075 143.902 153.159 143.694C153.358 143.276 153.444 142.813 153.408 142.352C153.371 141.89 153.213 141.447 152.95 141.066C150.486 138.39 147.86 135.869 145.087 133.516C139.935 129.032 137.578 128.031 135.784 127.844C133.99 127.656 132.593 128.302 131.008 130.117C129.631 131.943 128.767 134.102 128.505 136.373C128.505 137.083 128.505 137.291 129.235 137.875C132.739 141.024 140.936 148.094 143.397 149.846C144.419 150.534 144.565 150.472 147.423 148.073C147.569 147.906 147.84 147.948 148.153 148.219L149.613 149.512L149.655 149.679Z" fill="white"/>
<path d="M163.943 103.88C162.815 102.874 161.388 102.266 159.881 102.149C158.374 102.032 156.87 102.413 155.6 103.234C155.123 103.726 154.829 104.366 154.766 105.048C154.223 107.676 155.955 111.555 158.312 114.037C160.231 111.075 162.337 108.343 164.256 105.486C164.433 105.25 164.511 104.954 164.472 104.661C164.433 104.369 164.28 104.103 164.048 103.922L163.943 103.88ZM155.454 99.2086C157.302 97.7734 159.636 97.115 161.962 97.3733C164.014 97.6219 165.983 98.3352 167.719 99.4589C168.115 98.8958 168.887 97.6653 169.283 97.7696C169.679 97.8739 169.721 97.9364 169.867 98.2284C170.18 98.9166 170.764 100.314 170.367 100.919C167.468 105.194 161.649 112.973 159.939 115.851C159.709 116.164 159.939 116.56 160.502 117.29C165.966 123.213 171.098 123.151 174.768 119.939C175.979 118.817 176.954 117.463 177.634 115.959C178.315 114.455 178.688 112.83 178.732 111.18C178.732 110.679 179.462 110.116 179.566 110.345C180.796 111.847 181.068 112.431 181.047 113.036C180.671 116.569 179.548 119.981 177.751 123.046C177.275 123.831 176.677 124.536 175.978 125.132C174.605 126.289 172.996 127.133 171.264 127.605C169.531 128.077 167.716 128.165 165.946 127.864C162.318 127.133 159.05 125.183 156.685 122.337C154.722 120.053 153.305 117.353 152.539 114.441C151.773 111.529 151.678 108.482 152.263 105.528C152.67 103.164 153.791 100.98 155.475 99.2712L155.454 99.2086Z" fill="white"/>
<path d="M187.325 112.035C188.68 109.949 189.077 109.031 188.013 107.113C186.196 103.836 184.19 100.668 182.006 97.6236C180.191 95.0167 178.377 92.7018 177.48 91.5547C177.021 90.8873 176.583 90.7831 173.308 91.9927C172.828 91.8258 172.808 91.9927 172.307 90.8039C172.161 90.6162 172.307 90.3451 172.516 89.9697C174.143 86.758 175.665 83.296 175.79 82.8163C175.887 82.5432 176.07 82.3089 176.312 82.149C176.438 82.0361 176.601 81.9737 176.771 81.9737C176.94 81.9737 177.103 82.0361 177.23 82.149C178.085 83.2543 179.044 84.4639 179.837 85.6109C180.066 85.9446 180.316 86.1532 180.546 85.9863C181.479 83.6781 182.552 81.4285 183.758 79.2501C184.402 77.9551 185.337 76.8271 186.49 75.9549C187.949 74.8279 189.791 74.3186 191.621 74.5368C194.565 75.1228 197.167 76.8273 198.88 79.2918C199.985 80.6057 201.112 82.1907 203.052 85.0687C206.451 89.928 208.495 92.7435 209.58 94.2868C209.997 94.8707 210.102 94.9124 210.289 94.7873C210.832 94.391 212.375 92.9729 213.293 92.2846C213.481 92.1595 213.793 92.2846 214.065 92.7226C214.394 93.2941 214.687 93.8862 214.941 94.4953C215.066 94.9124 214.941 94.9958 214.69 95.1627C209.33 98.9166 207.703 100.46 205.409 102.066C205.033 102.316 204.741 102.525 204.491 102.295L203.26 101.169C203.9 100.534 204.301 99.6972 204.396 98.8008C204.491 97.9043 204.274 97.0025 203.782 96.2472C201.968 92.9684 199.94 89.8125 197.712 86.7997C195.146 83.15 193.77 81.3147 191.225 80.5431C190.324 80.327 189.386 80.32 188.482 80.5224C187.579 80.7248 186.733 81.1314 186.011 81.711C184.334 83.1593 183.032 84.9908 182.215 87.05C182.116 87.4087 182.107 87.786 182.186 88.1494C182.266 88.5127 182.434 88.8511 182.673 89.1355C184.175 91.5547 190.829 101.065 193.353 104.673C193.958 105.528 194.166 105.59 197.67 103.922C198.087 103.734 198.233 103.922 198.379 104.13L199.026 105.861L193.978 109.595C191.58 111.284 189.807 112.952 188.66 113.766C188.66 113.766 188.388 113.766 188.201 113.495L187.346 111.993L187.325 112.035Z" fill="white"/>
<path d="M225.433 59.9591C225.183 59.6254 224.682 59.6045 221.261 60.5639C220.969 60.5639 220.823 60.5639 220.844 60.0425C220.656 58.4992 220.656 58.3324 220.844 58.0821C222.93 55.8714 224.703 53.6191 227.102 51.0747C227.178 50.975 227.279 50.8961 227.394 50.8453C227.54 50.8453 227.602 50.8453 227.811 51.3667C230.022 56.4345 234.819 66.8622 236.717 70.637C238.615 74.4118 239.22 75.6423 239.721 76.4974C240.221 77.3524 240.722 77.8112 241.347 77.415C242.217 76.8609 243.115 76.3527 244.038 75.8926C244.226 75.8926 244.852 76.0177 244.893 76.268L245.644 78.3535C245.79 78.8123 245.644 78.8749 245.331 79.0417C243.412 80.0011 241.493 80.7727 239.387 81.8363C237.484 82.8181 235.645 83.9187 233.88 85.1315C233.547 85.2983 233.38 85.2775 233.171 85.0272C232.791 84.5305 232.469 83.9917 232.212 83.4213C232.066 83.1294 232.212 82.9834 232.358 82.9C234.569 81.4192 235.007 80.9396 234.444 78.7289C233.03 74.8935 231.358 71.1588 229.438 67.5504L225.391 59.9591H225.433ZM218.049 35.6418C218.472 35.4696 218.925 35.3833 219.381 35.3879C219.838 35.3924 220.289 35.4877 220.708 35.6682C221.127 35.8487 221.507 36.1108 221.824 36.4393C222.141 36.7677 222.389 37.1559 222.554 37.5813C222.844 38.0312 223.04 38.535 223.13 39.0625C223.219 39.59 223.201 40.1303 223.077 40.6506C222.952 41.1709 222.723 41.6606 222.404 42.0901C222.085 42.5197 221.682 42.8801 221.22 43.1497C220.796 43.3328 220.34 43.4288 219.878 43.4321C219.417 43.4354 218.96 43.3458 218.533 43.1688C218.107 42.9917 217.721 42.7308 217.398 42.4015C217.075 42.0722 216.821 41.6812 216.652 41.2519C216.122 40.3287 215.964 39.2377 216.213 38.2024C216.461 37.1672 217.095 36.266 217.987 35.6835L218.049 35.6418Z" fill="white"/>
<mask id="mask1_328_390" style="mask-type:luminance" maskUnits="userSpaceOnUse" x="5" y="0" width="627" height="485">
<path d="M631.368 0H5.63086V484.532H631.368V0Z" fill="white"/>
</mask>
<g mask="url(#mask1_328_390)">
<path d="M249.522 74.5367C251.316 72.8683 251.942 72.0341 251.358 69.9068C250.378 66.288 249.187 62.7296 247.791 59.2498C246.644 56.2883 245.455 53.6188 244.871 52.2841C244.579 51.5124 244.183 51.3247 240.699 51.721C240.261 51.429 240.199 51.721 239.99 50.3237C239.99 50.0943 239.99 49.8649 240.407 49.552C242.743 46.82 245.059 43.8377 245.288 43.2954C245.451 43.0568 245.685 42.8746 245.956 42.774C246.112 42.6977 246.291 42.6832 246.457 42.7335C246.624 42.7837 246.765 42.8951 246.852 43.0452C247.416 44.2965 248.041 45.7146 248.542 47.0077C248.688 47.3831 248.876 47.6542 249.147 47.5499C250.608 45.5446 252.189 43.6294 253.882 41.8147C254.806 40.6961 255.987 39.8163 257.323 39.2495C259.006 38.5226 260.906 38.4778 262.621 39.1244C265.32 40.3806 267.438 42.618 268.545 45.381C269.296 46.9243 270.005 48.7387 271.256 51.9921C273.342 57.5396 274.739 60.7722 275.428 62.524C275.699 63.1914 275.782 63.254 276.012 63.1706C276.617 62.9203 278.515 61.9192 279.516 61.4604C279.725 61.4604 279.975 61.6273 280.163 62.0861C280.35 62.714 280.49 63.3555 280.58 64.0048C280.58 64.4427 280.455 64.4844 280.183 64.6096C274.072 66.9662 272.132 68.0507 269.525 69.0726C269.108 69.2186 268.774 69.3646 268.586 69.0726L267.648 67.6962C268.417 67.23 269.003 66.5135 269.307 65.6667C269.611 64.8199 269.614 63.8944 269.316 63.0454C268.356 59.4199 267.143 55.8658 265.687 52.4092C264.081 48.2381 263.184 46.1526 260.869 44.8596C260.045 44.4392 259.136 44.2114 258.211 44.1934C257.286 44.1753 256.369 44.3674 255.529 44.7553C253.555 45.7602 251.852 47.2268 250.565 49.0306C250.399 49.353 250.312 49.7106 250.312 50.0734C250.312 50.4362 250.399 50.7938 250.565 51.1162C251.441 53.8274 255.634 64.6721 257.219 68.7598C257.594 69.74 257.803 69.8443 261.599 69.0726C262.037 69.0726 262.162 69.0726 262.225 69.448L262.454 71.2624L256.551 73.7442C253.798 74.8078 251.754 76.0174 250.294 76.5597C250.148 76.5597 250.023 76.5597 249.919 76.1843L249.439 74.5367H249.522Z" fill="white"/>
<path d="M313.431 27.5705C316.685 26.9866 319.146 26.4652 320.94 25.9855C325.112 24.8802 325.529 24.4839 325.612 19.6038C326.31 19.2031 327.085 18.9544 327.886 18.8739C328.157 21.2096 328.386 24.9636 328.824 27.4454C329.262 29.9272 330.013 32.3673 330.639 34.6405C330.133 34.8984 329.592 35.081 329.033 35.1827C328.678 35.3287 328.491 35.1827 328.282 34.8073C327.76 33.8447 327.286 32.8563 326.864 31.8459C326.029 29.7603 325.028 29.2181 322.087 29.4892C320.46 29.6143 318.062 30.0523 314.349 30.7197C312.745 30.9268 311.161 31.2686 309.614 31.7416C309.47 31.7913 309.338 31.8708 309.226 31.975C309.115 32.0792 309.027 32.2058 308.968 32.3464C308.947 35.6953 309.325 39.0349 310.094 42.2944C311.137 48.1339 311.533 50.3028 312.493 51.4499C313.765 52.7846 316.372 52.7429 322.338 51.6584C330.827 50.136 334.727 48.5301 335.436 39.6458C336.009 39.498 336.597 39.421 337.188 39.4164C337.439 39.5206 337.46 39.6041 337.522 40.0003C337.983 43.8366 337.905 47.7184 337.293 51.5333C337.001 52.0755 336.813 52.2841 336.458 52.3467C336.104 52.4092 335.436 52.5344 333.038 52.868C330.639 53.2017 325.758 54.0151 319.751 55.0996C313.744 56.184 308.258 57.4979 302.502 58.791C302.198 58.0304 302.009 57.2293 301.939 56.4134C301.932 56.3347 301.951 56.256 301.992 56.1886C302.034 56.1212 302.095 56.0685 302.168 56.0381C305.38 54.8076 305.568 54.1819 305.422 52.9723C305.276 51.7627 304.796 46.5489 303.336 38.3736L300.833 24.5465C300.08 19.6209 299.028 14.7457 297.684 9.94777C297.638 9.68816 297.497 9.45482 297.289 9.29297C297.081 9.13113 296.82 9.05233 296.557 9.07184C295.765 8.88415 294.367 8.905 292.532 8.7173C292.532 8.7173 292.532 8.7173 292.406 8.42533L292.219 6.54835C292.219 6.23552 292.219 6.1521 292.511 6.08953L295.035 5.63071C297.287 5.23446 300.061 4.90078 304.504 4.17084L311.533 2.91952C315.955 2.08531 321.211 0.833988 324.799 -0.000224896C325.387 -0.200446 326.025 -0.200446 326.613 -0.000224896C327.343 0.354316 327.343 0.354316 327.323 1.8559C327.47 5.35569 327.867 8.84048 328.511 12.2836C326.613 12.6173 326.301 12.4504 326.134 11.9707C324.048 6.40236 323.047 3.6286 317.394 4.62966L312.388 5.52644C309.878 5.87019 307.406 6.44975 305.005 7.25743C304.108 7.75796 304.108 8.59217 304.441 10.4274C305.443 16.0167 306.527 21.6059 307.612 27.1117C307.737 27.8416 308.279 28.3213 308.78 28.217L313.431 27.3828V27.5705Z" fill="white"/>
</g>
<path d="M344.385 49.4898C346.637 48.4888 347.492 47.8839 347.618 45.6733C347.833 41.9363 347.833 38.1901 347.618 34.4531C347.472 31.2831 347.2 28.3634 347.075 26.9035C347.075 26.0901 346.721 25.7773 343.3 25.0265C343.008 24.6303 342.862 24.7971 343.091 23.5041C343.091 23.2538 343.3 23.087 343.738 22.8993C346.825 21.064 349.995 18.9785 350.329 18.7282C350.567 18.5554 350.849 18.4541 351.143 18.4362C351.312 18.4216 351.481 18.4683 351.619 18.5678C351.757 18.6674 351.854 18.8131 351.893 18.9785C352.019 20.3549 352.165 21.8982 352.227 23.2747C352.227 23.6918 352.227 24.0046 352.623 24.0046C354.627 22.5643 356.717 21.248 358.881 20.0629C360.154 19.3016 361.592 18.8581 363.073 18.7699C364.909 18.6038 366.737 19.1656 368.163 20.3341C370.314 22.4273 371.589 25.2605 371.729 28.2591C371.938 29.9484 372.021 31.8879 372.167 35.3916C372.418 41.3145 372.626 44.8182 372.71 46.6743C372.71 47.4043 372.814 47.4877 373.043 47.4877C373.69 47.4877 375.817 47.1123 376.923 46.9872C377.152 46.9872 377.298 47.3 377.319 47.7797C377.301 48.4376 377.232 49.0931 377.111 49.7401C376.985 50.1572 376.839 50.1572 376.547 50.178C369.998 50.4492 367.808 50.8663 365.013 50.9914C364.554 50.9914 364.2 50.9914 364.116 50.6994L363.678 49.0936C365.764 48.1759 366.556 47.5086 366.765 45.2145C367.025 41.4789 367.025 37.7298 366.765 33.9943C366.577 29.5104 366.39 27.258 364.679 25.2976C364.04 24.6309 363.256 24.119 362.389 23.801C361.521 23.4829 360.592 23.3671 359.673 23.4624C357.481 23.7916 355.396 24.627 353.583 25.9024C353.303 26.1661 353.09 26.4932 352.963 26.8561C352.836 27.2191 352.798 27.6073 352.853 27.988C352.853 30.8243 353.312 42.4407 353.479 46.7578C353.479 47.8005 353.687 47.9674 357.546 48.447C357.984 48.447 358.067 48.6765 358.005 49.0101L357.629 50.8037L351.372 51.0748C348.431 51.1791 346.095 51.7005 344.614 51.7422C344.468 51.7422 344.385 51.5962 344.364 51.2834V49.5732L344.385 49.4898Z" fill="white"/>
<path d="M401.973 34.0774C402.21 31.2372 401.782 28.3809 400.722 25.7353C400.178 24.4979 399.309 23.4312 398.207 22.6489C397.105 21.8666 395.812 21.398 394.464 21.2931C393.749 21.265 393.036 21.3838 392.369 21.642C391.702 21.9003 391.094 22.2926 390.585 22.7947C389.093 24.2813 388.253 26.2991 388.249 28.4047C387.965 31.7571 388.906 35.0987 390.898 37.8105C391.501 38.6754 392.275 39.4082 393.172 39.964C394.068 40.5198 395.069 40.887 396.112 41.0431C398.844 41.2516 401.535 39.5623 401.931 34.14L401.973 34.0774ZM392.754 69.0309C394.404 69.2749 396.086 69.1865 397.702 68.771C399.317 68.3556 400.833 67.6214 402.161 66.6117C402.956 66.068 403.628 65.3641 404.134 64.5452C404.641 63.7263 404.97 62.8105 405.102 61.8567C405.219 61.1872 405.163 60.499 404.941 59.8568C404.718 59.2147 404.336 58.6397 403.829 58.1862C402.069 56.7308 399.856 55.9344 397.572 55.9338C395.055 55.7574 392.527 55.8202 390.022 56.1215C388.904 56.4112 387.892 57.0113 387.101 57.8525C385.492 59.0382 384.408 60.8033 384.077 62.7743C384.077 64.2342 385.287 68.4887 392.629 69.0309H392.754ZM397.968 18.1439C399.899 18.4163 401.74 19.13 403.35 20.2294C403.697 20.5105 404.134 20.6584 404.58 20.6466C405.832 20.6466 410.149 20.0626 411.693 20.1877C411.997 20.2618 412.281 20.4034 412.522 20.602C412.764 20.8006 412.958 21.051 413.09 21.3348C413.134 22.1823 413.134 23.0316 413.09 23.8791C413.09 24.3588 412.652 24.8176 411.755 24.8385C410.859 24.8593 408.752 24.6925 405.498 24.3797C406.553 26.6267 407.054 29.0941 406.958 31.5748C406.628 34.4497 405.466 37.1657 403.613 39.3887C401.76 41.6118 399.298 43.2452 396.529 44.0879C394.372 44.7911 392.278 45.6772 390.272 46.7366C390.079 46.8361 389.912 46.9779 389.782 47.1512C389.652 47.3246 389.563 47.525 389.521 47.7376C389.521 49.1975 391.148 50.0526 393.129 50.1986C394.005 50.1986 398.636 50.428 399.387 50.4905C402.396 50.4869 405.307 51.5679 407.584 53.5354C408.249 54.3364 408.738 55.2686 409.018 56.2712C409.298 57.2739 409.364 58.3243 409.211 59.354C409.036 61.8306 407.916 64.1452 406.082 65.8192C403.59 68.8712 400.275 71.144 396.529 72.3678C394.148 72.9447 391.697 73.1764 389.25 73.056C381.24 72.4721 378.383 68.0299 378.633 64.7139C378.647 63.5093 378.95 62.3257 379.516 61.2624C380.082 60.1992 380.895 59.2872 381.887 58.6033C383.827 57.2685 385.37 56.2466 387.706 54.7867C384.64 53.014 382.972 51.8253 383.138 49.4061C383.114 48.7995 383.315 48.2053 383.702 47.7376C386.053 46.306 388.515 45.0646 391.064 44.0254C388.864 43.307 386.897 42.0105 385.37 40.2714C383.403 37.7977 382.469 34.659 382.763 31.5122C382.922 29.3372 383.59 27.23 384.713 25.3607C385.836 23.4914 387.383 21.9123 389.229 20.7508C391.711 18.9621 394.7 18.0122 397.76 18.0396L397.968 18.1439Z" fill="white"/>
<path d="M429.673 4.17142C430.115 4.27659 430.531 4.4682 430.899 4.73519C431.266 5.00218 431.577 5.33928 431.814 5.72703C432.05 6.11479 432.208 6.54553 432.277 6.99443C432.346 7.44332 432.326 7.90148 432.217 8.34249C432.191 8.87904 432.057 9.40481 431.823 9.88816C431.588 10.3715 431.259 10.8025 430.853 11.1551C430.448 11.5077 429.976 11.7748 429.464 11.9401C428.953 12.1055 428.414 12.1657 427.879 12.1173C426.981 11.9087 426.202 11.3525 425.713 10.5706C425.224 9.78874 425.065 8.84496 425.272 7.94624C425.372 6.86925 425.888 5.87356 426.709 5.16928C427.53 4.465 428.593 4.10722 429.673 4.17142ZM421.538 28.2176C421.538 27.8005 421.121 27.4877 417.804 26.3198C417.533 26.1947 417.492 26.007 417.804 25.6524C418.535 24.276 418.639 24.13 419.014 24.1091C422.018 23.5252 424.75 22.7118 428.15 22.0236C428.272 21.9823 428.404 21.9823 428.525 22.0236C428.671 22.0236 428.63 22.2113 428.525 22.691C427.357 28.0925 425.209 39.3752 424.542 43.5463C423.874 47.7174 423.666 49.0938 423.582 50.074C423.499 51.0542 423.582 51.7216 424.354 51.7633C426.627 51.951 427.211 52.0553 427.441 52.0761C427.67 52.097 428.004 52.6601 427.9 52.8895L427.357 54.975C427.211 55.4338 427.065 55.413 426.69 55.3713C424.604 55.0376 422.518 54.537 420.245 54.1825C418.125 53.8622 415.985 53.688 413.842 53.6611C413.487 53.6611 413.362 53.4943 413.32 53.1606C413.313 52.5318 413.362 51.9037 413.466 51.2836C413.466 50.9708 413.675 50.9082 413.904 50.9499C416.574 50.9499 417.2 50.9499 418.076 48.7184C419.151 44.8166 419.953 40.8444 420.474 36.8309L421.621 28.2802L421.538 28.2176Z" fill="white"/>
<path d="M432.572 54.2237C435.012 53.9109 436.014 53.5772 436.744 51.5125C438.079 47.9609 439.2 44.3325 440.102 40.6469C440.894 37.5812 441.457 34.7031 441.749 33.285C441.958 32.4925 441.749 32.0962 438.683 30.4069C438.496 29.9273 438.308 30.0524 438.934 28.8636C438.934 28.6342 439.226 28.5299 439.705 28.4882C443.189 27.6123 446.818 26.507 447.256 26.2776C447.528 26.1939 447.818 26.1939 448.09 26.2776C448.445 26.3818 448.758 26.6947 448.674 27.0284C448.403 28.384 448.09 29.8855 447.757 31.1994C447.757 31.5748 447.757 31.9085 447.923 31.9919C450.273 31.1936 452.669 30.5389 455.099 30.0315C456.511 29.6986 457.982 29.6986 459.395 30.0315C461.194 30.404 462.774 31.4674 463.796 32.993C465.269 35.6103 465.687 38.6912 464.964 41.6062C464.672 43.2955 464.193 45.1725 463.337 48.5719C461.877 54.328 461.085 57.7274 460.626 59.5418C460.438 60.2509 460.501 60.3343 460.626 60.3969C461.272 60.5637 463.4 60.8557 464.485 61.0434C464.693 61.0434 464.777 61.4605 464.651 61.9193C464.437 62.5416 464.179 63.1479 463.88 63.7337C463.629 64.1091 463.504 64.0674 463.212 63.984C456.851 62.3781 454.64 62.1487 451.928 61.4605C451.49 61.3562 451.136 61.252 451.156 60.9183V59.2707C453.409 58.9996 454.369 58.5616 455.203 56.4344C456.519 52.9269 457.585 49.3308 458.394 45.673C459.5 41.3351 460 39.1036 458.853 36.7261C458.452 35.895 457.871 35.1629 457.154 34.5824C456.436 34.0019 455.599 33.5873 454.702 33.3684C452.509 33.0462 450.27 33.2536 448.174 33.9732C447.848 34.1374 447.565 34.3757 447.347 34.6691C447.13 34.9625 446.984 35.3027 446.922 35.6625C446.067 38.3945 443.21 49.6564 442.125 53.9109C441.875 54.9328 441.979 55.1413 445.525 56.7055C445.921 56.8932 445.963 57.06 445.817 57.3729L444.941 58.9996L438.871 57.4563C436.014 56.7264 433.636 56.5387 432.217 56.1841C432.071 56.1841 432.03 55.9756 432.217 55.6419L432.781 54.036L432.572 54.2237Z" fill="white"/>
<path d="M492.684 49.7814C493.037 48.3018 492.89 46.7473 492.268 45.3595C491.645 43.9716 490.582 42.8281 489.243 42.1067C488.555 41.8993 487.815 41.9436 487.157 42.2318C484.592 43.0035 482.026 46.4029 480.9 49.6354C484.404 49.9066 487.804 50.4697 491.329 50.7616C491.871 50.7616 492.309 50.7616 492.601 49.8649L492.684 49.7814ZM492.684 40.0837C494.83 41.036 496.521 42.7863 497.398 44.9639C498.178 46.879 498.493 48.9517 498.316 51.0119C498.984 51.0119 500.402 51.1787 500.527 51.575C500.652 51.9712 500.527 52.0338 500.423 52.3049C499.964 52.9097 498.963 54.1193 498.337 54.0359C493.185 53.5145 483.57 52.1381 480.232 51.9504C479.857 51.9504 479.586 52.2215 479.252 53.1391C476.666 60.7722 479.252 65.2561 483.736 66.9454C485.303 67.4659 486.958 67.6712 488.605 67.5495C490.251 67.4278 491.858 66.9815 493.331 66.2363C493.79 66.0486 494.624 66.3614 494.457 66.57C493.727 68.3635 493.394 68.8432 492.81 69.156C489.506 70.515 485.951 71.1549 482.381 71.033C481.46 70.984 480.553 70.7941 479.69 70.4699C478.015 69.8196 476.503 68.8105 475.26 67.5134C474.017 66.2163 473.073 64.6628 472.494 62.962C471.397 59.4314 471.551 55.6304 472.932 52.2007C473.985 49.3587 475.675 46.796 477.874 44.7098C480.072 42.6236 482.72 41.0695 485.614 40.1671C487.888 39.3798 490.35 39.3142 492.664 39.9794L492.684 40.0837Z" fill="white"/>
<path d="M521.593 62.5663C522.071 61.1203 522.061 59.5571 521.564 58.1176C521.066 56.678 520.109 55.4419 518.84 54.5996C518.165 54.3594 517.429 54.3594 516.754 54.5996C514.126 55.1627 511.248 58.291 509.913 61.4402C513.396 62.0241 516.733 62.8792 520.112 63.5257C520.396 63.5857 520.693 63.5378 520.943 63.3913C521.194 63.2447 521.381 63.0101 521.468 62.7332L521.593 62.5663ZM522.511 52.9103C524.522 54.0746 526.014 55.9614 526.683 58.1867C527.274 60.1684 527.395 62.2606 527.037 64.2973C527.705 64.4433 529.123 64.6727 529.123 65.0481C529.123 65.4235 529.123 65.5278 528.935 65.7781C528.747 66.0283 527.329 67.4465 526.662 67.3005C521.572 66.3412 512.061 64.0888 508.807 63.6925C508.453 63.6925 508.14 63.9011 507.723 64.7979C504.469 72.1598 506.555 76.8314 510.956 78.9169C512.466 79.5841 514.095 79.9426 515.747 79.9712C517.398 79.9999 519.038 79.6981 520.571 79.0838C521.051 78.9586 521.843 79.334 521.677 79.5217C520.759 81.2527 520.383 81.6073 519.779 81.9409C516.368 83.0033 512.769 83.3233 509.224 82.8794C508.31 82.7534 507.422 82.4786 506.596 82.0661C504.991 81.265 503.58 80.1245 502.46 78.7236C501.34 77.3228 500.538 75.695 500.11 73.9534C499.338 70.3391 499.831 66.5693 501.507 63.2754C502.819 60.5427 504.737 58.1454 507.115 56.2661C509.493 54.3867 512.269 53.0749 515.232 52.4307C517.565 51.8484 520.022 52.0088 522.261 52.8895L522.511 52.9103Z" fill="white"/>
<path d="M524.555 87.446C526.349 87.738 526.641 87.7797 527.413 86.9455C528.185 86.1113 529.123 84.276 532.69 78.1654L536.361 71.9088C537.341 70.2403 537.466 69.8232 535.422 67.5083C535.261 67.2008 535.194 66.8522 535.232 66.5068C535.269 66.1615 535.408 65.835 535.631 65.5688C539.072 65.2142 542.576 65.1934 545.413 64.8597C545.727 64.8547 546.039 64.9114 546.331 65.0265C546.581 65.1725 546.623 65.8399 546.122 66.403C544.996 68.1965 543.87 69.6981 542.702 71.8462C544.391 71.8462 550.273 70.6992 551.462 70.5532C552.248 70.2967 553.095 70.2967 553.881 70.5532C554.718 71.1264 555.332 71.9697 555.62 72.9417C555.909 73.9137 555.855 74.9554 555.467 75.8921C554.267 77.0862 552.769 77.9361 551.128 78.3531C550.674 78.5027 550.185 78.5027 549.731 78.3531C549.555 78.2602 549.41 78.118 549.313 77.9439C549.217 77.7698 549.174 77.5713 549.188 77.3729C549.194 76.7883 549.063 76.2105 548.806 75.6855C548.549 75.1605 548.173 74.7028 547.708 74.3489C545.878 73.7082 543.885 73.7082 542.055 74.3489C541.367 74.5157 540.699 75.3499 538.78 78.645L533.67 87.446C532.994 88.4103 532.486 89.4821 532.168 90.616C532.168 91.0748 532.294 91.4294 533.024 91.7631L536.549 93.6192C536.623 93.6689 536.686 93.7335 536.734 93.8087C536.781 93.884 536.813 93.9683 536.827 94.0565C536.841 94.1446 536.836 94.2347 536.813 94.3209C536.79 94.4072 536.75 94.4878 536.695 94.5577L535.047 96.5181L526.704 91.6171C525.056 90.6577 523.366 89.8861 522.928 89.5315C522.49 89.177 522.678 89.0936 523.095 88.7807L524.618 87.5086L524.555 87.446Z" fill="white"/>
<path d="M579.328 64.4015C580.046 64.9716 580.509 65.8036 580.615 66.7146C580.72 67.6257 580.46 68.5414 579.891 69.2608C579.644 69.7369 579.304 70.158 578.89 70.4986C578.475 70.8393 577.996 71.0923 577.482 71.2424C576.967 71.3926 576.427 71.4367 575.895 71.3721C575.362 71.3075 574.849 71.1355 574.385 70.8666C574.016 70.5903 573.706 70.2427 573.474 69.8445C573.242 69.4463 573.093 69.0056 573.034 68.5485C572.976 68.0914 573.01 67.6273 573.134 67.1836C573.259 66.7399 573.471 66.3257 573.759 65.9656C574.297 65.0447 575.168 64.365 576.192 64.0663C577.216 63.7676 578.316 63.8726 579.265 64.3598L579.328 64.4015ZM561.849 82.8167C561.995 82.4413 561.849 82.0034 559.263 79.5216C559.054 79.2922 559.096 79.1253 559.513 78.9168C560.744 77.9783 560.889 77.874 561.244 78.02C564.227 78.7499 567.043 79.167 570.422 79.9595C570.545 79.9568 570.664 80.0017 570.755 80.0847C570.88 80.0847 570.755 80.3141 570.526 80.7103C567.209 85.1317 560.514 94.454 558.157 97.9577C555.8 101.461 555.028 102.629 554.549 103.484C554.069 104.339 553.902 104.986 554.549 105.34C556.53 106.467 557.031 106.8 557.219 106.925C557.406 107.051 557.49 107.697 557.219 107.864L555.863 109.491C555.529 109.845 555.404 109.783 555.112 109.491C553.339 108.302 551.712 107.009 549.751 105.695C547.953 104.534 546.086 103.483 544.162 102.546C543.849 102.337 543.786 102.191 543.89 101.878C544.141 101.3 544.448 100.748 544.808 100.231C544.996 99.9598 545.163 99.9807 545.35 100.106C547.728 101.315 548.354 101.441 549.981 99.793C552.598 96.704 554.996 93.4357 557.156 90.0118L561.786 82.7333L561.849 82.8167Z" fill="white"/>
<mask id="mask2_328_390" style="mask-type:luminance" maskUnits="userSpaceOnUse" x="5" y="0" width="627" height="485">
<path d="M631.368 0H5.63086V484.532H631.368V0Z" fill="white"/>
</mask>
<g mask="url(#mask2_328_390)">
<path d="M561.077 110.93C563.413 111.66 564.456 111.764 565.999 110.179C568.616 107.496 571.081 104.669 573.383 101.712C575.344 99.2301 577.054 96.8526 577.909 95.643C578.41 95.0173 578.389 94.5793 576.282 91.7639C576.282 91.2634 576.095 91.3051 577.138 90.4709C577.284 90.2832 577.555 90.2832 577.993 90.4709C581.538 91.0965 585.293 91.597 585.773 91.5762C586.064 91.5895 586.343 91.6996 586.565 91.889C586.712 91.9798 586.818 92.124 586.861 92.2912C586.904 92.4584 586.88 92.6357 586.795 92.7858C586.002 93.912 585.084 95.1633 584.229 96.2478C583.979 96.5606 583.833 96.8734 584.062 97.0403C586.531 97.2787 588.983 97.6687 591.404 98.2082C592.828 98.4569 594.177 99.0275 595.346 99.8766C596.776 100.946 597.746 102.519 598.058 104.277C598.339 107.274 597.449 110.263 595.576 112.619C594.637 114.058 593.49 115.581 591.258 118.334C587.566 122.963 585.439 125.758 584.292 127.218C583.833 127.802 583.833 127.906 584 128.031C584.542 128.448 586.357 129.595 587.274 130.221C587.441 130.346 587.274 130.701 587.045 131.076C586.608 131.565 586.126 132.012 585.606 132.411C585.251 132.64 585.126 132.557 584.897 132.411C579.849 128.344 577.763 127.218 575.677 125.487C575.323 125.216 575.052 124.986 575.198 124.694L575.907 123.172C576.7 123.61 577.622 123.758 578.512 123.59C579.403 123.423 580.207 122.95 580.788 122.254C583.417 119.593 585.857 116.749 588.088 113.745C590.883 110.242 592.259 108.427 592.259 105.779C592.206 104.854 591.944 103.953 591.492 103.144C591.041 102.334 590.412 101.638 589.652 101.107C587.765 99.9189 585.618 99.2035 583.395 99.0215C583.029 99.0317 582.672 99.1299 582.352 99.3078C582.032 99.4857 581.761 99.7381 581.559 100.043C579.682 102.129 572.444 111.284 569.712 114.642C569.066 115.476 569.065 115.685 571.652 118.584C571.965 118.918 571.923 119.084 571.652 119.293L570.192 120.419L565.248 116.603C562.954 114.767 560.847 113.62 559.7 112.703C559.575 112.703 559.7 112.432 559.825 112.181L561.014 110.93H561.077Z" fill="white"/>
<path d="M614.598 136.29C616.602 134.268 618.103 131.804 618.979 129.095C619.344 127.799 619.355 126.428 619.01 125.126C618.665 123.823 617.977 122.638 617.018 121.692C616.481 121.215 615.853 120.852 615.172 120.626C614.491 120.4 613.77 120.316 613.055 120.378C612.017 120.47 611.007 120.767 610.084 121.25C609.16 121.733 608.341 122.393 607.674 123.193C605.319 125.593 603.911 128.763 603.711 132.119C603.619 133.17 603.744 134.229 604.077 135.23C604.411 136.231 604.946 137.152 605.65 137.938C607.611 139.836 610.781 140.274 614.557 136.353L614.598 136.29ZM585.189 157.292C586.304 158.533 587.654 159.541 589.162 160.257C590.669 160.973 592.303 161.383 593.97 161.463C594.929 161.545 595.895 161.428 596.806 161.119C597.718 160.811 598.556 160.317 599.268 159.669C599.786 159.227 600.182 158.659 600.419 158.02C600.656 157.382 600.727 156.693 600.624 156.02C600.213 153.794 599.041 151.781 597.307 150.326C595.482 148.588 593.499 147.024 591.384 145.655C590.337 145.165 589.172 144.984 588.025 145.133C586.035 145.016 584.077 145.674 582.561 146.968C581.539 148.032 579.849 152.141 585.147 157.25L585.189 157.292ZM621.711 121.462C623.014 122.919 623.969 124.651 624.506 126.53C624.589 126.972 624.834 127.366 625.194 127.636C626.091 128.491 629.846 130.743 630.951 131.807C631.136 132.058 631.262 132.348 631.319 132.655C631.377 132.962 631.365 133.278 631.285 133.579C631.16 133.809 629.971 135.373 629.741 135.665C629.512 135.957 628.803 136.124 628.114 135.665C627.426 135.206 625.883 133.579 623.609 131.327C622.945 133.671 621.754 135.833 620.126 137.646C618.041 139.643 615.421 140.99 612.584 141.524C609.747 142.057 606.816 141.753 604.149 140.649C602.039 139.832 599.871 139.177 597.662 138.689C597.45 138.645 597.23 138.651 597.021 138.705C596.811 138.759 596.616 138.861 596.452 139.002C595.43 140.044 596.202 141.796 597.641 143.173C598.267 143.798 601.813 146.885 602.209 147.344C604.529 149.267 606.076 151.962 606.568 154.935C606.584 155.998 606.373 157.052 605.948 158.027C605.524 159.002 604.896 159.874 604.107 160.587C602.383 162.363 600.05 163.421 597.578 163.548C593.704 164.307 589.694 163.938 586.023 162.485C583.819 161.389 581.782 159.985 579.974 158.314C574.197 152.745 574.843 147.49 577.096 145.154C577.884 144.241 578.877 143.527 579.993 143.07C581.109 142.614 582.318 142.427 583.52 142.526C585.856 142.756 587.692 142.943 590.424 143.298C589.214 140.003 588.672 138.001 590.424 136.249C590.794 135.768 591.329 135.441 591.926 135.331C594.647 135.741 597.332 136.361 599.956 137.187C598.732 135.216 598.048 132.958 597.975 130.639C598.057 127.501 599.341 124.515 601.562 122.297C603.069 120.717 604.927 119.516 606.986 118.791C609.045 118.066 611.246 117.838 613.41 118.125C616.478 118.325 619.402 119.502 621.753 121.483L621.711 121.462Z" fill="white"/>
</g>
<path d="M19.6046 526.176H21.7261V537.776C21.7261 538.973 21.4438 540.043 20.8792 540.984C20.3203 541.919 19.5305 542.657 18.5097 543.199C17.4889 543.735 16.2913 544.003 14.9169 544.003C13.5425 544.003 12.345 543.735 11.3242 543.199C10.3034 542.657 9.51066 541.919 8.94608 540.984C8.38721 540.043 8.10777 538.973 8.10777 537.776V526.176H10.2292V537.605C10.2292 538.46 10.4174 539.221 10.7938 539.889C11.1702 540.55 11.7062 541.072 12.402 541.454C13.1034 541.83 13.9417 542.019 14.9169 542.019C15.8921 542.019 16.7304 541.83 17.4319 541.454C18.1333 541.072 18.6694 540.55 19.04 539.889C19.4164 539.221 19.6046 538.46 19.6046 537.605V526.176ZM39.8546 526.176V543.695H37.8016L28.2551 529.94H28.084V543.695H25.9625V526.176H28.0155L37.5963 539.966H37.7673V526.176H39.8546ZM46.2424 526.088V543.695H44.1103V526.088H46.2424ZM51.2396 526.088L56.4668 540.91H56.6731L61.9002 526.088H64.1355L57.6704 543.695H55.4695L49.0043 526.088H51.2396ZM66.8781 543.695V526.088H77.5043V527.979H69.0102V533.929H76.9541V535.82H69.0102V541.804H77.6419V543.695H66.8781ZM81.3473 543.695V526.088H87.2967C88.6722 526.088 89.8014 526.323 90.684 526.793C91.5667 527.257 92.2201 527.896 92.6442 528.71C93.0683 529.524 93.2804 530.45 93.2804 531.487C93.2804 532.525 93.0683 533.444 92.6442 534.247C92.2201 535.049 91.5695 535.68 90.6926 536.138C89.8157 536.591 88.6952 536.817 87.3311 536.817H82.5166V534.892H87.2623C88.2023 534.892 88.9588 534.754 89.532 534.479C90.1109 534.204 90.5293 533.814 90.7872 533.31C91.0508 532.8 91.1827 532.192 91.1827 531.487C91.1827 530.782 91.0508 530.166 90.7872 529.639C90.5235 529.111 90.1023 528.704 89.5234 528.418C88.9445 528.126 88.1793 527.979 87.2279 527.979H83.4795V543.695H81.3473ZM89.6351 535.786L93.9682 543.695H91.4922L87.2279 535.786H89.6351ZM106.462 530.49C106.359 529.619 105.941 528.942 105.207 528.461C104.473 527.979 103.574 527.739 102.507 527.739C101.728 527.739 101.046 527.865 100.461 528.117C99.8824 528.369 99.4296 528.716 99.1029 529.157C98.7819 529.599 98.6215 530.1 98.6215 530.662C98.6215 531.132 98.7332 531.536 98.9568 531.874C99.186 532.206 99.4783 532.484 99.8337 532.708C100.189 532.926 100.562 533.106 100.951 533.25C101.341 533.387 101.699 533.499 102.026 533.585L103.814 534.066C104.273 534.187 104.783 534.353 105.345 534.565C105.912 534.777 106.454 535.066 106.969 535.433C107.491 535.794 107.921 536.259 108.259 536.826C108.597 537.393 108.766 538.09 108.766 538.915C108.766 539.867 108.517 540.726 108.018 541.494C107.525 542.262 106.803 542.873 105.852 543.326C104.906 543.778 103.757 544.005 102.404 544.005C101.143 544.005 100.051 543.801 99.1287 543.394C98.2117 542.987 97.4895 542.42 96.9622 541.692C96.4406 540.964 96.1454 540.119 96.0767 539.156H98.2776C98.3349 539.821 98.5584 540.371 98.9482 540.807C99.3436 541.236 99.8423 541.557 100.444 541.77C101.052 541.976 101.705 542.079 102.404 542.079C103.218 542.079 103.949 541.947 104.597 541.684C105.244 541.414 105.757 541.042 106.136 540.566C106.514 540.084 106.703 539.523 106.703 538.881C106.703 538.296 106.54 537.82 106.213 537.454C105.886 537.087 105.456 536.789 104.923 536.56C104.39 536.33 103.814 536.13 103.195 535.958L101.029 535.339C99.6531 534.943 98.5641 534.379 97.7617 533.645C96.9593 532.911 96.5581 531.951 96.5581 530.765C96.5581 529.779 96.8246 528.919 97.3577 528.186C97.8964 527.446 98.6186 526.873 99.5242 526.466C100.435 526.054 101.453 525.847 102.576 525.847C103.711 525.847 104.72 526.051 105.602 526.458C106.485 526.859 107.184 527.409 107.7 528.108C108.222 528.808 108.497 529.601 108.526 530.49H106.462ZM114.404 526.088V543.695H112.272V526.088H114.404ZM117.716 527.979V526.088H130.922V527.979H125.385V543.695H123.253V527.979H117.716ZM132.699 526.088H135.141L140.024 534.307H140.23L145.114 526.088H147.555L141.193 536.439V543.695H139.061V536.439L132.699 526.088ZM171.978 534.892C171.978 536.749 171.643 538.354 170.972 539.706C170.301 541.059 169.382 542.102 168.212 542.836C167.043 543.569 165.708 543.936 164.206 543.936C162.704 543.936 161.369 543.569 160.2 542.836C159.03 542.102 158.11 541.059 157.44 539.706C156.769 538.354 156.434 536.749 156.434 534.892C156.434 533.035 156.769 531.43 157.44 530.077C158.11 528.725 159.03 527.681 160.2 526.948C161.369 526.214 162.704 525.847 164.206 525.847C165.708 525.847 167.043 526.214 168.212 526.948C169.382 527.681 170.301 528.725 170.972 530.077C171.643 531.43 171.978 533.035 171.978 534.892ZM169.915 534.892C169.915 533.367 169.66 532.08 169.149 531.031C168.645 529.983 167.96 529.189 167.095 528.65C166.235 528.111 165.272 527.842 164.206 527.842C163.14 527.842 162.174 528.111 161.309 528.65C160.449 529.189 159.764 529.983 159.254 531.031C158.75 532.08 158.497 533.367 158.497 534.892C158.497 536.416 158.75 537.703 159.254 538.752C159.764 539.801 160.449 540.595 161.309 541.133C162.174 541.672 163.14 541.941 164.206 541.941C165.272 541.941 166.235 541.672 167.095 541.133C167.96 540.595 168.645 539.801 169.149 538.752C169.66 537.703 169.915 536.416 169.915 534.892ZM175.563 543.695V526.088H186.12V527.979H177.695V533.929H185.33V535.82H177.695V543.695H175.563ZM211.437 534.892C211.437 536.749 211.102 538.354 210.432 539.706C209.761 541.059 208.841 542.102 207.672 542.836C206.503 543.569 205.167 543.936 203.665 543.936C202.164 543.936 200.828 543.569 199.659 542.836C198.49 542.102 197.57 541.059 196.899 539.706C196.229 538.354 195.893 536.749 195.893 534.892C195.893 533.035 196.229 531.43 196.899 530.077C197.57 528.725 198.49 527.681 199.659 526.948C200.828 526.214 202.164 525.847 203.665 525.847C205.167 525.847 206.503 526.214 207.672 526.948C208.841 527.681 209.761 528.725 210.432 530.077C211.102 531.43 211.437 533.035 211.437 534.892ZM209.374 534.892C209.374 533.367 209.119 532.08 208.609 531.031C208.105 529.983 207.42 529.189 206.554 528.65C205.694 528.111 204.731 527.842 203.665 527.842C202.599 527.842 201.634 528.111 200.768 528.65C199.908 529.189 199.223 529.983 198.713 531.031C198.209 532.08 197.957 533.367 197.957 534.892C197.957 536.416 198.209 537.703 198.713 538.752C199.223 539.801 199.908 540.595 200.768 541.133C201.634 541.672 202.599 541.941 203.665 541.941C204.731 541.941 205.694 541.672 206.554 541.133C207.42 540.595 208.105 539.801 208.609 538.752C209.119 537.703 209.374 536.416 209.374 534.892ZM213.327 527.979V526.088H226.532V527.979H220.995V543.695H218.863V527.979H213.327ZM228.86 527.979V526.088H242.065V527.979H236.529V543.695H234.396V527.979H228.86ZM244.021 543.695H241.786L248.251 526.088H250.452L256.917 543.695H254.682L249.42 528.874H249.283L244.021 543.695ZM244.847 536.817H253.856V538.709H244.847V536.817ZM261.487 543.695L256.672 526.088H258.839L262.518 540.428H262.69L266.439 526.088H268.846L272.594 540.428H272.766L276.446 526.088H278.612L273.798 543.695H271.597L267.711 529.665H267.573L263.687 543.695H261.487ZM280.62 543.695H278.385L284.85 526.088H287.051L293.516 543.695H291.281L286.019 528.874H285.881L280.62 543.695ZM281.445 536.817H290.455V538.709H281.445V536.817Z" fill="white"/>
<path d="M4.39403 571.371V589.514H2.19701V571.371H4.39403ZM8.79913 589.514V571.371H19.7488V573.32H10.9961V579.45H19.1818V581.399H10.9961V587.565H19.8905V589.514H8.79913ZM23.7087 589.514V571.371H34.6583V573.32H25.9057V579.45H34.0914V581.399H25.9057V587.565H34.8001V589.514H23.7087ZM38.6183 589.514V571.371H49.5679V573.32H40.8153V579.45H49.0009V581.399H40.8153V587.565H49.7096V589.514H38.6183ZM70.5891 575.768C70.4817 574.861 70.0462 574.157 69.2826 573.656C68.519 573.155 67.5823 572.905 66.4727 572.905C65.6613 572.905 64.9513 573.036 64.3428 573.298C63.7403 573.561 63.269 573.922 62.9289 574.381C62.5948 574.841 62.4278 575.363 62.4278 575.947C62.4278 576.436 62.5441 576.857 62.7768 577.209C63.0154 577.555 63.3197 577.844 63.6896 578.077C64.0594 578.304 64.4472 578.492 64.8529 578.641C65.2586 578.784 65.6315 578.9 65.9715 578.99L67.8329 579.491C68.3102 579.616 68.8411 579.789 69.4258 580.01C70.0164 580.231 70.5802 580.532 71.1171 580.914C71.66 581.29 72.1075 581.773 72.4594 582.364C72.8114 582.954 72.9874 583.679 72.9874 584.538C72.9874 585.528 72.7279 586.423 72.2089 587.223C71.6958 588.022 70.9441 588.658 69.9538 589.129C68.9694 589.6 67.7732 589.836 66.3653 589.836C65.0528 589.836 63.9163 589.624 62.9558 589.2C62.0012 588.777 61.2495 588.186 60.7006 587.429C60.1577 586.671 59.8505 585.791 59.7789 584.789H62.0698C62.1295 585.481 62.3621 586.053 62.7678 586.507C63.1795 586.954 63.6985 587.288 64.3249 587.509C64.9573 587.724 65.6374 587.831 66.3653 587.831C67.2124 587.831 67.9731 587.694 68.6472 587.42C69.3214 587.139 69.8553 586.751 70.2491 586.256C70.6428 585.755 70.8397 585.17 70.8397 584.502C70.8397 583.894 70.6697 583.399 70.3296 583.017C69.9896 582.635 69.5421 582.325 68.9873 582.086C68.4325 581.847 67.8329 581.639 67.1886 581.46L64.9335 580.815C63.5016 580.404 62.3681 579.816 61.5329 579.052C60.6977 578.289 60.28 577.29 60.28 576.055C60.28 575.028 60.5575 574.134 61.1123 573.37C61.6731 572.6 62.4248 572.004 63.3674 571.58C64.316 571.151 65.3749 570.936 66.5442 570.936C67.7255 570.936 68.7755 571.148 69.6942 571.571C70.613 571.989 71.3408 572.562 71.8778 573.289C72.4207 574.017 72.707 574.844 72.7369 575.768H70.5891ZM75.6341 573.155V571.186H89.3795V573.155H83.6164V589.514H81.3971V573.155H75.6341ZM104.832 571.186H107.051V583.321C107.051 584.574 106.756 585.693 106.165 586.677C105.581 587.655 104.754 588.428 103.687 588.995C102.619 589.555 101.366 589.836 99.928 589.836C98.4902 589.836 97.2374 589.555 96.1695 588.995C95.1016 588.428 94.2723 587.655 93.6817 586.677C93.097 585.693 92.8047 584.574 92.8047 583.321V571.186H95.024V583.142C95.024 584.037 95.2209 584.833 95.6146 585.531C96.0084 586.223 96.5692 586.769 97.297 587.169C98.0308 587.563 98.9078 587.76 99.928 587.76C100.948 587.76 101.825 587.563 102.559 587.169C103.293 586.769 103.854 586.223 104.241 585.531C104.635 584.833 104.832 584.037 104.832 583.142V571.186ZM117.139 589.514H111.483V571.186H117.389C119.167 571.186 120.689 571.553 121.953 572.287C123.218 573.015 124.188 574.062 124.862 575.428C125.536 576.788 125.873 578.417 125.873 580.314C125.873 582.223 125.533 583.867 124.853 585.245C124.173 586.617 123.182 587.673 121.882 588.413C120.581 589.147 119 589.514 117.139 589.514ZM113.703 587.545H116.996C118.511 587.545 119.767 587.253 120.763 586.668C121.759 586.083 122.502 585.251 122.991 584.171C123.481 583.091 123.725 581.806 123.725 580.314C123.725 578.835 123.484 577.561 123 576.493C122.517 575.419 121.795 574.596 120.835 574.023C119.874 573.444 118.678 573.155 117.246 573.155H113.703V587.545ZM129.596 589.514V571.186H140.657V573.155H131.815V579.348H140.084V581.317H131.815V587.545H140.8V589.514H129.596ZM159.19 571.186V589.514H157.042L147.055 575.124H146.876V589.514H144.657V571.186H146.804L156.827 585.612H157.006V571.186H159.19ZM162.628 573.155V571.186H176.374V573.155H170.611V589.514H168.391V573.155H162.628ZM186.886 589.514V571.186H193.294C194.57 571.186 195.623 571.407 196.453 571.849C197.282 572.284 197.899 572.872 198.305 573.612C198.711 574.345 198.914 575.16 198.914 576.055C198.914 576.842 198.773 577.492 198.493 578.005C198.219 578.519 197.855 578.924 197.401 579.222C196.954 579.521 196.468 579.742 195.943 579.885V580.064C196.503 580.099 197.067 580.296 197.634 580.654C198.201 581.012 198.675 581.525 199.057 582.194C199.439 582.862 199.63 583.679 199.63 584.645C199.63 585.564 199.421 586.391 199.003 587.124C198.585 587.858 197.926 588.44 197.025 588.869C196.125 589.299 194.952 589.514 193.508 589.514H186.886ZM189.106 587.545H193.508C194.958 587.545 195.987 587.265 196.596 586.704C197.21 586.137 197.518 585.451 197.518 584.645C197.518 584.025 197.359 583.452 197.043 582.927C196.727 582.396 196.277 581.973 195.692 581.657C195.107 581.334 194.415 581.173 193.616 581.173H189.106V587.545ZM189.106 579.24H193.222C193.89 579.24 194.493 579.109 195.03 578.847C195.573 578.584 196.002 578.214 196.318 577.737C196.641 577.26 196.802 576.699 196.802 576.055C196.802 575.249 196.521 574.566 195.96 574.005C195.4 573.439 194.511 573.155 193.294 573.155H189.106V579.24ZM203.276 589.514V571.186H209.469C210.901 571.186 212.076 571.431 212.995 571.92C213.913 572.403 214.594 573.069 215.035 573.916C215.476 574.763 215.697 575.726 215.697 576.806C215.697 577.886 215.476 578.844 215.035 579.679C214.594 580.514 213.916 581.17 213.004 581.648C212.091 582.119 210.924 582.355 209.505 582.355H204.493V580.35H209.433C210.411 580.35 211.199 580.207 211.795 579.92C212.398 579.634 212.834 579.228 213.102 578.703C213.376 578.172 213.514 577.54 213.514 576.806C213.514 576.072 213.376 575.431 213.102 574.882C212.828 574.333 212.389 573.91 211.787 573.612C211.184 573.307 210.388 573.155 209.397 573.155H205.495V589.514H203.276ZM211.903 581.281L216.413 589.514H213.836L209.397 581.281H211.903ZM220.147 589.514H217.82L224.55 571.186H226.841L233.57 589.514H231.244L225.767 574.086H225.624L220.147 589.514ZM221.006 582.355H230.385V584.323H221.006V582.355ZM250.958 571.186V589.514H248.81L238.823 575.124H238.644V589.514H236.425V571.186H238.573L248.595 585.612H248.774V571.186H250.958ZM270.147 576.914H267.927C267.796 576.275 267.566 575.715 267.238 575.231C266.916 574.748 266.522 574.342 266.057 574.014C265.598 573.68 265.087 573.43 264.527 573.263C263.966 573.095 263.381 573.012 262.773 573.012C261.663 573.012 260.658 573.292 259.757 573.853C258.862 574.414 258.149 575.24 257.618 576.332C257.093 577.424 256.831 578.763 256.831 580.35C256.831 581.937 257.093 583.276 257.618 584.368C258.149 585.46 258.862 586.286 259.757 586.847C260.658 587.408 261.663 587.688 262.773 587.688C263.381 587.688 263.966 587.605 264.527 587.438C265.087 587.27 265.598 587.023 266.057 586.695C266.522 586.361 266.916 585.952 267.238 585.469C267.566 584.98 267.796 584.419 267.927 583.786H270.147C269.98 584.723 269.675 585.561 269.234 586.301C268.792 587.041 268.243 587.67 267.587 588.189C266.931 588.702 266.194 589.093 265.377 589.362C264.565 589.63 263.697 589.764 262.773 589.764C261.21 589.764 259.82 589.382 258.603 588.619C257.385 587.855 256.428 586.769 255.73 585.361C255.032 583.953 254.683 582.283 254.683 580.35C254.683 578.417 255.032 576.747 255.73 575.339C256.428 573.931 257.385 572.845 258.603 572.081C259.82 571.318 261.21 570.936 262.773 570.936C263.697 570.936 264.565 571.07 265.377 571.339C266.194 571.607 266.931 572.001 267.587 572.52C268.243 573.033 268.792 573.659 269.234 574.399C269.675 575.133 269.98 575.971 270.147 576.914ZM273.733 589.514V571.186H275.952V579.348H285.724V571.186H287.944V589.514H285.724V581.317H275.952V589.514H273.733Z" fill="white"/>
</svg>
