<svg width="512" height="395" viewBox="0 0 512 395" fill="none" xmlns="http://www.w3.org/2000/svg">
<path d="M405.452 147.807C392.452 127.107 341.052 54.4066 257.552 59.3066C156.552 65.2066 121.752 177.107 119.552 183.807C113.052 203.107 102.588 242 102.588 276C110.988 287.6 110.625 285.362 119.588 285.5C158.688 286.1 222.988 283.8 262.088 286C304.688 288.5 371.888 284.4 414.588 286C423.398 266 414.552 286.907 421.952 269.607C442.852 221.007 411.452 157.307 405.452 147.807Z" fill="#AE794E"/>
<path d="M395.852 310.706C397.052 310.906 397.752 310.006 398.552 309.306C399.152 308.806 399.752 308.406 400.352 308.006C401.552 307.206 402.652 306.406 403.452 305.106C403.652 304.706 403.852 304.206 403.752 303.706C403.652 303.306 403.352 302.806 402.952 302.506C402.152 302.006 400.952 302.106 400.352 303.006C400.152 303.306 400.052 303.506 399.752 303.806L400.052 303.506C399.352 304.306 398.552 304.806 397.752 305.406C397.352 305.706 396.852 306.106 396.452 306.406C396.252 306.606 396.052 306.806 395.852 306.906C395.652 307.006 395.452 307.306 395.252 307.506L395.652 307.306C395.652 307.306 395.552 307.306 395.552 307.406L395.952 307.206H395.852H396.352C396.352 307.206 396.252 307.206 396.152 307.206C395.752 307.106 395.152 307.406 394.852 307.606C394.552 307.806 394.252 308.406 394.252 308.806C394.252 309.206 394.352 309.806 394.652 310.106C394.952 310.406 395.352 310.706 395.852 310.706Z" fill="#AE794E"/>
<path d="M396.752 310.706C396.752 310.606 396.852 310.606 396.852 310.506L396.552 310.806C396.652 310.706 396.752 310.606 396.952 310.506L396.552 310.706C396.952 310.506 397.352 310.306 397.752 310.106C398.252 309.806 398.852 309.506 399.352 309.106C400.152 308.506 400.852 307.906 401.552 307.206C401.952 306.906 402.152 306.406 402.152 306.006C402.152 305.506 402.052 305.006 401.752 304.706C401.452 304.406 400.952 304.106 400.552 304.106C400.152 304.106 399.552 304.206 399.252 304.506C398.352 305.306 397.452 306.206 396.452 306.806L396.852 306.606C395.852 307.306 394.652 307.606 393.852 308.706C393.252 309.506 393.452 310.706 394.352 311.206C395.252 311.706 396.152 311.606 396.752 310.706Z" fill="#AE794E"/>
<path d="M167.052 105.806C154.152 113.606 140.152 122.306 135.152 137.306C134.352 139.606 137.952 140.906 138.752 138.606C143.452 124.506 156.752 116.406 168.752 109.206C170.852 108.006 169.252 104.606 167.052 105.806Z" fill="#AE794E"/>
<path d="M154.952 106.107C151.552 114.707 148.052 123.307 144.452 131.907C143.652 133.907 146.752 135.507 147.752 133.607C153.252 122.907 158.752 112.307 164.252 101.607L160.952 99.9067C158.452 108.507 154.952 116.707 150.452 124.407L153.752 126.107C156.652 118.807 159.752 111.607 163.152 104.607C164.152 102.607 161.052 101.207 159.852 102.907C149.652 116.307 141.052 130.907 134.252 146.407L137.952 147.207C138.052 140.907 139.452 134.807 142.252 129.207L138.652 127.907C135.452 136.907 130.952 145.507 125.352 153.207C120.252 160.207 113.252 166.807 112.852 176.007C112.752 177.807 115.252 178.907 116.352 177.207C122.352 167.307 127.652 156.907 132.252 146.307L128.552 145.507C126.752 155.507 123.452 165.107 118.752 174.107C117.652 176.207 120.352 178.307 121.852 176.307C130.152 165.407 137.452 153.807 143.652 141.607L139.952 140.807C138.152 151.307 132.352 160.907 123.852 167.407L126.852 169.507C128.752 160.707 130.652 152.007 132.552 143.207C132.952 141.307 130.352 139.407 129.252 141.507C123.152 152.007 118.252 163.207 115.152 174.907L118.752 176.207C121.052 167.207 125.152 159.007 130.952 151.707L127.452 150.507C127.452 156.607 125.852 162.407 122.452 167.507L125.752 169.207C127.652 160.907 130.652 152.907 134.852 145.507L131.352 144.307C129.752 154.607 126.152 164.607 120.752 173.607L124.052 175.307C127.452 163.307 132.552 151.907 139.052 141.307L135.552 140.107C132.652 154.007 127.352 167.307 119.952 179.507L123.252 181.207C125.252 175.307 127.252 169.407 129.252 163.507C129.952 161.407 127.252 160.107 125.952 161.807C118.952 170.507 113.652 180.607 110.552 191.407C109.952 193.407 112.752 195.007 113.852 193.107C118.452 185.807 123.052 178.507 127.652 171.207L124.552 169.007C120.852 175.207 117.252 181.407 113.552 187.607L116.952 188.307C116.452 186.807 116.452 185.407 117.252 184.107L113.952 182.407C110.952 190.607 107.852 198.707 104.852 206.807L108.552 207.607C108.652 202.907 109.452 198.407 110.952 194.007L107.252 193.207C106.552 201.207 105.252 209.107 103.352 217.007L107.052 217.807C106.852 212.207 108.652 206.607 112.552 202.507L109.452 200.907C109.152 205.907 108.252 210.707 106.752 215.507L110.452 216.307C113.052 202.307 119.752 189.107 129.552 178.807L126.552 176.707C122.852 185.307 117.952 193.207 111.952 200.307C110.352 202.207 113.552 204.307 115.052 202.507C121.252 195.107 126.352 186.807 130.152 178.007C130.852 176.307 128.452 174.507 127.152 175.907C116.552 187.007 109.452 200.907 106.752 216.007C106.352 218.107 109.852 218.807 110.452 216.807C112.052 211.707 112.952 206.507 113.352 201.207C113.452 199.707 111.352 198.407 110.252 199.607C105.752 204.407 103.152 210.807 103.452 217.507C103.452 218.507 103.952 219.307 104.952 219.507C105.752 219.707 106.952 219.207 107.152 218.307C109.152 210.207 110.552 201.907 111.252 193.507C111.452 191.407 108.252 190.707 107.552 192.707C105.952 197.407 105.052 202.307 104.952 207.307C104.952 209.407 107.852 210.107 108.652 208.107C111.652 199.907 114.752 191.807 117.752 183.707C118.452 181.707 115.452 180.107 114.452 182.007C113.252 184.207 112.752 186.707 113.552 189.107C113.952 190.507 116.052 191.407 116.952 189.807C120.652 183.607 124.252 177.407 127.952 171.207C129.152 169.107 126.152 167.007 124.852 169.007C120.252 176.307 115.652 183.607 111.052 190.907L114.352 192.607C117.352 182.107 122.352 172.407 129.252 163.907L125.952 162.207C123.952 168.107 121.952 174.007 119.952 179.907C119.252 181.907 122.152 183.507 123.252 181.607C131.052 168.907 136.452 155.007 139.552 140.407C139.952 138.507 137.052 137.607 136.052 139.207C129.352 150.107 124.052 161.807 120.552 174.107C119.952 176.107 122.752 177.807 123.852 175.807C129.552 166.207 133.352 155.707 135.152 144.707C135.452 142.907 132.652 141.807 131.652 143.507C127.252 151.207 124.052 159.507 122.052 168.107C121.652 170.007 124.152 171.807 125.352 169.807C129.052 164.207 131.052 157.607 130.952 150.907C130.952 149.007 128.752 148.207 127.452 149.707C121.552 157.107 117.152 165.807 114.852 175.007C114.252 177.307 117.852 178.707 118.452 176.307C121.452 164.907 126.152 154.007 132.052 143.807L128.752 142.107C126.852 150.907 124.952 159.607 123.052 168.407C122.652 170.207 124.452 171.707 126.052 170.507C135.352 163.407 141.452 152.807 143.452 141.307C143.652 140.407 142.752 139.507 141.952 139.307C140.952 139.107 140.252 139.607 139.752 140.507C133.652 152.407 126.452 163.707 118.352 174.307L121.452 176.507C126.552 166.907 130.052 156.707 131.952 146.107C132.352 143.907 129.052 143.507 128.252 145.307C123.752 155.707 118.652 165.707 112.852 175.407L116.352 176.607C116.652 167.707 124.352 161.107 129.152 154.307C134.552 146.707 138.852 138.307 141.952 129.507C142.752 127.107 139.452 126.107 138.352 128.207C135.452 134.107 133.852 140.607 133.852 147.207C133.852 149.407 136.652 150.007 137.552 148.007C144.252 132.907 152.752 118.607 162.752 105.407L159.452 103.707C156.052 110.807 152.952 117.907 150.052 125.207C149.252 127.207 152.252 128.807 153.352 126.907C158.052 118.907 161.752 110.407 164.352 101.507C164.952 99.6067 162.052 97.7067 161.052 99.8067C155.552 110.507 150.052 121.107 144.552 131.807L147.852 133.507C151.452 125.007 154.952 116.407 158.352 107.707C159.452 105.107 155.852 103.807 154.952 106.107Z" fill="#AE794E"/>
<path d="M110.552 189.407C106.852 192.907 105.252 197.607 104.252 202.507C103.052 208.207 102.152 213.907 101.052 219.607C100.552 222.507 99.7517 225.607 99.9517 228.607C100.152 231.407 96.5884 273 104.252 285C111.715 285 107.42 285 113.588 285C128.125 285 111.552 256.107 110.852 253.807C109.152 248.207 107.452 242.607 105.852 237.007C105.152 234.507 113.452 239.207 113.052 236.607C112.652 233.807 121.452 219.607 113.052 219.607C121.452 212 106.552 210.207 107.652 204.707C108.452 200.207 109.652 195.507 113.052 192.207C114.852 190.707 112.352 187.807 110.552 189.407Z" fill="#AE794E"/>
<path d="M142.152 301.007L142.252 301.107C142.152 301.107 142.152 301.107 142.152 301.007Z" fill="#AE794E"/>
<path d="M283.552 252.307C284.652 253.507 285.052 255.007 285.552 256.507C286.152 258.307 287.052 259.907 288.152 261.507C290.552 264.807 293.452 267.807 296.152 271.007C297.552 272.607 300.252 270.907 299.352 268.907C296.952 264.007 294.552 259.107 292.152 254.207L288.752 255.907C290.352 258.407 292.452 260.407 294.352 262.607C295.852 264.407 297.452 266.607 297.552 269.107C297.552 270.107 298.252 271.107 299.352 271.107C300.252 271.207 301.452 270.407 301.352 269.307C301.252 266.207 299.952 263.407 298.052 261.007C296.152 258.507 293.852 256.707 292.252 254.307C291.652 253.407 290.752 252.907 289.752 253.407C288.852 253.907 288.452 255.007 288.852 255.907C291.252 260.807 293.652 265.707 296.052 270.607L299.252 268.507C296.552 265.407 293.652 262.407 291.252 259.007C290.252 257.707 289.652 256.207 289.052 254.707C288.452 252.907 287.852 251.207 286.552 249.907C285.852 249.207 284.652 249.007 283.852 249.707C283.052 250.207 282.852 251.507 283.552 252.307Z" fill="#AE794E"/>
<path d="M283.552 252.707C285.952 251.907 288.452 253.707 289.852 255.607C291.552 257.807 292.652 260.707 293.752 263.307C296.452 269.407 299.152 275.407 301.852 281.507C302.852 283.707 306.252 282.107 305.252 279.807C302.152 272.807 299.052 265.707 295.852 258.607C294.552 255.807 293.152 253.007 290.652 251.007C288.252 249.007 284.852 248.207 281.752 249.307C280.752 249.607 280.452 251.007 280.852 251.807C281.552 252.907 282.652 253.107 283.552 252.707Z" fill="#AE794E"/>
<path d="M153.176 107.111C133.576 108.811 117.076 100.011 113.376 87.2108C109.176 72.5108 122.676 55.3108 132.476 55.0108C147.076 54.5108 155.076 92.0108 155.976 96.5108" fill="#362218"/>
<path d="M220.152 69.6063C219.952 69.7063 219.752 70.0063 219.452 70.1063C220.652 69.6063 219.952 69.8063 219.652 69.9063C219.152 70.2063 218.752 70.4063 218.252 70.7063C217.252 71.2063 216.352 71.6063 215.352 72.0063C214.352 72.4063 215.452 72.0063 215.652 71.9063C215.452 72.0063 215.152 72.1063 214.852 72.1063C214.352 72.2063 213.852 72.4063 213.252 72.5063C212.152 72.8063 211.052 73.0063 210.052 73.2063C205.552 74.1063 200.952 74.4063 196.452 75.1063C191.952 75.8063 187.252 76.7063 182.952 78.7063C177.852 81.0063 174.252 84.8063 171.152 89.4063C170.252 90.7063 169.352 91.9063 168.352 93.2063C167.852 93.9063 168.952 92.6063 168.352 93.2063C168.052 93.5063 167.752 93.8063 167.452 94.1063C166.952 94.6063 166.352 95.1063 165.752 95.6063C165.152 96.1063 164.552 96.5063 163.952 97.0063C164.152 96.9063 164.852 96.5063 163.852 97.0063C163.452 97.2063 163.152 97.4063 162.752 97.6063C161.352 98.4063 159.852 99.0063 158.252 99.6063L165.452 108.006C165.652 107.706 165.952 107.406 166.252 107.206C165.952 107.506 165.952 107.506 166.252 107.206C166.652 106.706 167.152 106.206 167.552 105.706C168.352 104.906 169.152 104.106 169.852 103.306C171.552 101.606 173.352 99.9063 175.152 98.2063C178.852 94.9063 182.652 91.8063 186.652 88.8063C188.952 87.1063 189.152 83.6063 187.652 81.4063C186.052 79.0063 183.052 78.2063 180.452 79.4063C171.652 83.3063 164.752 90.0063 158.452 97.2063C152.252 104.406 145.252 112.506 140.152 121.006C137.652 125.106 135.652 129.706 132.552 133.506C132.352 133.706 131.352 134.906 131.952 134.206C131.552 134.606 131.252 135.006 130.852 135.406C129.852 136.506 128.752 137.706 127.752 138.806C126.052 140.806 124.752 143.206 123.752 145.606C121.752 150.306 120.452 155.406 118.952 160.306C117.252 165.606 115.652 170.806 113.952 176.106C112.252 181.406 110.152 186.406 109.752 191.706C109.352 197.006 110.952 202.606 115.852 205.106C118.452 206.506 121.952 206.506 123.752 203.706C125.252 201.406 125.152 197.206 122.352 195.806C122.052 195.606 121.652 195.406 121.352 195.206C120.252 194.606 122.152 196.106 121.352 195.206C120.552 194.306 121.752 196.306 121.352 195.206C120.852 194.006 121.352 195.306 121.352 195.306C121.352 195.306 121.152 194.306 121.152 194.206C120.952 192.906 121.052 194.206 121.152 194.206C120.952 194.106 121.352 191.706 121.352 191.406C121.352 191.106 121.352 190.506 121.552 190.206C120.952 191.406 121.452 190.706 121.552 190.106C121.752 189.206 122.052 188.306 122.352 187.406C123.152 184.806 123.952 182.206 124.752 179.606C126.352 174.606 127.852 169.706 129.452 164.706C130.852 160.106 132.152 155.406 133.852 150.906C134.052 150.406 134.252 149.906 134.452 149.406C134.452 149.306 135.252 147.706 134.752 148.706C135.252 147.706 135.852 146.806 136.552 146.006C136.852 145.606 137.252 145.206 137.552 144.806C138.652 143.506 136.852 145.606 138.052 144.306C139.152 143.206 140.152 142.006 141.252 140.906C144.352 137.406 146.352 133.206 148.652 129.206C153.352 121.006 159.552 113.706 165.552 106.606C166.352 105.706 167.052 104.806 167.852 103.906C168.152 103.506 168.552 103.106 168.852 102.806C169.252 102.306 169.252 102.306 168.852 102.806C169.052 102.606 169.352 102.306 169.552 102.006C171.152 100.306 172.852 98.6063 174.552 97.0063C176.252 95.4063 178.152 94.0063 180.052 92.6063C181.452 91.6063 179.052 93.1063 180.552 92.3063C181.152 92.0063 181.752 91.6063 182.352 91.3063C183.352 90.7063 184.452 90.2063 185.552 89.7063L179.352 80.2063C170.852 86.4063 163.252 93.6063 156.252 101.506C154.652 103.306 155.052 106.806 156.652 108.506C158.552 110.506 160.952 110.806 163.452 109.906C169.252 107.906 174.352 104.106 178.252 99.3063C180.052 97.1063 181.552 94.5063 183.452 92.3063C182.852 93.1063 183.952 91.8063 184.152 91.7063C184.552 91.3063 184.952 91.0063 185.352 90.7063C185.552 90.6063 186.752 89.7063 186.052 90.2063C185.352 90.6063 186.052 90.2063 186.252 90.1063C186.552 89.9063 186.852 89.8063 187.052 89.6063C187.952 89.1063 188.952 88.7063 189.852 88.3063C190.052 88.2063 190.452 88.0063 190.552 88.0063C190.452 88.0063 189.252 88.4063 190.252 88.1063C190.852 87.9063 191.352 87.8063 191.952 87.6063C194.052 87.1063 196.252 86.7063 198.452 86.4063C202.952 85.8063 207.552 85.4063 212.052 84.5063C217.752 83.5063 223.052 81.6063 227.752 78.2063C230.152 76.5063 230.352 72.3063 228.352 70.2063C225.952 67.8063 222.752 67.8063 220.152 69.6063Z" fill="#AE794E"/>
<path d="M142.552 150.606C142.652 148.106 142.952 145.706 143.352 143.206C143.552 142.006 143.152 143.806 143.452 142.506C143.552 142.006 143.752 141.406 143.852 140.906C144.152 139.806 144.452 138.706 144.852 137.706C145.552 135.406 146.452 133.206 147.452 131.006C147.852 130.006 148.352 129.006 148.852 128.006C149.452 126.806 148.552 128.506 149.152 127.406C149.452 126.906 149.752 126.306 150.052 125.706C152.352 121.606 154.852 117.706 157.752 114.006C159.152 112.206 160.552 110.406 162.152 108.706C163.352 107.406 161.452 109.506 162.652 108.206C163.052 107.806 163.352 107.406 163.752 107.006C164.652 106.106 165.552 105.206 166.452 104.406C168.652 102.306 169.252 98.7058 167.052 96.4058C165.052 94.3058 161.352 93.6058 159.052 95.8058C151.752 102.806 145.452 110.906 140.552 119.806C135.652 128.706 131.752 139.206 131.252 149.906C131.152 152.906 133.352 155.906 136.452 156.006C139.552 156.106 142.452 153.806 142.552 150.606Z" fill="#AE794E"/>
<path d="M192.852 85.0063C193.152 84.6063 193.352 84.3063 193.652 84.0063C194.352 83.1063 193.052 84.5063 193.852 83.8063C194.652 83.1063 195.352 82.4063 196.152 81.7063C196.452 81.4063 196.852 81.2063 197.152 80.9063C197.552 80.6063 198.252 80.2063 197.352 80.7063C198.252 80.2063 199.152 79.6063 200.052 79.1063C201.852 78.2063 203.652 77.4063 205.552 76.7063C205.952 76.6063 206.852 76.3063 205.952 76.6063C206.452 76.5063 206.852 76.3063 207.352 76.2063C208.452 75.9063 209.452 75.6063 210.552 75.3063C219.852 72.9063 229.552 71.6063 238.952 69.9063C245.052 68.8063 251.152 67.7063 257.252 66.6063C260.152 66.1063 262.452 62.9063 261.752 59.9063C261.052 56.9063 258.252 54.8063 255.052 55.4063C243.952 57.4063 232.752 59.4063 221.652 61.4063C212.752 63.0063 203.652 64.6063 195.452 68.7063C190.752 71.1063 186.552 74.3063 183.352 78.6063C181.552 81.0063 182.252 84.9063 184.752 86.5063C187.552 88.1063 190.852 87.5063 192.852 85.0063Z" fill="#AE794E"/>
<path d="M248.352 73.1062C248.952 72.7062 249.452 72.3062 250.052 71.9062C250.352 71.7062 250.652 71.5062 250.952 71.3062C250.452 71.6062 250.452 71.6062 251.052 71.2062C252.052 70.5062 253.152 69.9062 254.252 69.3062C255.352 68.7062 256.452 68.2062 257.552 67.7062C257.752 67.6062 259.752 67.0062 258.652 67.3062C259.152 67.2062 259.652 67.0062 260.152 66.9062C261.852 66.5062 262.552 66.5062 263.752 66.5062C265.152 66.5062 266.552 66.7062 267.952 66.9062C268.652 67.0062 268.752 67.0062 268.252 66.9062C268.652 67.0062 269.052 67.1062 269.452 67.2062C270.052 67.3062 270.652 67.5062 271.252 67.7062C272.752 68.1062 274.152 68.6062 275.652 69.1062C287.352 72.8062 299.052 76.6062 310.752 80.3062L314.652 69.6062C300.752 65.6062 286.752 61.7062 272.852 57.7062L272.052 68.7062C274.252 68.2062 276.552 67.8062 278.852 67.7062C277.752 67.8062 279.552 67.7062 279.652 67.7062C280.252 67.7062 280.752 67.7062 281.352 67.7062C282.452 67.7062 283.652 67.8062 284.752 67.9062C285.852 68.0062 287.052 68.2062 288.152 68.4062C287.152 68.2062 288.652 68.5062 288.852 68.6062C289.352 68.7062 289.752 68.8062 290.252 69.0062C292.452 69.6062 294.652 70.5062 296.752 71.4062C305.552 75.2062 314.052 79.8062 322.652 84.1062L322.052 73.6062C321.852 73.7062 321.452 73.9062 321.252 74.0062C321.552 73.8062 322.052 73.8062 321.352 74.0062C321.152 74.0062 319.952 74.2062 320.752 74.1062C321.552 74.0062 320.552 74.1062 320.352 74.1062C320.052 74.1062 319.752 74.0062 319.452 74.0062C318.652 73.9062 320.252 74.3062 319.552 74.0062C319.252 73.9062 318.952 73.8062 318.652 73.7062C318.352 73.6062 317.552 73.0062 318.552 73.7062C317.952 73.3062 317.352 72.9062 316.852 72.5062C316.452 72.2062 316.352 72.1062 316.752 72.5062C316.552 72.3062 316.252 72.0062 316.052 71.8062C314.952 70.7062 314.052 69.5062 313.152 68.3062L311.352 77.1062C311.952 76.8062 311.852 76.7062 310.852 77.0062C310.352 77.2062 309.752 77.2062 309.252 77.0062C308.152 76.7062 309.052 76.9062 309.452 77.2062C310.252 77.8062 309.252 76.9062 309.652 77.3062C309.952 77.6062 310.252 78.0062 310.552 78.3062C311.752 79.6062 313.152 80.8062 314.552 81.9062C317.352 83.9062 320.552 85.4062 323.652 86.8062C325.052 87.4062 326.452 88.1062 327.852 88.7062C328.552 89.0062 329.252 89.4062 329.952 89.7062C330.352 89.9062 328.952 89.1062 330.152 89.8062C330.452 90.0062 330.752 90.1062 331.052 90.3062C332.352 91.0062 333.452 91.9062 334.652 92.8062C335.652 93.5062 333.952 92.0062 334.752 92.8062C335.052 93.1062 335.252 93.3062 335.552 93.6062C335.852 93.9062 336.052 94.2062 336.252 94.5062C336.952 95.4062 335.652 93.5062 336.352 94.6062L345.852 88.4062C340.352 81.0062 332.552 75.5062 324.052 72.3062C321.252 71.2062 317.652 72.8062 316.752 75.7062C315.852 78.6062 317.152 81.9062 320.152 83.0062C321.152 83.4062 322.052 83.8062 323.052 84.2062C323.552 84.4062 323.952 84.6062 324.452 84.9062C323.752 84.5062 324.352 84.9062 324.752 85.1062C326.452 86.1062 328.152 87.1062 329.752 88.3062C330.552 88.8062 331.252 89.4062 331.952 90.0062C332.252 90.3062 332.752 90.8062 332.152 90.2062C332.552 90.6062 332.852 90.9062 333.252 91.2062C334.652 92.6062 335.952 94.1062 337.152 95.8062C338.852 98.1062 342.352 98.3062 344.552 96.8062C346.752 95.3062 348.052 92.0062 346.552 89.6062C342.352 82.4062 334.952 79.4062 327.652 76.1062C326.852 75.7062 326.152 75.4062 325.352 75.0062C324.752 74.7062 324.352 74.6062 325.152 74.9062C324.752 74.7062 324.352 74.4062 323.852 74.2062C323.052 73.8062 322.352 73.3062 321.652 72.8062C321.052 72.4062 320.052 71.9062 319.752 71.3062C320.352 71.8062 320.452 71.9062 319.952 71.5062L319.652 71.2062C319.352 70.8062 318.952 70.5062 318.652 70.1062C317.752 69.1062 316.752 68.1062 315.652 67.4062C312.952 65.6062 309.352 64.8062 306.452 66.6062C303.252 68.7062 302.152 72.2062 304.652 75.4062C307.352 78.9062 310.252 82.1062 314.352 83.9062C318.452 85.7062 323.352 85.8062 327.152 83.6062C329.152 82.4062 330.452 80.6062 330.352 78.1062C330.252 75.7062 328.752 74.1062 326.652 73.1062C322.052 70.8062 317.352 68.5062 312.752 66.2062C308.452 64.1062 304.152 61.8062 299.652 60.0062C290.252 56.1062 279.852 55.0062 269.852 57.3062C267.452 57.8062 265.352 59.9062 265.252 62.5062C265.152 64.9062 266.552 67.6062 269.052 68.3062C282.952 72.3062 296.952 76.2062 310.852 80.2062C313.752 81.0062 317.152 79.8062 318.152 76.8062C319.052 73.9062 317.752 70.5062 314.752 69.5062C302.252 65.5062 289.852 61.4062 277.352 57.5062C270.952 55.5062 264.052 54.0062 257.452 55.8062C251.452 57.4062 246.352 60.8062 241.252 64.3062C238.752 66.0062 238.652 70.2062 240.652 72.3062C242.752 74.9062 245.852 74.9062 248.352 73.1062Z" fill="#AE794E"/>
<path d="M325.748 232.768C334.074 231.037 338.208 217.053 334.981 201.535C331.754 186.018 322.388 174.842 314.061 176.574C305.734 178.305 301.601 192.289 304.828 207.806C308.055 223.324 317.421 234.5 325.748 232.768Z" fill="#201614"/>
<path d="M205.017 203.714C207.729 189.556 203.99 176.941 196.667 175.539C189.344 174.137 181.209 184.477 178.498 198.635C175.786 212.793 179.525 225.407 186.848 226.81C194.171 228.212 202.306 217.872 205.017 203.714Z" fill="#201614"/>
<path d="M323.447 226.963C327.036 226.899 329.915 225.147 329.878 223.048C329.841 220.95 326.901 219.301 323.312 219.365C319.723 219.429 316.843 221.181 316.881 223.28C316.918 225.378 319.858 227.027 323.447 226.963Z" fill="white"/>
<path d="M191.616 219.135C194.763 219.087 197.292 217.526 197.263 215.648C197.235 213.771 194.66 212.288 191.512 212.335C188.365 212.383 185.836 213.944 185.865 215.821C185.893 217.699 188.468 219.182 191.616 219.135Z" fill="white"/>
<path d="M376.588 113.129C396.288 112.629 411.688 102.129 413.888 88.9287C416.488 73.8287 401.088 58.3287 391.388 59.0287C376.788 60.2287 372.988 98.3287 372.588 102.929" fill="#362218"/>
<path d="M302.688 280.525C293.388 297.025 268.488 297.625 255.988 297.625C244.188 297.625 217.788 296.325 207.188 278.325C199.688 265.625 202.388 253.825 204.088 250.125C211.388 233.425 230.988 219.325 254.188 220.025C282.288 220.925 296.888 242.825 298.988 246.025C301.788 250.325 310.988 266.025 302.688 280.525Z" fill="#746155"/>
<path d="M295.188 258.925C297.088 258.925 297.088 255.925 295.188 255.925C293.288 255.925 293.288 258.925 295.188 258.925Z" fill="#201614"/>
<path d="M291.188 269.725C293.088 269.725 293.088 266.725 291.188 266.725C289.288 266.725 289.288 269.725 291.188 269.725Z" fill="#201614"/>
<path d="M208.389 253.425C210.289 253.425 210.289 250.425 208.389 250.425C206.489 250.425 206.389 253.425 208.389 253.425Z" fill="#201614"/>
<path d="M210.589 263.525C212.489 263.525 212.489 260.525 210.589 260.525C208.689 260.525 208.689 263.525 210.589 263.525Z" fill="#201614"/>
<path d="M237.67 253.7C241.07 248 250.87 248 255.37 248C259.57 248 270.17 248.1 273.97 254.4C276.67 258.9 274.37 263.9 273.77 265.2C271.07 271 264.07 275.9 255.77 275.6C245.67 275.2 240.47 267.6 239.67 266.4C238.77 264.9 234.67 258.7 237.67 253.7Z" fill="#201614"/>
<path opacity="0.67" d="M202.389 255.425C195.789 252.625 125.589 240.625 109.789 255.325" stroke="#201614" stroke-miterlimit="10"/>
<path opacity="0.67" d="M204.088 259.225C197.188 257.125 111.488 253.425 94.5884 264.125" stroke="#201614" stroke-miterlimit="10"/>
<path opacity="0.67" d="M302.488 256.625C308.788 253.325 361.488 240.125 378.388 253.425" stroke="#201614" stroke-miterlimit="10"/>
<path opacity="0.67" d="M304.188 261.025C310.988 258.625 382.688 251.225 397.988 266.925" stroke="#201614" stroke-miterlimit="10"/>
<path opacity="0.67" d="M204.088 251.525C197.988 247.725 146.588 230.425 128.688 242.325" stroke="#201614" stroke-miterlimit="10"/>
<path d="M264.645 252.11C264.68 251.116 262.694 250.241 260.21 250.155C257.726 250.069 255.685 250.805 255.651 251.799C255.616 252.792 257.602 253.667 260.086 253.753C262.569 253.839 264.611 253.103 264.645 252.11Z" fill="white"/>
<path d="M301.188 264.925C303.088 264.925 303.088 261.925 301.188 261.925C299.288 261.925 299.288 264.925 301.188 264.925Z" fill="#201614"/>
<path d="M204.189 260.925C206.089 260.925 206.089 257.925 204.189 257.925C202.289 257.925 202.289 260.925 204.189 260.925Z" fill="#201614"/>
<path opacity="0.67" d="M304.588 263.125C310.888 262.325 385.088 272.225 397.488 284.125" stroke="#201614" stroke-miterlimit="10"/>
<path d="M383.724 293.975C380.889 313.126 397.995 334.197 416.161 341.341C436.716 349.365 466.686 342.47 473.843 316.698C480.959 290.835 460.494 262.724 441.001 257.954C431.055 255.496 422.52 259.436 414.481 263.256C405.179 267.44 386.426 276.207 383.724 293.975Z" fill="#5B362B"/>
<path d="M442.119 280.898C443.774 279.473 445.562 278.097 447.434 276.903L445.381 278.181C447.937 276.56 450.668 275.08 453.559 274.186L451.254 274.919C451.932 274.716 452.56 274.647 453.189 274.577L450.814 274.682C451.261 274.695 451.618 274.751 452.065 274.765L449.844 274.249C450.465 274.402 450.996 274.598 451.569 274.884L449.543 273.837C450.465 274.402 451.296 275.01 452.037 275.659L450.298 274.039C453.559 277.049 456.451 280.45 458.973 284.243L457.694 282.189C459.783 285.521 461.508 289.02 462.647 292.68L461.913 290.375C462.765 293.175 463.254 296.144 463.387 299.056L463.282 296.682C463.296 299.098 463.045 301.417 462.57 303.729L463.087 301.508C462.528 303.638 461.837 305.719 460.88 307.703L461.928 305.677C460.978 307.437 459.895 309.149 458.506 310.671L460.126 308.932C458.967 310.238 457.591 311.314 456.173 312.299L458.226 311.021C456.948 311.831 455.586 312.459 454.141 312.906L465.267 326.274C473.124 315.378 477.244 300.92 474.08 287.622C472.466 280.547 469.281 273.647 464.168 268.297C459.055 262.948 452.371 259.204 444.8 258.073C437.229 256.942 428.792 259.184 423.037 264.374C419.72 267.447 418.854 272.252 421.376 276.045C423.681 279.607 428.765 281.555 432.635 279.439C435.456 277.916 438.236 276.302 441.057 274.78C443.879 273.257 446.484 271.504 449.466 270.568L447.161 271.301C448.062 271.106 448.963 270.91 449.948 270.896L447.574 271.001C448.558 270.987 449.494 271.106 450.381 271.357L448.16 270.84C449.403 271.148 450.507 271.629 451.61 272.111L449.585 271.064C451.303 271.923 452.833 273.089 454.272 274.297L452.533 272.677C454.879 274.898 456.905 277.377 458.7 280.073L457.422 278.02C460.83 283.495 463.149 289.474 465.105 295.62L464.372 293.315C465.51 296.975 466.418 300.851 466.565 304.748L466.46 302.374C466.488 304.343 466.335 306.397 465.916 308.352L466.433 306.131C466.014 308.087 465.329 309.945 464.379 311.705L465.427 309.679C464.428 311.572 463.164 313.367 461.684 314.932L463.304 313.192C461.174 315.497 458.785 317.481 456.048 319.185L458.101 317.907C454.588 320.079 450.684 321.881 446.752 323.146L449.056 322.412C447.52 322.901 445.99 323.167 444.377 323.251L446.752 323.146C445.767 323.16 444.873 323.132 443.986 322.88L446.207 323.397C445.585 323.244 445.054 323.048 444.524 322.853L446.549 323.9C446.109 323.663 445.669 323.425 445.278 323.055L447.017 324.675C446.584 324.214 446.151 323.753 445.809 323.251C444.656 321.47 441.786 320.261 439.823 320.066C437.637 319.864 434.794 320.625 433.181 322.141C431.568 323.656 430.115 325.759 429.996 328.126L430.101 330.501C430.409 332.121 431.079 333.574 432.113 334.859C435.57 340.202 442.506 341.626 448.345 340.914C452.654 340.467 457.054 338.546 460.958 336.744C465.093 334.725 469.109 332.21 472.468 329.228C476.379 325.771 479.368 321.748 481.575 316.984C486.464 306.577 483.781 295.039 480.163 284.815C476.545 274.59 471.278 264.134 462.17 257.765C459.411 255.844 456.415 254.364 453.125 253.68C449.04 252.702 445.268 253.121 441.287 254.518C438.437 255.503 435.832 257.256 433.192 258.695C430.552 260.134 427.731 261.657 424.951 263.27L434.548 278.335C435.24 277.685 435.973 277.127 436.748 276.659L434.695 277.937C436.064 277.085 437.516 276.414 438.962 275.967L436.657 276.701C438.194 276.212 439.765 276.037 441.379 275.953L439.004 276.058C440.841 275.981 442.713 276.218 444.626 276.547L442.405 276.03C444.27 276.491 446.128 277.175 447.846 278.034L445.821 276.987C447.581 277.936 449.243 279.152 450.766 280.541L449.027 278.921C450.898 280.59 452.491 282.609 453.811 284.753L452.533 282.699C454.153 285.256 455.369 287.889 456.263 290.78L455.529 288.475C456.465 291.458 456.954 294.426 457.08 297.562L456.975 295.187C457.011 298.365 456.731 301.578 456.054 304.644L456.571 302.423C455.789 305.978 454.385 309.379 452.716 312.683L453.763 310.658C452.765 312.55 451.542 314.436 450.278 316.231C448.078 319.339 448.149 324.263 450.831 327.21C451.913 328.363 453.184 329.208 454.595 329.878C456.893 330.8 459.233 330.381 461.496 329.557C467.642 327.601 473.124 322.537 476.162 316.95C478.111 313.297 479.382 309.846 480.269 305.802C481.002 302.38 481.064 298.937 480.862 295.396C480.407 288.446 477.942 281.434 474.233 275.547C472.186 272.306 470.049 269.107 467.5 266.209C464.559 262.94 461.304 259.707 457.288 257.926C452.169 255.663 446.749 257.284 441.979 259.596C437.844 261.614 433.87 264.22 430.329 267.286C426.788 270.352 425.929 276.366 429.261 280.004C432.593 283.643 438.257 284.223 442.119 280.898Z" fill="#5B362B"/>
<path d="M401.653 291.537C401.618 291.222 401.541 290.817 401.597 290.461L401.625 292.431C401.646 291.76 401.757 291.048 401.778 290.377C401.471 291.621 401.415 291.977 401.618 291.222L401.674 290.866C401.729 290.51 401.918 290.203 401.974 289.847C402.03 289.49 402.218 289.183 402.407 288.876C402.938 287.639 401.555 290.37 402.169 289.316C402.637 288.659 402.972 287.954 403.44 287.297C405.452 284.496 407.812 281.975 410.131 279.363L408.832 280.843C411.381 278.015 414.063 275.235 416.787 272.546C419.511 269.857 422.102 267.119 425.251 265.114L423.561 266.225C425.021 265.331 426.565 264.618 428.192 264.087L426.25 264.653C428.646 263.878 431.16 263.598 433.716 263.41L431.747 263.438C436.315 263.312 440.945 264.038 445.576 264.764C449.403 265.42 453.587 261.837 453.796 257.996C454.019 253.708 451.212 250.488 447.028 249.776C441.685 248.938 436.516 248.24 431.139 248.519C425.223 248.827 419.796 250.671 414.949 254.01C410.696 256.964 407.169 261.015 403.565 264.661C399.773 268.614 395.981 272.568 392.579 276.891C388.668 281.78 386.252 287.521 386.86 293.849C387.321 297.711 391.652 300.889 395.437 300.023C399.621 299.303 402.149 295.713 401.653 291.537Z" fill="#5B362B"/>
<path d="M397.428 313.642C402.114 312.58 409.651 323.42 411.928 333.603C413.311 339.463 414.017 349.82 410.169 351.266C405.825 352.831 395.564 343.249 393.273 332.081C391.722 324.426 393.419 314.501 397.428 313.642Z" fill="#362118"/>
<path d="M422.858 321.729C418.646 320.479 411.104 334.203 408.331 347.048C406.76 354.381 405.462 367.316 408.989 368.992C412.914 370.815 422.915 358.599 425.68 344.546C427.496 335.118 426.448 322.825 422.858 321.729Z" fill="#362118"/>
<path d="M440.71 323.181C437.609 320.758 428.411 335.907 423.334 350.917C420.471 359.508 416.497 374.999 418.914 377.848C421.68 380.977 432.414 368.203 437.806 351.726C441.423 340.474 443.42 325.235 440.71 323.181Z" fill="#362118"/>
<path d="M454.085 326.149C450.774 324.704 439.684 334.559 438.148 349.366C437.645 354.003 437.994 355.714 436.759 366.638C436.759 366.638 436.326 370.472 436.773 376.213C436.871 377.38 437.15 379.894 438.498 382.576C439.302 384.078 439.672 385.118 440.126 384.909C445.958 382.988 445.971 368.223 452.061 352.305C457.899 337.275 458.855 328.132 454.085 326.149Z" fill="#362118"/>
<path d="M473.857 321.978C473.082 316.719 457.787 335.123 453.094 349.295C450.426 357.355 448.276 377.511 451.789 373.907C455.763 369.87 463.404 361.607 468.229 346.053C471.595 335.688 474.738 328.18 473.857 321.978Z" fill="#362118"/>
<path d="M130.953 283.935C132.706 303.215 114.442 323.29 95.9024 329.401C74.9284 336.256 45.3944 327.686 39.698 301.552C34.0485 275.329 56.0628 248.414 75.7937 244.749C85.862 242.855 94.1615 247.268 101.973 251.535C111.025 256.236 129.255 266.043 130.953 283.935Z" fill="#5B362B"/>
<path d="M73.386 267.593C71.8136 266.077 70.1059 264.603 68.3043 263.305L70.2825 264.697C67.8215 262.935 65.1784 261.303 62.3418 260.248L64.6017 261.11C63.9367 260.869 63.313 260.764 62.6894 260.659L65.0543 260.897C64.6072 260.886 64.2485 260.922 63.8014 260.911L66.048 260.52C65.4188 260.638 64.8778 260.804 64.2898 261.057L66.3711 260.125C65.4187 260.638 64.5547 261.198 63.779 261.805L65.6066 260.285C62.1806 263.107 59.1021 266.34 56.3712 269.984L57.763 268.006C55.4904 271.215 53.571 274.611 52.2283 278.201L53.0902 275.941C52.0818 278.69 51.4266 281.626 51.1301 284.526L51.3684 282.161C51.2184 284.573 51.3388 286.902 51.6828 289.237L51.2918 286.991C51.7298 289.149 52.303 291.266 53.1467 293.3L52.2147 291.219C53.0639 293.03 54.0484 294.799 55.3504 296.397L53.8305 294.57C54.9145 295.939 56.2277 297.09 57.5878 298.154L55.6096 296.762C56.8401 297.643 58.1645 298.347 59.5828 298.875L47.7218 311.595C40.4904 300.274 37.1902 285.608 41.0978 272.509C43.107 265.536 46.6754 258.826 52.081 253.772C57.4866 248.718 64.3707 245.357 71.9934 244.654C79.6161 243.95 87.9135 246.664 93.3673 252.169C96.5065 255.424 97.1007 260.27 94.3698 263.915C91.8681 267.341 86.6818 269.001 82.9378 266.67C80.2063 264.991 77.5219 263.223 74.7904 261.544C72.059 259.865 69.5566 257.968 66.6318 256.866L68.8917 257.728C68.0031 257.482 67.1146 257.236 66.1322 257.167L68.4972 257.405C67.5147 257.336 66.5736 257.401 65.6738 257.603L67.9205 257.212C66.6619 257.448 65.533 257.867 64.4041 258.286L66.4853 257.354C64.7215 258.115 63.1288 259.194 61.6243 260.319L63.4518 258.799C60.9837 260.885 58.8218 263.246 56.8779 265.837L58.2697 263.859C54.5585 269.134 51.9067 274.972 49.6082 280.999L50.4701 278.739C49.1274 282.328 48.0027 286.148 47.6368 290.03L47.8751 287.665C47.7363 289.63 47.7741 291.689 48.0824 293.665L47.6914 291.418C47.9997 293.395 48.5785 295.288 49.4277 297.099L48.4958 295.018C49.3864 296.963 50.5474 298.827 51.9377 300.472L50.4178 298.645C52.4149 301.066 54.688 303.181 57.3256 305.036L55.3474 303.644C58.7326 306.011 62.5292 308.03 66.3839 309.513L64.1241 308.651C65.6306 309.226 67.1429 309.577 68.749 309.752L66.3839 309.513C67.3664 309.583 68.2606 309.605 69.1603 309.404L66.9137 309.795C67.5429 309.677 68.084 309.511 68.6249 309.346L66.5437 310.278C66.9964 310.066 67.4491 309.853 67.8605 309.506L66.0329 311.026C66.4912 310.59 66.9494 310.154 67.3194 309.671C68.5703 307.958 71.5043 306.913 73.4748 306.828C75.6688 306.749 78.4641 307.669 79.9896 309.273C81.515 310.877 82.8471 313.058 82.8324 315.429L82.5941 317.794C82.196 319.394 81.4448 320.807 80.3404 322.032C76.5878 327.172 69.5831 328.204 63.7936 327.164C59.5163 326.475 55.2314 324.309 51.4348 322.29C47.4203 320.042 43.5523 317.306 40.3661 314.139C36.6557 310.467 33.8977 306.282 31.9623 301.402C27.667 290.737 30.9943 279.368 35.1822 269.363C39.37 259.358 45.2166 249.216 54.6683 243.369C57.5309 241.606 60.6058 240.297 63.9287 239.799C68.0631 239.053 71.8051 239.683 75.7012 241.302C78.4908 242.446 80.9931 244.343 83.548 245.928C86.1028 247.513 88.8343 249.192 91.5188 250.959L81.0893 265.46C80.4355 264.773 79.7348 264.174 78.9871 263.663L80.9652 265.055C79.6465 264.127 78.2338 263.376 76.8156 262.848L79.0755 263.71C77.5689 263.135 76.0096 262.872 74.4035 262.698L76.7686 262.936C74.939 262.756 73.0568 262.888 71.1276 263.108L73.3742 262.717C71.4864 263.072 69.5929 263.651 67.8292 264.412L69.9104 263.48C68.0997 264.329 66.3716 265.449 64.7732 266.751L66.6008 265.231C64.638 266.792 62.9344 268.718 61.4957 270.784L62.8875 268.806C61.1258 271.267 59.7642 273.827 58.7088 276.664L59.5707 274.404C58.4684 277.329 57.8132 280.265 57.5111 283.389L57.7493 281.024C57.5355 284.195 57.6336 287.418 58.1374 290.518L57.7464 288.271C58.3272 291.864 59.5374 295.339 61.018 298.732L60.086 296.65C60.9766 298.596 62.0907 300.548 63.2518 302.411C65.2734 305.638 64.9264 310.551 62.0827 313.342C60.937 314.432 59.6203 315.204 58.174 315.794C55.8279 316.585 53.5154 316.035 51.3025 315.085C45.2762 312.786 40.0873 307.422 37.3686 301.672C35.6287 297.916 34.5539 294.399 33.8959 290.312C33.3565 286.854 33.4876 283.412 33.8892 279.888C34.7337 272.975 37.59 266.113 41.6243 260.443C43.8499 257.323 46.1639 254.25 48.8723 251.499C51.9921 248.401 55.4236 245.356 59.5335 243.804C64.7723 241.833 70.0924 243.756 74.7249 246.333C78.7394 248.581 82.5604 251.406 85.9232 254.666C89.286 257.927 89.8052 263.979 86.2741 267.425C82.743 270.87 77.055 271.13 73.386 267.593Z" fill="#5B362B"/>
<path d="M113.19 280.492C113.243 280.18 113.342 279.78 113.306 279.421L113.167 281.386C113.184 280.715 113.113 279.998 113.13 279.327C113.366 280.586 113.402 280.945 113.242 280.18L113.207 279.821C113.171 279.463 113 279.145 112.964 278.786C112.929 278.428 112.758 278.11 112.587 277.793C112.126 276.529 113.353 279.333 112.799 278.245C112.369 277.564 112.074 276.84 111.644 276.159C109.793 273.249 107.578 270.599 105.41 267.86L106.624 269.412C104.238 266.444 101.716 263.518 99.1482 260.68C96.5801 257.841 94.1472 254.962 91.1152 252.783L92.7402 253.987C91.3331 253.013 89.832 252.214 88.2372 251.593L90.1439 252.267C87.7957 251.358 85.3011 250.938 82.7596 250.605L84.7244 250.744C80.171 250.361 75.5068 250.826 70.8427 251.29C66.9844 251.73 63.0092 247.918 63.0163 244.07C63.0346 239.776 66.0191 236.72 70.2362 236.244C75.6179 235.708 80.8174 235.302 86.1711 235.884C92.0601 236.523 97.3744 238.67 102.026 242.276C106.106 245.465 109.4 249.708 112.793 253.551C116.356 257.712 119.92 261.872 123.073 266.38C126.703 271.481 128.792 277.349 127.829 283.633C127.151 287.463 122.649 290.392 118.918 289.314C114.782 288.361 112.46 284.634 113.19 280.492Z" fill="#5B362B"/>
<path d="M116.164 302.801C111.545 301.477 103.41 311.875 100.563 321.914C98.8528 327.686 97.5653 337.988 101.326 339.648C105.575 341.455 116.359 332.465 119.275 321.444C121.254 313.888 120.118 303.884 116.164 302.801Z" fill="#362118"/>
<path d="M90.3193 309.444C94.5945 308.433 101.353 322.56 103.398 335.54C104.554 342.95 105.123 355.938 101.507 357.413C97.4854 359.012 88.1875 346.252 86.2174 332.066C84.9352 322.55 86.6733 310.336 90.3193 309.444Z" fill="#362118"/>
<path d="M72.4139 309.889C75.6465 307.644 83.9773 323.287 88.2017 338.558C90.577 347.296 93.6726 362.987 91.0994 365.696C88.1619 368.664 78.1632 355.306 73.7075 338.552C70.7289 327.115 69.5927 311.786 72.4139 309.889Z" fill="#362118"/>
<path d="M58.8928 312.1C62.2795 310.842 72.7981 321.306 73.4985 336.176C73.7395 340.835 73.2945 342.523 73.9137 353.499C73.9137 353.499 74.1301 357.352 73.3606 363.059C73.1973 364.218 72.7768 366.712 71.2799 369.314C70.3935 370.768 69.9653 371.786 69.5238 371.551C63.8093 369.305 64.6267 354.563 59.4423 338.328C54.459 322.993 54.0184 313.811 58.8928 312.1Z" fill="#362118"/>
<path d="M39.3867 306.824C40.4568 301.617 54.692 320.853 58.5801 335.265C60.79 343.463 61.8029 363.709 58.4983 359.913C54.7578 355.658 47.5942 346.979 43.6515 331.178C40.874 320.64 38.1589 312.967 39.3867 306.824Z" fill="#362118"/>
<path d="M396.231 131.385C390.535 131.385 385.874 127.689 385.874 123.173V108.803C385.874 64.4602 348.588 25.045 297.838 12.3171V7.80077C297.838 3.69494 293.177 0 287.999 0H235.177C229.999 0 225.338 3.69539 225.338 7.80077V12.3171C174.588 24.6346 137.302 62.4075 137.302 106.75V123.173C137.302 127.689 132.641 131.385 126.945 131.385H116.588V156.019H406.588V131.385H396.231Z" fill="#F4BA48"/>
<path d="M349.624 135.491H173.552C170.445 135.491 168.374 133.849 168.374 131.385C168.374 128.922 170.445 127.279 173.552 127.279H349.624C352.731 127.279 354.802 128.922 354.802 131.385C354.802 133.849 352.731 135.491 349.624 135.491Z" fill="#B58024"/>
<path d="M297.838 36.952C294.731 36.952 292.66 35.3097 292.66 32.8461V16.4232C292.66 13.9596 294.731 12.3174 297.838 12.3174C300.946 12.3174 303.017 13.9596 303.017 16.4232V32.8461C303.017 35.3097 300.946 36.952 297.838 36.952Z" fill="#B58024"/>
<path d="M225.338 36.952C222.231 36.952 220.16 35.3097 220.16 32.8461V16.4232C220.16 13.9596 222.231 12.3174 225.338 12.3174C228.446 12.3174 230.517 13.9596 230.517 16.4232V32.8461C230.517 35.3097 228.446 36.952 225.338 36.952Z" fill="#B58024"/>
<path d="M261.588 57.4808C258.481 57.4808 256.41 55.8386 256.41 53.375V4.10584C256.41 1.64224 258.481 0 261.588 0C264.696 0 266.767 1.64224 266.767 4.10584V53.375C266.767 55.4277 264.696 57.4808 261.588 57.4808Z" fill="#B58024"/>
<path d="M327.356 23.8135L308.195 69.7981L365.678 54.6066C355.839 42.2895 342.892 31.6147 327.356 23.8135Z" fill="#B58024"/>
<path d="M195.82 23.8135L214.981 69.7981L157.499 54.607C167.338 42.2895 180.284 31.6147 195.82 23.8135Z" fill="#B58024"/>
</svg>
